G04 #@! TF.GenerationSoftware,KiCad,Pcbnew,5.1.5*
G04 #@! TF.CreationDate,2020-05-30T15:01:55+02:00*
G04 #@! TF.ProjectId,VCOMLCD,56434f4d-4c43-4442-9e6b-696361645f70,rev?*
G04 #@! TF.SameCoordinates,Original*
G04 #@! TF.FileFunction,Copper,L2,Bot*
G04 #@! TF.FilePolarity,Positive*
%FSLAX46Y46*%
G04 Gerber Fmt 4.6, Leading zero omitted, Abs format (unit mm)*
G04 Created by KiCad (PCBNEW 5.1.5) date 2020-05-30 15:01:55*
%MOMM*%
%LPD*%
G04 APERTURE LIST*
%ADD10C,1.550000*%
%ADD11R,1.550000X1.550000*%
%ADD12C,1.450000*%
%ADD13O,1.900000X1.200000*%
%ADD14C,3.000000*%
%ADD15R,3.000000X3.000000*%
%ADD16R,1.700000X1.700000*%
%ADD17O,1.700000X1.700000*%
%ADD18O,1.800000X2.600000*%
%ADD19R,1.800000X2.600000*%
%ADD20R,5.000000X8.000000*%
%ADD21C,2.100000*%
%ADD22C,1.750000*%
%ADD23C,3.200000*%
%ADD24C,0.800000*%
%ADD25C,1.000000*%
%ADD26C,0.250000*%
%ADD27C,0.500000*%
%ADD28C,0.254000*%
G04 APERTURE END LIST*
D10*
X111250000Y-57750000D03*
D11*
X116250000Y-55250000D03*
D10*
X116250000Y-60250000D03*
D12*
X54200000Y-56750000D03*
X54200000Y-61750000D03*
D13*
X51500000Y-55750000D03*
X51500000Y-62750000D03*
D14*
X52000000Y-71830000D03*
D15*
X52000000Y-66750000D03*
D16*
X120000000Y-80750000D03*
D17*
X117460000Y-80250000D03*
X120000000Y-78250000D03*
X117460000Y-77750000D03*
X78280000Y-81000000D03*
X75740000Y-80500000D03*
X73200000Y-81000000D03*
X70660000Y-80500000D03*
X68120000Y-81000000D03*
X65580000Y-80500000D03*
X63040000Y-81000000D03*
D16*
X60500000Y-80500000D03*
D14*
X51500000Y-50570000D03*
X51500520Y-81570700D03*
X126499100Y-81570700D03*
X126499100Y-50570000D03*
D18*
X82900000Y-50570000D03*
X85440000Y-50570000D03*
X87980000Y-50570000D03*
X90520000Y-50570000D03*
X93060000Y-50570000D03*
X95600000Y-50570000D03*
X98140000Y-50570000D03*
X100680000Y-50570000D03*
X103220000Y-50570000D03*
X105760000Y-50570000D03*
X108300000Y-50570000D03*
X110840000Y-50570000D03*
X113380000Y-50570000D03*
X115920000Y-50570000D03*
X118460000Y-50570000D03*
D19*
X121000000Y-50570000D03*
D20*
X52500000Y-93000000D03*
X125500000Y-93000000D03*
D17*
X78280000Y-78500000D03*
X75740000Y-78000000D03*
X73200000Y-78500000D03*
X70660000Y-78000000D03*
X68120000Y-78500000D03*
X65580000Y-78000000D03*
X63040000Y-78500000D03*
D16*
X60500000Y-78000000D03*
D21*
X123760000Y-63260000D03*
D22*
X126250000Y-62000000D03*
X126250000Y-57500000D03*
D21*
X123760000Y-56250000D03*
D23*
X89000000Y-79500000D03*
D24*
X97750000Y-61000000D03*
X72250000Y-58250000D03*
X74250000Y-58250000D03*
X73250000Y-59500000D03*
X72250000Y-60750000D03*
X73250000Y-62000000D03*
X97750000Y-63250000D03*
X99000000Y-60000000D03*
X101000000Y-60000000D03*
X103000000Y-60000000D03*
X63000000Y-71000000D03*
X62981111Y-75296143D03*
X99206111Y-64514025D03*
X60800000Y-73100000D03*
X79900000Y-68900000D03*
X55900000Y-66500000D03*
X112708779Y-69647108D03*
X87000000Y-73100000D03*
X90200000Y-72900000D03*
X55900000Y-72300000D03*
X96700000Y-55800000D03*
X124200000Y-70600000D03*
X78200000Y-55500000D03*
X66800000Y-59300000D03*
X70500000Y-63000000D03*
X66700000Y-66600000D03*
X61200000Y-55000000D03*
X64000000Y-55000000D03*
X66750000Y-55000000D03*
X94000000Y-56250000D03*
X81250000Y-56500000D03*
X88500000Y-57250000D03*
X86750000Y-57250000D03*
X85750000Y-66250000D03*
X87250000Y-66250000D03*
X88750000Y-66250000D03*
X104500000Y-62500000D03*
X103500000Y-69250000D03*
X103721570Y-65979960D03*
X99250000Y-66000000D03*
X96750000Y-68250000D03*
X104500000Y-55750000D03*
X92750000Y-53000000D03*
X107750000Y-57000000D03*
X104250000Y-61000000D03*
X104250000Y-64000000D03*
X111820240Y-69674447D03*
X63150000Y-62250000D03*
X53900000Y-54600000D03*
X79500000Y-54550000D03*
X116200000Y-66600000D03*
X116200000Y-65400000D03*
X117800000Y-66600000D03*
X119600000Y-74800000D03*
X74200000Y-55000000D03*
X71600000Y-55000000D03*
X69200000Y-55000000D03*
X101750000Y-70500000D03*
X103000000Y-70500000D03*
X101250000Y-79750000D03*
X110144775Y-72881622D03*
X110144775Y-73868100D03*
X107000000Y-76500000D03*
X107000000Y-77500000D03*
X111750000Y-80250000D03*
X112250000Y-79250000D03*
X112000000Y-81500000D03*
X113500000Y-79250000D03*
X60300000Y-75500000D03*
X72400000Y-75400000D03*
X74300000Y-75400000D03*
X78700000Y-76300000D03*
X80300000Y-81500000D03*
X80471701Y-80409220D03*
X55900000Y-69800000D03*
X54200000Y-69700000D03*
X85000000Y-82000000D03*
X55750000Y-79750000D03*
X69700000Y-75100000D03*
X68106653Y-69688900D03*
X65040381Y-71126497D03*
X119600000Y-69800000D03*
X124100000Y-74300000D03*
X124100000Y-75700000D03*
X124100000Y-68700000D03*
X83843879Y-78768998D03*
X79917011Y-75136247D03*
X69197845Y-69674542D03*
X70900000Y-75100000D03*
X61100000Y-66150000D03*
X61600000Y-67200000D03*
X61050000Y-68200000D03*
X61550000Y-69250000D03*
X61050000Y-70150000D03*
X61550000Y-71150000D03*
X108700000Y-61200000D03*
X108500000Y-64600000D03*
X98957141Y-74734671D03*
X96857032Y-72239087D03*
X103000000Y-75250000D03*
X102000000Y-75250000D03*
X101250000Y-71750000D03*
X102250000Y-71750000D03*
X74000000Y-67700000D03*
X85400000Y-78800000D03*
X74000000Y-68900000D03*
X61700000Y-65150000D03*
X64859921Y-67351465D03*
X84500000Y-77900000D03*
X110300000Y-70800000D03*
X74000000Y-70100000D03*
X108715959Y-73107881D03*
X83300000Y-77900000D03*
X115750000Y-57500000D03*
X102750000Y-81750000D03*
D25*
X62981111Y-75296143D02*
X63000000Y-75277254D01*
X63000000Y-75277254D02*
X63000000Y-71000000D01*
D26*
X73200000Y-78250000D02*
X73200000Y-78700000D01*
X75740000Y-78250000D02*
X75950000Y-78250000D01*
D25*
X79000000Y-78500000D02*
X78280000Y-78500000D01*
X80471701Y-80409220D02*
X80471701Y-81328299D01*
X80471701Y-81328299D02*
X80300000Y-81500000D01*
X80471701Y-80409220D02*
X80471701Y-79971701D01*
X80471701Y-79971701D02*
X79000000Y-78500000D01*
D26*
X123400000Y-85900000D02*
X123400000Y-85800000D01*
X123400000Y-85800000D02*
X124000000Y-85200000D01*
X124000000Y-85200000D02*
X124000000Y-82900000D01*
X127000000Y-87700000D02*
X127000000Y-86400000D01*
X126250000Y-88450000D02*
X126250000Y-88350000D01*
X126250000Y-88450000D02*
X127000000Y-87700000D01*
X126250000Y-88350000D02*
X125100000Y-87200000D01*
X125100000Y-86300000D02*
X124000000Y-85200000D01*
X125100000Y-87200000D02*
X125100000Y-86300000D01*
X125500000Y-93000000D02*
X125500000Y-91500000D01*
X126250000Y-90750000D02*
X126250000Y-88450000D01*
X125500000Y-91500000D02*
X126250000Y-90750000D01*
X124000000Y-86500000D02*
X123400000Y-85900000D01*
X124000000Y-90200000D02*
X124000000Y-86500000D01*
X125500000Y-93000000D02*
X125500000Y-91700000D01*
X125500000Y-91700000D02*
X124000000Y-90200000D01*
X123000000Y-82300000D02*
X122400000Y-81700000D01*
X123000000Y-85500000D02*
X123000000Y-82300000D01*
X123400000Y-85900000D02*
X123000000Y-85500000D01*
X124000000Y-81900000D02*
X123100000Y-81000000D01*
X124000000Y-82900000D02*
X124000000Y-81900000D01*
D25*
X122400000Y-81700000D02*
X123100000Y-81000000D01*
D26*
X126600000Y-86400000D02*
X127000000Y-86400000D01*
X125000000Y-84800000D02*
X126600000Y-86400000D01*
X124000000Y-82900000D02*
X124550000Y-82900000D01*
X125000000Y-83350000D02*
X125000000Y-84800000D01*
X124550000Y-82900000D02*
X125000000Y-83350000D01*
D25*
X126100000Y-78000000D02*
X128000000Y-78000000D01*
X123100000Y-81000000D02*
X126100000Y-78000000D01*
D26*
X128250000Y-78100000D02*
X128250000Y-77900000D01*
X128500000Y-78350000D02*
X128250000Y-78100000D01*
X127000000Y-85600000D02*
X128000000Y-84600000D01*
X127000000Y-86400000D02*
X127000000Y-85600000D01*
X128250000Y-77900000D02*
X126200000Y-77900000D01*
X128000000Y-83250000D02*
X128500000Y-82750000D01*
X128000000Y-84600000D02*
X128000000Y-83250000D01*
X128500000Y-82750000D02*
X128500000Y-78350000D01*
D25*
X120950000Y-81700000D02*
X122400000Y-81700000D01*
X120000000Y-80750000D02*
X120950000Y-81700000D01*
D26*
X54300000Y-69800000D02*
X55900000Y-69800000D01*
X54200000Y-69700000D02*
X54300000Y-69800000D01*
X84645628Y-82354372D02*
X85000000Y-82000000D01*
X57854372Y-82354372D02*
X84645628Y-82354372D01*
X55750000Y-79750000D02*
X55750000Y-80250000D01*
X55750000Y-80250000D02*
X57854372Y-82354372D01*
X68312357Y-69894604D02*
X68106653Y-69688900D01*
X68312357Y-73496568D02*
X68312357Y-69894604D01*
X69700000Y-75100000D02*
X69700000Y-74884211D01*
X69700000Y-74884211D02*
X68312357Y-73496568D01*
X65580000Y-76720000D02*
X65580000Y-78000000D01*
X65040381Y-71126497D02*
X65100000Y-71186116D01*
X65100000Y-76240000D02*
X65580000Y-76720000D01*
X65100000Y-71186116D02*
X65100000Y-76240000D01*
X124100000Y-72800000D02*
X121600000Y-70300000D01*
X124100000Y-74300000D02*
X124100000Y-72800000D01*
X120100000Y-70300000D02*
X119600000Y-69800000D01*
X121600000Y-70300000D02*
X120100000Y-70300000D01*
X125200000Y-74600000D02*
X124100000Y-75700000D01*
X125200000Y-69800000D02*
X125200000Y-74600000D01*
X124900000Y-69500000D02*
X125200000Y-69800000D01*
X124100000Y-68700000D02*
X124900000Y-69500000D01*
X83064865Y-78768998D02*
X83843879Y-78768998D01*
X82325596Y-77091733D02*
X82325596Y-78029729D01*
X79917011Y-75136247D02*
X80370110Y-75136247D01*
X80370110Y-75136247D02*
X82325596Y-77091733D01*
X82325596Y-78029729D02*
X83064865Y-78768998D01*
X70660000Y-78162025D02*
X70660000Y-78250000D01*
X68977845Y-73015318D02*
X68977845Y-69894542D01*
X68977845Y-69894542D02*
X69197845Y-69674542D01*
X70878230Y-74915703D02*
X68977845Y-73015318D01*
X70900000Y-75100000D02*
X70878230Y-75078230D01*
X70878230Y-75078230D02*
X70878230Y-74915703D01*
X75740000Y-80540000D02*
X75740000Y-80750000D01*
X74400000Y-79200000D02*
X75740000Y-80540000D01*
X74400000Y-77400000D02*
X74400000Y-79200000D01*
X65302523Y-68200000D02*
X67732924Y-70630401D01*
X64450000Y-68200000D02*
X65302523Y-68200000D01*
X62650000Y-66400000D02*
X64450000Y-68200000D01*
X61350000Y-66400000D02*
X62650000Y-66400000D01*
X67732924Y-70630401D02*
X67732924Y-74332924D01*
X61100000Y-66150000D02*
X61350000Y-66400000D01*
X67732924Y-74332924D02*
X69550000Y-76150000D01*
X71400000Y-76150000D02*
X72050000Y-76800000D01*
X72050000Y-76800000D02*
X73800000Y-76800000D01*
X69550000Y-76150000D02*
X71400000Y-76150000D01*
X73800000Y-76800000D02*
X74400000Y-77400000D01*
X73200000Y-80600000D02*
X73200000Y-80750000D01*
X71900000Y-79300000D02*
X73200000Y-80600000D01*
X71900000Y-77300000D02*
X71900000Y-79300000D01*
X69270528Y-76800000D02*
X71400000Y-76800000D01*
X62800000Y-67200000D02*
X64400000Y-68800000D01*
X71400000Y-76800000D02*
X71900000Y-77300000D01*
X64400000Y-68800000D02*
X65184738Y-68800000D01*
X67213142Y-74742614D02*
X69270528Y-76800000D01*
X65184738Y-68800000D02*
X67213142Y-70828404D01*
X61600000Y-67200000D02*
X62800000Y-67200000D01*
X67213142Y-70828404D02*
X67213142Y-74742614D01*
X70660000Y-80160000D02*
X70660000Y-80750000D01*
X69400000Y-78900000D02*
X70660000Y-80160000D01*
X69400000Y-77691703D02*
X69400000Y-78900000D01*
X63150000Y-68200000D02*
X64275000Y-69325000D01*
X61050000Y-68200000D02*
X63150000Y-68200000D01*
X64275000Y-69325000D02*
X65027437Y-69325000D01*
X66700000Y-74991703D02*
X69400000Y-77691703D01*
X65027437Y-69325000D02*
X66700000Y-70997563D01*
X66700000Y-70997563D02*
X66700000Y-74991703D01*
X66800000Y-79200000D02*
X68120000Y-80520000D01*
X63550000Y-69250000D02*
X64100000Y-69800000D01*
X61550000Y-69250000D02*
X63550000Y-69250000D01*
X66200000Y-75900000D02*
X66800000Y-76500000D01*
X64100000Y-69800000D02*
X64833386Y-69800000D01*
X68120000Y-80520000D02*
X68120000Y-80750000D01*
X64833386Y-69800000D02*
X66200000Y-71166614D01*
X66800000Y-76500000D02*
X66800000Y-79200000D01*
X66200000Y-71166614D02*
X66200000Y-75900000D01*
X64300000Y-78950000D02*
X65580000Y-80230000D01*
X65580000Y-80230000D02*
X65580000Y-80750000D01*
X62350000Y-70150000D02*
X62450000Y-70050000D01*
X61050000Y-70150000D02*
X62350000Y-70150000D01*
X62450000Y-70050000D02*
X63700000Y-70050000D01*
X63700000Y-70050000D02*
X64300000Y-70650000D01*
X64300000Y-70650000D02*
X64300000Y-78950000D01*
X63040000Y-80750000D02*
X63040000Y-80340000D01*
X63040000Y-80440000D02*
X63040000Y-80750000D01*
X61800000Y-71400000D02*
X61800000Y-74284774D01*
X61550000Y-71150000D02*
X61800000Y-71400000D01*
X61800000Y-74284774D02*
X61717387Y-74367387D01*
X61717387Y-74367387D02*
X61717387Y-79117387D01*
X61717387Y-79117387D02*
X63040000Y-80440000D01*
D27*
X108700000Y-61200000D02*
X108500000Y-61400000D01*
X108500000Y-61400000D02*
X108500000Y-64600000D01*
X96857032Y-72634562D02*
X98957141Y-74734671D01*
X96857032Y-72239087D02*
X96857032Y-72634562D01*
X101250000Y-73250000D02*
X101250000Y-71750000D01*
X102000000Y-75250000D02*
X102000000Y-74000000D01*
X102000000Y-74000000D02*
X101250000Y-73250000D01*
X103000000Y-73750000D02*
X103000000Y-75250000D01*
X102250000Y-71750000D02*
X102250000Y-73000000D01*
X102250000Y-73000000D02*
X103000000Y-73750000D01*
D26*
X75359785Y-67700000D02*
X74000000Y-67700000D01*
X85400000Y-77740215D02*
X75359785Y-67700000D01*
X85400000Y-78800000D02*
X85400000Y-77740215D01*
X64251465Y-67351465D02*
X62050000Y-65150000D01*
X64859921Y-67351465D02*
X64251465Y-67351465D01*
X62050000Y-65150000D02*
X61700000Y-65150000D01*
X75832959Y-68900000D02*
X74000000Y-68900000D01*
X84500000Y-77567041D02*
X75832959Y-68900000D01*
X84500000Y-77900000D02*
X84500000Y-77567041D01*
X110200000Y-70800000D02*
X110300000Y-70800000D01*
X109250000Y-71750000D02*
X110200000Y-70800000D01*
X108715959Y-73107881D02*
X109250000Y-72573840D01*
X109250000Y-72573840D02*
X109250000Y-71750000D01*
X76258334Y-70100000D02*
X74000000Y-70100000D01*
X83300000Y-77141666D02*
X76258334Y-70100000D01*
X83300000Y-77900000D02*
X83300000Y-77141666D01*
X115500000Y-57750000D02*
X111250000Y-57750000D01*
X115750000Y-57500000D02*
X115500000Y-57750000D01*
X52500000Y-93000000D02*
X52500000Y-87300000D01*
X53850000Y-85950000D02*
X53000000Y-85100000D01*
X52500000Y-87300000D02*
X52500000Y-87200000D01*
X50000000Y-84700000D02*
X50000000Y-83100000D01*
X51100000Y-85800000D02*
X51100000Y-85400000D01*
X53000000Y-85100000D02*
X53000000Y-84500000D01*
X53150000Y-86650000D02*
X53850000Y-85950000D01*
X52500000Y-87300000D02*
X53150000Y-86650000D01*
X52500000Y-85400000D02*
X51800000Y-84700000D01*
X52700000Y-85400000D02*
X53000000Y-85100000D01*
X52700000Y-85400000D02*
X52500000Y-85400000D01*
X51600000Y-84900000D02*
X51800000Y-84700000D01*
X51100000Y-85400000D02*
X51600000Y-84900000D01*
X52900000Y-84400000D02*
X53000000Y-84500000D01*
X51800000Y-84700000D02*
X52100000Y-84400000D01*
X52100000Y-84400000D02*
X52900000Y-84400000D01*
X50700000Y-83100000D02*
X50000000Y-83100000D01*
X51000000Y-83400000D02*
X50700000Y-83100000D01*
X51000000Y-84500000D02*
X51000000Y-83400000D01*
X51600000Y-84900000D02*
X51400000Y-84900000D01*
X51400000Y-84900000D02*
X51000000Y-84500000D01*
X52200000Y-85900000D02*
X52700000Y-85400000D01*
X53150000Y-86650000D02*
X52950000Y-86650000D01*
X52950000Y-86650000D02*
X52200000Y-85900000D01*
X52500000Y-93000000D02*
X52500000Y-91800000D01*
X52500000Y-91800000D02*
X51000000Y-90300000D01*
X51000000Y-86900000D02*
X51600000Y-86300000D01*
X52500000Y-87200000D02*
X51600000Y-86300000D01*
X51600000Y-86300000D02*
X51100000Y-85800000D01*
X54250000Y-85550000D02*
X54250000Y-85650000D01*
X53850000Y-85950000D02*
X54250000Y-85550000D01*
X54250000Y-85650000D02*
X54900000Y-86300000D01*
X54900000Y-86300000D02*
X54900000Y-87100000D01*
X54550000Y-87450000D02*
X54550000Y-87550000D01*
X54900000Y-87100000D02*
X54550000Y-87450000D01*
X54550000Y-87550000D02*
X55000000Y-88000000D01*
X55000000Y-90500000D02*
X52500000Y-93000000D01*
X55000000Y-88000000D02*
X55000000Y-90500000D01*
X53600000Y-91900000D02*
X52500000Y-93000000D01*
X54550000Y-87450000D02*
X53600000Y-88400000D01*
X53600000Y-88400000D02*
X53600000Y-91900000D01*
X51000000Y-87800000D02*
X50400000Y-87800000D01*
X51000000Y-87800000D02*
X51000000Y-86900000D01*
X51000000Y-90300000D02*
X51000000Y-87800000D01*
X50400000Y-87800000D02*
X50000000Y-87400000D01*
X50000000Y-87400000D02*
X50000000Y-85700000D01*
X50000000Y-85700000D02*
X50500000Y-85200000D01*
X51100000Y-85800000D02*
X50500000Y-85200000D01*
X50500000Y-85200000D02*
X50000000Y-84700000D01*
X54500000Y-81400000D02*
X54800000Y-81400000D01*
X53000000Y-84500000D02*
X53000000Y-82900000D01*
X55000000Y-84900000D02*
X55000000Y-82900000D01*
D25*
X55100000Y-81400000D02*
X55800000Y-82100000D01*
D26*
X55000000Y-82900000D02*
X55800000Y-82100000D01*
X54650000Y-85250000D02*
X54650000Y-85050000D01*
X54650000Y-85250000D02*
X55000000Y-84900000D01*
X54250000Y-85650000D02*
X54650000Y-85250000D01*
X54650000Y-85050000D02*
X54000000Y-84400000D01*
X54000000Y-82300000D02*
X53800000Y-82100000D01*
X54000000Y-84400000D02*
X54000000Y-82300000D01*
X53000000Y-82900000D02*
X53800000Y-82100000D01*
X53800000Y-82100000D02*
X54500000Y-81400000D01*
D25*
X55100000Y-81400000D02*
X52100000Y-78400000D01*
X52100000Y-78400000D02*
X51700000Y-78000000D01*
X117460000Y-81790000D02*
X117460000Y-80500000D01*
X116050000Y-83200000D02*
X117460000Y-81790000D01*
X55800000Y-82100000D02*
X56900000Y-83200000D01*
D26*
X102750000Y-81750000D02*
X102750000Y-83250000D01*
D25*
X56900000Y-83200000D02*
X102750000Y-83250000D01*
X102750000Y-83250000D02*
X116050000Y-83200000D01*
X51700000Y-78000000D02*
X50000000Y-78000000D01*
D26*
X50952209Y-78052209D02*
X51300000Y-78400000D01*
X50000000Y-82900000D02*
X49600000Y-82500000D01*
X49600000Y-82500000D02*
X49600000Y-78503051D01*
X50000000Y-83100000D02*
X50000000Y-82900000D01*
X49600000Y-78503051D02*
X50050842Y-78052209D01*
X50050842Y-78052209D02*
X50952209Y-78052209D01*
D28*
G36*
X80759744Y-57417205D02*
G01*
X80948102Y-57495226D01*
X81148061Y-57535000D01*
X81351939Y-57535000D01*
X81551898Y-57495226D01*
X81740256Y-57417205D01*
X81800427Y-57377000D01*
X84947394Y-57377000D01*
X86160197Y-58589803D01*
X86179443Y-58605597D01*
X86201399Y-58617333D01*
X86225224Y-58624560D01*
X86250000Y-58627000D01*
X89000000Y-58627000D01*
X89024776Y-58624560D01*
X89048601Y-58617333D01*
X89070557Y-58605597D01*
X89089803Y-58589803D01*
X90302606Y-57377000D01*
X103947394Y-57377000D01*
X104373000Y-57802606D01*
X104373000Y-59447394D01*
X103947394Y-59873000D01*
X101000000Y-59873000D01*
X100975224Y-59875440D01*
X100951399Y-59882667D01*
X100929443Y-59894403D01*
X100910197Y-59910197D01*
X99910197Y-60910197D01*
X99894403Y-60929443D01*
X99882667Y-60951399D01*
X99875440Y-60975224D01*
X99873000Y-61000000D01*
X99873000Y-63697394D01*
X98447394Y-65123000D01*
X79052606Y-65123000D01*
X76839803Y-62910197D01*
X76820557Y-62894403D01*
X76798601Y-62882667D01*
X76774776Y-62875440D01*
X76750000Y-62873000D01*
X72802606Y-62873000D01*
X71377000Y-61447394D01*
X71377000Y-58052606D01*
X72052606Y-57377000D01*
X80699573Y-57377000D01*
X80759744Y-57417205D01*
G37*
X80759744Y-57417205D02*
X80948102Y-57495226D01*
X81148061Y-57535000D01*
X81351939Y-57535000D01*
X81551898Y-57495226D01*
X81740256Y-57417205D01*
X81800427Y-57377000D01*
X84947394Y-57377000D01*
X86160197Y-58589803D01*
X86179443Y-58605597D01*
X86201399Y-58617333D01*
X86225224Y-58624560D01*
X86250000Y-58627000D01*
X89000000Y-58627000D01*
X89024776Y-58624560D01*
X89048601Y-58617333D01*
X89070557Y-58605597D01*
X89089803Y-58589803D01*
X90302606Y-57377000D01*
X103947394Y-57377000D01*
X104373000Y-57802606D01*
X104373000Y-59447394D01*
X103947394Y-59873000D01*
X101000000Y-59873000D01*
X100975224Y-59875440D01*
X100951399Y-59882667D01*
X100929443Y-59894403D01*
X100910197Y-59910197D01*
X99910197Y-60910197D01*
X99894403Y-60929443D01*
X99882667Y-60951399D01*
X99875440Y-60975224D01*
X99873000Y-61000000D01*
X99873000Y-63697394D01*
X98447394Y-65123000D01*
X79052606Y-65123000D01*
X76839803Y-62910197D01*
X76820557Y-62894403D01*
X76798601Y-62882667D01*
X76774776Y-62875440D01*
X76750000Y-62873000D01*
X72802606Y-62873000D01*
X71377000Y-61447394D01*
X71377000Y-58052606D01*
X72052606Y-57377000D01*
X80699573Y-57377000D01*
X80759744Y-57417205D01*
G36*
X125138117Y-48911637D02*
G01*
X124840737Y-49209017D01*
X124607088Y-49558698D01*
X124446147Y-49947244D01*
X124364100Y-50359721D01*
X124364100Y-50780279D01*
X124446147Y-51192756D01*
X124607088Y-51581302D01*
X124840737Y-51930983D01*
X125138117Y-52228363D01*
X125487798Y-52462012D01*
X125876344Y-52622953D01*
X126288821Y-52705000D01*
X126709379Y-52705000D01*
X127121856Y-52622953D01*
X127510402Y-52462012D01*
X127860083Y-52228363D01*
X128157463Y-51930983D01*
X128290001Y-51732626D01*
X128290000Y-76688054D01*
X128107916Y-76870138D01*
X128055752Y-76865000D01*
X126155752Y-76865000D01*
X126100000Y-76859509D01*
X126044248Y-76865000D01*
X125935354Y-76875725D01*
X125877501Y-76881423D01*
X125663553Y-76946324D01*
X125466377Y-77051716D01*
X125336856Y-77158011D01*
X125336855Y-77158012D01*
X125293551Y-77193551D01*
X125258013Y-77236854D01*
X122336857Y-80158012D01*
X121929869Y-80565000D01*
X121488072Y-80565000D01*
X121488072Y-79900000D01*
X121475812Y-79775518D01*
X121439502Y-79655820D01*
X121380537Y-79545506D01*
X121301185Y-79448815D01*
X121204494Y-79369463D01*
X121094180Y-79310498D01*
X121052310Y-79297797D01*
X121153475Y-79196632D01*
X121315990Y-78953411D01*
X121427932Y-78683158D01*
X121485000Y-78396260D01*
X121485000Y-78103740D01*
X121427932Y-77816842D01*
X121315990Y-77546589D01*
X121153475Y-77303368D01*
X120946632Y-77096525D01*
X120703411Y-76934010D01*
X120433158Y-76822068D01*
X120146260Y-76765000D01*
X119853740Y-76765000D01*
X119566842Y-76822068D01*
X119296589Y-76934010D01*
X119053368Y-77096525D01*
X118871858Y-77278035D01*
X118775990Y-77046589D01*
X118613475Y-76803368D01*
X118406632Y-76596525D01*
X118163411Y-76434010D01*
X117893158Y-76322068D01*
X117606260Y-76265000D01*
X117313740Y-76265000D01*
X117026842Y-76322068D01*
X116756589Y-76434010D01*
X116513368Y-76596525D01*
X116306525Y-76803368D01*
X116144010Y-77046589D01*
X116032068Y-77316842D01*
X115975000Y-77603740D01*
X115975000Y-77896260D01*
X116032068Y-78183158D01*
X116144010Y-78453411D01*
X116306525Y-78696632D01*
X116513368Y-78903475D01*
X116657828Y-79000000D01*
X116513368Y-79096525D01*
X116306525Y-79303368D01*
X116144010Y-79546589D01*
X116032068Y-79816842D01*
X115975000Y-80103740D01*
X115975000Y-80396260D01*
X116032068Y-80683158D01*
X116144010Y-80953411D01*
X116306525Y-81196632D01*
X116325000Y-81215107D01*
X116325000Y-81319868D01*
X115578102Y-82066767D01*
X103720603Y-82111343D01*
X103745226Y-82051898D01*
X103785000Y-81851939D01*
X103785000Y-81648061D01*
X103745226Y-81448102D01*
X103667205Y-81259744D01*
X103553937Y-81090226D01*
X103409774Y-80946063D01*
X103240256Y-80832795D01*
X103051898Y-80754774D01*
X102851939Y-80715000D01*
X102648061Y-80715000D01*
X102448102Y-80754774D01*
X102259744Y-80832795D01*
X102090226Y-80946063D01*
X101946063Y-81090226D01*
X101832795Y-81259744D01*
X101754774Y-81448102D01*
X101715000Y-81648061D01*
X101715000Y-81851939D01*
X101754774Y-82051898D01*
X101780474Y-82113943D01*
X86035000Y-82096772D01*
X86035000Y-81898061D01*
X85995226Y-81698102D01*
X85917205Y-81509744D01*
X85803937Y-81340226D01*
X85659774Y-81196063D01*
X85490256Y-81082795D01*
X85301898Y-81004774D01*
X85101939Y-80965000D01*
X84898061Y-80965000D01*
X84698102Y-81004774D01*
X84509744Y-81082795D01*
X84340226Y-81196063D01*
X84196063Y-81340226D01*
X84082795Y-81509744D01*
X84047741Y-81594372D01*
X81577060Y-81594372D01*
X81590278Y-81550798D01*
X81606701Y-81384050D01*
X81612192Y-81328299D01*
X81606701Y-81272547D01*
X81606701Y-80027453D01*
X81612192Y-79971701D01*
X81590278Y-79749202D01*
X81525377Y-79535254D01*
X81419985Y-79338078D01*
X81313690Y-79208557D01*
X81313688Y-79208555D01*
X81278150Y-79165252D01*
X81234847Y-79129714D01*
X79841995Y-77736864D01*
X79806449Y-77693551D01*
X79633623Y-77551716D01*
X79436447Y-77446324D01*
X79278526Y-77398419D01*
X79226632Y-77346525D01*
X78983411Y-77184010D01*
X78713158Y-77072068D01*
X78426260Y-77015000D01*
X78133740Y-77015000D01*
X77846842Y-77072068D01*
X77576589Y-77184010D01*
X77333368Y-77346525D01*
X77143593Y-77536300D01*
X77084157Y-77368748D01*
X76935178Y-77118645D01*
X76740269Y-76902412D01*
X76506920Y-76728359D01*
X76244099Y-76603175D01*
X76096890Y-76558524D01*
X75867000Y-76679845D01*
X75867000Y-77873000D01*
X75887000Y-77873000D01*
X75887000Y-78127000D01*
X75867000Y-78127000D01*
X75867000Y-78147000D01*
X75613000Y-78147000D01*
X75613000Y-78127000D01*
X75593000Y-78127000D01*
X75593000Y-77873000D01*
X75613000Y-77873000D01*
X75613000Y-76679845D01*
X75383110Y-76558524D01*
X75235901Y-76603175D01*
X74973080Y-76728359D01*
X74875755Y-76800953D01*
X74363803Y-76289002D01*
X74340001Y-76259999D01*
X74224276Y-76165026D01*
X74092247Y-76094454D01*
X73948986Y-76050997D01*
X73837333Y-76040000D01*
X73837322Y-76040000D01*
X73800000Y-76036324D01*
X73762678Y-76040000D01*
X72364802Y-76040000D01*
X71963803Y-75639002D01*
X71940001Y-75609999D01*
X71842255Y-75529781D01*
X71895226Y-75401898D01*
X71935000Y-75201939D01*
X71935000Y-74998061D01*
X71895226Y-74798102D01*
X71817205Y-74609744D01*
X71703937Y-74440226D01*
X71559774Y-74296063D01*
X71390256Y-74182795D01*
X71201898Y-74104774D01*
X71127256Y-74089927D01*
X69737845Y-72700517D01*
X69737845Y-70558509D01*
X69857619Y-70478479D01*
X70001782Y-70334316D01*
X70115050Y-70164798D01*
X70193071Y-69976440D01*
X70232845Y-69776481D01*
X70232845Y-69572603D01*
X70193071Y-69372644D01*
X70115050Y-69184286D01*
X70001782Y-69014768D01*
X69857619Y-68870605D01*
X69688101Y-68757337D01*
X69499743Y-68679316D01*
X69299784Y-68639542D01*
X69095906Y-68639542D01*
X68895947Y-68679316D01*
X68707589Y-68757337D01*
X68641505Y-68801493D01*
X68596909Y-68771695D01*
X68408551Y-68693674D01*
X68208592Y-68653900D01*
X68004714Y-68653900D01*
X67804755Y-68693674D01*
X67616397Y-68771695D01*
X67446879Y-68884963D01*
X67302716Y-69029126D01*
X67264158Y-69086833D01*
X65866327Y-67689003D01*
X65849086Y-67667995D01*
X65855147Y-67653363D01*
X65866147Y-67598061D01*
X72965000Y-67598061D01*
X72965000Y-67801939D01*
X73004774Y-68001898D01*
X73082795Y-68190256D01*
X73156123Y-68300000D01*
X73082795Y-68409744D01*
X73004774Y-68598102D01*
X72965000Y-68798061D01*
X72965000Y-69001939D01*
X73004774Y-69201898D01*
X73082795Y-69390256D01*
X73156123Y-69500000D01*
X73082795Y-69609744D01*
X73004774Y-69798102D01*
X72965000Y-69998061D01*
X72965000Y-70201939D01*
X73004774Y-70401898D01*
X73082795Y-70590256D01*
X73196063Y-70759774D01*
X73340226Y-70903937D01*
X73509744Y-71017205D01*
X73698102Y-71095226D01*
X73898061Y-71135000D01*
X74101939Y-71135000D01*
X74301898Y-71095226D01*
X74490256Y-71017205D01*
X74659774Y-70903937D01*
X74703711Y-70860000D01*
X75943533Y-70860000D01*
X79352314Y-74268782D01*
X79257237Y-74332310D01*
X79113074Y-74476473D01*
X78999806Y-74645991D01*
X78921785Y-74834349D01*
X78882011Y-75034308D01*
X78882011Y-75238186D01*
X78921785Y-75438145D01*
X78999806Y-75626503D01*
X79113074Y-75796021D01*
X79257237Y-75940184D01*
X79426755Y-76053452D01*
X79615113Y-76131473D01*
X79815072Y-76171247D01*
X80018950Y-76171247D01*
X80218909Y-76131473D01*
X80269556Y-76110494D01*
X81565596Y-77406535D01*
X81565597Y-77992397D01*
X81561920Y-78029729D01*
X81565597Y-78067062D01*
X81576594Y-78178715D01*
X81583662Y-78202015D01*
X81620050Y-78321975D01*
X81690622Y-78454005D01*
X81758180Y-78536324D01*
X81785596Y-78569730D01*
X81814594Y-78593528D01*
X82501066Y-79280000D01*
X82524864Y-79308999D01*
X82640589Y-79403972D01*
X82772618Y-79474544D01*
X82915879Y-79518001D01*
X83027532Y-79528998D01*
X83027541Y-79528998D01*
X83064864Y-79532674D01*
X83102187Y-79528998D01*
X83140168Y-79528998D01*
X83184105Y-79572935D01*
X83353623Y-79686203D01*
X83541981Y-79764224D01*
X83741940Y-79803998D01*
X83945818Y-79803998D01*
X84145777Y-79764224D01*
X84334135Y-79686203D01*
X84503653Y-79572935D01*
X84606439Y-79470150D01*
X84740226Y-79603937D01*
X84909744Y-79717205D01*
X85098102Y-79795226D01*
X85298061Y-79835000D01*
X85501939Y-79835000D01*
X85701898Y-79795226D01*
X85890256Y-79717205D01*
X86059774Y-79603937D01*
X86203937Y-79459774D01*
X86317205Y-79290256D01*
X86321506Y-79279872D01*
X86765000Y-79279872D01*
X86765000Y-79720128D01*
X86850890Y-80151925D01*
X87019369Y-80558669D01*
X87263962Y-80924729D01*
X87575271Y-81236038D01*
X87941331Y-81480631D01*
X88348075Y-81649110D01*
X88779872Y-81735000D01*
X89220128Y-81735000D01*
X89651925Y-81649110D01*
X90058669Y-81480631D01*
X90424729Y-81236038D01*
X90736038Y-80924729D01*
X90980631Y-80558669D01*
X91149110Y-80151925D01*
X91235000Y-79720128D01*
X91235000Y-79279872D01*
X91149110Y-78848075D01*
X90980631Y-78441331D01*
X90736038Y-78075271D01*
X90424729Y-77763962D01*
X90058669Y-77519369D01*
X89651925Y-77350890D01*
X89220128Y-77265000D01*
X88779872Y-77265000D01*
X88348075Y-77350890D01*
X87941331Y-77519369D01*
X87575271Y-77763962D01*
X87263962Y-78075271D01*
X87019369Y-78441331D01*
X86850890Y-78848075D01*
X86765000Y-79279872D01*
X86321506Y-79279872D01*
X86395226Y-79101898D01*
X86435000Y-78901939D01*
X86435000Y-78698061D01*
X86395226Y-78498102D01*
X86317205Y-78309744D01*
X86203937Y-78140226D01*
X86160000Y-78096289D01*
X86160000Y-77777537D01*
X86163676Y-77740214D01*
X86160000Y-77702891D01*
X86160000Y-77702882D01*
X86149003Y-77591229D01*
X86105546Y-77447968D01*
X86034974Y-77315939D01*
X85940001Y-77200214D01*
X85911003Y-77176416D01*
X80871735Y-72137148D01*
X95822032Y-72137148D01*
X95822032Y-72341026D01*
X95861806Y-72540985D01*
X95939827Y-72729343D01*
X95983526Y-72794744D01*
X95984837Y-72808052D01*
X96035443Y-72974875D01*
X96117621Y-73128621D01*
X96228216Y-73263379D01*
X96261983Y-73291091D01*
X97950606Y-74979715D01*
X97961915Y-75036569D01*
X98039936Y-75224927D01*
X98153204Y-75394445D01*
X98297367Y-75538608D01*
X98466885Y-75651876D01*
X98655243Y-75729897D01*
X98855202Y-75769671D01*
X99059080Y-75769671D01*
X99259039Y-75729897D01*
X99447397Y-75651876D01*
X99616915Y-75538608D01*
X99761078Y-75394445D01*
X99874346Y-75224927D01*
X99952367Y-75036569D01*
X99992141Y-74836610D01*
X99992141Y-74632732D01*
X99952367Y-74432773D01*
X99874346Y-74244415D01*
X99761078Y-74074897D01*
X99616915Y-73930734D01*
X99447397Y-73817466D01*
X99259039Y-73739445D01*
X99202185Y-73728136D01*
X97879264Y-72405216D01*
X97892032Y-72341026D01*
X97892032Y-72137148D01*
X97852258Y-71937189D01*
X97774237Y-71748831D01*
X97706905Y-71648061D01*
X100215000Y-71648061D01*
X100215000Y-71851939D01*
X100254774Y-72051898D01*
X100332795Y-72240256D01*
X100365001Y-72288455D01*
X100365000Y-73206530D01*
X100360719Y-73250000D01*
X100365000Y-73293469D01*
X100365000Y-73293476D01*
X100377805Y-73423489D01*
X100428411Y-73590312D01*
X100510589Y-73744058D01*
X100621183Y-73878817D01*
X100654956Y-73906534D01*
X101115001Y-74366579D01*
X101115000Y-74711545D01*
X101082795Y-74759744D01*
X101004774Y-74948102D01*
X100965000Y-75148061D01*
X100965000Y-75351939D01*
X101004774Y-75551898D01*
X101082795Y-75740256D01*
X101196063Y-75909774D01*
X101340226Y-76053937D01*
X101509744Y-76167205D01*
X101698102Y-76245226D01*
X101898061Y-76285000D01*
X102101939Y-76285000D01*
X102301898Y-76245226D01*
X102490256Y-76167205D01*
X102500000Y-76160694D01*
X102509744Y-76167205D01*
X102698102Y-76245226D01*
X102898061Y-76285000D01*
X103101939Y-76285000D01*
X103301898Y-76245226D01*
X103490256Y-76167205D01*
X103659774Y-76053937D01*
X103803937Y-75909774D01*
X103917205Y-75740256D01*
X103995226Y-75551898D01*
X104035000Y-75351939D01*
X104035000Y-75148061D01*
X103995226Y-74948102D01*
X103917205Y-74759744D01*
X103885000Y-74711546D01*
X103885000Y-73793465D01*
X103889281Y-73749999D01*
X103885000Y-73706533D01*
X103885000Y-73706523D01*
X103872195Y-73576510D01*
X103821589Y-73409687D01*
X103739411Y-73255941D01*
X103697048Y-73204322D01*
X103656532Y-73154953D01*
X103656530Y-73154951D01*
X103628817Y-73121183D01*
X103595050Y-73093471D01*
X103507521Y-73005942D01*
X107680959Y-73005942D01*
X107680959Y-73209820D01*
X107720733Y-73409779D01*
X107798754Y-73598137D01*
X107912022Y-73767655D01*
X108056185Y-73911818D01*
X108225703Y-74025086D01*
X108414061Y-74103107D01*
X108614020Y-74142881D01*
X108817898Y-74142881D01*
X109017857Y-74103107D01*
X109206215Y-74025086D01*
X109375733Y-73911818D01*
X109519896Y-73767655D01*
X109633164Y-73598137D01*
X109711185Y-73409779D01*
X109750959Y-73209820D01*
X109750959Y-73147683D01*
X109761003Y-73137638D01*
X109790001Y-73113841D01*
X109824099Y-73072292D01*
X109884974Y-72998117D01*
X109955546Y-72866087D01*
X109980143Y-72785000D01*
X109999003Y-72722826D01*
X110010000Y-72611173D01*
X110010000Y-72611164D01*
X110013676Y-72573841D01*
X110010000Y-72536518D01*
X110010000Y-72064801D01*
X110239801Y-71835000D01*
X110401939Y-71835000D01*
X110601898Y-71795226D01*
X110790256Y-71717205D01*
X110959774Y-71603937D01*
X111103937Y-71459774D01*
X111217205Y-71290256D01*
X111295226Y-71101898D01*
X111335000Y-70901939D01*
X111335000Y-70698061D01*
X111295226Y-70498102D01*
X111217205Y-70309744D01*
X111103937Y-70140226D01*
X110959774Y-69996063D01*
X110790256Y-69882795D01*
X110601898Y-69804774D01*
X110401939Y-69765000D01*
X110198061Y-69765000D01*
X109998102Y-69804774D01*
X109809744Y-69882795D01*
X109640226Y-69996063D01*
X109496063Y-70140226D01*
X109382795Y-70309744D01*
X109304774Y-70498102D01*
X109274401Y-70650797D01*
X108738998Y-71186201D01*
X108710000Y-71209999D01*
X108686202Y-71238997D01*
X108686201Y-71238998D01*
X108615026Y-71325724D01*
X108544454Y-71457754D01*
X108516775Y-71549003D01*
X108500998Y-71601014D01*
X108490000Y-71712667D01*
X108490000Y-71712678D01*
X108486324Y-71750000D01*
X108490000Y-71787322D01*
X108490000Y-72097550D01*
X108414061Y-72112655D01*
X108225703Y-72190676D01*
X108056185Y-72303944D01*
X107912022Y-72448107D01*
X107798754Y-72617625D01*
X107720733Y-72805983D01*
X107680959Y-73005942D01*
X103507521Y-73005942D01*
X103135000Y-72633422D01*
X103135000Y-72288454D01*
X103167205Y-72240256D01*
X103245226Y-72051898D01*
X103285000Y-71851939D01*
X103285000Y-71648061D01*
X103245226Y-71448102D01*
X103167205Y-71259744D01*
X103053937Y-71090226D01*
X102909774Y-70946063D01*
X102740256Y-70832795D01*
X102551898Y-70754774D01*
X102351939Y-70715000D01*
X102148061Y-70715000D01*
X101948102Y-70754774D01*
X101759744Y-70832795D01*
X101750000Y-70839306D01*
X101740256Y-70832795D01*
X101551898Y-70754774D01*
X101351939Y-70715000D01*
X101148061Y-70715000D01*
X100948102Y-70754774D01*
X100759744Y-70832795D01*
X100590226Y-70946063D01*
X100446063Y-71090226D01*
X100332795Y-71259744D01*
X100254774Y-71448102D01*
X100215000Y-71648061D01*
X97706905Y-71648061D01*
X97660969Y-71579313D01*
X97516806Y-71435150D01*
X97347288Y-71321882D01*
X97158930Y-71243861D01*
X96958971Y-71204087D01*
X96755093Y-71204087D01*
X96555134Y-71243861D01*
X96366776Y-71321882D01*
X96197258Y-71435150D01*
X96053095Y-71579313D01*
X95939827Y-71748831D01*
X95861806Y-71937189D01*
X95822032Y-72137148D01*
X80871735Y-72137148D01*
X78432648Y-69698061D01*
X118565000Y-69698061D01*
X118565000Y-69901939D01*
X118604774Y-70101898D01*
X118682795Y-70290256D01*
X118796063Y-70459774D01*
X118940226Y-70603937D01*
X119109744Y-70717205D01*
X119298102Y-70795226D01*
X119498061Y-70835000D01*
X119555895Y-70835000D01*
X119559999Y-70840001D01*
X119675724Y-70934974D01*
X119807753Y-71005546D01*
X119951014Y-71049003D01*
X120062667Y-71060000D01*
X120062675Y-71060000D01*
X120100000Y-71063676D01*
X120137325Y-71060000D01*
X121285199Y-71060000D01*
X123340001Y-73114803D01*
X123340000Y-73596289D01*
X123296063Y-73640226D01*
X123182795Y-73809744D01*
X123104774Y-73998102D01*
X123065000Y-74198061D01*
X123065000Y-74401939D01*
X123104774Y-74601898D01*
X123182795Y-74790256D01*
X123296063Y-74959774D01*
X123336289Y-75000000D01*
X123296063Y-75040226D01*
X123182795Y-75209744D01*
X123104774Y-75398102D01*
X123065000Y-75598061D01*
X123065000Y-75801939D01*
X123104774Y-76001898D01*
X123182795Y-76190256D01*
X123296063Y-76359774D01*
X123440226Y-76503937D01*
X123609744Y-76617205D01*
X123798102Y-76695226D01*
X123998061Y-76735000D01*
X124201939Y-76735000D01*
X124401898Y-76695226D01*
X124590256Y-76617205D01*
X124759774Y-76503937D01*
X124903937Y-76359774D01*
X125017205Y-76190256D01*
X125095226Y-76001898D01*
X125135000Y-75801939D01*
X125135000Y-75739801D01*
X125711003Y-75163799D01*
X125740001Y-75140001D01*
X125772830Y-75099999D01*
X125834974Y-75024277D01*
X125905546Y-74892247D01*
X125920181Y-74844000D01*
X125949003Y-74748986D01*
X125960000Y-74637333D01*
X125960000Y-74637323D01*
X125963676Y-74600000D01*
X125960000Y-74562677D01*
X125960000Y-69837322D01*
X125963676Y-69799999D01*
X125960000Y-69762676D01*
X125960000Y-69762667D01*
X125949003Y-69651014D01*
X125905546Y-69507753D01*
X125834974Y-69375724D01*
X125740001Y-69259999D01*
X125710998Y-69236197D01*
X125463804Y-68989003D01*
X125463799Y-68988997D01*
X125135000Y-68660198D01*
X125135000Y-68598061D01*
X125095226Y-68398102D01*
X125017205Y-68209744D01*
X124903937Y-68040226D01*
X124759774Y-67896063D01*
X124590256Y-67782795D01*
X124401898Y-67704774D01*
X124201939Y-67665000D01*
X123998061Y-67665000D01*
X123798102Y-67704774D01*
X123609744Y-67782795D01*
X123440226Y-67896063D01*
X123296063Y-68040226D01*
X123182795Y-68209744D01*
X123104774Y-68398102D01*
X123065000Y-68598061D01*
X123065000Y-68801939D01*
X123104774Y-69001898D01*
X123182795Y-69190256D01*
X123296063Y-69359774D01*
X123440226Y-69503937D01*
X123609744Y-69617205D01*
X123798102Y-69695226D01*
X123998061Y-69735000D01*
X124060198Y-69735000D01*
X124388997Y-70063799D01*
X124389003Y-70063804D01*
X124440000Y-70114801D01*
X124440000Y-72065199D01*
X122163804Y-69789003D01*
X122140001Y-69759999D01*
X122024276Y-69665026D01*
X121892247Y-69594454D01*
X121748986Y-69550997D01*
X121637333Y-69540000D01*
X121637322Y-69540000D01*
X121600000Y-69536324D01*
X121562678Y-69540000D01*
X120603560Y-69540000D01*
X120595226Y-69498102D01*
X120517205Y-69309744D01*
X120403937Y-69140226D01*
X120259774Y-68996063D01*
X120090256Y-68882795D01*
X119901898Y-68804774D01*
X119701939Y-68765000D01*
X119498061Y-68765000D01*
X119298102Y-68804774D01*
X119109744Y-68882795D01*
X118940226Y-68996063D01*
X118796063Y-69140226D01*
X118682795Y-69309744D01*
X118604774Y-69498102D01*
X118565000Y-69698061D01*
X78432648Y-69698061D01*
X75923589Y-67189003D01*
X75899786Y-67159999D01*
X75784061Y-67065026D01*
X75652032Y-66994454D01*
X75508771Y-66950997D01*
X75397118Y-66940000D01*
X75397107Y-66940000D01*
X75359785Y-66936324D01*
X75322463Y-66940000D01*
X74703711Y-66940000D01*
X74659774Y-66896063D01*
X74490256Y-66782795D01*
X74301898Y-66704774D01*
X74101939Y-66665000D01*
X73898061Y-66665000D01*
X73698102Y-66704774D01*
X73509744Y-66782795D01*
X73340226Y-66896063D01*
X73196063Y-67040226D01*
X73082795Y-67209744D01*
X73004774Y-67398102D01*
X72965000Y-67598061D01*
X65866147Y-67598061D01*
X65894921Y-67453404D01*
X65894921Y-67249526D01*
X65855147Y-67049567D01*
X65777126Y-66861209D01*
X65663858Y-66691691D01*
X65519695Y-66547528D01*
X65350177Y-66434260D01*
X65161819Y-66356239D01*
X64961860Y-66316465D01*
X64757982Y-66316465D01*
X64558023Y-66356239D01*
X64397523Y-66422721D01*
X62613804Y-64639003D01*
X62590001Y-64609999D01*
X62576640Y-64599034D01*
X62503937Y-64490226D01*
X62359774Y-64346063D01*
X62190256Y-64232795D01*
X62001898Y-64154774D01*
X61801939Y-64115000D01*
X61598061Y-64115000D01*
X61398102Y-64154774D01*
X61209744Y-64232795D01*
X61040226Y-64346063D01*
X60896063Y-64490226D01*
X60782795Y-64659744D01*
X60704774Y-64848102D01*
X60665000Y-65048061D01*
X60665000Y-65209907D01*
X60609744Y-65232795D01*
X60440226Y-65346063D01*
X60296063Y-65490226D01*
X60182795Y-65659744D01*
X60104774Y-65848102D01*
X60065000Y-66048061D01*
X60065000Y-66251939D01*
X60104774Y-66451898D01*
X60182795Y-66640256D01*
X60296063Y-66809774D01*
X60440226Y-66953937D01*
X60575667Y-67044435D01*
X60565000Y-67098061D01*
X60565000Y-67280618D01*
X60559744Y-67282795D01*
X60390226Y-67396063D01*
X60246063Y-67540226D01*
X60132795Y-67709744D01*
X60054774Y-67898102D01*
X60015000Y-68098061D01*
X60015000Y-68301939D01*
X60054774Y-68501898D01*
X60132795Y-68690256D01*
X60246063Y-68859774D01*
X60390226Y-69003937D01*
X60525667Y-69094435D01*
X60515000Y-69148061D01*
X60515000Y-69262692D01*
X60390226Y-69346063D01*
X60246063Y-69490226D01*
X60132795Y-69659744D01*
X60054774Y-69848102D01*
X60015000Y-70048061D01*
X60015000Y-70251939D01*
X60054774Y-70451898D01*
X60132795Y-70640256D01*
X60246063Y-70809774D01*
X60390226Y-70953937D01*
X60516888Y-71038570D01*
X60515000Y-71048061D01*
X60515000Y-71251939D01*
X60554774Y-71451898D01*
X60632795Y-71640256D01*
X60746063Y-71809774D01*
X60890226Y-71953937D01*
X61040000Y-72054013D01*
X61040001Y-74022458D01*
X61011841Y-74075141D01*
X60968384Y-74218402D01*
X60957387Y-74330055D01*
X60957387Y-74330065D01*
X60953711Y-74367387D01*
X60957387Y-74404710D01*
X60957387Y-76511928D01*
X59650000Y-76511928D01*
X59525518Y-76524188D01*
X59405820Y-76560498D01*
X59295506Y-76619463D01*
X59198815Y-76698815D01*
X59119463Y-76795506D01*
X59060498Y-76905820D01*
X59024188Y-77025518D01*
X59011928Y-77150000D01*
X59011928Y-78850000D01*
X59024188Y-78974482D01*
X59060498Y-79094180D01*
X59119463Y-79204494D01*
X59156809Y-79250000D01*
X59119463Y-79295506D01*
X59060498Y-79405820D01*
X59024188Y-79525518D01*
X59011928Y-79650000D01*
X59015000Y-80214250D01*
X59173750Y-80373000D01*
X60373000Y-80373000D01*
X60373000Y-80353000D01*
X60627000Y-80353000D01*
X60627000Y-80373000D01*
X60647000Y-80373000D01*
X60647000Y-80627000D01*
X60627000Y-80627000D01*
X60627000Y-80647000D01*
X60373000Y-80647000D01*
X60373000Y-80627000D01*
X59173750Y-80627000D01*
X59015000Y-80785750D01*
X59011928Y-81350000D01*
X59024188Y-81474482D01*
X59060498Y-81594180D01*
X59060601Y-81594372D01*
X58169175Y-81594372D01*
X56710510Y-80135709D01*
X56745226Y-80051898D01*
X56785000Y-79851939D01*
X56785000Y-79648061D01*
X56745226Y-79448102D01*
X56667205Y-79259744D01*
X56553937Y-79090226D01*
X56409774Y-78946063D01*
X56240256Y-78832795D01*
X56051898Y-78754774D01*
X55851939Y-78715000D01*
X55648061Y-78715000D01*
X55448102Y-78754774D01*
X55259744Y-78832795D01*
X55090226Y-78946063D01*
X54946063Y-79090226D01*
X54832795Y-79259744D01*
X54754774Y-79448102D01*
X54754519Y-79449386D01*
X52863143Y-77558012D01*
X52541996Y-77236865D01*
X52506449Y-77193551D01*
X52333623Y-77051716D01*
X52136447Y-76946324D01*
X51922499Y-76881423D01*
X51755752Y-76865000D01*
X51755751Y-76865000D01*
X51700000Y-76859509D01*
X51644249Y-76865000D01*
X49944248Y-76865000D01*
X49808023Y-76878417D01*
X49710000Y-76780394D01*
X49710000Y-73321653D01*
X50687952Y-73321653D01*
X50843962Y-73637214D01*
X51218745Y-73828020D01*
X51623551Y-73942044D01*
X52042824Y-73974902D01*
X52460451Y-73925334D01*
X52860383Y-73795243D01*
X53156038Y-73637214D01*
X53312048Y-73321653D01*
X52000000Y-72009605D01*
X50687952Y-73321653D01*
X49710000Y-73321653D01*
X49710000Y-71872824D01*
X49855098Y-71872824D01*
X49904666Y-72290451D01*
X50034757Y-72690383D01*
X50192786Y-72986038D01*
X50508347Y-73142048D01*
X51820395Y-71830000D01*
X50508347Y-70517952D01*
X50192786Y-70673962D01*
X50001980Y-71048745D01*
X49887956Y-71453551D01*
X49855098Y-71872824D01*
X49710000Y-71872824D01*
X49710000Y-65250000D01*
X49861928Y-65250000D01*
X49861928Y-68250000D01*
X49874188Y-68374482D01*
X49910498Y-68494180D01*
X49969463Y-68604494D01*
X50048815Y-68701185D01*
X50145506Y-68780537D01*
X50255820Y-68839502D01*
X50375518Y-68875812D01*
X50500000Y-68888072D01*
X53500000Y-68888072D01*
X53561207Y-68882044D01*
X53540226Y-68896063D01*
X53396063Y-69040226D01*
X53282795Y-69209744D01*
X53204774Y-69398102D01*
X53165000Y-69598061D01*
X53165000Y-69801939D01*
X53204774Y-70001898D01*
X53282795Y-70190256D01*
X53353828Y-70296564D01*
X53312047Y-70338345D01*
X53156038Y-70022786D01*
X52781255Y-69831980D01*
X52376449Y-69717956D01*
X51957176Y-69685098D01*
X51539549Y-69734666D01*
X51139617Y-69864757D01*
X50843962Y-70022786D01*
X50687952Y-70338347D01*
X52000000Y-71650395D01*
X52014143Y-71636253D01*
X52193748Y-71815858D01*
X52179605Y-71830000D01*
X53491653Y-73142048D01*
X53807214Y-72986038D01*
X53998020Y-72611255D01*
X54112044Y-72206449D01*
X54144902Y-71787176D01*
X54095334Y-71369549D01*
X53965243Y-70969617D01*
X53807214Y-70673962D01*
X53491655Y-70517953D01*
X53522949Y-70486660D01*
X53540226Y-70503937D01*
X53709744Y-70617205D01*
X53898102Y-70695226D01*
X54098061Y-70735000D01*
X54301939Y-70735000D01*
X54501898Y-70695226D01*
X54690256Y-70617205D01*
X54775870Y-70560000D01*
X55196289Y-70560000D01*
X55240226Y-70603937D01*
X55409744Y-70717205D01*
X55598102Y-70795226D01*
X55798061Y-70835000D01*
X56001939Y-70835000D01*
X56201898Y-70795226D01*
X56390256Y-70717205D01*
X56559774Y-70603937D01*
X56703937Y-70459774D01*
X56817205Y-70290256D01*
X56895226Y-70101898D01*
X56935000Y-69901939D01*
X56935000Y-69698061D01*
X56895226Y-69498102D01*
X56817205Y-69309744D01*
X56703937Y-69140226D01*
X56559774Y-68996063D01*
X56390256Y-68882795D01*
X56201898Y-68804774D01*
X56001939Y-68765000D01*
X55798061Y-68765000D01*
X55598102Y-68804774D01*
X55409744Y-68882795D01*
X55240226Y-68996063D01*
X55196289Y-69040000D01*
X55003711Y-69040000D01*
X54859774Y-68896063D01*
X54690256Y-68782795D01*
X54501898Y-68704774D01*
X54301939Y-68665000D01*
X54098061Y-68665000D01*
X53958021Y-68692856D01*
X54030537Y-68604494D01*
X54089502Y-68494180D01*
X54125812Y-68374482D01*
X54138072Y-68250000D01*
X54138072Y-65250000D01*
X54125812Y-65125518D01*
X54089502Y-65005820D01*
X54030537Y-64895506D01*
X53951185Y-64798815D01*
X53854494Y-64719463D01*
X53744180Y-64660498D01*
X53624482Y-64624188D01*
X53500000Y-64611928D01*
X50500000Y-64611928D01*
X50375518Y-64624188D01*
X50255820Y-64660498D01*
X50145506Y-64719463D01*
X50048815Y-64798815D01*
X49969463Y-64895506D01*
X49910498Y-65005820D01*
X49874188Y-65125518D01*
X49861928Y-65250000D01*
X49710000Y-65250000D01*
X49710000Y-63067609D01*
X49956538Y-63067609D01*
X49960409Y-63105282D01*
X50052579Y-63330533D01*
X50186922Y-63533474D01*
X50358275Y-63706307D01*
X50560054Y-63842390D01*
X50784504Y-63936493D01*
X51023000Y-63985000D01*
X51373000Y-63985000D01*
X51373000Y-62877000D01*
X51627000Y-62877000D01*
X51627000Y-63985000D01*
X51977000Y-63985000D01*
X52215496Y-63936493D01*
X52439946Y-63842390D01*
X52641725Y-63706307D01*
X52813078Y-63533474D01*
X52947421Y-63330533D01*
X53039591Y-63105282D01*
X53043462Y-63067609D01*
X52918731Y-62877000D01*
X51627000Y-62877000D01*
X51373000Y-62877000D01*
X50081269Y-62877000D01*
X49956538Y-63067609D01*
X49710000Y-63067609D01*
X49710000Y-62689133D01*
X53440472Y-62689133D01*
X53502965Y-62925450D01*
X53745678Y-63038850D01*
X54005849Y-63102719D01*
X54273482Y-63114604D01*
X54538291Y-63074048D01*
X54790100Y-62982609D01*
X54897035Y-62925450D01*
X54959528Y-62689133D01*
X54200000Y-61929605D01*
X53440472Y-62689133D01*
X49710000Y-62689133D01*
X49710000Y-62432391D01*
X49956538Y-62432391D01*
X50081269Y-62623000D01*
X51373000Y-62623000D01*
X51373000Y-61515000D01*
X51627000Y-61515000D01*
X51627000Y-62623000D01*
X52918731Y-62623000D01*
X53032503Y-62449138D01*
X53260867Y-62509528D01*
X54020395Y-61750000D01*
X54379605Y-61750000D01*
X55139133Y-62509528D01*
X55375450Y-62447035D01*
X55488850Y-62204322D01*
X55552719Y-61944151D01*
X55564604Y-61676518D01*
X55524048Y-61411709D01*
X55432609Y-61159900D01*
X55375450Y-61052965D01*
X55139133Y-60990472D01*
X54379605Y-61750000D01*
X54020395Y-61750000D01*
X53260867Y-60990472D01*
X53024550Y-61052965D01*
X52911150Y-61295678D01*
X52847281Y-61555849D01*
X52835396Y-61823482D01*
X52870615Y-62053442D01*
X52813078Y-61966526D01*
X52641725Y-61793693D01*
X52439946Y-61657610D01*
X52215496Y-61563507D01*
X51977000Y-61515000D01*
X51627000Y-61515000D01*
X51373000Y-61515000D01*
X51023000Y-61515000D01*
X50784504Y-61563507D01*
X50560054Y-61657610D01*
X50358275Y-61793693D01*
X50186922Y-61966526D01*
X50052579Y-62169467D01*
X49960409Y-62394718D01*
X49956538Y-62432391D01*
X49710000Y-62432391D01*
X49710000Y-60810867D01*
X53440472Y-60810867D01*
X54200000Y-61570395D01*
X54959528Y-60810867D01*
X54897035Y-60574550D01*
X54654322Y-60461150D01*
X54394151Y-60397281D01*
X54126518Y-60385396D01*
X53861709Y-60425952D01*
X53609900Y-60517391D01*
X53502965Y-60574550D01*
X53440472Y-60810867D01*
X49710000Y-60810867D01*
X49710000Y-57689133D01*
X53440472Y-57689133D01*
X53502965Y-57925450D01*
X53745678Y-58038850D01*
X54005849Y-58102719D01*
X54273482Y-58114604D01*
X54538291Y-58074048D01*
X54742207Y-58000000D01*
X70615000Y-58000000D01*
X70615000Y-61500000D01*
X70627201Y-61623882D01*
X70663336Y-61743004D01*
X70722017Y-61852787D01*
X70800987Y-61949013D01*
X72300987Y-63449013D01*
X72397213Y-63527983D01*
X72506996Y-63586664D01*
X72626118Y-63622799D01*
X72750000Y-63635000D01*
X76486974Y-63635000D01*
X78550987Y-65699013D01*
X78647213Y-65777983D01*
X78756996Y-65836664D01*
X78876118Y-65872799D01*
X79000000Y-65885000D01*
X98500000Y-65885000D01*
X98623882Y-65872799D01*
X98743004Y-65836664D01*
X98852787Y-65777983D01*
X98949013Y-65699013D01*
X99099859Y-65548167D01*
X99104172Y-65549025D01*
X99308050Y-65549025D01*
X99508009Y-65509251D01*
X99696367Y-65431230D01*
X99865885Y-65317962D01*
X100010048Y-65173799D01*
X100123316Y-65004281D01*
X100201337Y-64815923D01*
X100241111Y-64615964D01*
X100241111Y-64498061D01*
X107465000Y-64498061D01*
X107465000Y-64701939D01*
X107504774Y-64901898D01*
X107582795Y-65090256D01*
X107696063Y-65259774D01*
X107840226Y-65403937D01*
X108009744Y-65517205D01*
X108198102Y-65595226D01*
X108398061Y-65635000D01*
X108601939Y-65635000D01*
X108801898Y-65595226D01*
X108990256Y-65517205D01*
X109159774Y-65403937D01*
X109303937Y-65259774D01*
X109417205Y-65090256D01*
X109495226Y-64901898D01*
X109535000Y-64701939D01*
X109535000Y-64498061D01*
X109495226Y-64298102D01*
X109417205Y-64109744D01*
X109385000Y-64061546D01*
X109385000Y-63094042D01*
X122075000Y-63094042D01*
X122075000Y-63425958D01*
X122139754Y-63751496D01*
X122266772Y-64058147D01*
X122451175Y-64334125D01*
X122685875Y-64568825D01*
X122961853Y-64753228D01*
X123268504Y-64880246D01*
X123594042Y-64945000D01*
X123925958Y-64945000D01*
X124251496Y-64880246D01*
X124558147Y-64753228D01*
X124834125Y-64568825D01*
X125068825Y-64334125D01*
X125253228Y-64058147D01*
X125380246Y-63751496D01*
X125445000Y-63425958D01*
X125445000Y-63278177D01*
X125534747Y-63338144D01*
X125809549Y-63451971D01*
X126101278Y-63510000D01*
X126398722Y-63510000D01*
X126690451Y-63451971D01*
X126965253Y-63338144D01*
X127212569Y-63172893D01*
X127422893Y-62962569D01*
X127588144Y-62715253D01*
X127701971Y-62440451D01*
X127760000Y-62148722D01*
X127760000Y-61851278D01*
X127701971Y-61559549D01*
X127588144Y-61284747D01*
X127422893Y-61037431D01*
X127212569Y-60827107D01*
X126965253Y-60661856D01*
X126690451Y-60548029D01*
X126398722Y-60490000D01*
X126101278Y-60490000D01*
X125809549Y-60548029D01*
X125534747Y-60661856D01*
X125287431Y-60827107D01*
X125077107Y-61037431D01*
X124911856Y-61284747D01*
X124798029Y-61559549D01*
X124740000Y-61851278D01*
X124740000Y-61888283D01*
X124558147Y-61766772D01*
X124251496Y-61639754D01*
X123925958Y-61575000D01*
X123594042Y-61575000D01*
X123268504Y-61639754D01*
X122961853Y-61766772D01*
X122685875Y-61951175D01*
X122451175Y-62185875D01*
X122266772Y-62461853D01*
X122139754Y-62768504D01*
X122075000Y-63094042D01*
X109385000Y-63094042D01*
X109385000Y-61978711D01*
X109503937Y-61859774D01*
X109617205Y-61690256D01*
X109695226Y-61501898D01*
X109735000Y-61301939D01*
X109735000Y-61224849D01*
X115454756Y-61224849D01*
X115523310Y-61466268D01*
X115774556Y-61584668D01*
X116044071Y-61651778D01*
X116321502Y-61665018D01*
X116596184Y-61623879D01*
X116857562Y-61529943D01*
X116976690Y-61466268D01*
X117045244Y-61224849D01*
X116250000Y-60429605D01*
X115454756Y-61224849D01*
X109735000Y-61224849D01*
X109735000Y-61098061D01*
X109695226Y-60898102D01*
X109617205Y-60709744D01*
X109503937Y-60540226D01*
X109359774Y-60396063D01*
X109248186Y-60321502D01*
X114834982Y-60321502D01*
X114876121Y-60596184D01*
X114970057Y-60857562D01*
X115033732Y-60976690D01*
X115275151Y-61045244D01*
X116070395Y-60250000D01*
X116429605Y-60250000D01*
X117224849Y-61045244D01*
X117466268Y-60976690D01*
X117584668Y-60725444D01*
X117651778Y-60455929D01*
X117665018Y-60178498D01*
X117623879Y-59903816D01*
X117529943Y-59642438D01*
X117466268Y-59523310D01*
X117224849Y-59454756D01*
X116429605Y-60250000D01*
X116070395Y-60250000D01*
X115275151Y-59454756D01*
X115033732Y-59523310D01*
X114915332Y-59774556D01*
X114848222Y-60044071D01*
X114834982Y-60321502D01*
X109248186Y-60321502D01*
X109190256Y-60282795D01*
X109001898Y-60204774D01*
X108801939Y-60165000D01*
X108598061Y-60165000D01*
X108398102Y-60204774D01*
X108209744Y-60282795D01*
X108040226Y-60396063D01*
X107896063Y-60540226D01*
X107782795Y-60709744D01*
X107704774Y-60898102D01*
X107665000Y-61098061D01*
X107665000Y-61103897D01*
X107627805Y-61226511D01*
X107615000Y-61356524D01*
X107615000Y-61356531D01*
X107610719Y-61400000D01*
X107615000Y-61443469D01*
X107615001Y-64061544D01*
X107582795Y-64109744D01*
X107504774Y-64298102D01*
X107465000Y-64498061D01*
X100241111Y-64498061D01*
X100241111Y-64412086D01*
X100240253Y-64407773D01*
X100449013Y-64199013D01*
X100527983Y-64102787D01*
X100586664Y-63993004D01*
X100622799Y-63873882D01*
X100635000Y-63750000D01*
X100635000Y-61263026D01*
X100868839Y-61029187D01*
X100898061Y-61035000D01*
X101101939Y-61035000D01*
X101301898Y-60995226D01*
X101490256Y-60917205D01*
X101659774Y-60803937D01*
X101803937Y-60659774D01*
X101820490Y-60635000D01*
X102179510Y-60635000D01*
X102196063Y-60659774D01*
X102340226Y-60803937D01*
X102509744Y-60917205D01*
X102698102Y-60995226D01*
X102898061Y-61035000D01*
X103101939Y-61035000D01*
X103301898Y-60995226D01*
X103490256Y-60917205D01*
X103659774Y-60803937D01*
X103803937Y-60659774D01*
X103820490Y-60635000D01*
X104000000Y-60635000D01*
X104123882Y-60622799D01*
X104243004Y-60586664D01*
X104352787Y-60527983D01*
X104449013Y-60449013D01*
X104949013Y-59949013D01*
X105027983Y-59852787D01*
X105086664Y-59743004D01*
X105122799Y-59623882D01*
X105135000Y-59500000D01*
X105135000Y-59275151D01*
X115454756Y-59275151D01*
X116250000Y-60070395D01*
X117045244Y-59275151D01*
X116976690Y-59033732D01*
X116725444Y-58915332D01*
X116455929Y-58848222D01*
X116178498Y-58834982D01*
X115903816Y-58876121D01*
X115642438Y-58970057D01*
X115523310Y-59033732D01*
X115454756Y-59275151D01*
X105135000Y-59275151D01*
X105135000Y-57750000D01*
X105122799Y-57626118D01*
X105118252Y-57611127D01*
X109840000Y-57611127D01*
X109840000Y-57888873D01*
X109894186Y-58161282D01*
X110000475Y-58417885D01*
X110154782Y-58648822D01*
X110351178Y-58845218D01*
X110582115Y-58999525D01*
X110838718Y-59105814D01*
X111111127Y-59160000D01*
X111388873Y-59160000D01*
X111661282Y-59105814D01*
X111917885Y-58999525D01*
X112148822Y-58845218D01*
X112345218Y-58648822D01*
X112437976Y-58510000D01*
X115462678Y-58510000D01*
X115500000Y-58513676D01*
X115527326Y-58510985D01*
X115648061Y-58535000D01*
X115851939Y-58535000D01*
X116051898Y-58495226D01*
X116240256Y-58417205D01*
X116409774Y-58303937D01*
X116553937Y-58159774D01*
X116667205Y-57990256D01*
X116745226Y-57801898D01*
X116785000Y-57601939D01*
X116785000Y-57398061D01*
X116745226Y-57198102D01*
X116667205Y-57009744D01*
X116553937Y-56840226D01*
X116409774Y-56696063D01*
X116360399Y-56663072D01*
X117025000Y-56663072D01*
X117149482Y-56650812D01*
X117269180Y-56614502D01*
X117379494Y-56555537D01*
X117476185Y-56476185D01*
X117555537Y-56379494D01*
X117614502Y-56269180D01*
X117650812Y-56149482D01*
X117657257Y-56084042D01*
X122075000Y-56084042D01*
X122075000Y-56415958D01*
X122139754Y-56741496D01*
X122266772Y-57048147D01*
X122451175Y-57324125D01*
X122685875Y-57558825D01*
X122961853Y-57743228D01*
X123268504Y-57870246D01*
X123594042Y-57935000D01*
X123925958Y-57935000D01*
X124251496Y-57870246D01*
X124558147Y-57743228D01*
X124740000Y-57621717D01*
X124740000Y-57648722D01*
X124798029Y-57940451D01*
X124911856Y-58215253D01*
X125077107Y-58462569D01*
X125287431Y-58672893D01*
X125534747Y-58838144D01*
X125809549Y-58951971D01*
X126101278Y-59010000D01*
X126398722Y-59010000D01*
X126690451Y-58951971D01*
X126965253Y-58838144D01*
X127212569Y-58672893D01*
X127422893Y-58462569D01*
X127588144Y-58215253D01*
X127701971Y-57940451D01*
X127760000Y-57648722D01*
X127760000Y-57351278D01*
X127701971Y-57059549D01*
X127588144Y-56784747D01*
X127422893Y-56537431D01*
X127212569Y-56327107D01*
X126965253Y-56161856D01*
X126690451Y-56048029D01*
X126398722Y-55990000D01*
X126101278Y-55990000D01*
X125809549Y-56048029D01*
X125534747Y-56161856D01*
X125445000Y-56221823D01*
X125445000Y-56084042D01*
X125380246Y-55758504D01*
X125253228Y-55451853D01*
X125068825Y-55175875D01*
X124834125Y-54941175D01*
X124558147Y-54756772D01*
X124251496Y-54629754D01*
X123925958Y-54565000D01*
X123594042Y-54565000D01*
X123268504Y-54629754D01*
X122961853Y-54756772D01*
X122685875Y-54941175D01*
X122451175Y-55175875D01*
X122266772Y-55451853D01*
X122139754Y-55758504D01*
X122075000Y-56084042D01*
X117657257Y-56084042D01*
X117663072Y-56025000D01*
X117663072Y-54475000D01*
X117650812Y-54350518D01*
X117614502Y-54230820D01*
X117555537Y-54120506D01*
X117476185Y-54023815D01*
X117379494Y-53944463D01*
X117269180Y-53885498D01*
X117149482Y-53849188D01*
X117025000Y-53836928D01*
X115475000Y-53836928D01*
X115350518Y-53849188D01*
X115230820Y-53885498D01*
X115120506Y-53944463D01*
X115023815Y-54023815D01*
X114944463Y-54120506D01*
X114885498Y-54230820D01*
X114849188Y-54350518D01*
X114836928Y-54475000D01*
X114836928Y-56025000D01*
X114849188Y-56149482D01*
X114885498Y-56269180D01*
X114944463Y-56379494D01*
X115023815Y-56476185D01*
X115120506Y-56555537D01*
X115220526Y-56609000D01*
X115090226Y-56696063D01*
X114946063Y-56840226D01*
X114845987Y-56990000D01*
X112437976Y-56990000D01*
X112345218Y-56851178D01*
X112148822Y-56654782D01*
X111917885Y-56500475D01*
X111661282Y-56394186D01*
X111388873Y-56340000D01*
X111111127Y-56340000D01*
X110838718Y-56394186D01*
X110582115Y-56500475D01*
X110351178Y-56654782D01*
X110154782Y-56851178D01*
X110000475Y-57082115D01*
X109894186Y-57338718D01*
X109840000Y-57611127D01*
X105118252Y-57611127D01*
X105086664Y-57506996D01*
X105027983Y-57397213D01*
X104949013Y-57300987D01*
X104449013Y-56800987D01*
X104352787Y-56722017D01*
X104243004Y-56663336D01*
X104123882Y-56627201D01*
X104000000Y-56615000D01*
X90250000Y-56615000D01*
X90126118Y-56627201D01*
X90006996Y-56663336D01*
X89897213Y-56722017D01*
X89800987Y-56800987D01*
X88736974Y-57865000D01*
X86513026Y-57865000D01*
X85449013Y-56800987D01*
X85352787Y-56722017D01*
X85243004Y-56663336D01*
X85123882Y-56627201D01*
X85000000Y-56615000D01*
X72000000Y-56615000D01*
X71876118Y-56627201D01*
X71756996Y-56663336D01*
X71647213Y-56722017D01*
X71550987Y-56800987D01*
X70800987Y-57550987D01*
X70722017Y-57647213D01*
X70663336Y-57756996D01*
X70627201Y-57876118D01*
X70615000Y-58000000D01*
X54742207Y-58000000D01*
X54790100Y-57982609D01*
X54897035Y-57925450D01*
X54959528Y-57689133D01*
X54200000Y-56929605D01*
X53440472Y-57689133D01*
X49710000Y-57689133D01*
X49710000Y-56067609D01*
X49956538Y-56067609D01*
X49960409Y-56105282D01*
X50052579Y-56330533D01*
X50186922Y-56533474D01*
X50358275Y-56706307D01*
X50560054Y-56842390D01*
X50784504Y-56936493D01*
X51023000Y-56985000D01*
X51373000Y-56985000D01*
X51373000Y-55877000D01*
X51627000Y-55877000D01*
X51627000Y-56985000D01*
X51977000Y-56985000D01*
X52215496Y-56936493D01*
X52439946Y-56842390D01*
X52641725Y-56706307D01*
X52813078Y-56533474D01*
X52876171Y-56438164D01*
X52847281Y-56555849D01*
X52835396Y-56823482D01*
X52875952Y-57088291D01*
X52967391Y-57340100D01*
X53024550Y-57447035D01*
X53260867Y-57509528D01*
X54020395Y-56750000D01*
X54379605Y-56750000D01*
X55139133Y-57509528D01*
X55375450Y-57447035D01*
X55488850Y-57204322D01*
X55552719Y-56944151D01*
X55564604Y-56676518D01*
X55524048Y-56411709D01*
X55432609Y-56159900D01*
X55375450Y-56052965D01*
X55139133Y-55990472D01*
X54379605Y-56750000D01*
X54020395Y-56750000D01*
X53260867Y-55990472D01*
X53032503Y-56050862D01*
X52918731Y-55877000D01*
X51627000Y-55877000D01*
X51373000Y-55877000D01*
X50081269Y-55877000D01*
X49956538Y-56067609D01*
X49710000Y-56067609D01*
X49710000Y-55810867D01*
X53440472Y-55810867D01*
X54200000Y-56570395D01*
X54959528Y-55810867D01*
X54897035Y-55574550D01*
X54654322Y-55461150D01*
X54394151Y-55397281D01*
X54126518Y-55385396D01*
X53861709Y-55425952D01*
X53609900Y-55517391D01*
X53502965Y-55574550D01*
X53440472Y-55810867D01*
X49710000Y-55810867D01*
X49710000Y-55432391D01*
X49956538Y-55432391D01*
X50081269Y-55623000D01*
X51373000Y-55623000D01*
X51373000Y-54515000D01*
X51627000Y-54515000D01*
X51627000Y-55623000D01*
X52918731Y-55623000D01*
X53043462Y-55432391D01*
X53039591Y-55394718D01*
X52947421Y-55169467D01*
X52813078Y-54966526D01*
X52641725Y-54793693D01*
X52439946Y-54657610D01*
X52215496Y-54563507D01*
X51977000Y-54515000D01*
X51627000Y-54515000D01*
X51373000Y-54515000D01*
X51023000Y-54515000D01*
X50784504Y-54563507D01*
X50560054Y-54657610D01*
X50358275Y-54793693D01*
X50186922Y-54966526D01*
X50052579Y-55169467D01*
X49960409Y-55394718D01*
X49956538Y-55432391D01*
X49710000Y-55432391D01*
X49710000Y-54877268D01*
X50506437Y-54080831D01*
X81500000Y-54080831D01*
X81524776Y-54078391D01*
X81548601Y-54071164D01*
X81570557Y-54059428D01*
X81589455Y-54043980D01*
X83158546Y-52486963D01*
X83200912Y-52482790D01*
X83490260Y-52395017D01*
X83756926Y-52252481D01*
X83990661Y-52060661D01*
X84170000Y-51842135D01*
X84349339Y-52060661D01*
X84583073Y-52252481D01*
X84849739Y-52395017D01*
X85139087Y-52482790D01*
X85440000Y-52512427D01*
X85740912Y-52482790D01*
X86030260Y-52395017D01*
X86296926Y-52252481D01*
X86530661Y-52060661D01*
X86710000Y-51842135D01*
X86889339Y-52060661D01*
X87123073Y-52252481D01*
X87389739Y-52395017D01*
X87679087Y-52482790D01*
X87980000Y-52512427D01*
X88280912Y-52482790D01*
X88570260Y-52395017D01*
X88836926Y-52252481D01*
X89070661Y-52060661D01*
X89250000Y-51842135D01*
X89429339Y-52060661D01*
X89663073Y-52252481D01*
X89929739Y-52395017D01*
X90219087Y-52482790D01*
X90520000Y-52512427D01*
X90820912Y-52482790D01*
X91110260Y-52395017D01*
X91376926Y-52252481D01*
X91610661Y-52060661D01*
X91790000Y-51842135D01*
X91969339Y-52060661D01*
X92203073Y-52252481D01*
X92469739Y-52395017D01*
X92759087Y-52482790D01*
X93060000Y-52512427D01*
X93360912Y-52482790D01*
X93650260Y-52395017D01*
X93916926Y-52252481D01*
X94150661Y-52060661D01*
X94330000Y-51842135D01*
X94509339Y-52060661D01*
X94743073Y-52252481D01*
X95009739Y-52395017D01*
X95299087Y-52482790D01*
X95600000Y-52512427D01*
X95900912Y-52482790D01*
X96190260Y-52395017D01*
X96456926Y-52252481D01*
X96690661Y-52060661D01*
X96870000Y-51842135D01*
X97049339Y-52060661D01*
X97283073Y-52252481D01*
X97549739Y-52395017D01*
X97839087Y-52482790D01*
X98140000Y-52512427D01*
X98440912Y-52482790D01*
X98730260Y-52395017D01*
X98996926Y-52252481D01*
X99230661Y-52060661D01*
X99410000Y-51842135D01*
X99589339Y-52060661D01*
X99823073Y-52252481D01*
X100089739Y-52395017D01*
X100379087Y-52482790D01*
X100680000Y-52512427D01*
X100980912Y-52482790D01*
X101270260Y-52395017D01*
X101536926Y-52252481D01*
X101770661Y-52060661D01*
X101950000Y-51842135D01*
X102129339Y-52060661D01*
X102363073Y-52252481D01*
X102629739Y-52395017D01*
X102919087Y-52482790D01*
X103220000Y-52512427D01*
X103520912Y-52482790D01*
X103810260Y-52395017D01*
X104076926Y-52252481D01*
X104310661Y-52060661D01*
X104490000Y-51842135D01*
X104669339Y-52060661D01*
X104903073Y-52252481D01*
X105169739Y-52395017D01*
X105459087Y-52482790D01*
X105760000Y-52512427D01*
X106060912Y-52482790D01*
X106350260Y-52395017D01*
X106616926Y-52252481D01*
X106850661Y-52060661D01*
X107030000Y-51842135D01*
X107209339Y-52060661D01*
X107443073Y-52252481D01*
X107709739Y-52395017D01*
X107999087Y-52482790D01*
X108300000Y-52512427D01*
X108600912Y-52482790D01*
X108890260Y-52395017D01*
X109156926Y-52252481D01*
X109390661Y-52060661D01*
X109570000Y-51842135D01*
X109749339Y-52060661D01*
X109983073Y-52252481D01*
X110249739Y-52395017D01*
X110539087Y-52482790D01*
X110840000Y-52512427D01*
X111140912Y-52482790D01*
X111430260Y-52395017D01*
X111696926Y-52252481D01*
X111930661Y-52060661D01*
X112110000Y-51842135D01*
X112289339Y-52060661D01*
X112523073Y-52252481D01*
X112789739Y-52395017D01*
X113079087Y-52482790D01*
X113380000Y-52512427D01*
X113680912Y-52482790D01*
X113970260Y-52395017D01*
X114236926Y-52252481D01*
X114470661Y-52060661D01*
X114650000Y-51842135D01*
X114829339Y-52060661D01*
X115063073Y-52252481D01*
X115329739Y-52395017D01*
X115619087Y-52482790D01*
X115920000Y-52512427D01*
X116220912Y-52482790D01*
X116510260Y-52395017D01*
X116776926Y-52252481D01*
X117010661Y-52060661D01*
X117190000Y-51842135D01*
X117369339Y-52060661D01*
X117603073Y-52252481D01*
X117869739Y-52395017D01*
X118159087Y-52482790D01*
X118460000Y-52512427D01*
X118760912Y-52482790D01*
X119050260Y-52395017D01*
X119316926Y-52252481D01*
X119505505Y-52097720D01*
X119510498Y-52114180D01*
X119569463Y-52224494D01*
X119648815Y-52321185D01*
X119745506Y-52400537D01*
X119855820Y-52459502D01*
X119975518Y-52495812D01*
X120100000Y-52508072D01*
X120714250Y-52505000D01*
X120873000Y-52346250D01*
X120873000Y-50697000D01*
X121127000Y-50697000D01*
X121127000Y-52346250D01*
X121285750Y-52505000D01*
X121900000Y-52508072D01*
X122024482Y-52495812D01*
X122144180Y-52459502D01*
X122254494Y-52400537D01*
X122351185Y-52321185D01*
X122430537Y-52224494D01*
X122489502Y-52114180D01*
X122525812Y-51994482D01*
X122538072Y-51870000D01*
X122535000Y-50855750D01*
X122376250Y-50697000D01*
X121127000Y-50697000D01*
X120873000Y-50697000D01*
X120853000Y-50697000D01*
X120853000Y-50443000D01*
X120873000Y-50443000D01*
X120873000Y-50423000D01*
X121127000Y-50423000D01*
X121127000Y-50443000D01*
X122376250Y-50443000D01*
X122535000Y-50284250D01*
X122538072Y-49270000D01*
X122525812Y-49145518D01*
X122489502Y-49025820D01*
X122430537Y-48915506D01*
X122351185Y-48818815D01*
X122254494Y-48739463D01*
X122199373Y-48710000D01*
X125439889Y-48710000D01*
X125138117Y-48911637D01*
G37*
X125138117Y-48911637D02*
X124840737Y-49209017D01*
X124607088Y-49558698D01*
X124446147Y-49947244D01*
X124364100Y-50359721D01*
X124364100Y-50780279D01*
X124446147Y-51192756D01*
X124607088Y-51581302D01*
X124840737Y-51930983D01*
X125138117Y-52228363D01*
X125487798Y-52462012D01*
X125876344Y-52622953D01*
X126288821Y-52705000D01*
X126709379Y-52705000D01*
X127121856Y-52622953D01*
X127510402Y-52462012D01*
X127860083Y-52228363D01*
X128157463Y-51930983D01*
X128290001Y-51732626D01*
X128290000Y-76688054D01*
X128107916Y-76870138D01*
X128055752Y-76865000D01*
X126155752Y-76865000D01*
X126100000Y-76859509D01*
X126044248Y-76865000D01*
X125935354Y-76875725D01*
X125877501Y-76881423D01*
X125663553Y-76946324D01*
X125466377Y-77051716D01*
X125336856Y-77158011D01*
X125336855Y-77158012D01*
X125293551Y-77193551D01*
X125258013Y-77236854D01*
X122336857Y-80158012D01*
X121929869Y-80565000D01*
X121488072Y-80565000D01*
X121488072Y-79900000D01*
X121475812Y-79775518D01*
X121439502Y-79655820D01*
X121380537Y-79545506D01*
X121301185Y-79448815D01*
X121204494Y-79369463D01*
X121094180Y-79310498D01*
X121052310Y-79297797D01*
X121153475Y-79196632D01*
X121315990Y-78953411D01*
X121427932Y-78683158D01*
X121485000Y-78396260D01*
X121485000Y-78103740D01*
X121427932Y-77816842D01*
X121315990Y-77546589D01*
X121153475Y-77303368D01*
X120946632Y-77096525D01*
X120703411Y-76934010D01*
X120433158Y-76822068D01*
X120146260Y-76765000D01*
X119853740Y-76765000D01*
X119566842Y-76822068D01*
X119296589Y-76934010D01*
X119053368Y-77096525D01*
X118871858Y-77278035D01*
X118775990Y-77046589D01*
X118613475Y-76803368D01*
X118406632Y-76596525D01*
X118163411Y-76434010D01*
X117893158Y-76322068D01*
X117606260Y-76265000D01*
X117313740Y-76265000D01*
X117026842Y-76322068D01*
X116756589Y-76434010D01*
X116513368Y-76596525D01*
X116306525Y-76803368D01*
X116144010Y-77046589D01*
X116032068Y-77316842D01*
X115975000Y-77603740D01*
X115975000Y-77896260D01*
X116032068Y-78183158D01*
X116144010Y-78453411D01*
X116306525Y-78696632D01*
X116513368Y-78903475D01*
X116657828Y-79000000D01*
X116513368Y-79096525D01*
X116306525Y-79303368D01*
X116144010Y-79546589D01*
X116032068Y-79816842D01*
X115975000Y-80103740D01*
X115975000Y-80396260D01*
X116032068Y-80683158D01*
X116144010Y-80953411D01*
X116306525Y-81196632D01*
X116325000Y-81215107D01*
X116325000Y-81319868D01*
X115578102Y-82066767D01*
X103720603Y-82111343D01*
X103745226Y-82051898D01*
X103785000Y-81851939D01*
X103785000Y-81648061D01*
X103745226Y-81448102D01*
X103667205Y-81259744D01*
X103553937Y-81090226D01*
X103409774Y-80946063D01*
X103240256Y-80832795D01*
X103051898Y-80754774D01*
X102851939Y-80715000D01*
X102648061Y-80715000D01*
X102448102Y-80754774D01*
X102259744Y-80832795D01*
X102090226Y-80946063D01*
X101946063Y-81090226D01*
X101832795Y-81259744D01*
X101754774Y-81448102D01*
X101715000Y-81648061D01*
X101715000Y-81851939D01*
X101754774Y-82051898D01*
X101780474Y-82113943D01*
X86035000Y-82096772D01*
X86035000Y-81898061D01*
X85995226Y-81698102D01*
X85917205Y-81509744D01*
X85803937Y-81340226D01*
X85659774Y-81196063D01*
X85490256Y-81082795D01*
X85301898Y-81004774D01*
X85101939Y-80965000D01*
X84898061Y-80965000D01*
X84698102Y-81004774D01*
X84509744Y-81082795D01*
X84340226Y-81196063D01*
X84196063Y-81340226D01*
X84082795Y-81509744D01*
X84047741Y-81594372D01*
X81577060Y-81594372D01*
X81590278Y-81550798D01*
X81606701Y-81384050D01*
X81612192Y-81328299D01*
X81606701Y-81272547D01*
X81606701Y-80027453D01*
X81612192Y-79971701D01*
X81590278Y-79749202D01*
X81525377Y-79535254D01*
X81419985Y-79338078D01*
X81313690Y-79208557D01*
X81313688Y-79208555D01*
X81278150Y-79165252D01*
X81234847Y-79129714D01*
X79841995Y-77736864D01*
X79806449Y-77693551D01*
X79633623Y-77551716D01*
X79436447Y-77446324D01*
X79278526Y-77398419D01*
X79226632Y-77346525D01*
X78983411Y-77184010D01*
X78713158Y-77072068D01*
X78426260Y-77015000D01*
X78133740Y-77015000D01*
X77846842Y-77072068D01*
X77576589Y-77184010D01*
X77333368Y-77346525D01*
X77143593Y-77536300D01*
X77084157Y-77368748D01*
X76935178Y-77118645D01*
X76740269Y-76902412D01*
X76506920Y-76728359D01*
X76244099Y-76603175D01*
X76096890Y-76558524D01*
X75867000Y-76679845D01*
X75867000Y-77873000D01*
X75887000Y-77873000D01*
X75887000Y-78127000D01*
X75867000Y-78127000D01*
X75867000Y-78147000D01*
X75613000Y-78147000D01*
X75613000Y-78127000D01*
X75593000Y-78127000D01*
X75593000Y-77873000D01*
X75613000Y-77873000D01*
X75613000Y-76679845D01*
X75383110Y-76558524D01*
X75235901Y-76603175D01*
X74973080Y-76728359D01*
X74875755Y-76800953D01*
X74363803Y-76289002D01*
X74340001Y-76259999D01*
X74224276Y-76165026D01*
X74092247Y-76094454D01*
X73948986Y-76050997D01*
X73837333Y-76040000D01*
X73837322Y-76040000D01*
X73800000Y-76036324D01*
X73762678Y-76040000D01*
X72364802Y-76040000D01*
X71963803Y-75639002D01*
X71940001Y-75609999D01*
X71842255Y-75529781D01*
X71895226Y-75401898D01*
X71935000Y-75201939D01*
X71935000Y-74998061D01*
X71895226Y-74798102D01*
X71817205Y-74609744D01*
X71703937Y-74440226D01*
X71559774Y-74296063D01*
X71390256Y-74182795D01*
X71201898Y-74104774D01*
X71127256Y-74089927D01*
X69737845Y-72700517D01*
X69737845Y-70558509D01*
X69857619Y-70478479D01*
X70001782Y-70334316D01*
X70115050Y-70164798D01*
X70193071Y-69976440D01*
X70232845Y-69776481D01*
X70232845Y-69572603D01*
X70193071Y-69372644D01*
X70115050Y-69184286D01*
X70001782Y-69014768D01*
X69857619Y-68870605D01*
X69688101Y-68757337D01*
X69499743Y-68679316D01*
X69299784Y-68639542D01*
X69095906Y-68639542D01*
X68895947Y-68679316D01*
X68707589Y-68757337D01*
X68641505Y-68801493D01*
X68596909Y-68771695D01*
X68408551Y-68693674D01*
X68208592Y-68653900D01*
X68004714Y-68653900D01*
X67804755Y-68693674D01*
X67616397Y-68771695D01*
X67446879Y-68884963D01*
X67302716Y-69029126D01*
X67264158Y-69086833D01*
X65866327Y-67689003D01*
X65849086Y-67667995D01*
X65855147Y-67653363D01*
X65866147Y-67598061D01*
X72965000Y-67598061D01*
X72965000Y-67801939D01*
X73004774Y-68001898D01*
X73082795Y-68190256D01*
X73156123Y-68300000D01*
X73082795Y-68409744D01*
X73004774Y-68598102D01*
X72965000Y-68798061D01*
X72965000Y-69001939D01*
X73004774Y-69201898D01*
X73082795Y-69390256D01*
X73156123Y-69500000D01*
X73082795Y-69609744D01*
X73004774Y-69798102D01*
X72965000Y-69998061D01*
X72965000Y-70201939D01*
X73004774Y-70401898D01*
X73082795Y-70590256D01*
X73196063Y-70759774D01*
X73340226Y-70903937D01*
X73509744Y-71017205D01*
X73698102Y-71095226D01*
X73898061Y-71135000D01*
X74101939Y-71135000D01*
X74301898Y-71095226D01*
X74490256Y-71017205D01*
X74659774Y-70903937D01*
X74703711Y-70860000D01*
X75943533Y-70860000D01*
X79352314Y-74268782D01*
X79257237Y-74332310D01*
X79113074Y-74476473D01*
X78999806Y-74645991D01*
X78921785Y-74834349D01*
X78882011Y-75034308D01*
X78882011Y-75238186D01*
X78921785Y-75438145D01*
X78999806Y-75626503D01*
X79113074Y-75796021D01*
X79257237Y-75940184D01*
X79426755Y-76053452D01*
X79615113Y-76131473D01*
X79815072Y-76171247D01*
X80018950Y-76171247D01*
X80218909Y-76131473D01*
X80269556Y-76110494D01*
X81565596Y-77406535D01*
X81565597Y-77992397D01*
X81561920Y-78029729D01*
X81565597Y-78067062D01*
X81576594Y-78178715D01*
X81583662Y-78202015D01*
X81620050Y-78321975D01*
X81690622Y-78454005D01*
X81758180Y-78536324D01*
X81785596Y-78569730D01*
X81814594Y-78593528D01*
X82501066Y-79280000D01*
X82524864Y-79308999D01*
X82640589Y-79403972D01*
X82772618Y-79474544D01*
X82915879Y-79518001D01*
X83027532Y-79528998D01*
X83027541Y-79528998D01*
X83064864Y-79532674D01*
X83102187Y-79528998D01*
X83140168Y-79528998D01*
X83184105Y-79572935D01*
X83353623Y-79686203D01*
X83541981Y-79764224D01*
X83741940Y-79803998D01*
X83945818Y-79803998D01*
X84145777Y-79764224D01*
X84334135Y-79686203D01*
X84503653Y-79572935D01*
X84606439Y-79470150D01*
X84740226Y-79603937D01*
X84909744Y-79717205D01*
X85098102Y-79795226D01*
X85298061Y-79835000D01*
X85501939Y-79835000D01*
X85701898Y-79795226D01*
X85890256Y-79717205D01*
X86059774Y-79603937D01*
X86203937Y-79459774D01*
X86317205Y-79290256D01*
X86321506Y-79279872D01*
X86765000Y-79279872D01*
X86765000Y-79720128D01*
X86850890Y-80151925D01*
X87019369Y-80558669D01*
X87263962Y-80924729D01*
X87575271Y-81236038D01*
X87941331Y-81480631D01*
X88348075Y-81649110D01*
X88779872Y-81735000D01*
X89220128Y-81735000D01*
X89651925Y-81649110D01*
X90058669Y-81480631D01*
X90424729Y-81236038D01*
X90736038Y-80924729D01*
X90980631Y-80558669D01*
X91149110Y-80151925D01*
X91235000Y-79720128D01*
X91235000Y-79279872D01*
X91149110Y-78848075D01*
X90980631Y-78441331D01*
X90736038Y-78075271D01*
X90424729Y-77763962D01*
X90058669Y-77519369D01*
X89651925Y-77350890D01*
X89220128Y-77265000D01*
X88779872Y-77265000D01*
X88348075Y-77350890D01*
X87941331Y-77519369D01*
X87575271Y-77763962D01*
X87263962Y-78075271D01*
X87019369Y-78441331D01*
X86850890Y-78848075D01*
X86765000Y-79279872D01*
X86321506Y-79279872D01*
X86395226Y-79101898D01*
X86435000Y-78901939D01*
X86435000Y-78698061D01*
X86395226Y-78498102D01*
X86317205Y-78309744D01*
X86203937Y-78140226D01*
X86160000Y-78096289D01*
X86160000Y-77777537D01*
X86163676Y-77740214D01*
X86160000Y-77702891D01*
X86160000Y-77702882D01*
X86149003Y-77591229D01*
X86105546Y-77447968D01*
X86034974Y-77315939D01*
X85940001Y-77200214D01*
X85911003Y-77176416D01*
X80871735Y-72137148D01*
X95822032Y-72137148D01*
X95822032Y-72341026D01*
X95861806Y-72540985D01*
X95939827Y-72729343D01*
X95983526Y-72794744D01*
X95984837Y-72808052D01*
X96035443Y-72974875D01*
X96117621Y-73128621D01*
X96228216Y-73263379D01*
X96261983Y-73291091D01*
X97950606Y-74979715D01*
X97961915Y-75036569D01*
X98039936Y-75224927D01*
X98153204Y-75394445D01*
X98297367Y-75538608D01*
X98466885Y-75651876D01*
X98655243Y-75729897D01*
X98855202Y-75769671D01*
X99059080Y-75769671D01*
X99259039Y-75729897D01*
X99447397Y-75651876D01*
X99616915Y-75538608D01*
X99761078Y-75394445D01*
X99874346Y-75224927D01*
X99952367Y-75036569D01*
X99992141Y-74836610D01*
X99992141Y-74632732D01*
X99952367Y-74432773D01*
X99874346Y-74244415D01*
X99761078Y-74074897D01*
X99616915Y-73930734D01*
X99447397Y-73817466D01*
X99259039Y-73739445D01*
X99202185Y-73728136D01*
X97879264Y-72405216D01*
X97892032Y-72341026D01*
X97892032Y-72137148D01*
X97852258Y-71937189D01*
X97774237Y-71748831D01*
X97706905Y-71648061D01*
X100215000Y-71648061D01*
X100215000Y-71851939D01*
X100254774Y-72051898D01*
X100332795Y-72240256D01*
X100365001Y-72288455D01*
X100365000Y-73206530D01*
X100360719Y-73250000D01*
X100365000Y-73293469D01*
X100365000Y-73293476D01*
X100377805Y-73423489D01*
X100428411Y-73590312D01*
X100510589Y-73744058D01*
X100621183Y-73878817D01*
X100654956Y-73906534D01*
X101115001Y-74366579D01*
X101115000Y-74711545D01*
X101082795Y-74759744D01*
X101004774Y-74948102D01*
X100965000Y-75148061D01*
X100965000Y-75351939D01*
X101004774Y-75551898D01*
X101082795Y-75740256D01*
X101196063Y-75909774D01*
X101340226Y-76053937D01*
X101509744Y-76167205D01*
X101698102Y-76245226D01*
X101898061Y-76285000D01*
X102101939Y-76285000D01*
X102301898Y-76245226D01*
X102490256Y-76167205D01*
X102500000Y-76160694D01*
X102509744Y-76167205D01*
X102698102Y-76245226D01*
X102898061Y-76285000D01*
X103101939Y-76285000D01*
X103301898Y-76245226D01*
X103490256Y-76167205D01*
X103659774Y-76053937D01*
X103803937Y-75909774D01*
X103917205Y-75740256D01*
X103995226Y-75551898D01*
X104035000Y-75351939D01*
X104035000Y-75148061D01*
X103995226Y-74948102D01*
X103917205Y-74759744D01*
X103885000Y-74711546D01*
X103885000Y-73793465D01*
X103889281Y-73749999D01*
X103885000Y-73706533D01*
X103885000Y-73706523D01*
X103872195Y-73576510D01*
X103821589Y-73409687D01*
X103739411Y-73255941D01*
X103697048Y-73204322D01*
X103656532Y-73154953D01*
X103656530Y-73154951D01*
X103628817Y-73121183D01*
X103595050Y-73093471D01*
X103507521Y-73005942D01*
X107680959Y-73005942D01*
X107680959Y-73209820D01*
X107720733Y-73409779D01*
X107798754Y-73598137D01*
X107912022Y-73767655D01*
X108056185Y-73911818D01*
X108225703Y-74025086D01*
X108414061Y-74103107D01*
X108614020Y-74142881D01*
X108817898Y-74142881D01*
X109017857Y-74103107D01*
X109206215Y-74025086D01*
X109375733Y-73911818D01*
X109519896Y-73767655D01*
X109633164Y-73598137D01*
X109711185Y-73409779D01*
X109750959Y-73209820D01*
X109750959Y-73147683D01*
X109761003Y-73137638D01*
X109790001Y-73113841D01*
X109824099Y-73072292D01*
X109884974Y-72998117D01*
X109955546Y-72866087D01*
X109980143Y-72785000D01*
X109999003Y-72722826D01*
X110010000Y-72611173D01*
X110010000Y-72611164D01*
X110013676Y-72573841D01*
X110010000Y-72536518D01*
X110010000Y-72064801D01*
X110239801Y-71835000D01*
X110401939Y-71835000D01*
X110601898Y-71795226D01*
X110790256Y-71717205D01*
X110959774Y-71603937D01*
X111103937Y-71459774D01*
X111217205Y-71290256D01*
X111295226Y-71101898D01*
X111335000Y-70901939D01*
X111335000Y-70698061D01*
X111295226Y-70498102D01*
X111217205Y-70309744D01*
X111103937Y-70140226D01*
X110959774Y-69996063D01*
X110790256Y-69882795D01*
X110601898Y-69804774D01*
X110401939Y-69765000D01*
X110198061Y-69765000D01*
X109998102Y-69804774D01*
X109809744Y-69882795D01*
X109640226Y-69996063D01*
X109496063Y-70140226D01*
X109382795Y-70309744D01*
X109304774Y-70498102D01*
X109274401Y-70650797D01*
X108738998Y-71186201D01*
X108710000Y-71209999D01*
X108686202Y-71238997D01*
X108686201Y-71238998D01*
X108615026Y-71325724D01*
X108544454Y-71457754D01*
X108516775Y-71549003D01*
X108500998Y-71601014D01*
X108490000Y-71712667D01*
X108490000Y-71712678D01*
X108486324Y-71750000D01*
X108490000Y-71787322D01*
X108490000Y-72097550D01*
X108414061Y-72112655D01*
X108225703Y-72190676D01*
X108056185Y-72303944D01*
X107912022Y-72448107D01*
X107798754Y-72617625D01*
X107720733Y-72805983D01*
X107680959Y-73005942D01*
X103507521Y-73005942D01*
X103135000Y-72633422D01*
X103135000Y-72288454D01*
X103167205Y-72240256D01*
X103245226Y-72051898D01*
X103285000Y-71851939D01*
X103285000Y-71648061D01*
X103245226Y-71448102D01*
X103167205Y-71259744D01*
X103053937Y-71090226D01*
X102909774Y-70946063D01*
X102740256Y-70832795D01*
X102551898Y-70754774D01*
X102351939Y-70715000D01*
X102148061Y-70715000D01*
X101948102Y-70754774D01*
X101759744Y-70832795D01*
X101750000Y-70839306D01*
X101740256Y-70832795D01*
X101551898Y-70754774D01*
X101351939Y-70715000D01*
X101148061Y-70715000D01*
X100948102Y-70754774D01*
X100759744Y-70832795D01*
X100590226Y-70946063D01*
X100446063Y-71090226D01*
X100332795Y-71259744D01*
X100254774Y-71448102D01*
X100215000Y-71648061D01*
X97706905Y-71648061D01*
X97660969Y-71579313D01*
X97516806Y-71435150D01*
X97347288Y-71321882D01*
X97158930Y-71243861D01*
X96958971Y-71204087D01*
X96755093Y-71204087D01*
X96555134Y-71243861D01*
X96366776Y-71321882D01*
X96197258Y-71435150D01*
X96053095Y-71579313D01*
X95939827Y-71748831D01*
X95861806Y-71937189D01*
X95822032Y-72137148D01*
X80871735Y-72137148D01*
X78432648Y-69698061D01*
X118565000Y-69698061D01*
X118565000Y-69901939D01*
X118604774Y-70101898D01*
X118682795Y-70290256D01*
X118796063Y-70459774D01*
X118940226Y-70603937D01*
X119109744Y-70717205D01*
X119298102Y-70795226D01*
X119498061Y-70835000D01*
X119555895Y-70835000D01*
X119559999Y-70840001D01*
X119675724Y-70934974D01*
X119807753Y-71005546D01*
X119951014Y-71049003D01*
X120062667Y-71060000D01*
X120062675Y-71060000D01*
X120100000Y-71063676D01*
X120137325Y-71060000D01*
X121285199Y-71060000D01*
X123340001Y-73114803D01*
X123340000Y-73596289D01*
X123296063Y-73640226D01*
X123182795Y-73809744D01*
X123104774Y-73998102D01*
X123065000Y-74198061D01*
X123065000Y-74401939D01*
X123104774Y-74601898D01*
X123182795Y-74790256D01*
X123296063Y-74959774D01*
X123336289Y-75000000D01*
X123296063Y-75040226D01*
X123182795Y-75209744D01*
X123104774Y-75398102D01*
X123065000Y-75598061D01*
X123065000Y-75801939D01*
X123104774Y-76001898D01*
X123182795Y-76190256D01*
X123296063Y-76359774D01*
X123440226Y-76503937D01*
X123609744Y-76617205D01*
X123798102Y-76695226D01*
X123998061Y-76735000D01*
X124201939Y-76735000D01*
X124401898Y-76695226D01*
X124590256Y-76617205D01*
X124759774Y-76503937D01*
X124903937Y-76359774D01*
X125017205Y-76190256D01*
X125095226Y-76001898D01*
X125135000Y-75801939D01*
X125135000Y-75739801D01*
X125711003Y-75163799D01*
X125740001Y-75140001D01*
X125772830Y-75099999D01*
X125834974Y-75024277D01*
X125905546Y-74892247D01*
X125920181Y-74844000D01*
X125949003Y-74748986D01*
X125960000Y-74637333D01*
X125960000Y-74637323D01*
X125963676Y-74600000D01*
X125960000Y-74562677D01*
X125960000Y-69837322D01*
X125963676Y-69799999D01*
X125960000Y-69762676D01*
X125960000Y-69762667D01*
X125949003Y-69651014D01*
X125905546Y-69507753D01*
X125834974Y-69375724D01*
X125740001Y-69259999D01*
X125710998Y-69236197D01*
X125463804Y-68989003D01*
X125463799Y-68988997D01*
X125135000Y-68660198D01*
X125135000Y-68598061D01*
X125095226Y-68398102D01*
X125017205Y-68209744D01*
X124903937Y-68040226D01*
X124759774Y-67896063D01*
X124590256Y-67782795D01*
X124401898Y-67704774D01*
X124201939Y-67665000D01*
X123998061Y-67665000D01*
X123798102Y-67704774D01*
X123609744Y-67782795D01*
X123440226Y-67896063D01*
X123296063Y-68040226D01*
X123182795Y-68209744D01*
X123104774Y-68398102D01*
X123065000Y-68598061D01*
X123065000Y-68801939D01*
X123104774Y-69001898D01*
X123182795Y-69190256D01*
X123296063Y-69359774D01*
X123440226Y-69503937D01*
X123609744Y-69617205D01*
X123798102Y-69695226D01*
X123998061Y-69735000D01*
X124060198Y-69735000D01*
X124388997Y-70063799D01*
X124389003Y-70063804D01*
X124440000Y-70114801D01*
X124440000Y-72065199D01*
X122163804Y-69789003D01*
X122140001Y-69759999D01*
X122024276Y-69665026D01*
X121892247Y-69594454D01*
X121748986Y-69550997D01*
X121637333Y-69540000D01*
X121637322Y-69540000D01*
X121600000Y-69536324D01*
X121562678Y-69540000D01*
X120603560Y-69540000D01*
X120595226Y-69498102D01*
X120517205Y-69309744D01*
X120403937Y-69140226D01*
X120259774Y-68996063D01*
X120090256Y-68882795D01*
X119901898Y-68804774D01*
X119701939Y-68765000D01*
X119498061Y-68765000D01*
X119298102Y-68804774D01*
X119109744Y-68882795D01*
X118940226Y-68996063D01*
X118796063Y-69140226D01*
X118682795Y-69309744D01*
X118604774Y-69498102D01*
X118565000Y-69698061D01*
X78432648Y-69698061D01*
X75923589Y-67189003D01*
X75899786Y-67159999D01*
X75784061Y-67065026D01*
X75652032Y-66994454D01*
X75508771Y-66950997D01*
X75397118Y-66940000D01*
X75397107Y-66940000D01*
X75359785Y-66936324D01*
X75322463Y-66940000D01*
X74703711Y-66940000D01*
X74659774Y-66896063D01*
X74490256Y-66782795D01*
X74301898Y-66704774D01*
X74101939Y-66665000D01*
X73898061Y-66665000D01*
X73698102Y-66704774D01*
X73509744Y-66782795D01*
X73340226Y-66896063D01*
X73196063Y-67040226D01*
X73082795Y-67209744D01*
X73004774Y-67398102D01*
X72965000Y-67598061D01*
X65866147Y-67598061D01*
X65894921Y-67453404D01*
X65894921Y-67249526D01*
X65855147Y-67049567D01*
X65777126Y-66861209D01*
X65663858Y-66691691D01*
X65519695Y-66547528D01*
X65350177Y-66434260D01*
X65161819Y-66356239D01*
X64961860Y-66316465D01*
X64757982Y-66316465D01*
X64558023Y-66356239D01*
X64397523Y-66422721D01*
X62613804Y-64639003D01*
X62590001Y-64609999D01*
X62576640Y-64599034D01*
X62503937Y-64490226D01*
X62359774Y-64346063D01*
X62190256Y-64232795D01*
X62001898Y-64154774D01*
X61801939Y-64115000D01*
X61598061Y-64115000D01*
X61398102Y-64154774D01*
X61209744Y-64232795D01*
X61040226Y-64346063D01*
X60896063Y-64490226D01*
X60782795Y-64659744D01*
X60704774Y-64848102D01*
X60665000Y-65048061D01*
X60665000Y-65209907D01*
X60609744Y-65232795D01*
X60440226Y-65346063D01*
X60296063Y-65490226D01*
X60182795Y-65659744D01*
X60104774Y-65848102D01*
X60065000Y-66048061D01*
X60065000Y-66251939D01*
X60104774Y-66451898D01*
X60182795Y-66640256D01*
X60296063Y-66809774D01*
X60440226Y-66953937D01*
X60575667Y-67044435D01*
X60565000Y-67098061D01*
X60565000Y-67280618D01*
X60559744Y-67282795D01*
X60390226Y-67396063D01*
X60246063Y-67540226D01*
X60132795Y-67709744D01*
X60054774Y-67898102D01*
X60015000Y-68098061D01*
X60015000Y-68301939D01*
X60054774Y-68501898D01*
X60132795Y-68690256D01*
X60246063Y-68859774D01*
X60390226Y-69003937D01*
X60525667Y-69094435D01*
X60515000Y-69148061D01*
X60515000Y-69262692D01*
X60390226Y-69346063D01*
X60246063Y-69490226D01*
X60132795Y-69659744D01*
X60054774Y-69848102D01*
X60015000Y-70048061D01*
X60015000Y-70251939D01*
X60054774Y-70451898D01*
X60132795Y-70640256D01*
X60246063Y-70809774D01*
X60390226Y-70953937D01*
X60516888Y-71038570D01*
X60515000Y-71048061D01*
X60515000Y-71251939D01*
X60554774Y-71451898D01*
X60632795Y-71640256D01*
X60746063Y-71809774D01*
X60890226Y-71953937D01*
X61040000Y-72054013D01*
X61040001Y-74022458D01*
X61011841Y-74075141D01*
X60968384Y-74218402D01*
X60957387Y-74330055D01*
X60957387Y-74330065D01*
X60953711Y-74367387D01*
X60957387Y-74404710D01*
X60957387Y-76511928D01*
X59650000Y-76511928D01*
X59525518Y-76524188D01*
X59405820Y-76560498D01*
X59295506Y-76619463D01*
X59198815Y-76698815D01*
X59119463Y-76795506D01*
X59060498Y-76905820D01*
X59024188Y-77025518D01*
X59011928Y-77150000D01*
X59011928Y-78850000D01*
X59024188Y-78974482D01*
X59060498Y-79094180D01*
X59119463Y-79204494D01*
X59156809Y-79250000D01*
X59119463Y-79295506D01*
X59060498Y-79405820D01*
X59024188Y-79525518D01*
X59011928Y-79650000D01*
X59015000Y-80214250D01*
X59173750Y-80373000D01*
X60373000Y-80373000D01*
X60373000Y-80353000D01*
X60627000Y-80353000D01*
X60627000Y-80373000D01*
X60647000Y-80373000D01*
X60647000Y-80627000D01*
X60627000Y-80627000D01*
X60627000Y-80647000D01*
X60373000Y-80647000D01*
X60373000Y-80627000D01*
X59173750Y-80627000D01*
X59015000Y-80785750D01*
X59011928Y-81350000D01*
X59024188Y-81474482D01*
X59060498Y-81594180D01*
X59060601Y-81594372D01*
X58169175Y-81594372D01*
X56710510Y-80135709D01*
X56745226Y-80051898D01*
X56785000Y-79851939D01*
X56785000Y-79648061D01*
X56745226Y-79448102D01*
X56667205Y-79259744D01*
X56553937Y-79090226D01*
X56409774Y-78946063D01*
X56240256Y-78832795D01*
X56051898Y-78754774D01*
X55851939Y-78715000D01*
X55648061Y-78715000D01*
X55448102Y-78754774D01*
X55259744Y-78832795D01*
X55090226Y-78946063D01*
X54946063Y-79090226D01*
X54832795Y-79259744D01*
X54754774Y-79448102D01*
X54754519Y-79449386D01*
X52863143Y-77558012D01*
X52541996Y-77236865D01*
X52506449Y-77193551D01*
X52333623Y-77051716D01*
X52136447Y-76946324D01*
X51922499Y-76881423D01*
X51755752Y-76865000D01*
X51755751Y-76865000D01*
X51700000Y-76859509D01*
X51644249Y-76865000D01*
X49944248Y-76865000D01*
X49808023Y-76878417D01*
X49710000Y-76780394D01*
X49710000Y-73321653D01*
X50687952Y-73321653D01*
X50843962Y-73637214D01*
X51218745Y-73828020D01*
X51623551Y-73942044D01*
X52042824Y-73974902D01*
X52460451Y-73925334D01*
X52860383Y-73795243D01*
X53156038Y-73637214D01*
X53312048Y-73321653D01*
X52000000Y-72009605D01*
X50687952Y-73321653D01*
X49710000Y-73321653D01*
X49710000Y-71872824D01*
X49855098Y-71872824D01*
X49904666Y-72290451D01*
X50034757Y-72690383D01*
X50192786Y-72986038D01*
X50508347Y-73142048D01*
X51820395Y-71830000D01*
X50508347Y-70517952D01*
X50192786Y-70673962D01*
X50001980Y-71048745D01*
X49887956Y-71453551D01*
X49855098Y-71872824D01*
X49710000Y-71872824D01*
X49710000Y-65250000D01*
X49861928Y-65250000D01*
X49861928Y-68250000D01*
X49874188Y-68374482D01*
X49910498Y-68494180D01*
X49969463Y-68604494D01*
X50048815Y-68701185D01*
X50145506Y-68780537D01*
X50255820Y-68839502D01*
X50375518Y-68875812D01*
X50500000Y-68888072D01*
X53500000Y-68888072D01*
X53561207Y-68882044D01*
X53540226Y-68896063D01*
X53396063Y-69040226D01*
X53282795Y-69209744D01*
X53204774Y-69398102D01*
X53165000Y-69598061D01*
X53165000Y-69801939D01*
X53204774Y-70001898D01*
X53282795Y-70190256D01*
X53353828Y-70296564D01*
X53312047Y-70338345D01*
X53156038Y-70022786D01*
X52781255Y-69831980D01*
X52376449Y-69717956D01*
X51957176Y-69685098D01*
X51539549Y-69734666D01*
X51139617Y-69864757D01*
X50843962Y-70022786D01*
X50687952Y-70338347D01*
X52000000Y-71650395D01*
X52014143Y-71636253D01*
X52193748Y-71815858D01*
X52179605Y-71830000D01*
X53491653Y-73142048D01*
X53807214Y-72986038D01*
X53998020Y-72611255D01*
X54112044Y-72206449D01*
X54144902Y-71787176D01*
X54095334Y-71369549D01*
X53965243Y-70969617D01*
X53807214Y-70673962D01*
X53491655Y-70517953D01*
X53522949Y-70486660D01*
X53540226Y-70503937D01*
X53709744Y-70617205D01*
X53898102Y-70695226D01*
X54098061Y-70735000D01*
X54301939Y-70735000D01*
X54501898Y-70695226D01*
X54690256Y-70617205D01*
X54775870Y-70560000D01*
X55196289Y-70560000D01*
X55240226Y-70603937D01*
X55409744Y-70717205D01*
X55598102Y-70795226D01*
X55798061Y-70835000D01*
X56001939Y-70835000D01*
X56201898Y-70795226D01*
X56390256Y-70717205D01*
X56559774Y-70603937D01*
X56703937Y-70459774D01*
X56817205Y-70290256D01*
X56895226Y-70101898D01*
X56935000Y-69901939D01*
X56935000Y-69698061D01*
X56895226Y-69498102D01*
X56817205Y-69309744D01*
X56703937Y-69140226D01*
X56559774Y-68996063D01*
X56390256Y-68882795D01*
X56201898Y-68804774D01*
X56001939Y-68765000D01*
X55798061Y-68765000D01*
X55598102Y-68804774D01*
X55409744Y-68882795D01*
X55240226Y-68996063D01*
X55196289Y-69040000D01*
X55003711Y-69040000D01*
X54859774Y-68896063D01*
X54690256Y-68782795D01*
X54501898Y-68704774D01*
X54301939Y-68665000D01*
X54098061Y-68665000D01*
X53958021Y-68692856D01*
X54030537Y-68604494D01*
X54089502Y-68494180D01*
X54125812Y-68374482D01*
X54138072Y-68250000D01*
X54138072Y-65250000D01*
X54125812Y-65125518D01*
X54089502Y-65005820D01*
X54030537Y-64895506D01*
X53951185Y-64798815D01*
X53854494Y-64719463D01*
X53744180Y-64660498D01*
X53624482Y-64624188D01*
X53500000Y-64611928D01*
X50500000Y-64611928D01*
X50375518Y-64624188D01*
X50255820Y-64660498D01*
X50145506Y-64719463D01*
X50048815Y-64798815D01*
X49969463Y-64895506D01*
X49910498Y-65005820D01*
X49874188Y-65125518D01*
X49861928Y-65250000D01*
X49710000Y-65250000D01*
X49710000Y-63067609D01*
X49956538Y-63067609D01*
X49960409Y-63105282D01*
X50052579Y-63330533D01*
X50186922Y-63533474D01*
X50358275Y-63706307D01*
X50560054Y-63842390D01*
X50784504Y-63936493D01*
X51023000Y-63985000D01*
X51373000Y-63985000D01*
X51373000Y-62877000D01*
X51627000Y-62877000D01*
X51627000Y-63985000D01*
X51977000Y-63985000D01*
X52215496Y-63936493D01*
X52439946Y-63842390D01*
X52641725Y-63706307D01*
X52813078Y-63533474D01*
X52947421Y-63330533D01*
X53039591Y-63105282D01*
X53043462Y-63067609D01*
X52918731Y-62877000D01*
X51627000Y-62877000D01*
X51373000Y-62877000D01*
X50081269Y-62877000D01*
X49956538Y-63067609D01*
X49710000Y-63067609D01*
X49710000Y-62689133D01*
X53440472Y-62689133D01*
X53502965Y-62925450D01*
X53745678Y-63038850D01*
X54005849Y-63102719D01*
X54273482Y-63114604D01*
X54538291Y-63074048D01*
X54790100Y-62982609D01*
X54897035Y-62925450D01*
X54959528Y-62689133D01*
X54200000Y-61929605D01*
X53440472Y-62689133D01*
X49710000Y-62689133D01*
X49710000Y-62432391D01*
X49956538Y-62432391D01*
X50081269Y-62623000D01*
X51373000Y-62623000D01*
X51373000Y-61515000D01*
X51627000Y-61515000D01*
X51627000Y-62623000D01*
X52918731Y-62623000D01*
X53032503Y-62449138D01*
X53260867Y-62509528D01*
X54020395Y-61750000D01*
X54379605Y-61750000D01*
X55139133Y-62509528D01*
X55375450Y-62447035D01*
X55488850Y-62204322D01*
X55552719Y-61944151D01*
X55564604Y-61676518D01*
X55524048Y-61411709D01*
X55432609Y-61159900D01*
X55375450Y-61052965D01*
X55139133Y-60990472D01*
X54379605Y-61750000D01*
X54020395Y-61750000D01*
X53260867Y-60990472D01*
X53024550Y-61052965D01*
X52911150Y-61295678D01*
X52847281Y-61555849D01*
X52835396Y-61823482D01*
X52870615Y-62053442D01*
X52813078Y-61966526D01*
X52641725Y-61793693D01*
X52439946Y-61657610D01*
X52215496Y-61563507D01*
X51977000Y-61515000D01*
X51627000Y-61515000D01*
X51373000Y-61515000D01*
X51023000Y-61515000D01*
X50784504Y-61563507D01*
X50560054Y-61657610D01*
X50358275Y-61793693D01*
X50186922Y-61966526D01*
X50052579Y-62169467D01*
X49960409Y-62394718D01*
X49956538Y-62432391D01*
X49710000Y-62432391D01*
X49710000Y-60810867D01*
X53440472Y-60810867D01*
X54200000Y-61570395D01*
X54959528Y-60810867D01*
X54897035Y-60574550D01*
X54654322Y-60461150D01*
X54394151Y-60397281D01*
X54126518Y-60385396D01*
X53861709Y-60425952D01*
X53609900Y-60517391D01*
X53502965Y-60574550D01*
X53440472Y-60810867D01*
X49710000Y-60810867D01*
X49710000Y-57689133D01*
X53440472Y-57689133D01*
X53502965Y-57925450D01*
X53745678Y-58038850D01*
X54005849Y-58102719D01*
X54273482Y-58114604D01*
X54538291Y-58074048D01*
X54742207Y-58000000D01*
X70615000Y-58000000D01*
X70615000Y-61500000D01*
X70627201Y-61623882D01*
X70663336Y-61743004D01*
X70722017Y-61852787D01*
X70800987Y-61949013D01*
X72300987Y-63449013D01*
X72397213Y-63527983D01*
X72506996Y-63586664D01*
X72626118Y-63622799D01*
X72750000Y-63635000D01*
X76486974Y-63635000D01*
X78550987Y-65699013D01*
X78647213Y-65777983D01*
X78756996Y-65836664D01*
X78876118Y-65872799D01*
X79000000Y-65885000D01*
X98500000Y-65885000D01*
X98623882Y-65872799D01*
X98743004Y-65836664D01*
X98852787Y-65777983D01*
X98949013Y-65699013D01*
X99099859Y-65548167D01*
X99104172Y-65549025D01*
X99308050Y-65549025D01*
X99508009Y-65509251D01*
X99696367Y-65431230D01*
X99865885Y-65317962D01*
X100010048Y-65173799D01*
X100123316Y-65004281D01*
X100201337Y-64815923D01*
X100241111Y-64615964D01*
X100241111Y-64498061D01*
X107465000Y-64498061D01*
X107465000Y-64701939D01*
X107504774Y-64901898D01*
X107582795Y-65090256D01*
X107696063Y-65259774D01*
X107840226Y-65403937D01*
X108009744Y-65517205D01*
X108198102Y-65595226D01*
X108398061Y-65635000D01*
X108601939Y-65635000D01*
X108801898Y-65595226D01*
X108990256Y-65517205D01*
X109159774Y-65403937D01*
X109303937Y-65259774D01*
X109417205Y-65090256D01*
X109495226Y-64901898D01*
X109535000Y-64701939D01*
X109535000Y-64498061D01*
X109495226Y-64298102D01*
X109417205Y-64109744D01*
X109385000Y-64061546D01*
X109385000Y-63094042D01*
X122075000Y-63094042D01*
X122075000Y-63425958D01*
X122139754Y-63751496D01*
X122266772Y-64058147D01*
X122451175Y-64334125D01*
X122685875Y-64568825D01*
X122961853Y-64753228D01*
X123268504Y-64880246D01*
X123594042Y-64945000D01*
X123925958Y-64945000D01*
X124251496Y-64880246D01*
X124558147Y-64753228D01*
X124834125Y-64568825D01*
X125068825Y-64334125D01*
X125253228Y-64058147D01*
X125380246Y-63751496D01*
X125445000Y-63425958D01*
X125445000Y-63278177D01*
X125534747Y-63338144D01*
X125809549Y-63451971D01*
X126101278Y-63510000D01*
X126398722Y-63510000D01*
X126690451Y-63451971D01*
X126965253Y-63338144D01*
X127212569Y-63172893D01*
X127422893Y-62962569D01*
X127588144Y-62715253D01*
X127701971Y-62440451D01*
X127760000Y-62148722D01*
X127760000Y-61851278D01*
X127701971Y-61559549D01*
X127588144Y-61284747D01*
X127422893Y-61037431D01*
X127212569Y-60827107D01*
X126965253Y-60661856D01*
X126690451Y-60548029D01*
X126398722Y-60490000D01*
X126101278Y-60490000D01*
X125809549Y-60548029D01*
X125534747Y-60661856D01*
X125287431Y-60827107D01*
X125077107Y-61037431D01*
X124911856Y-61284747D01*
X124798029Y-61559549D01*
X124740000Y-61851278D01*
X124740000Y-61888283D01*
X124558147Y-61766772D01*
X124251496Y-61639754D01*
X123925958Y-61575000D01*
X123594042Y-61575000D01*
X123268504Y-61639754D01*
X122961853Y-61766772D01*
X122685875Y-61951175D01*
X122451175Y-62185875D01*
X122266772Y-62461853D01*
X122139754Y-62768504D01*
X122075000Y-63094042D01*
X109385000Y-63094042D01*
X109385000Y-61978711D01*
X109503937Y-61859774D01*
X109617205Y-61690256D01*
X109695226Y-61501898D01*
X109735000Y-61301939D01*
X109735000Y-61224849D01*
X115454756Y-61224849D01*
X115523310Y-61466268D01*
X115774556Y-61584668D01*
X116044071Y-61651778D01*
X116321502Y-61665018D01*
X116596184Y-61623879D01*
X116857562Y-61529943D01*
X116976690Y-61466268D01*
X117045244Y-61224849D01*
X116250000Y-60429605D01*
X115454756Y-61224849D01*
X109735000Y-61224849D01*
X109735000Y-61098061D01*
X109695226Y-60898102D01*
X109617205Y-60709744D01*
X109503937Y-60540226D01*
X109359774Y-60396063D01*
X109248186Y-60321502D01*
X114834982Y-60321502D01*
X114876121Y-60596184D01*
X114970057Y-60857562D01*
X115033732Y-60976690D01*
X115275151Y-61045244D01*
X116070395Y-60250000D01*
X116429605Y-60250000D01*
X117224849Y-61045244D01*
X117466268Y-60976690D01*
X117584668Y-60725444D01*
X117651778Y-60455929D01*
X117665018Y-60178498D01*
X117623879Y-59903816D01*
X117529943Y-59642438D01*
X117466268Y-59523310D01*
X117224849Y-59454756D01*
X116429605Y-60250000D01*
X116070395Y-60250000D01*
X115275151Y-59454756D01*
X115033732Y-59523310D01*
X114915332Y-59774556D01*
X114848222Y-60044071D01*
X114834982Y-60321502D01*
X109248186Y-60321502D01*
X109190256Y-60282795D01*
X109001898Y-60204774D01*
X108801939Y-60165000D01*
X108598061Y-60165000D01*
X108398102Y-60204774D01*
X108209744Y-60282795D01*
X108040226Y-60396063D01*
X107896063Y-60540226D01*
X107782795Y-60709744D01*
X107704774Y-60898102D01*
X107665000Y-61098061D01*
X107665000Y-61103897D01*
X107627805Y-61226511D01*
X107615000Y-61356524D01*
X107615000Y-61356531D01*
X107610719Y-61400000D01*
X107615000Y-61443469D01*
X107615001Y-64061544D01*
X107582795Y-64109744D01*
X107504774Y-64298102D01*
X107465000Y-64498061D01*
X100241111Y-64498061D01*
X100241111Y-64412086D01*
X100240253Y-64407773D01*
X100449013Y-64199013D01*
X100527983Y-64102787D01*
X100586664Y-63993004D01*
X100622799Y-63873882D01*
X100635000Y-63750000D01*
X100635000Y-61263026D01*
X100868839Y-61029187D01*
X100898061Y-61035000D01*
X101101939Y-61035000D01*
X101301898Y-60995226D01*
X101490256Y-60917205D01*
X101659774Y-60803937D01*
X101803937Y-60659774D01*
X101820490Y-60635000D01*
X102179510Y-60635000D01*
X102196063Y-60659774D01*
X102340226Y-60803937D01*
X102509744Y-60917205D01*
X102698102Y-60995226D01*
X102898061Y-61035000D01*
X103101939Y-61035000D01*
X103301898Y-60995226D01*
X103490256Y-60917205D01*
X103659774Y-60803937D01*
X103803937Y-60659774D01*
X103820490Y-60635000D01*
X104000000Y-60635000D01*
X104123882Y-60622799D01*
X104243004Y-60586664D01*
X104352787Y-60527983D01*
X104449013Y-60449013D01*
X104949013Y-59949013D01*
X105027983Y-59852787D01*
X105086664Y-59743004D01*
X105122799Y-59623882D01*
X105135000Y-59500000D01*
X105135000Y-59275151D01*
X115454756Y-59275151D01*
X116250000Y-60070395D01*
X117045244Y-59275151D01*
X116976690Y-59033732D01*
X116725444Y-58915332D01*
X116455929Y-58848222D01*
X116178498Y-58834982D01*
X115903816Y-58876121D01*
X115642438Y-58970057D01*
X115523310Y-59033732D01*
X115454756Y-59275151D01*
X105135000Y-59275151D01*
X105135000Y-57750000D01*
X105122799Y-57626118D01*
X105118252Y-57611127D01*
X109840000Y-57611127D01*
X109840000Y-57888873D01*
X109894186Y-58161282D01*
X110000475Y-58417885D01*
X110154782Y-58648822D01*
X110351178Y-58845218D01*
X110582115Y-58999525D01*
X110838718Y-59105814D01*
X111111127Y-59160000D01*
X111388873Y-59160000D01*
X111661282Y-59105814D01*
X111917885Y-58999525D01*
X112148822Y-58845218D01*
X112345218Y-58648822D01*
X112437976Y-58510000D01*
X115462678Y-58510000D01*
X115500000Y-58513676D01*
X115527326Y-58510985D01*
X115648061Y-58535000D01*
X115851939Y-58535000D01*
X116051898Y-58495226D01*
X116240256Y-58417205D01*
X116409774Y-58303937D01*
X116553937Y-58159774D01*
X116667205Y-57990256D01*
X116745226Y-57801898D01*
X116785000Y-57601939D01*
X116785000Y-57398061D01*
X116745226Y-57198102D01*
X116667205Y-57009744D01*
X116553937Y-56840226D01*
X116409774Y-56696063D01*
X116360399Y-56663072D01*
X117025000Y-56663072D01*
X117149482Y-56650812D01*
X117269180Y-56614502D01*
X117379494Y-56555537D01*
X117476185Y-56476185D01*
X117555537Y-56379494D01*
X117614502Y-56269180D01*
X117650812Y-56149482D01*
X117657257Y-56084042D01*
X122075000Y-56084042D01*
X122075000Y-56415958D01*
X122139754Y-56741496D01*
X122266772Y-57048147D01*
X122451175Y-57324125D01*
X122685875Y-57558825D01*
X122961853Y-57743228D01*
X123268504Y-57870246D01*
X123594042Y-57935000D01*
X123925958Y-57935000D01*
X124251496Y-57870246D01*
X124558147Y-57743228D01*
X124740000Y-57621717D01*
X124740000Y-57648722D01*
X124798029Y-57940451D01*
X124911856Y-58215253D01*
X125077107Y-58462569D01*
X125287431Y-58672893D01*
X125534747Y-58838144D01*
X125809549Y-58951971D01*
X126101278Y-59010000D01*
X126398722Y-59010000D01*
X126690451Y-58951971D01*
X126965253Y-58838144D01*
X127212569Y-58672893D01*
X127422893Y-58462569D01*
X127588144Y-58215253D01*
X127701971Y-57940451D01*
X127760000Y-57648722D01*
X127760000Y-57351278D01*
X127701971Y-57059549D01*
X127588144Y-56784747D01*
X127422893Y-56537431D01*
X127212569Y-56327107D01*
X126965253Y-56161856D01*
X126690451Y-56048029D01*
X126398722Y-55990000D01*
X126101278Y-55990000D01*
X125809549Y-56048029D01*
X125534747Y-56161856D01*
X125445000Y-56221823D01*
X125445000Y-56084042D01*
X125380246Y-55758504D01*
X125253228Y-55451853D01*
X125068825Y-55175875D01*
X124834125Y-54941175D01*
X124558147Y-54756772D01*
X124251496Y-54629754D01*
X123925958Y-54565000D01*
X123594042Y-54565000D01*
X123268504Y-54629754D01*
X122961853Y-54756772D01*
X122685875Y-54941175D01*
X122451175Y-55175875D01*
X122266772Y-55451853D01*
X122139754Y-55758504D01*
X122075000Y-56084042D01*
X117657257Y-56084042D01*
X117663072Y-56025000D01*
X117663072Y-54475000D01*
X117650812Y-54350518D01*
X117614502Y-54230820D01*
X117555537Y-54120506D01*
X117476185Y-54023815D01*
X117379494Y-53944463D01*
X117269180Y-53885498D01*
X117149482Y-53849188D01*
X117025000Y-53836928D01*
X115475000Y-53836928D01*
X115350518Y-53849188D01*
X115230820Y-53885498D01*
X115120506Y-53944463D01*
X115023815Y-54023815D01*
X114944463Y-54120506D01*
X114885498Y-54230820D01*
X114849188Y-54350518D01*
X114836928Y-54475000D01*
X114836928Y-56025000D01*
X114849188Y-56149482D01*
X114885498Y-56269180D01*
X114944463Y-56379494D01*
X115023815Y-56476185D01*
X115120506Y-56555537D01*
X115220526Y-56609000D01*
X115090226Y-56696063D01*
X114946063Y-56840226D01*
X114845987Y-56990000D01*
X112437976Y-56990000D01*
X112345218Y-56851178D01*
X112148822Y-56654782D01*
X111917885Y-56500475D01*
X111661282Y-56394186D01*
X111388873Y-56340000D01*
X111111127Y-56340000D01*
X110838718Y-56394186D01*
X110582115Y-56500475D01*
X110351178Y-56654782D01*
X110154782Y-56851178D01*
X110000475Y-57082115D01*
X109894186Y-57338718D01*
X109840000Y-57611127D01*
X105118252Y-57611127D01*
X105086664Y-57506996D01*
X105027983Y-57397213D01*
X104949013Y-57300987D01*
X104449013Y-56800987D01*
X104352787Y-56722017D01*
X104243004Y-56663336D01*
X104123882Y-56627201D01*
X104000000Y-56615000D01*
X90250000Y-56615000D01*
X90126118Y-56627201D01*
X90006996Y-56663336D01*
X89897213Y-56722017D01*
X89800987Y-56800987D01*
X88736974Y-57865000D01*
X86513026Y-57865000D01*
X85449013Y-56800987D01*
X85352787Y-56722017D01*
X85243004Y-56663336D01*
X85123882Y-56627201D01*
X85000000Y-56615000D01*
X72000000Y-56615000D01*
X71876118Y-56627201D01*
X71756996Y-56663336D01*
X71647213Y-56722017D01*
X71550987Y-56800987D01*
X70800987Y-57550987D01*
X70722017Y-57647213D01*
X70663336Y-57756996D01*
X70627201Y-57876118D01*
X70615000Y-58000000D01*
X54742207Y-58000000D01*
X54790100Y-57982609D01*
X54897035Y-57925450D01*
X54959528Y-57689133D01*
X54200000Y-56929605D01*
X53440472Y-57689133D01*
X49710000Y-57689133D01*
X49710000Y-56067609D01*
X49956538Y-56067609D01*
X49960409Y-56105282D01*
X50052579Y-56330533D01*
X50186922Y-56533474D01*
X50358275Y-56706307D01*
X50560054Y-56842390D01*
X50784504Y-56936493D01*
X51023000Y-56985000D01*
X51373000Y-56985000D01*
X51373000Y-55877000D01*
X51627000Y-55877000D01*
X51627000Y-56985000D01*
X51977000Y-56985000D01*
X52215496Y-56936493D01*
X52439946Y-56842390D01*
X52641725Y-56706307D01*
X52813078Y-56533474D01*
X52876171Y-56438164D01*
X52847281Y-56555849D01*
X52835396Y-56823482D01*
X52875952Y-57088291D01*
X52967391Y-57340100D01*
X53024550Y-57447035D01*
X53260867Y-57509528D01*
X54020395Y-56750000D01*
X54379605Y-56750000D01*
X55139133Y-57509528D01*
X55375450Y-57447035D01*
X55488850Y-57204322D01*
X55552719Y-56944151D01*
X55564604Y-56676518D01*
X55524048Y-56411709D01*
X55432609Y-56159900D01*
X55375450Y-56052965D01*
X55139133Y-55990472D01*
X54379605Y-56750000D01*
X54020395Y-56750000D01*
X53260867Y-55990472D01*
X53032503Y-56050862D01*
X52918731Y-55877000D01*
X51627000Y-55877000D01*
X51373000Y-55877000D01*
X50081269Y-55877000D01*
X49956538Y-56067609D01*
X49710000Y-56067609D01*
X49710000Y-55810867D01*
X53440472Y-55810867D01*
X54200000Y-56570395D01*
X54959528Y-55810867D01*
X54897035Y-55574550D01*
X54654322Y-55461150D01*
X54394151Y-55397281D01*
X54126518Y-55385396D01*
X53861709Y-55425952D01*
X53609900Y-55517391D01*
X53502965Y-55574550D01*
X53440472Y-55810867D01*
X49710000Y-55810867D01*
X49710000Y-55432391D01*
X49956538Y-55432391D01*
X50081269Y-55623000D01*
X51373000Y-55623000D01*
X51373000Y-54515000D01*
X51627000Y-54515000D01*
X51627000Y-55623000D01*
X52918731Y-55623000D01*
X53043462Y-55432391D01*
X53039591Y-55394718D01*
X52947421Y-55169467D01*
X52813078Y-54966526D01*
X52641725Y-54793693D01*
X52439946Y-54657610D01*
X52215496Y-54563507D01*
X51977000Y-54515000D01*
X51627000Y-54515000D01*
X51373000Y-54515000D01*
X51023000Y-54515000D01*
X50784504Y-54563507D01*
X50560054Y-54657610D01*
X50358275Y-54793693D01*
X50186922Y-54966526D01*
X50052579Y-55169467D01*
X49960409Y-55394718D01*
X49956538Y-55432391D01*
X49710000Y-55432391D01*
X49710000Y-54877268D01*
X50506437Y-54080831D01*
X81500000Y-54080831D01*
X81524776Y-54078391D01*
X81548601Y-54071164D01*
X81570557Y-54059428D01*
X81589455Y-54043980D01*
X83158546Y-52486963D01*
X83200912Y-52482790D01*
X83490260Y-52395017D01*
X83756926Y-52252481D01*
X83990661Y-52060661D01*
X84170000Y-51842135D01*
X84349339Y-52060661D01*
X84583073Y-52252481D01*
X84849739Y-52395017D01*
X85139087Y-52482790D01*
X85440000Y-52512427D01*
X85740912Y-52482790D01*
X86030260Y-52395017D01*
X86296926Y-52252481D01*
X86530661Y-52060661D01*
X86710000Y-51842135D01*
X86889339Y-52060661D01*
X87123073Y-52252481D01*
X87389739Y-52395017D01*
X87679087Y-52482790D01*
X87980000Y-52512427D01*
X88280912Y-52482790D01*
X88570260Y-52395017D01*
X88836926Y-52252481D01*
X89070661Y-52060661D01*
X89250000Y-51842135D01*
X89429339Y-52060661D01*
X89663073Y-52252481D01*
X89929739Y-52395017D01*
X90219087Y-52482790D01*
X90520000Y-52512427D01*
X90820912Y-52482790D01*
X91110260Y-52395017D01*
X91376926Y-52252481D01*
X91610661Y-52060661D01*
X91790000Y-51842135D01*
X91969339Y-52060661D01*
X92203073Y-52252481D01*
X92469739Y-52395017D01*
X92759087Y-52482790D01*
X93060000Y-52512427D01*
X93360912Y-52482790D01*
X93650260Y-52395017D01*
X93916926Y-52252481D01*
X94150661Y-52060661D01*
X94330000Y-51842135D01*
X94509339Y-52060661D01*
X94743073Y-52252481D01*
X95009739Y-52395017D01*
X95299087Y-52482790D01*
X95600000Y-52512427D01*
X95900912Y-52482790D01*
X96190260Y-52395017D01*
X96456926Y-52252481D01*
X96690661Y-52060661D01*
X96870000Y-51842135D01*
X97049339Y-52060661D01*
X97283073Y-52252481D01*
X97549739Y-52395017D01*
X97839087Y-52482790D01*
X98140000Y-52512427D01*
X98440912Y-52482790D01*
X98730260Y-52395017D01*
X98996926Y-52252481D01*
X99230661Y-52060661D01*
X99410000Y-51842135D01*
X99589339Y-52060661D01*
X99823073Y-52252481D01*
X100089739Y-52395017D01*
X100379087Y-52482790D01*
X100680000Y-52512427D01*
X100980912Y-52482790D01*
X101270260Y-52395017D01*
X101536926Y-52252481D01*
X101770661Y-52060661D01*
X101950000Y-51842135D01*
X102129339Y-52060661D01*
X102363073Y-52252481D01*
X102629739Y-52395017D01*
X102919087Y-52482790D01*
X103220000Y-52512427D01*
X103520912Y-52482790D01*
X103810260Y-52395017D01*
X104076926Y-52252481D01*
X104310661Y-52060661D01*
X104490000Y-51842135D01*
X104669339Y-52060661D01*
X104903073Y-52252481D01*
X105169739Y-52395017D01*
X105459087Y-52482790D01*
X105760000Y-52512427D01*
X106060912Y-52482790D01*
X106350260Y-52395017D01*
X106616926Y-52252481D01*
X106850661Y-52060661D01*
X107030000Y-51842135D01*
X107209339Y-52060661D01*
X107443073Y-52252481D01*
X107709739Y-52395017D01*
X107999087Y-52482790D01*
X108300000Y-52512427D01*
X108600912Y-52482790D01*
X108890260Y-52395017D01*
X109156926Y-52252481D01*
X109390661Y-52060661D01*
X109570000Y-51842135D01*
X109749339Y-52060661D01*
X109983073Y-52252481D01*
X110249739Y-52395017D01*
X110539087Y-52482790D01*
X110840000Y-52512427D01*
X111140912Y-52482790D01*
X111430260Y-52395017D01*
X111696926Y-52252481D01*
X111930661Y-52060661D01*
X112110000Y-51842135D01*
X112289339Y-52060661D01*
X112523073Y-52252481D01*
X112789739Y-52395017D01*
X113079087Y-52482790D01*
X113380000Y-52512427D01*
X113680912Y-52482790D01*
X113970260Y-52395017D01*
X114236926Y-52252481D01*
X114470661Y-52060661D01*
X114650000Y-51842135D01*
X114829339Y-52060661D01*
X115063073Y-52252481D01*
X115329739Y-52395017D01*
X115619087Y-52482790D01*
X115920000Y-52512427D01*
X116220912Y-52482790D01*
X116510260Y-52395017D01*
X116776926Y-52252481D01*
X117010661Y-52060661D01*
X117190000Y-51842135D01*
X117369339Y-52060661D01*
X117603073Y-52252481D01*
X117869739Y-52395017D01*
X118159087Y-52482790D01*
X118460000Y-52512427D01*
X118760912Y-52482790D01*
X119050260Y-52395017D01*
X119316926Y-52252481D01*
X119505505Y-52097720D01*
X119510498Y-52114180D01*
X119569463Y-52224494D01*
X119648815Y-52321185D01*
X119745506Y-52400537D01*
X119855820Y-52459502D01*
X119975518Y-52495812D01*
X120100000Y-52508072D01*
X120714250Y-52505000D01*
X120873000Y-52346250D01*
X120873000Y-50697000D01*
X121127000Y-50697000D01*
X121127000Y-52346250D01*
X121285750Y-52505000D01*
X121900000Y-52508072D01*
X122024482Y-52495812D01*
X122144180Y-52459502D01*
X122254494Y-52400537D01*
X122351185Y-52321185D01*
X122430537Y-52224494D01*
X122489502Y-52114180D01*
X122525812Y-51994482D01*
X122538072Y-51870000D01*
X122535000Y-50855750D01*
X122376250Y-50697000D01*
X121127000Y-50697000D01*
X120873000Y-50697000D01*
X120853000Y-50697000D01*
X120853000Y-50443000D01*
X120873000Y-50443000D01*
X120873000Y-50423000D01*
X121127000Y-50423000D01*
X121127000Y-50443000D01*
X122376250Y-50443000D01*
X122535000Y-50284250D01*
X122538072Y-49270000D01*
X122525812Y-49145518D01*
X122489502Y-49025820D01*
X122430537Y-48915506D01*
X122351185Y-48818815D01*
X122254494Y-48739463D01*
X122199373Y-48710000D01*
X125439889Y-48710000D01*
X125138117Y-48911637D01*
G36*
X73327000Y-78373000D02*
G01*
X73347000Y-78373000D01*
X73347000Y-78627000D01*
X73327000Y-78627000D01*
X73327000Y-78647000D01*
X73073000Y-78647000D01*
X73073000Y-78627000D01*
X73053000Y-78627000D01*
X73053000Y-78373000D01*
X73073000Y-78373000D01*
X73073000Y-78353000D01*
X73327000Y-78353000D01*
X73327000Y-78373000D01*
G37*
X73327000Y-78373000D02*
X73347000Y-78373000D01*
X73347000Y-78627000D01*
X73327000Y-78627000D01*
X73327000Y-78647000D01*
X73073000Y-78647000D01*
X73073000Y-78627000D01*
X73053000Y-78627000D01*
X73053000Y-78373000D01*
X73073000Y-78373000D01*
X73073000Y-78353000D01*
X73327000Y-78353000D01*
X73327000Y-78373000D01*
M02*
