G04 #@! TF.GenerationSoftware,KiCad,Pcbnew,5.1.5*
G04 #@! TF.CreationDate,2020-05-30T15:01:55+02:00*
G04 #@! TF.ProjectId,VCOMLCD,56434f4d-4c43-4442-9e6b-696361645f70,rev?*
G04 #@! TF.SameCoordinates,Original*
G04 #@! TF.FileFunction,Soldermask,Bot*
G04 #@! TF.FilePolarity,Negative*
%FSLAX46Y46*%
G04 Gerber Fmt 4.6, Leading zero omitted, Abs format (unit mm)*
G04 Created by KiCad (PCBNEW 5.1.5) date 2020-05-30 15:01:55*
%MOMM*%
%LPD*%
G04 APERTURE LIST*
%ADD10C,0.100000*%
G04 APERTURE END LIST*
D10*
G36*
X128051000Y-97051000D02*
G01*
X122949000Y-97051000D01*
X122949000Y-88949000D01*
X128051000Y-88949000D01*
X128051000Y-97051000D01*
G37*
G36*
X55051000Y-97051000D02*
G01*
X49949000Y-97051000D01*
X49949000Y-88949000D01*
X55051000Y-88949000D01*
X55051000Y-97051000D01*
G37*
G36*
X51803105Y-80049502D02*
G01*
X51952930Y-80079304D01*
X52235194Y-80196221D01*
X52489225Y-80365959D01*
X52705261Y-80581995D01*
X52874999Y-80836026D01*
X52991123Y-81116376D01*
X52991916Y-81118291D01*
X53048151Y-81401000D01*
X53051520Y-81417940D01*
X53051520Y-81723460D01*
X52991916Y-82023110D01*
X52874999Y-82305374D01*
X52705261Y-82559405D01*
X52489225Y-82775441D01*
X52235194Y-82945179D01*
X51952930Y-83062096D01*
X51803105Y-83091898D01*
X51653281Y-83121700D01*
X51347759Y-83121700D01*
X51197935Y-83091898D01*
X51048110Y-83062096D01*
X50765846Y-82945179D01*
X50511815Y-82775441D01*
X50295779Y-82559405D01*
X50126041Y-82305374D01*
X50009124Y-82023110D01*
X49949520Y-81723460D01*
X49949520Y-81417940D01*
X49952890Y-81401000D01*
X50009124Y-81118291D01*
X50009917Y-81116376D01*
X50126041Y-80836026D01*
X50295779Y-80581995D01*
X50511815Y-80365959D01*
X50765846Y-80196221D01*
X51048110Y-80079304D01*
X51197935Y-80049502D01*
X51347759Y-80019700D01*
X51653281Y-80019700D01*
X51803105Y-80049502D01*
G37*
G36*
X126801685Y-80049502D02*
G01*
X126951510Y-80079304D01*
X127233774Y-80196221D01*
X127487805Y-80365959D01*
X127703841Y-80581995D01*
X127873579Y-80836026D01*
X127989703Y-81116376D01*
X127990496Y-81118291D01*
X128046731Y-81401000D01*
X128050100Y-81417940D01*
X128050100Y-81723460D01*
X127990496Y-82023110D01*
X127873579Y-82305374D01*
X127703841Y-82559405D01*
X127487805Y-82775441D01*
X127233774Y-82945179D01*
X126951510Y-83062096D01*
X126801685Y-83091898D01*
X126651861Y-83121700D01*
X126346339Y-83121700D01*
X126196515Y-83091898D01*
X126046690Y-83062096D01*
X125764426Y-82945179D01*
X125510395Y-82775441D01*
X125294359Y-82559405D01*
X125124621Y-82305374D01*
X125007704Y-82023110D01*
X124948100Y-81723460D01*
X124948100Y-81417940D01*
X124951470Y-81401000D01*
X125007704Y-81118291D01*
X125008497Y-81116376D01*
X125124621Y-80836026D01*
X125294359Y-80581995D01*
X125510395Y-80365959D01*
X125764426Y-80196221D01*
X126046690Y-80079304D01*
X126196515Y-80049502D01*
X126346339Y-80019700D01*
X126651861Y-80019700D01*
X126801685Y-80049502D01*
G37*
G36*
X68233512Y-80103927D02*
G01*
X68382812Y-80133624D01*
X68546784Y-80201544D01*
X68694354Y-80300147D01*
X68819853Y-80425646D01*
X68918456Y-80573216D01*
X68986376Y-80737188D01*
X69021000Y-80911259D01*
X69021000Y-81088741D01*
X68986376Y-81262812D01*
X68918456Y-81426784D01*
X68819853Y-81574354D01*
X68694354Y-81699853D01*
X68546784Y-81798456D01*
X68382812Y-81866376D01*
X68233512Y-81896073D01*
X68208742Y-81901000D01*
X68031258Y-81901000D01*
X68006488Y-81896073D01*
X67857188Y-81866376D01*
X67693216Y-81798456D01*
X67545646Y-81699853D01*
X67420147Y-81574354D01*
X67321544Y-81426784D01*
X67253624Y-81262812D01*
X67219000Y-81088741D01*
X67219000Y-80911259D01*
X67253624Y-80737188D01*
X67321544Y-80573216D01*
X67420147Y-80425646D01*
X67545646Y-80300147D01*
X67693216Y-80201544D01*
X67857188Y-80133624D01*
X68006488Y-80103927D01*
X68031258Y-80099000D01*
X68208742Y-80099000D01*
X68233512Y-80103927D01*
G37*
G36*
X63153512Y-80103927D02*
G01*
X63302812Y-80133624D01*
X63466784Y-80201544D01*
X63614354Y-80300147D01*
X63739853Y-80425646D01*
X63838456Y-80573216D01*
X63906376Y-80737188D01*
X63941000Y-80911259D01*
X63941000Y-81088741D01*
X63906376Y-81262812D01*
X63838456Y-81426784D01*
X63739853Y-81574354D01*
X63614354Y-81699853D01*
X63466784Y-81798456D01*
X63302812Y-81866376D01*
X63153512Y-81896073D01*
X63128742Y-81901000D01*
X62951258Y-81901000D01*
X62926488Y-81896073D01*
X62777188Y-81866376D01*
X62613216Y-81798456D01*
X62465646Y-81699853D01*
X62340147Y-81574354D01*
X62241544Y-81426784D01*
X62173624Y-81262812D01*
X62139000Y-81088741D01*
X62139000Y-80911259D01*
X62173624Y-80737188D01*
X62241544Y-80573216D01*
X62340147Y-80425646D01*
X62465646Y-80300147D01*
X62613216Y-80201544D01*
X62777188Y-80133624D01*
X62926488Y-80103927D01*
X62951258Y-80099000D01*
X63128742Y-80099000D01*
X63153512Y-80103927D01*
G37*
G36*
X73313512Y-80103927D02*
G01*
X73462812Y-80133624D01*
X73626784Y-80201544D01*
X73774354Y-80300147D01*
X73899853Y-80425646D01*
X73998456Y-80573216D01*
X74066376Y-80737188D01*
X74101000Y-80911259D01*
X74101000Y-81088741D01*
X74066376Y-81262812D01*
X73998456Y-81426784D01*
X73899853Y-81574354D01*
X73774354Y-81699853D01*
X73626784Y-81798456D01*
X73462812Y-81866376D01*
X73313512Y-81896073D01*
X73288742Y-81901000D01*
X73111258Y-81901000D01*
X73086488Y-81896073D01*
X72937188Y-81866376D01*
X72773216Y-81798456D01*
X72625646Y-81699853D01*
X72500147Y-81574354D01*
X72401544Y-81426784D01*
X72333624Y-81262812D01*
X72299000Y-81088741D01*
X72299000Y-80911259D01*
X72333624Y-80737188D01*
X72401544Y-80573216D01*
X72500147Y-80425646D01*
X72625646Y-80300147D01*
X72773216Y-80201544D01*
X72937188Y-80133624D01*
X73086488Y-80103927D01*
X73111258Y-80099000D01*
X73288742Y-80099000D01*
X73313512Y-80103927D01*
G37*
G36*
X78393512Y-80103927D02*
G01*
X78542812Y-80133624D01*
X78706784Y-80201544D01*
X78854354Y-80300147D01*
X78979853Y-80425646D01*
X79078456Y-80573216D01*
X79146376Y-80737188D01*
X79181000Y-80911259D01*
X79181000Y-81088741D01*
X79146376Y-81262812D01*
X79078456Y-81426784D01*
X78979853Y-81574354D01*
X78854354Y-81699853D01*
X78706784Y-81798456D01*
X78542812Y-81866376D01*
X78393512Y-81896073D01*
X78368742Y-81901000D01*
X78191258Y-81901000D01*
X78166488Y-81896073D01*
X78017188Y-81866376D01*
X77853216Y-81798456D01*
X77705646Y-81699853D01*
X77580147Y-81574354D01*
X77481544Y-81426784D01*
X77413624Y-81262812D01*
X77379000Y-81088741D01*
X77379000Y-80911259D01*
X77413624Y-80737188D01*
X77481544Y-80573216D01*
X77580147Y-80425646D01*
X77705646Y-80300147D01*
X77853216Y-80201544D01*
X78017188Y-80133624D01*
X78166488Y-80103927D01*
X78191258Y-80099000D01*
X78368742Y-80099000D01*
X78393512Y-80103927D01*
G37*
G36*
X120901000Y-81651000D02*
G01*
X119099000Y-81651000D01*
X119099000Y-79849000D01*
X120901000Y-79849000D01*
X120901000Y-81651000D01*
G37*
G36*
X61401000Y-81401000D02*
G01*
X59599000Y-81401000D01*
X59599000Y-79599000D01*
X61401000Y-79599000D01*
X61401000Y-81401000D01*
G37*
G36*
X65693512Y-79603927D02*
G01*
X65842812Y-79633624D01*
X66006784Y-79701544D01*
X66154354Y-79800147D01*
X66279853Y-79925646D01*
X66378456Y-80073216D01*
X66446376Y-80237188D01*
X66481000Y-80411259D01*
X66481000Y-80588741D01*
X66446376Y-80762812D01*
X66378456Y-80926784D01*
X66279853Y-81074354D01*
X66154354Y-81199853D01*
X66006784Y-81298456D01*
X65842812Y-81366376D01*
X65693512Y-81396073D01*
X65668742Y-81401000D01*
X65491258Y-81401000D01*
X65466488Y-81396073D01*
X65317188Y-81366376D01*
X65153216Y-81298456D01*
X65005646Y-81199853D01*
X64880147Y-81074354D01*
X64781544Y-80926784D01*
X64713624Y-80762812D01*
X64679000Y-80588741D01*
X64679000Y-80411259D01*
X64713624Y-80237188D01*
X64781544Y-80073216D01*
X64880147Y-79925646D01*
X65005646Y-79800147D01*
X65153216Y-79701544D01*
X65317188Y-79633624D01*
X65466488Y-79603927D01*
X65491258Y-79599000D01*
X65668742Y-79599000D01*
X65693512Y-79603927D01*
G37*
G36*
X70773512Y-79603927D02*
G01*
X70922812Y-79633624D01*
X71086784Y-79701544D01*
X71234354Y-79800147D01*
X71359853Y-79925646D01*
X71458456Y-80073216D01*
X71526376Y-80237188D01*
X71561000Y-80411259D01*
X71561000Y-80588741D01*
X71526376Y-80762812D01*
X71458456Y-80926784D01*
X71359853Y-81074354D01*
X71234354Y-81199853D01*
X71086784Y-81298456D01*
X70922812Y-81366376D01*
X70773512Y-81396073D01*
X70748742Y-81401000D01*
X70571258Y-81401000D01*
X70546488Y-81396073D01*
X70397188Y-81366376D01*
X70233216Y-81298456D01*
X70085646Y-81199853D01*
X69960147Y-81074354D01*
X69861544Y-80926784D01*
X69793624Y-80762812D01*
X69759000Y-80588741D01*
X69759000Y-80411259D01*
X69793624Y-80237188D01*
X69861544Y-80073216D01*
X69960147Y-79925646D01*
X70085646Y-79800147D01*
X70233216Y-79701544D01*
X70397188Y-79633624D01*
X70546488Y-79603927D01*
X70571258Y-79599000D01*
X70748742Y-79599000D01*
X70773512Y-79603927D01*
G37*
G36*
X75853512Y-79603927D02*
G01*
X76002812Y-79633624D01*
X76166784Y-79701544D01*
X76314354Y-79800147D01*
X76439853Y-79925646D01*
X76538456Y-80073216D01*
X76606376Y-80237188D01*
X76641000Y-80411259D01*
X76641000Y-80588741D01*
X76606376Y-80762812D01*
X76538456Y-80926784D01*
X76439853Y-81074354D01*
X76314354Y-81199853D01*
X76166784Y-81298456D01*
X76002812Y-81366376D01*
X75853512Y-81396073D01*
X75828742Y-81401000D01*
X75651258Y-81401000D01*
X75626488Y-81396073D01*
X75477188Y-81366376D01*
X75313216Y-81298456D01*
X75165646Y-81199853D01*
X75040147Y-81074354D01*
X74941544Y-80926784D01*
X74873624Y-80762812D01*
X74839000Y-80588741D01*
X74839000Y-80411259D01*
X74873624Y-80237188D01*
X74941544Y-80073216D01*
X75040147Y-79925646D01*
X75165646Y-79800147D01*
X75313216Y-79701544D01*
X75477188Y-79633624D01*
X75626488Y-79603927D01*
X75651258Y-79599000D01*
X75828742Y-79599000D01*
X75853512Y-79603927D01*
G37*
G36*
X117573512Y-79353927D02*
G01*
X117722812Y-79383624D01*
X117886784Y-79451544D01*
X118034354Y-79550147D01*
X118159853Y-79675646D01*
X118258456Y-79823216D01*
X118326376Y-79987188D01*
X118361000Y-80161259D01*
X118361000Y-80338741D01*
X118326376Y-80512812D01*
X118258456Y-80676784D01*
X118159853Y-80824354D01*
X118034354Y-80949853D01*
X117886784Y-81048456D01*
X117722812Y-81116376D01*
X117573512Y-81146073D01*
X117548742Y-81151000D01*
X117371258Y-81151000D01*
X117346488Y-81146073D01*
X117197188Y-81116376D01*
X117033216Y-81048456D01*
X116885646Y-80949853D01*
X116760147Y-80824354D01*
X116661544Y-80676784D01*
X116593624Y-80512812D01*
X116559000Y-80338741D01*
X116559000Y-80161259D01*
X116593624Y-79987188D01*
X116661544Y-79823216D01*
X116760147Y-79675646D01*
X116885646Y-79550147D01*
X117033216Y-79451544D01*
X117197188Y-79383624D01*
X117346488Y-79353927D01*
X117371258Y-79349000D01*
X117548742Y-79349000D01*
X117573512Y-79353927D01*
G37*
G36*
X78393512Y-77603927D02*
G01*
X78542812Y-77633624D01*
X78706784Y-77701544D01*
X78854354Y-77800147D01*
X78979853Y-77925646D01*
X79078456Y-78073216D01*
X79146376Y-78237188D01*
X79181000Y-78411259D01*
X79181000Y-78588741D01*
X79146376Y-78762812D01*
X79078456Y-78926784D01*
X78979853Y-79074354D01*
X78854354Y-79199853D01*
X78706784Y-79298456D01*
X78542812Y-79366376D01*
X78393512Y-79396073D01*
X78368742Y-79401000D01*
X78191258Y-79401000D01*
X78166488Y-79396073D01*
X78017188Y-79366376D01*
X77853216Y-79298456D01*
X77705646Y-79199853D01*
X77580147Y-79074354D01*
X77481544Y-78926784D01*
X77413624Y-78762812D01*
X77379000Y-78588741D01*
X77379000Y-78411259D01*
X77413624Y-78237188D01*
X77481544Y-78073216D01*
X77580147Y-77925646D01*
X77705646Y-77800147D01*
X77853216Y-77701544D01*
X78017188Y-77633624D01*
X78166488Y-77603927D01*
X78191258Y-77599000D01*
X78368742Y-77599000D01*
X78393512Y-77603927D01*
G37*
G36*
X63153512Y-77603927D02*
G01*
X63302812Y-77633624D01*
X63466784Y-77701544D01*
X63614354Y-77800147D01*
X63739853Y-77925646D01*
X63838456Y-78073216D01*
X63906376Y-78237188D01*
X63941000Y-78411259D01*
X63941000Y-78588741D01*
X63906376Y-78762812D01*
X63838456Y-78926784D01*
X63739853Y-79074354D01*
X63614354Y-79199853D01*
X63466784Y-79298456D01*
X63302812Y-79366376D01*
X63153512Y-79396073D01*
X63128742Y-79401000D01*
X62951258Y-79401000D01*
X62926488Y-79396073D01*
X62777188Y-79366376D01*
X62613216Y-79298456D01*
X62465646Y-79199853D01*
X62340147Y-79074354D01*
X62241544Y-78926784D01*
X62173624Y-78762812D01*
X62139000Y-78588741D01*
X62139000Y-78411259D01*
X62173624Y-78237188D01*
X62241544Y-78073216D01*
X62340147Y-77925646D01*
X62465646Y-77800147D01*
X62613216Y-77701544D01*
X62777188Y-77633624D01*
X62926488Y-77603927D01*
X62951258Y-77599000D01*
X63128742Y-77599000D01*
X63153512Y-77603927D01*
G37*
G36*
X68233512Y-77603927D02*
G01*
X68382812Y-77633624D01*
X68546784Y-77701544D01*
X68694354Y-77800147D01*
X68819853Y-77925646D01*
X68918456Y-78073216D01*
X68986376Y-78237188D01*
X69021000Y-78411259D01*
X69021000Y-78588741D01*
X68986376Y-78762812D01*
X68918456Y-78926784D01*
X68819853Y-79074354D01*
X68694354Y-79199853D01*
X68546784Y-79298456D01*
X68382812Y-79366376D01*
X68233512Y-79396073D01*
X68208742Y-79401000D01*
X68031258Y-79401000D01*
X68006488Y-79396073D01*
X67857188Y-79366376D01*
X67693216Y-79298456D01*
X67545646Y-79199853D01*
X67420147Y-79074354D01*
X67321544Y-78926784D01*
X67253624Y-78762812D01*
X67219000Y-78588741D01*
X67219000Y-78411259D01*
X67253624Y-78237188D01*
X67321544Y-78073216D01*
X67420147Y-77925646D01*
X67545646Y-77800147D01*
X67693216Y-77701544D01*
X67857188Y-77633624D01*
X68006488Y-77603927D01*
X68031258Y-77599000D01*
X68208742Y-77599000D01*
X68233512Y-77603927D01*
G37*
G36*
X73313512Y-77603927D02*
G01*
X73462812Y-77633624D01*
X73626784Y-77701544D01*
X73774354Y-77800147D01*
X73899853Y-77925646D01*
X73998456Y-78073216D01*
X74066376Y-78237188D01*
X74101000Y-78411259D01*
X74101000Y-78588741D01*
X74066376Y-78762812D01*
X73998456Y-78926784D01*
X73899853Y-79074354D01*
X73774354Y-79199853D01*
X73626784Y-79298456D01*
X73462812Y-79366376D01*
X73313512Y-79396073D01*
X73288742Y-79401000D01*
X73111258Y-79401000D01*
X73086488Y-79396073D01*
X72937188Y-79366376D01*
X72773216Y-79298456D01*
X72625646Y-79199853D01*
X72500147Y-79074354D01*
X72401544Y-78926784D01*
X72333624Y-78762812D01*
X72299000Y-78588741D01*
X72299000Y-78411259D01*
X72333624Y-78237188D01*
X72401544Y-78073216D01*
X72500147Y-77925646D01*
X72625646Y-77800147D01*
X72773216Y-77701544D01*
X72937188Y-77633624D01*
X73086488Y-77603927D01*
X73111258Y-77599000D01*
X73288742Y-77599000D01*
X73313512Y-77603927D01*
G37*
G36*
X120113512Y-77353927D02*
G01*
X120262812Y-77383624D01*
X120426784Y-77451544D01*
X120574354Y-77550147D01*
X120699853Y-77675646D01*
X120798456Y-77823216D01*
X120866376Y-77987188D01*
X120901000Y-78161259D01*
X120901000Y-78338741D01*
X120866376Y-78512812D01*
X120798456Y-78676784D01*
X120699853Y-78824354D01*
X120574354Y-78949853D01*
X120426784Y-79048456D01*
X120262812Y-79116376D01*
X120113512Y-79146073D01*
X120088742Y-79151000D01*
X119911258Y-79151000D01*
X119886488Y-79146073D01*
X119737188Y-79116376D01*
X119573216Y-79048456D01*
X119425646Y-78949853D01*
X119300147Y-78824354D01*
X119201544Y-78676784D01*
X119133624Y-78512812D01*
X119099000Y-78338741D01*
X119099000Y-78161259D01*
X119133624Y-77987188D01*
X119201544Y-77823216D01*
X119300147Y-77675646D01*
X119425646Y-77550147D01*
X119573216Y-77451544D01*
X119737188Y-77383624D01*
X119886488Y-77353927D01*
X119911258Y-77349000D01*
X120088742Y-77349000D01*
X120113512Y-77353927D01*
G37*
G36*
X70773512Y-77103927D02*
G01*
X70922812Y-77133624D01*
X71086784Y-77201544D01*
X71234354Y-77300147D01*
X71359853Y-77425646D01*
X71458456Y-77573216D01*
X71526376Y-77737188D01*
X71561000Y-77911259D01*
X71561000Y-78088741D01*
X71526376Y-78262812D01*
X71458456Y-78426784D01*
X71359853Y-78574354D01*
X71234354Y-78699853D01*
X71086784Y-78798456D01*
X70922812Y-78866376D01*
X70773512Y-78896073D01*
X70748742Y-78901000D01*
X70571258Y-78901000D01*
X70546488Y-78896073D01*
X70397188Y-78866376D01*
X70233216Y-78798456D01*
X70085646Y-78699853D01*
X69960147Y-78574354D01*
X69861544Y-78426784D01*
X69793624Y-78262812D01*
X69759000Y-78088741D01*
X69759000Y-77911259D01*
X69793624Y-77737188D01*
X69861544Y-77573216D01*
X69960147Y-77425646D01*
X70085646Y-77300147D01*
X70233216Y-77201544D01*
X70397188Y-77133624D01*
X70546488Y-77103927D01*
X70571258Y-77099000D01*
X70748742Y-77099000D01*
X70773512Y-77103927D01*
G37*
G36*
X75853512Y-77103927D02*
G01*
X76002812Y-77133624D01*
X76166784Y-77201544D01*
X76314354Y-77300147D01*
X76439853Y-77425646D01*
X76538456Y-77573216D01*
X76606376Y-77737188D01*
X76641000Y-77911259D01*
X76641000Y-78088741D01*
X76606376Y-78262812D01*
X76538456Y-78426784D01*
X76439853Y-78574354D01*
X76314354Y-78699853D01*
X76166784Y-78798456D01*
X76002812Y-78866376D01*
X75853512Y-78896073D01*
X75828742Y-78901000D01*
X75651258Y-78901000D01*
X75626488Y-78896073D01*
X75477188Y-78866376D01*
X75313216Y-78798456D01*
X75165646Y-78699853D01*
X75040147Y-78574354D01*
X74941544Y-78426784D01*
X74873624Y-78262812D01*
X74839000Y-78088741D01*
X74839000Y-77911259D01*
X74873624Y-77737188D01*
X74941544Y-77573216D01*
X75040147Y-77425646D01*
X75165646Y-77300147D01*
X75313216Y-77201544D01*
X75477188Y-77133624D01*
X75626488Y-77103927D01*
X75651258Y-77099000D01*
X75828742Y-77099000D01*
X75853512Y-77103927D01*
G37*
G36*
X65693512Y-77103927D02*
G01*
X65842812Y-77133624D01*
X66006784Y-77201544D01*
X66154354Y-77300147D01*
X66279853Y-77425646D01*
X66378456Y-77573216D01*
X66446376Y-77737188D01*
X66481000Y-77911259D01*
X66481000Y-78088741D01*
X66446376Y-78262812D01*
X66378456Y-78426784D01*
X66279853Y-78574354D01*
X66154354Y-78699853D01*
X66006784Y-78798456D01*
X65842812Y-78866376D01*
X65693512Y-78896073D01*
X65668742Y-78901000D01*
X65491258Y-78901000D01*
X65466488Y-78896073D01*
X65317188Y-78866376D01*
X65153216Y-78798456D01*
X65005646Y-78699853D01*
X64880147Y-78574354D01*
X64781544Y-78426784D01*
X64713624Y-78262812D01*
X64679000Y-78088741D01*
X64679000Y-77911259D01*
X64713624Y-77737188D01*
X64781544Y-77573216D01*
X64880147Y-77425646D01*
X65005646Y-77300147D01*
X65153216Y-77201544D01*
X65317188Y-77133624D01*
X65466488Y-77103927D01*
X65491258Y-77099000D01*
X65668742Y-77099000D01*
X65693512Y-77103927D01*
G37*
G36*
X61401000Y-78901000D02*
G01*
X59599000Y-78901000D01*
X59599000Y-77099000D01*
X61401000Y-77099000D01*
X61401000Y-78901000D01*
G37*
G36*
X117573512Y-76853927D02*
G01*
X117722812Y-76883624D01*
X117886784Y-76951544D01*
X118034354Y-77050147D01*
X118159853Y-77175646D01*
X118258456Y-77323216D01*
X118326376Y-77487188D01*
X118361000Y-77661259D01*
X118361000Y-77838741D01*
X118326376Y-78012812D01*
X118258456Y-78176784D01*
X118159853Y-78324354D01*
X118034354Y-78449853D01*
X117886784Y-78548456D01*
X117722812Y-78616376D01*
X117573512Y-78646073D01*
X117548742Y-78651000D01*
X117371258Y-78651000D01*
X117346488Y-78646073D01*
X117197188Y-78616376D01*
X117033216Y-78548456D01*
X116885646Y-78449853D01*
X116760147Y-78324354D01*
X116661544Y-78176784D01*
X116593624Y-78012812D01*
X116559000Y-77838741D01*
X116559000Y-77661259D01*
X116593624Y-77487188D01*
X116661544Y-77323216D01*
X116760147Y-77175646D01*
X116885646Y-77050147D01*
X117033216Y-76951544D01*
X117197188Y-76883624D01*
X117346488Y-76853927D01*
X117371258Y-76849000D01*
X117548742Y-76849000D01*
X117573512Y-76853927D01*
G37*
G36*
X52302585Y-70308802D02*
G01*
X52452410Y-70338604D01*
X52734674Y-70455521D01*
X52988705Y-70625259D01*
X53204741Y-70841295D01*
X53374479Y-71095326D01*
X53491396Y-71377590D01*
X53551000Y-71677240D01*
X53551000Y-71982760D01*
X53491396Y-72282410D01*
X53374479Y-72564674D01*
X53204741Y-72818705D01*
X52988705Y-73034741D01*
X52734674Y-73204479D01*
X52452410Y-73321396D01*
X52302585Y-73351198D01*
X52152761Y-73381000D01*
X51847239Y-73381000D01*
X51697415Y-73351198D01*
X51547590Y-73321396D01*
X51265326Y-73204479D01*
X51011295Y-73034741D01*
X50795259Y-72818705D01*
X50625521Y-72564674D01*
X50508604Y-72282410D01*
X50449000Y-71982760D01*
X50449000Y-71677240D01*
X50508604Y-71377590D01*
X50625521Y-71095326D01*
X50795259Y-70841295D01*
X51011295Y-70625259D01*
X51265326Y-70455521D01*
X51547590Y-70338604D01*
X51697415Y-70308802D01*
X51847239Y-70279000D01*
X52152761Y-70279000D01*
X52302585Y-70308802D01*
G37*
G36*
X53551000Y-68301000D02*
G01*
X50449000Y-68301000D01*
X50449000Y-65199000D01*
X53551000Y-65199000D01*
X53551000Y-68301000D01*
G37*
G36*
X123974795Y-62180156D02*
G01*
X124081150Y-62201311D01*
X124181334Y-62242809D01*
X124281520Y-62284307D01*
X124461844Y-62404795D01*
X124615205Y-62558156D01*
X124735693Y-62738480D01*
X124769713Y-62820611D01*
X124818689Y-62938850D01*
X124830919Y-63000336D01*
X124861000Y-63151560D01*
X124861000Y-63368440D01*
X124818689Y-63581149D01*
X124735693Y-63781520D01*
X124615205Y-63961844D01*
X124461844Y-64115205D01*
X124281520Y-64235693D01*
X124081150Y-64318689D01*
X123974794Y-64339845D01*
X123868440Y-64361000D01*
X123651560Y-64361000D01*
X123545206Y-64339845D01*
X123438850Y-64318689D01*
X123238480Y-64235693D01*
X123058156Y-64115205D01*
X122904795Y-63961844D01*
X122784307Y-63781520D01*
X122701311Y-63581149D01*
X122659000Y-63368440D01*
X122659000Y-63151560D01*
X122689081Y-63000336D01*
X122701311Y-62938850D01*
X122750287Y-62820611D01*
X122784307Y-62738480D01*
X122904795Y-62558156D01*
X123058156Y-62404795D01*
X123238480Y-62284307D01*
X123338666Y-62242809D01*
X123438850Y-62201311D01*
X123545205Y-62180156D01*
X123651560Y-62159000D01*
X123868440Y-62159000D01*
X123974795Y-62180156D01*
G37*
G36*
X51913855Y-62102140D02*
G01*
X51977618Y-62108420D01*
X52068404Y-62135960D01*
X52100336Y-62145646D01*
X52213425Y-62206094D01*
X52312554Y-62287446D01*
X52393906Y-62386575D01*
X52454354Y-62499664D01*
X52454355Y-62499668D01*
X52491580Y-62622382D01*
X52504149Y-62750000D01*
X52491580Y-62877618D01*
X52487698Y-62890414D01*
X52454354Y-63000336D01*
X52393906Y-63113425D01*
X52312554Y-63212554D01*
X52213425Y-63293906D01*
X52100336Y-63354354D01*
X52068404Y-63364040D01*
X51977618Y-63391580D01*
X51913855Y-63397860D01*
X51881974Y-63401000D01*
X51118026Y-63401000D01*
X51086145Y-63397860D01*
X51022382Y-63391580D01*
X50931596Y-63364040D01*
X50899664Y-63354354D01*
X50786575Y-63293906D01*
X50687446Y-63212554D01*
X50606094Y-63113425D01*
X50545646Y-63000336D01*
X50512302Y-62890414D01*
X50508420Y-62877618D01*
X50495851Y-62750000D01*
X50508420Y-62622382D01*
X50545645Y-62499668D01*
X50545646Y-62499664D01*
X50606094Y-62386575D01*
X50687446Y-62287446D01*
X50786575Y-62206094D01*
X50899664Y-62145646D01*
X50931596Y-62135960D01*
X51022382Y-62108420D01*
X51086145Y-62102140D01*
X51118026Y-62099000D01*
X51881974Y-62099000D01*
X51913855Y-62102140D01*
G37*
G36*
X126520104Y-61109585D02*
G01*
X126688626Y-61179389D01*
X126840291Y-61280728D01*
X126969272Y-61409709D01*
X127070611Y-61561374D01*
X127140415Y-61729896D01*
X127176000Y-61908797D01*
X127176000Y-62091203D01*
X127140415Y-62270104D01*
X127070611Y-62438626D01*
X126969272Y-62590291D01*
X126840291Y-62719272D01*
X126688626Y-62820611D01*
X126520104Y-62890415D01*
X126341203Y-62926000D01*
X126158797Y-62926000D01*
X125979896Y-62890415D01*
X125811374Y-62820611D01*
X125659709Y-62719272D01*
X125530728Y-62590291D01*
X125429389Y-62438626D01*
X125359585Y-62270104D01*
X125324000Y-62091203D01*
X125324000Y-61908797D01*
X125359585Y-61729896D01*
X125429389Y-61561374D01*
X125530728Y-61409709D01*
X125659709Y-61280728D01*
X125811374Y-61179389D01*
X125979896Y-61109585D01*
X126158797Y-61074000D01*
X126341203Y-61074000D01*
X126520104Y-61109585D01*
G37*
G36*
X54426348Y-61003820D02*
G01*
X54426350Y-61003821D01*
X54426351Y-61003821D01*
X54567574Y-61062317D01*
X54567577Y-61062319D01*
X54694669Y-61147239D01*
X54802761Y-61255331D01*
X54819731Y-61280729D01*
X54887683Y-61382426D01*
X54898984Y-61409710D01*
X54946180Y-61523652D01*
X54976000Y-61673569D01*
X54976000Y-61826431D01*
X54959617Y-61908797D01*
X54946179Y-61976351D01*
X54887683Y-62117574D01*
X54887681Y-62117577D01*
X54802761Y-62244669D01*
X54694669Y-62352761D01*
X54616794Y-62404795D01*
X54567574Y-62437683D01*
X54426351Y-62496179D01*
X54426350Y-62496179D01*
X54426348Y-62496180D01*
X54276431Y-62526000D01*
X54123569Y-62526000D01*
X53973652Y-62496180D01*
X53973650Y-62496179D01*
X53973649Y-62496179D01*
X53832426Y-62437683D01*
X53783206Y-62404795D01*
X53705331Y-62352761D01*
X53597239Y-62244669D01*
X53512319Y-62117577D01*
X53512317Y-62117574D01*
X53453821Y-61976351D01*
X53440384Y-61908797D01*
X53424000Y-61826431D01*
X53424000Y-61673569D01*
X53453820Y-61523652D01*
X53501016Y-61409710D01*
X53512317Y-61382426D01*
X53580269Y-61280729D01*
X53597239Y-61255331D01*
X53705331Y-61147239D01*
X53832423Y-61062319D01*
X53832426Y-61062317D01*
X53973649Y-61003821D01*
X53973650Y-61003821D01*
X53973652Y-61003820D01*
X54123569Y-60974000D01*
X54276431Y-60974000D01*
X54426348Y-61003820D01*
G37*
G36*
X116490935Y-59455742D02*
G01*
X116641258Y-59518008D01*
X116776545Y-59608404D01*
X116891596Y-59723455D01*
X116981992Y-59858742D01*
X117044258Y-60009065D01*
X117076000Y-60168646D01*
X117076000Y-60331354D01*
X117044258Y-60490935D01*
X116981992Y-60641258D01*
X116891596Y-60776545D01*
X116776545Y-60891596D01*
X116641258Y-60981992D01*
X116490935Y-61044258D01*
X116331354Y-61076000D01*
X116168646Y-61076000D01*
X116009065Y-61044258D01*
X115858742Y-60981992D01*
X115723455Y-60891596D01*
X115608404Y-60776545D01*
X115518008Y-60641258D01*
X115455742Y-60490935D01*
X115424000Y-60331354D01*
X115424000Y-60168646D01*
X115455742Y-60009065D01*
X115518008Y-59858742D01*
X115608404Y-59723455D01*
X115723455Y-59608404D01*
X115858742Y-59518008D01*
X116009065Y-59455742D01*
X116168646Y-59424000D01*
X116331354Y-59424000D01*
X116490935Y-59455742D01*
G37*
G36*
X111490935Y-56955742D02*
G01*
X111641258Y-57018008D01*
X111776545Y-57108404D01*
X111891596Y-57223455D01*
X111981992Y-57358742D01*
X112044258Y-57509065D01*
X112076000Y-57668646D01*
X112076000Y-57831354D01*
X112044258Y-57990935D01*
X111981992Y-58141258D01*
X111891596Y-58276545D01*
X111776545Y-58391596D01*
X111641258Y-58481992D01*
X111490935Y-58544258D01*
X111331354Y-58576000D01*
X111168646Y-58576000D01*
X111009065Y-58544258D01*
X110858742Y-58481992D01*
X110723455Y-58391596D01*
X110608404Y-58276545D01*
X110518008Y-58141258D01*
X110455742Y-57990935D01*
X110424000Y-57831354D01*
X110424000Y-57668646D01*
X110455742Y-57509065D01*
X110518008Y-57358742D01*
X110608404Y-57223455D01*
X110723455Y-57108404D01*
X110858742Y-57018008D01*
X111009065Y-56955742D01*
X111168646Y-56924000D01*
X111331354Y-56924000D01*
X111490935Y-56955742D01*
G37*
G36*
X126520104Y-56609585D02*
G01*
X126688626Y-56679389D01*
X126840291Y-56780728D01*
X126969272Y-56909709D01*
X127070611Y-57061374D01*
X127140415Y-57229896D01*
X127176000Y-57408797D01*
X127176000Y-57591203D01*
X127140415Y-57770104D01*
X127070611Y-57938626D01*
X126969272Y-58090291D01*
X126840291Y-58219272D01*
X126688626Y-58320611D01*
X126520104Y-58390415D01*
X126341203Y-58426000D01*
X126158797Y-58426000D01*
X125979896Y-58390415D01*
X125811374Y-58320611D01*
X125659709Y-58219272D01*
X125530728Y-58090291D01*
X125429389Y-57938626D01*
X125359585Y-57770104D01*
X125324000Y-57591203D01*
X125324000Y-57408797D01*
X125359585Y-57229896D01*
X125429389Y-57061374D01*
X125530728Y-56909709D01*
X125659709Y-56780728D01*
X125811374Y-56679389D01*
X125979896Y-56609585D01*
X126158797Y-56574000D01*
X126341203Y-56574000D01*
X126520104Y-56609585D01*
G37*
G36*
X54426348Y-56003820D02*
G01*
X54426350Y-56003821D01*
X54426351Y-56003821D01*
X54567574Y-56062317D01*
X54567577Y-56062319D01*
X54694669Y-56147239D01*
X54802761Y-56255331D01*
X54871655Y-56358439D01*
X54887683Y-56382426D01*
X54946179Y-56523649D01*
X54946180Y-56523652D01*
X54976000Y-56673569D01*
X54976000Y-56826431D01*
X54950279Y-56955743D01*
X54946179Y-56976351D01*
X54887683Y-57117574D01*
X54887681Y-57117577D01*
X54802761Y-57244669D01*
X54694669Y-57352761D01*
X54610805Y-57408797D01*
X54567574Y-57437683D01*
X54426351Y-57496179D01*
X54426350Y-57496179D01*
X54426348Y-57496180D01*
X54276431Y-57526000D01*
X54123569Y-57526000D01*
X53973652Y-57496180D01*
X53973650Y-57496179D01*
X53973649Y-57496179D01*
X53832426Y-57437683D01*
X53789195Y-57408797D01*
X53705331Y-57352761D01*
X53597239Y-57244669D01*
X53512319Y-57117577D01*
X53512317Y-57117574D01*
X53453821Y-56976351D01*
X53449722Y-56955743D01*
X53424000Y-56826431D01*
X53424000Y-56673569D01*
X53453820Y-56523652D01*
X53453821Y-56523649D01*
X53512317Y-56382426D01*
X53528345Y-56358439D01*
X53597239Y-56255331D01*
X53705331Y-56147239D01*
X53832423Y-56062319D01*
X53832426Y-56062317D01*
X53973649Y-56003821D01*
X53973650Y-56003821D01*
X53973652Y-56003820D01*
X54123569Y-55974000D01*
X54276431Y-55974000D01*
X54426348Y-56003820D01*
G37*
G36*
X123974795Y-55170156D02*
G01*
X124081150Y-55191311D01*
X124181334Y-55232809D01*
X124281520Y-55274307D01*
X124461844Y-55394795D01*
X124615205Y-55548156D01*
X124735693Y-55728480D01*
X124735693Y-55728481D01*
X124818689Y-55928850D01*
X124833602Y-56003821D01*
X124855404Y-56113425D01*
X124861000Y-56141561D01*
X124861000Y-56358439D01*
X124818689Y-56571150D01*
X124802768Y-56609586D01*
X124735693Y-56771520D01*
X124615205Y-56951844D01*
X124461844Y-57105205D01*
X124281520Y-57225693D01*
X124081150Y-57308689D01*
X123974795Y-57329844D01*
X123868440Y-57351000D01*
X123651560Y-57351000D01*
X123545205Y-57329844D01*
X123438850Y-57308689D01*
X123238480Y-57225693D01*
X123058156Y-57105205D01*
X122904795Y-56951844D01*
X122784307Y-56771520D01*
X122717232Y-56609586D01*
X122701311Y-56571150D01*
X122659000Y-56358439D01*
X122659000Y-56141561D01*
X122664597Y-56113425D01*
X122686398Y-56003821D01*
X122701311Y-55928850D01*
X122784307Y-55728481D01*
X122784307Y-55728480D01*
X122904795Y-55548156D01*
X123058156Y-55394795D01*
X123238480Y-55274307D01*
X123338666Y-55232809D01*
X123438850Y-55191311D01*
X123545205Y-55170156D01*
X123651560Y-55149000D01*
X123868440Y-55149000D01*
X123974795Y-55170156D01*
G37*
G36*
X51913855Y-55102140D02*
G01*
X51977618Y-55108420D01*
X52068404Y-55135960D01*
X52100336Y-55145646D01*
X52213425Y-55206094D01*
X52312554Y-55287446D01*
X52393906Y-55386575D01*
X52454354Y-55499664D01*
X52454355Y-55499668D01*
X52491580Y-55622382D01*
X52504149Y-55750000D01*
X52491580Y-55877618D01*
X52464040Y-55968404D01*
X52454354Y-56000336D01*
X52393906Y-56113425D01*
X52312554Y-56212554D01*
X52213425Y-56293906D01*
X52100336Y-56354354D01*
X52086869Y-56358439D01*
X51977618Y-56391580D01*
X51913855Y-56397860D01*
X51881974Y-56401000D01*
X51118026Y-56401000D01*
X51086145Y-56397860D01*
X51022382Y-56391580D01*
X50913131Y-56358439D01*
X50899664Y-56354354D01*
X50786575Y-56293906D01*
X50687446Y-56212554D01*
X50606094Y-56113425D01*
X50545646Y-56000336D01*
X50535960Y-55968404D01*
X50508420Y-55877618D01*
X50495851Y-55750000D01*
X50508420Y-55622382D01*
X50545645Y-55499668D01*
X50545646Y-55499664D01*
X50606094Y-55386575D01*
X50687446Y-55287446D01*
X50786575Y-55206094D01*
X50899664Y-55145646D01*
X50931596Y-55135960D01*
X51022382Y-55108420D01*
X51086145Y-55102140D01*
X51118026Y-55099000D01*
X51881974Y-55099000D01*
X51913855Y-55102140D01*
G37*
G36*
X117076000Y-56076000D02*
G01*
X115424000Y-56076000D01*
X115424000Y-54424000D01*
X117076000Y-54424000D01*
X117076000Y-56076000D01*
G37*
G36*
X126801685Y-49048802D02*
G01*
X126951510Y-49078604D01*
X127233774Y-49195521D01*
X127487805Y-49365259D01*
X127703841Y-49581295D01*
X127873579Y-49835326D01*
X127990496Y-50117590D01*
X128050100Y-50417240D01*
X128050100Y-50722760D01*
X127990496Y-51022410D01*
X127873579Y-51304674D01*
X127703841Y-51558705D01*
X127487805Y-51774741D01*
X127233774Y-51944479D01*
X126951510Y-52061396D01*
X126801685Y-52091198D01*
X126651861Y-52121000D01*
X126346339Y-52121000D01*
X126196515Y-52091198D01*
X126046690Y-52061396D01*
X125764426Y-51944479D01*
X125510395Y-51774741D01*
X125294359Y-51558705D01*
X125124621Y-51304674D01*
X125007704Y-51022410D01*
X124948100Y-50722760D01*
X124948100Y-50417240D01*
X125007704Y-50117590D01*
X125124621Y-49835326D01*
X125294359Y-49581295D01*
X125510395Y-49365259D01*
X125764426Y-49195521D01*
X126046690Y-49078604D01*
X126196515Y-49048802D01*
X126346339Y-49019000D01*
X126651861Y-49019000D01*
X126801685Y-49048802D01*
G37*
G36*
X51802585Y-49048802D02*
G01*
X51952410Y-49078604D01*
X52234674Y-49195521D01*
X52488705Y-49365259D01*
X52704741Y-49581295D01*
X52874479Y-49835326D01*
X52991396Y-50117590D01*
X53051000Y-50417240D01*
X53051000Y-50722760D01*
X52991396Y-51022410D01*
X52874479Y-51304674D01*
X52704741Y-51558705D01*
X52488705Y-51774741D01*
X52234674Y-51944479D01*
X51952410Y-52061396D01*
X51802585Y-52091198D01*
X51652761Y-52121000D01*
X51347239Y-52121000D01*
X51197415Y-52091198D01*
X51047590Y-52061396D01*
X50765326Y-51944479D01*
X50511295Y-51774741D01*
X50295259Y-51558705D01*
X50125521Y-51304674D01*
X50008604Y-51022410D01*
X49949000Y-50722760D01*
X49949000Y-50417240D01*
X50008604Y-50117590D01*
X50125521Y-49835326D01*
X50295259Y-49581295D01*
X50511295Y-49365259D01*
X50765326Y-49195521D01*
X51047590Y-49078604D01*
X51197415Y-49048802D01*
X51347239Y-49019000D01*
X51652761Y-49019000D01*
X51802585Y-49048802D01*
G37*
G36*
X93246425Y-49232760D02*
G01*
X93246428Y-49232761D01*
X93246429Y-49232761D01*
X93425693Y-49287140D01*
X93425696Y-49287142D01*
X93425697Y-49287142D01*
X93590903Y-49375446D01*
X93735712Y-49494288D01*
X93854554Y-49639097D01*
X93942859Y-49804305D01*
X93997240Y-49983574D01*
X94011000Y-50123283D01*
X94011000Y-51016718D01*
X93997240Y-51156425D01*
X93997239Y-51156428D01*
X93997239Y-51156429D01*
X93942860Y-51335693D01*
X93942858Y-51335696D01*
X93942858Y-51335697D01*
X93854554Y-51500903D01*
X93735712Y-51645712D01*
X93590903Y-51764554D01*
X93425696Y-51852858D01*
X93425692Y-51852860D01*
X93246428Y-51907239D01*
X93246427Y-51907239D01*
X93246424Y-51907240D01*
X93060000Y-51925601D01*
X92873575Y-51907240D01*
X92873572Y-51907239D01*
X92873571Y-51907239D01*
X92694307Y-51852860D01*
X92694303Y-51852858D01*
X92529097Y-51764554D01*
X92384288Y-51645712D01*
X92265446Y-51500903D01*
X92177142Y-51335696D01*
X92177141Y-51335693D01*
X92177140Y-51335692D01*
X92122761Y-51156428D01*
X92122761Y-51156427D01*
X92122760Y-51156424D01*
X92109000Y-51016717D01*
X92109000Y-50123282D01*
X92122760Y-49983570D01*
X92177140Y-49804308D01*
X92265447Y-49639097D01*
X92384289Y-49494288D01*
X92529098Y-49375446D01*
X92694304Y-49287142D01*
X92694305Y-49287142D01*
X92694308Y-49287140D01*
X92873572Y-49232761D01*
X92873573Y-49232761D01*
X92873576Y-49232760D01*
X93060000Y-49214399D01*
X93246425Y-49232760D01*
G37*
G36*
X95786425Y-49232760D02*
G01*
X95786428Y-49232761D01*
X95786429Y-49232761D01*
X95965693Y-49287140D01*
X95965696Y-49287142D01*
X95965697Y-49287142D01*
X96130903Y-49375446D01*
X96275712Y-49494288D01*
X96394554Y-49639097D01*
X96482859Y-49804305D01*
X96537240Y-49983574D01*
X96551000Y-50123283D01*
X96551000Y-51016718D01*
X96537240Y-51156425D01*
X96537239Y-51156428D01*
X96537239Y-51156429D01*
X96482860Y-51335693D01*
X96482858Y-51335696D01*
X96482858Y-51335697D01*
X96394554Y-51500903D01*
X96275712Y-51645712D01*
X96130903Y-51764554D01*
X95965696Y-51852858D01*
X95965692Y-51852860D01*
X95786428Y-51907239D01*
X95786427Y-51907239D01*
X95786424Y-51907240D01*
X95600000Y-51925601D01*
X95413575Y-51907240D01*
X95413572Y-51907239D01*
X95413571Y-51907239D01*
X95234307Y-51852860D01*
X95234303Y-51852858D01*
X95069097Y-51764554D01*
X94924288Y-51645712D01*
X94805446Y-51500903D01*
X94717142Y-51335696D01*
X94717141Y-51335693D01*
X94717140Y-51335692D01*
X94662761Y-51156428D01*
X94662761Y-51156427D01*
X94662760Y-51156424D01*
X94649000Y-51016717D01*
X94649000Y-50123282D01*
X94662760Y-49983570D01*
X94717140Y-49804308D01*
X94805447Y-49639097D01*
X94924289Y-49494288D01*
X95069098Y-49375446D01*
X95234304Y-49287142D01*
X95234305Y-49287142D01*
X95234308Y-49287140D01*
X95413572Y-49232761D01*
X95413573Y-49232761D01*
X95413576Y-49232760D01*
X95600000Y-49214399D01*
X95786425Y-49232760D01*
G37*
G36*
X108486425Y-49232760D02*
G01*
X108486428Y-49232761D01*
X108486429Y-49232761D01*
X108665693Y-49287140D01*
X108665696Y-49287142D01*
X108665697Y-49287142D01*
X108830903Y-49375446D01*
X108975712Y-49494288D01*
X109094554Y-49639097D01*
X109182859Y-49804305D01*
X109237240Y-49983574D01*
X109251000Y-50123283D01*
X109251000Y-51016718D01*
X109237240Y-51156425D01*
X109237239Y-51156428D01*
X109237239Y-51156429D01*
X109182860Y-51335693D01*
X109182858Y-51335696D01*
X109182858Y-51335697D01*
X109094554Y-51500903D01*
X108975712Y-51645712D01*
X108830903Y-51764554D01*
X108665696Y-51852858D01*
X108665692Y-51852860D01*
X108486428Y-51907239D01*
X108486427Y-51907239D01*
X108486424Y-51907240D01*
X108300000Y-51925601D01*
X108113575Y-51907240D01*
X108113572Y-51907239D01*
X108113571Y-51907239D01*
X107934307Y-51852860D01*
X107934303Y-51852858D01*
X107769097Y-51764554D01*
X107624288Y-51645712D01*
X107505446Y-51500903D01*
X107417142Y-51335696D01*
X107417141Y-51335693D01*
X107417140Y-51335692D01*
X107362761Y-51156428D01*
X107362761Y-51156427D01*
X107362760Y-51156424D01*
X107349000Y-51016717D01*
X107349000Y-50123282D01*
X107362760Y-49983570D01*
X107417140Y-49804308D01*
X107505447Y-49639097D01*
X107624289Y-49494288D01*
X107769098Y-49375446D01*
X107934304Y-49287142D01*
X107934305Y-49287142D01*
X107934308Y-49287140D01*
X108113572Y-49232761D01*
X108113573Y-49232761D01*
X108113576Y-49232760D01*
X108300000Y-49214399D01*
X108486425Y-49232760D01*
G37*
G36*
X98326425Y-49232760D02*
G01*
X98326428Y-49232761D01*
X98326429Y-49232761D01*
X98505693Y-49287140D01*
X98505696Y-49287142D01*
X98505697Y-49287142D01*
X98670903Y-49375446D01*
X98815712Y-49494288D01*
X98934554Y-49639097D01*
X99022859Y-49804305D01*
X99077240Y-49983574D01*
X99091000Y-50123283D01*
X99091000Y-51016718D01*
X99077240Y-51156425D01*
X99077239Y-51156428D01*
X99077239Y-51156429D01*
X99022860Y-51335693D01*
X99022858Y-51335696D01*
X99022858Y-51335697D01*
X98934554Y-51500903D01*
X98815712Y-51645712D01*
X98670903Y-51764554D01*
X98505696Y-51852858D01*
X98505692Y-51852860D01*
X98326428Y-51907239D01*
X98326427Y-51907239D01*
X98326424Y-51907240D01*
X98140000Y-51925601D01*
X97953575Y-51907240D01*
X97953572Y-51907239D01*
X97953571Y-51907239D01*
X97774307Y-51852860D01*
X97774303Y-51852858D01*
X97609097Y-51764554D01*
X97464288Y-51645712D01*
X97345446Y-51500903D01*
X97257142Y-51335696D01*
X97257141Y-51335693D01*
X97257140Y-51335692D01*
X97202761Y-51156428D01*
X97202761Y-51156427D01*
X97202760Y-51156424D01*
X97189000Y-51016717D01*
X97189000Y-50123282D01*
X97202760Y-49983570D01*
X97257140Y-49804308D01*
X97345447Y-49639097D01*
X97464289Y-49494288D01*
X97609098Y-49375446D01*
X97774304Y-49287142D01*
X97774305Y-49287142D01*
X97774308Y-49287140D01*
X97953572Y-49232761D01*
X97953573Y-49232761D01*
X97953576Y-49232760D01*
X98140000Y-49214399D01*
X98326425Y-49232760D01*
G37*
G36*
X100866425Y-49232760D02*
G01*
X100866428Y-49232761D01*
X100866429Y-49232761D01*
X101045693Y-49287140D01*
X101045696Y-49287142D01*
X101045697Y-49287142D01*
X101210903Y-49375446D01*
X101355712Y-49494288D01*
X101474554Y-49639097D01*
X101562859Y-49804305D01*
X101617240Y-49983574D01*
X101631000Y-50123283D01*
X101631000Y-51016718D01*
X101617240Y-51156425D01*
X101617239Y-51156428D01*
X101617239Y-51156429D01*
X101562860Y-51335693D01*
X101562858Y-51335696D01*
X101562858Y-51335697D01*
X101474554Y-51500903D01*
X101355712Y-51645712D01*
X101210903Y-51764554D01*
X101045696Y-51852858D01*
X101045692Y-51852860D01*
X100866428Y-51907239D01*
X100866427Y-51907239D01*
X100866424Y-51907240D01*
X100680000Y-51925601D01*
X100493575Y-51907240D01*
X100493572Y-51907239D01*
X100493571Y-51907239D01*
X100314307Y-51852860D01*
X100314303Y-51852858D01*
X100149097Y-51764554D01*
X100004288Y-51645712D01*
X99885446Y-51500903D01*
X99797142Y-51335696D01*
X99797141Y-51335693D01*
X99797140Y-51335692D01*
X99742761Y-51156428D01*
X99742761Y-51156427D01*
X99742760Y-51156424D01*
X99729000Y-51016717D01*
X99729000Y-50123282D01*
X99742760Y-49983570D01*
X99797140Y-49804308D01*
X99885447Y-49639097D01*
X100004289Y-49494288D01*
X100149098Y-49375446D01*
X100314304Y-49287142D01*
X100314305Y-49287142D01*
X100314308Y-49287140D01*
X100493572Y-49232761D01*
X100493573Y-49232761D01*
X100493576Y-49232760D01*
X100680000Y-49214399D01*
X100866425Y-49232760D01*
G37*
G36*
X103406425Y-49232760D02*
G01*
X103406428Y-49232761D01*
X103406429Y-49232761D01*
X103585693Y-49287140D01*
X103585696Y-49287142D01*
X103585697Y-49287142D01*
X103750903Y-49375446D01*
X103895712Y-49494288D01*
X104014554Y-49639097D01*
X104102859Y-49804305D01*
X104157240Y-49983574D01*
X104171000Y-50123283D01*
X104171000Y-51016718D01*
X104157240Y-51156425D01*
X104157239Y-51156428D01*
X104157239Y-51156429D01*
X104102860Y-51335693D01*
X104102858Y-51335696D01*
X104102858Y-51335697D01*
X104014554Y-51500903D01*
X103895712Y-51645712D01*
X103750903Y-51764554D01*
X103585696Y-51852858D01*
X103585692Y-51852860D01*
X103406428Y-51907239D01*
X103406427Y-51907239D01*
X103406424Y-51907240D01*
X103220000Y-51925601D01*
X103033575Y-51907240D01*
X103033572Y-51907239D01*
X103033571Y-51907239D01*
X102854307Y-51852860D01*
X102854303Y-51852858D01*
X102689097Y-51764554D01*
X102544288Y-51645712D01*
X102425446Y-51500903D01*
X102337142Y-51335696D01*
X102337141Y-51335693D01*
X102337140Y-51335692D01*
X102282761Y-51156428D01*
X102282761Y-51156427D01*
X102282760Y-51156424D01*
X102269000Y-51016717D01*
X102269000Y-50123282D01*
X102282760Y-49983570D01*
X102337140Y-49804308D01*
X102425447Y-49639097D01*
X102544289Y-49494288D01*
X102689098Y-49375446D01*
X102854304Y-49287142D01*
X102854305Y-49287142D01*
X102854308Y-49287140D01*
X103033572Y-49232761D01*
X103033573Y-49232761D01*
X103033576Y-49232760D01*
X103220000Y-49214399D01*
X103406425Y-49232760D01*
G37*
G36*
X105946425Y-49232760D02*
G01*
X105946428Y-49232761D01*
X105946429Y-49232761D01*
X106125693Y-49287140D01*
X106125696Y-49287142D01*
X106125697Y-49287142D01*
X106290903Y-49375446D01*
X106435712Y-49494288D01*
X106554554Y-49639097D01*
X106642859Y-49804305D01*
X106697240Y-49983574D01*
X106711000Y-50123283D01*
X106711000Y-51016718D01*
X106697240Y-51156425D01*
X106697239Y-51156428D01*
X106697239Y-51156429D01*
X106642860Y-51335693D01*
X106642858Y-51335696D01*
X106642858Y-51335697D01*
X106554554Y-51500903D01*
X106435712Y-51645712D01*
X106290903Y-51764554D01*
X106125696Y-51852858D01*
X106125692Y-51852860D01*
X105946428Y-51907239D01*
X105946427Y-51907239D01*
X105946424Y-51907240D01*
X105760000Y-51925601D01*
X105573575Y-51907240D01*
X105573572Y-51907239D01*
X105573571Y-51907239D01*
X105394307Y-51852860D01*
X105394303Y-51852858D01*
X105229097Y-51764554D01*
X105084288Y-51645712D01*
X104965446Y-51500903D01*
X104877142Y-51335696D01*
X104877141Y-51335693D01*
X104877140Y-51335692D01*
X104822761Y-51156428D01*
X104822761Y-51156427D01*
X104822760Y-51156424D01*
X104809000Y-51016717D01*
X104809000Y-50123282D01*
X104822760Y-49983570D01*
X104877140Y-49804308D01*
X104965447Y-49639097D01*
X105084289Y-49494288D01*
X105229098Y-49375446D01*
X105394304Y-49287142D01*
X105394305Y-49287142D01*
X105394308Y-49287140D01*
X105573572Y-49232761D01*
X105573573Y-49232761D01*
X105573576Y-49232760D01*
X105760000Y-49214399D01*
X105946425Y-49232760D01*
G37*
G36*
X111026425Y-49232760D02*
G01*
X111026428Y-49232761D01*
X111026429Y-49232761D01*
X111205693Y-49287140D01*
X111205696Y-49287142D01*
X111205697Y-49287142D01*
X111370903Y-49375446D01*
X111515712Y-49494288D01*
X111634554Y-49639097D01*
X111722859Y-49804305D01*
X111777240Y-49983574D01*
X111791000Y-50123283D01*
X111791000Y-51016718D01*
X111777240Y-51156425D01*
X111777239Y-51156428D01*
X111777239Y-51156429D01*
X111722860Y-51335693D01*
X111722858Y-51335696D01*
X111722858Y-51335697D01*
X111634554Y-51500903D01*
X111515712Y-51645712D01*
X111370903Y-51764554D01*
X111205696Y-51852858D01*
X111205692Y-51852860D01*
X111026428Y-51907239D01*
X111026427Y-51907239D01*
X111026424Y-51907240D01*
X110840000Y-51925601D01*
X110653575Y-51907240D01*
X110653572Y-51907239D01*
X110653571Y-51907239D01*
X110474307Y-51852860D01*
X110474303Y-51852858D01*
X110309097Y-51764554D01*
X110164288Y-51645712D01*
X110045446Y-51500903D01*
X109957142Y-51335696D01*
X109957141Y-51335693D01*
X109957140Y-51335692D01*
X109902761Y-51156428D01*
X109902761Y-51156427D01*
X109902760Y-51156424D01*
X109889000Y-51016717D01*
X109889000Y-50123282D01*
X109902760Y-49983570D01*
X109957140Y-49804308D01*
X110045447Y-49639097D01*
X110164289Y-49494288D01*
X110309098Y-49375446D01*
X110474304Y-49287142D01*
X110474305Y-49287142D01*
X110474308Y-49287140D01*
X110653572Y-49232761D01*
X110653573Y-49232761D01*
X110653576Y-49232760D01*
X110840000Y-49214399D01*
X111026425Y-49232760D01*
G37*
G36*
X90706425Y-49232760D02*
G01*
X90706428Y-49232761D01*
X90706429Y-49232761D01*
X90885693Y-49287140D01*
X90885696Y-49287142D01*
X90885697Y-49287142D01*
X91050903Y-49375446D01*
X91195712Y-49494288D01*
X91314554Y-49639097D01*
X91402859Y-49804305D01*
X91457240Y-49983574D01*
X91471000Y-50123283D01*
X91471000Y-51016718D01*
X91457240Y-51156425D01*
X91457239Y-51156428D01*
X91457239Y-51156429D01*
X91402860Y-51335693D01*
X91402858Y-51335696D01*
X91402858Y-51335697D01*
X91314554Y-51500903D01*
X91195712Y-51645712D01*
X91050903Y-51764554D01*
X90885696Y-51852858D01*
X90885692Y-51852860D01*
X90706428Y-51907239D01*
X90706427Y-51907239D01*
X90706424Y-51907240D01*
X90520000Y-51925601D01*
X90333575Y-51907240D01*
X90333572Y-51907239D01*
X90333571Y-51907239D01*
X90154307Y-51852860D01*
X90154303Y-51852858D01*
X89989097Y-51764554D01*
X89844288Y-51645712D01*
X89725446Y-51500903D01*
X89637142Y-51335696D01*
X89637141Y-51335693D01*
X89637140Y-51335692D01*
X89582761Y-51156428D01*
X89582761Y-51156427D01*
X89582760Y-51156424D01*
X89569000Y-51016717D01*
X89569000Y-50123282D01*
X89582760Y-49983570D01*
X89637140Y-49804308D01*
X89725447Y-49639097D01*
X89844289Y-49494288D01*
X89989098Y-49375446D01*
X90154304Y-49287142D01*
X90154305Y-49287142D01*
X90154308Y-49287140D01*
X90333572Y-49232761D01*
X90333573Y-49232761D01*
X90333576Y-49232760D01*
X90520000Y-49214399D01*
X90706425Y-49232760D01*
G37*
G36*
X88166425Y-49232760D02*
G01*
X88166428Y-49232761D01*
X88166429Y-49232761D01*
X88345693Y-49287140D01*
X88345696Y-49287142D01*
X88345697Y-49287142D01*
X88510903Y-49375446D01*
X88655712Y-49494288D01*
X88774554Y-49639097D01*
X88862859Y-49804305D01*
X88917240Y-49983574D01*
X88931000Y-50123283D01*
X88931000Y-51016718D01*
X88917240Y-51156425D01*
X88917239Y-51156428D01*
X88917239Y-51156429D01*
X88862860Y-51335693D01*
X88862858Y-51335696D01*
X88862858Y-51335697D01*
X88774554Y-51500903D01*
X88655712Y-51645712D01*
X88510903Y-51764554D01*
X88345696Y-51852858D01*
X88345692Y-51852860D01*
X88166428Y-51907239D01*
X88166427Y-51907239D01*
X88166424Y-51907240D01*
X87980000Y-51925601D01*
X87793575Y-51907240D01*
X87793572Y-51907239D01*
X87793571Y-51907239D01*
X87614307Y-51852860D01*
X87614303Y-51852858D01*
X87449097Y-51764554D01*
X87304288Y-51645712D01*
X87185446Y-51500903D01*
X87097142Y-51335696D01*
X87097141Y-51335693D01*
X87097140Y-51335692D01*
X87042761Y-51156428D01*
X87042761Y-51156427D01*
X87042760Y-51156424D01*
X87029000Y-51016717D01*
X87029000Y-50123282D01*
X87042760Y-49983570D01*
X87097140Y-49804308D01*
X87185447Y-49639097D01*
X87304289Y-49494288D01*
X87449098Y-49375446D01*
X87614304Y-49287142D01*
X87614305Y-49287142D01*
X87614308Y-49287140D01*
X87793572Y-49232761D01*
X87793573Y-49232761D01*
X87793576Y-49232760D01*
X87980000Y-49214399D01*
X88166425Y-49232760D01*
G37*
G36*
X85626425Y-49232760D02*
G01*
X85626428Y-49232761D01*
X85626429Y-49232761D01*
X85805693Y-49287140D01*
X85805696Y-49287142D01*
X85805697Y-49287142D01*
X85970903Y-49375446D01*
X86115712Y-49494288D01*
X86234554Y-49639097D01*
X86322859Y-49804305D01*
X86377240Y-49983574D01*
X86391000Y-50123283D01*
X86391000Y-51016718D01*
X86377240Y-51156425D01*
X86377239Y-51156428D01*
X86377239Y-51156429D01*
X86322860Y-51335693D01*
X86322858Y-51335696D01*
X86322858Y-51335697D01*
X86234554Y-51500903D01*
X86115712Y-51645712D01*
X85970903Y-51764554D01*
X85805696Y-51852858D01*
X85805692Y-51852860D01*
X85626428Y-51907239D01*
X85626427Y-51907239D01*
X85626424Y-51907240D01*
X85440000Y-51925601D01*
X85253575Y-51907240D01*
X85253572Y-51907239D01*
X85253571Y-51907239D01*
X85074307Y-51852860D01*
X85074303Y-51852858D01*
X84909097Y-51764554D01*
X84764288Y-51645712D01*
X84645446Y-51500903D01*
X84557142Y-51335696D01*
X84557141Y-51335693D01*
X84557140Y-51335692D01*
X84502761Y-51156428D01*
X84502761Y-51156427D01*
X84502760Y-51156424D01*
X84489000Y-51016717D01*
X84489000Y-50123282D01*
X84502760Y-49983570D01*
X84557140Y-49804308D01*
X84645447Y-49639097D01*
X84764289Y-49494288D01*
X84909098Y-49375446D01*
X85074304Y-49287142D01*
X85074305Y-49287142D01*
X85074308Y-49287140D01*
X85253572Y-49232761D01*
X85253573Y-49232761D01*
X85253576Y-49232760D01*
X85440000Y-49214399D01*
X85626425Y-49232760D01*
G37*
G36*
X83086425Y-49232760D02*
G01*
X83086428Y-49232761D01*
X83086429Y-49232761D01*
X83265693Y-49287140D01*
X83265696Y-49287142D01*
X83265697Y-49287142D01*
X83430903Y-49375446D01*
X83575712Y-49494288D01*
X83694554Y-49639097D01*
X83782859Y-49804305D01*
X83837240Y-49983574D01*
X83851000Y-50123283D01*
X83851000Y-51016718D01*
X83837240Y-51156425D01*
X83837239Y-51156428D01*
X83837239Y-51156429D01*
X83782860Y-51335693D01*
X83782858Y-51335696D01*
X83782858Y-51335697D01*
X83694554Y-51500903D01*
X83575712Y-51645712D01*
X83430903Y-51764554D01*
X83265696Y-51852858D01*
X83265692Y-51852860D01*
X83086428Y-51907239D01*
X83086427Y-51907239D01*
X83086424Y-51907240D01*
X82900000Y-51925601D01*
X82713575Y-51907240D01*
X82713572Y-51907239D01*
X82713571Y-51907239D01*
X82534307Y-51852860D01*
X82534303Y-51852858D01*
X82369097Y-51764554D01*
X82224288Y-51645712D01*
X82105446Y-51500903D01*
X82017142Y-51335696D01*
X82017141Y-51335693D01*
X82017140Y-51335692D01*
X81962761Y-51156428D01*
X81962761Y-51156427D01*
X81962760Y-51156424D01*
X81949000Y-51016717D01*
X81949000Y-50123282D01*
X81962760Y-49983570D01*
X82017140Y-49804308D01*
X82105447Y-49639097D01*
X82224289Y-49494288D01*
X82369098Y-49375446D01*
X82534304Y-49287142D01*
X82534305Y-49287142D01*
X82534308Y-49287140D01*
X82713572Y-49232761D01*
X82713573Y-49232761D01*
X82713576Y-49232760D01*
X82900000Y-49214399D01*
X83086425Y-49232760D01*
G37*
G36*
X118646425Y-49232760D02*
G01*
X118646428Y-49232761D01*
X118646429Y-49232761D01*
X118825693Y-49287140D01*
X118825696Y-49287142D01*
X118825697Y-49287142D01*
X118990903Y-49375446D01*
X119135712Y-49494288D01*
X119254554Y-49639097D01*
X119342859Y-49804305D01*
X119397240Y-49983574D01*
X119411000Y-50123283D01*
X119411000Y-51016718D01*
X119397240Y-51156425D01*
X119397239Y-51156428D01*
X119397239Y-51156429D01*
X119342860Y-51335693D01*
X119342858Y-51335696D01*
X119342858Y-51335697D01*
X119254554Y-51500903D01*
X119135712Y-51645712D01*
X118990903Y-51764554D01*
X118825696Y-51852858D01*
X118825692Y-51852860D01*
X118646428Y-51907239D01*
X118646427Y-51907239D01*
X118646424Y-51907240D01*
X118460000Y-51925601D01*
X118273575Y-51907240D01*
X118273572Y-51907239D01*
X118273571Y-51907239D01*
X118094307Y-51852860D01*
X118094303Y-51852858D01*
X117929097Y-51764554D01*
X117784288Y-51645712D01*
X117665446Y-51500903D01*
X117577142Y-51335696D01*
X117577141Y-51335693D01*
X117577140Y-51335692D01*
X117522761Y-51156428D01*
X117522761Y-51156427D01*
X117522760Y-51156424D01*
X117509000Y-51016717D01*
X117509000Y-50123282D01*
X117522760Y-49983570D01*
X117577140Y-49804308D01*
X117665447Y-49639097D01*
X117784289Y-49494288D01*
X117929098Y-49375446D01*
X118094304Y-49287142D01*
X118094305Y-49287142D01*
X118094308Y-49287140D01*
X118273572Y-49232761D01*
X118273573Y-49232761D01*
X118273576Y-49232760D01*
X118460000Y-49214399D01*
X118646425Y-49232760D01*
G37*
G36*
X116106425Y-49232760D02*
G01*
X116106428Y-49232761D01*
X116106429Y-49232761D01*
X116285693Y-49287140D01*
X116285696Y-49287142D01*
X116285697Y-49287142D01*
X116450903Y-49375446D01*
X116595712Y-49494288D01*
X116714554Y-49639097D01*
X116802859Y-49804305D01*
X116857240Y-49983574D01*
X116871000Y-50123283D01*
X116871000Y-51016718D01*
X116857240Y-51156425D01*
X116857239Y-51156428D01*
X116857239Y-51156429D01*
X116802860Y-51335693D01*
X116802858Y-51335696D01*
X116802858Y-51335697D01*
X116714554Y-51500903D01*
X116595712Y-51645712D01*
X116450903Y-51764554D01*
X116285696Y-51852858D01*
X116285692Y-51852860D01*
X116106428Y-51907239D01*
X116106427Y-51907239D01*
X116106424Y-51907240D01*
X115920000Y-51925601D01*
X115733575Y-51907240D01*
X115733572Y-51907239D01*
X115733571Y-51907239D01*
X115554307Y-51852860D01*
X115554303Y-51852858D01*
X115389097Y-51764554D01*
X115244288Y-51645712D01*
X115125446Y-51500903D01*
X115037142Y-51335696D01*
X115037141Y-51335693D01*
X115037140Y-51335692D01*
X114982761Y-51156428D01*
X114982761Y-51156427D01*
X114982760Y-51156424D01*
X114969000Y-51016717D01*
X114969000Y-50123282D01*
X114982760Y-49983570D01*
X115037140Y-49804308D01*
X115125447Y-49639097D01*
X115244289Y-49494288D01*
X115389098Y-49375446D01*
X115554304Y-49287142D01*
X115554305Y-49287142D01*
X115554308Y-49287140D01*
X115733572Y-49232761D01*
X115733573Y-49232761D01*
X115733576Y-49232760D01*
X115920000Y-49214399D01*
X116106425Y-49232760D01*
G37*
G36*
X113566425Y-49232760D02*
G01*
X113566428Y-49232761D01*
X113566429Y-49232761D01*
X113745693Y-49287140D01*
X113745696Y-49287142D01*
X113745697Y-49287142D01*
X113910903Y-49375446D01*
X114055712Y-49494288D01*
X114174554Y-49639097D01*
X114262859Y-49804305D01*
X114317240Y-49983574D01*
X114331000Y-50123283D01*
X114331000Y-51016718D01*
X114317240Y-51156425D01*
X114317239Y-51156428D01*
X114317239Y-51156429D01*
X114262860Y-51335693D01*
X114262858Y-51335696D01*
X114262858Y-51335697D01*
X114174554Y-51500903D01*
X114055712Y-51645712D01*
X113910903Y-51764554D01*
X113745696Y-51852858D01*
X113745692Y-51852860D01*
X113566428Y-51907239D01*
X113566427Y-51907239D01*
X113566424Y-51907240D01*
X113380000Y-51925601D01*
X113193575Y-51907240D01*
X113193572Y-51907239D01*
X113193571Y-51907239D01*
X113014307Y-51852860D01*
X113014303Y-51852858D01*
X112849097Y-51764554D01*
X112704288Y-51645712D01*
X112585446Y-51500903D01*
X112497142Y-51335696D01*
X112497141Y-51335693D01*
X112497140Y-51335692D01*
X112442761Y-51156428D01*
X112442761Y-51156427D01*
X112442760Y-51156424D01*
X112429000Y-51016717D01*
X112429000Y-50123282D01*
X112442760Y-49983570D01*
X112497140Y-49804308D01*
X112585447Y-49639097D01*
X112704289Y-49494288D01*
X112849098Y-49375446D01*
X113014304Y-49287142D01*
X113014305Y-49287142D01*
X113014308Y-49287140D01*
X113193572Y-49232761D01*
X113193573Y-49232761D01*
X113193576Y-49232760D01*
X113380000Y-49214399D01*
X113566425Y-49232760D01*
G37*
G36*
X121951000Y-51921000D02*
G01*
X120049000Y-51921000D01*
X120049000Y-49219000D01*
X121951000Y-49219000D01*
X121951000Y-51921000D01*
G37*
M02*
