G04 #@! TF.GenerationSoftware,KiCad,Pcbnew,5.1.5*
G04 #@! TF.CreationDate,2020-05-11T21:35:48+02:00*
G04 #@! TF.ProjectId,VCOMLCD,56434f4d-4c43-4442-9e6b-696361645f70,rev?*
G04 #@! TF.SameCoordinates,Original*
G04 #@! TF.FileFunction,Soldermask,Top*
G04 #@! TF.FilePolarity,Negative*
%FSLAX46Y46*%
G04 Gerber Fmt 4.6, Leading zero omitted, Abs format (unit mm)*
G04 Created by KiCad (PCBNEW 5.1.5) date 2020-05-11 21:35:48*
%MOMM*%
%LPD*%
G04 APERTURE LIST*
%ADD10C,0.100000*%
G04 APERTURE END LIST*
D10*
G36*
X126801685Y-80049502D02*
G01*
X126951510Y-80079304D01*
X127233774Y-80196221D01*
X127487805Y-80365959D01*
X127703841Y-80581995D01*
X127873579Y-80836026D01*
X127990496Y-81118290D01*
X128010100Y-81216847D01*
X128049118Y-81413000D01*
X128050100Y-81417940D01*
X128050100Y-81723460D01*
X127990496Y-82023110D01*
X127873579Y-82305374D01*
X127703841Y-82559405D01*
X127487805Y-82775441D01*
X127233774Y-82945179D01*
X126951510Y-83062096D01*
X126801685Y-83091898D01*
X126651861Y-83121700D01*
X126346339Y-83121700D01*
X126196515Y-83091898D01*
X126046690Y-83062096D01*
X125764426Y-82945179D01*
X125510395Y-82775441D01*
X125294359Y-82559405D01*
X125124621Y-82305374D01*
X125007704Y-82023110D01*
X124948100Y-81723460D01*
X124948100Y-81417940D01*
X124949083Y-81413000D01*
X124988100Y-81216847D01*
X125007704Y-81118290D01*
X125124621Y-80836026D01*
X125294359Y-80581995D01*
X125510395Y-80365959D01*
X125764426Y-80196221D01*
X126046690Y-80079304D01*
X126196515Y-80049502D01*
X126346339Y-80019700D01*
X126651861Y-80019700D01*
X126801685Y-80049502D01*
G37*
G36*
X51803105Y-80049502D02*
G01*
X51952930Y-80079304D01*
X52235194Y-80196221D01*
X52489225Y-80365959D01*
X52705261Y-80581995D01*
X52874999Y-80836026D01*
X52991916Y-81118290D01*
X53011520Y-81216847D01*
X53050538Y-81413000D01*
X53051520Y-81417940D01*
X53051520Y-81723460D01*
X52991916Y-82023110D01*
X52874999Y-82305374D01*
X52705261Y-82559405D01*
X52489225Y-82775441D01*
X52235194Y-82945179D01*
X51952930Y-83062096D01*
X51803105Y-83091898D01*
X51653281Y-83121700D01*
X51347759Y-83121700D01*
X51197935Y-83091898D01*
X51048110Y-83062096D01*
X50765846Y-82945179D01*
X50511815Y-82775441D01*
X50295779Y-82559405D01*
X50126041Y-82305374D01*
X50009124Y-82023110D01*
X49949520Y-81723460D01*
X49949520Y-81417940D01*
X49950503Y-81413000D01*
X49989520Y-81216847D01*
X50009124Y-81118290D01*
X50126041Y-80836026D01*
X50295779Y-80581995D01*
X50511815Y-80365959D01*
X50765846Y-80196221D01*
X51048110Y-80079304D01*
X51197935Y-80049502D01*
X51347759Y-80019700D01*
X51653281Y-80019700D01*
X51803105Y-80049502D01*
G37*
G36*
X110864499Y-81053445D02*
G01*
X110901995Y-81064820D01*
X110936554Y-81083292D01*
X110966847Y-81108153D01*
X110991708Y-81138446D01*
X111010180Y-81173005D01*
X111021555Y-81210501D01*
X111026000Y-81255638D01*
X111026000Y-81994362D01*
X111021555Y-82039499D01*
X111010180Y-82076995D01*
X110991708Y-82111554D01*
X110966847Y-82141847D01*
X110936554Y-82166708D01*
X110901995Y-82185180D01*
X110864499Y-82196555D01*
X110819362Y-82201000D01*
X110180638Y-82201000D01*
X110135501Y-82196555D01*
X110098005Y-82185180D01*
X110063446Y-82166708D01*
X110033153Y-82141847D01*
X110008292Y-82111554D01*
X109989820Y-82076995D01*
X109978445Y-82039499D01*
X109974000Y-81994362D01*
X109974000Y-81255638D01*
X109978445Y-81210501D01*
X109989820Y-81173005D01*
X110008292Y-81138446D01*
X110033153Y-81108153D01*
X110063446Y-81083292D01*
X110098005Y-81064820D01*
X110135501Y-81053445D01*
X110180638Y-81049000D01*
X110819362Y-81049000D01*
X110864499Y-81053445D01*
G37*
G36*
X104864499Y-81053445D02*
G01*
X104901995Y-81064820D01*
X104936554Y-81083292D01*
X104966847Y-81108153D01*
X104991708Y-81138446D01*
X105010180Y-81173005D01*
X105021555Y-81210501D01*
X105026000Y-81255638D01*
X105026000Y-81994362D01*
X105021555Y-82039499D01*
X105010180Y-82076995D01*
X104991708Y-82111554D01*
X104966847Y-82141847D01*
X104936554Y-82166708D01*
X104901995Y-82185180D01*
X104864499Y-82196555D01*
X104819362Y-82201000D01*
X104180638Y-82201000D01*
X104135501Y-82196555D01*
X104098005Y-82185180D01*
X104063446Y-82166708D01*
X104033153Y-82141847D01*
X104008292Y-82111554D01*
X103989820Y-82076995D01*
X103978445Y-82039499D01*
X103974000Y-81994362D01*
X103974000Y-81255638D01*
X103978445Y-81210501D01*
X103989820Y-81173005D01*
X104008292Y-81138446D01*
X104033153Y-81108153D01*
X104063446Y-81083292D01*
X104098005Y-81064820D01*
X104135501Y-81053445D01*
X104180638Y-81049000D01*
X104819362Y-81049000D01*
X104864499Y-81053445D01*
G37*
G36*
X106981000Y-82076000D02*
G01*
X105819000Y-82076000D01*
X105819000Y-79424000D01*
X106981000Y-79424000D01*
X106981000Y-82076000D01*
G37*
G36*
X109181000Y-82076000D02*
G01*
X108019000Y-82076000D01*
X108019000Y-79424000D01*
X109181000Y-79424000D01*
X109181000Y-82076000D01*
G37*
G36*
X73313512Y-80103927D02*
G01*
X73462812Y-80133624D01*
X73626784Y-80201544D01*
X73774354Y-80300147D01*
X73899853Y-80425646D01*
X73998456Y-80573216D01*
X74066376Y-80737188D01*
X74101000Y-80911259D01*
X74101000Y-81088741D01*
X74066376Y-81262812D01*
X73998456Y-81426784D01*
X73899853Y-81574354D01*
X73774354Y-81699853D01*
X73626784Y-81798456D01*
X73462812Y-81866376D01*
X73313512Y-81896073D01*
X73288742Y-81901000D01*
X73111258Y-81901000D01*
X73086488Y-81896073D01*
X72937188Y-81866376D01*
X72773216Y-81798456D01*
X72625646Y-81699853D01*
X72500147Y-81574354D01*
X72401544Y-81426784D01*
X72333624Y-81262812D01*
X72299000Y-81088741D01*
X72299000Y-80911259D01*
X72333624Y-80737188D01*
X72401544Y-80573216D01*
X72500147Y-80425646D01*
X72625646Y-80300147D01*
X72773216Y-80201544D01*
X72937188Y-80133624D01*
X73086488Y-80103927D01*
X73111258Y-80099000D01*
X73288742Y-80099000D01*
X73313512Y-80103927D01*
G37*
G36*
X78393512Y-80103927D02*
G01*
X78542812Y-80133624D01*
X78706784Y-80201544D01*
X78854354Y-80300147D01*
X78979853Y-80425646D01*
X79078456Y-80573216D01*
X79146376Y-80737188D01*
X79181000Y-80911259D01*
X79181000Y-81088741D01*
X79146376Y-81262812D01*
X79078456Y-81426784D01*
X78979853Y-81574354D01*
X78854354Y-81699853D01*
X78706784Y-81798456D01*
X78542812Y-81866376D01*
X78393512Y-81896073D01*
X78368742Y-81901000D01*
X78191258Y-81901000D01*
X78166488Y-81896073D01*
X78017188Y-81866376D01*
X77853216Y-81798456D01*
X77705646Y-81699853D01*
X77580147Y-81574354D01*
X77481544Y-81426784D01*
X77413624Y-81262812D01*
X77379000Y-81088741D01*
X77379000Y-80911259D01*
X77413624Y-80737188D01*
X77481544Y-80573216D01*
X77580147Y-80425646D01*
X77705646Y-80300147D01*
X77853216Y-80201544D01*
X78017188Y-80133624D01*
X78166488Y-80103927D01*
X78191258Y-80099000D01*
X78368742Y-80099000D01*
X78393512Y-80103927D01*
G37*
G36*
X68233512Y-80103927D02*
G01*
X68382812Y-80133624D01*
X68546784Y-80201544D01*
X68694354Y-80300147D01*
X68819853Y-80425646D01*
X68918456Y-80573216D01*
X68986376Y-80737188D01*
X69021000Y-80911259D01*
X69021000Y-81088741D01*
X68986376Y-81262812D01*
X68918456Y-81426784D01*
X68819853Y-81574354D01*
X68694354Y-81699853D01*
X68546784Y-81798456D01*
X68382812Y-81866376D01*
X68233512Y-81896073D01*
X68208742Y-81901000D01*
X68031258Y-81901000D01*
X68006488Y-81896073D01*
X67857188Y-81866376D01*
X67693216Y-81798456D01*
X67545646Y-81699853D01*
X67420147Y-81574354D01*
X67321544Y-81426784D01*
X67253624Y-81262812D01*
X67219000Y-81088741D01*
X67219000Y-80911259D01*
X67253624Y-80737188D01*
X67321544Y-80573216D01*
X67420147Y-80425646D01*
X67545646Y-80300147D01*
X67693216Y-80201544D01*
X67857188Y-80133624D01*
X68006488Y-80103927D01*
X68031258Y-80099000D01*
X68208742Y-80099000D01*
X68233512Y-80103927D01*
G37*
G36*
X63153512Y-80103927D02*
G01*
X63302812Y-80133624D01*
X63466784Y-80201544D01*
X63614354Y-80300147D01*
X63739853Y-80425646D01*
X63838456Y-80573216D01*
X63906376Y-80737188D01*
X63941000Y-80911259D01*
X63941000Y-81088741D01*
X63906376Y-81262812D01*
X63838456Y-81426784D01*
X63739853Y-81574354D01*
X63614354Y-81699853D01*
X63466784Y-81798456D01*
X63302812Y-81866376D01*
X63153512Y-81896073D01*
X63128742Y-81901000D01*
X62951258Y-81901000D01*
X62926488Y-81896073D01*
X62777188Y-81866376D01*
X62613216Y-81798456D01*
X62465646Y-81699853D01*
X62340147Y-81574354D01*
X62241544Y-81426784D01*
X62173624Y-81262812D01*
X62139000Y-81088741D01*
X62139000Y-80911259D01*
X62173624Y-80737188D01*
X62241544Y-80573216D01*
X62340147Y-80425646D01*
X62465646Y-80300147D01*
X62613216Y-80201544D01*
X62777188Y-80133624D01*
X62926488Y-80103927D01*
X62951258Y-80099000D01*
X63128742Y-80099000D01*
X63153512Y-80103927D01*
G37*
G36*
X96139499Y-80628445D02*
G01*
X96176995Y-80639820D01*
X96211554Y-80658292D01*
X96241847Y-80683153D01*
X96266708Y-80713446D01*
X96285180Y-80748005D01*
X96296555Y-80785501D01*
X96301000Y-80830638D01*
X96301000Y-81469362D01*
X96296555Y-81514499D01*
X96285180Y-81551995D01*
X96266708Y-81586554D01*
X96241847Y-81616847D01*
X96211554Y-81641708D01*
X96176995Y-81660180D01*
X96139499Y-81671555D01*
X96094362Y-81676000D01*
X95355638Y-81676000D01*
X95310501Y-81671555D01*
X95273005Y-81660180D01*
X95238446Y-81641708D01*
X95208153Y-81616847D01*
X95183292Y-81586554D01*
X95164820Y-81551995D01*
X95153445Y-81514499D01*
X95149000Y-81469362D01*
X95149000Y-80830638D01*
X95153445Y-80785501D01*
X95164820Y-80748005D01*
X95183292Y-80713446D01*
X95208153Y-80683153D01*
X95238446Y-80658292D01*
X95273005Y-80639820D01*
X95310501Y-80628445D01*
X95355638Y-80624000D01*
X96094362Y-80624000D01*
X96139499Y-80628445D01*
G37*
G36*
X94389499Y-80628445D02*
G01*
X94426995Y-80639820D01*
X94461554Y-80658292D01*
X94491847Y-80683153D01*
X94516708Y-80713446D01*
X94535180Y-80748005D01*
X94546555Y-80785501D01*
X94551000Y-80830638D01*
X94551000Y-81469362D01*
X94546555Y-81514499D01*
X94535180Y-81551995D01*
X94516708Y-81586554D01*
X94491847Y-81616847D01*
X94461554Y-81641708D01*
X94426995Y-81660180D01*
X94389499Y-81671555D01*
X94344362Y-81676000D01*
X93605638Y-81676000D01*
X93560501Y-81671555D01*
X93523005Y-81660180D01*
X93488446Y-81641708D01*
X93458153Y-81616847D01*
X93433292Y-81586554D01*
X93414820Y-81551995D01*
X93403445Y-81514499D01*
X93399000Y-81469362D01*
X93399000Y-80830638D01*
X93403445Y-80785501D01*
X93414820Y-80748005D01*
X93433292Y-80713446D01*
X93458153Y-80683153D01*
X93488446Y-80658292D01*
X93523005Y-80639820D01*
X93560501Y-80628445D01*
X93605638Y-80624000D01*
X94344362Y-80624000D01*
X94389499Y-80628445D01*
G37*
G36*
X100389499Y-80628445D02*
G01*
X100426995Y-80639820D01*
X100461554Y-80658292D01*
X100491847Y-80683153D01*
X100516708Y-80713446D01*
X100535180Y-80748005D01*
X100546555Y-80785501D01*
X100551000Y-80830638D01*
X100551000Y-81469362D01*
X100546555Y-81514499D01*
X100535180Y-81551995D01*
X100516708Y-81586554D01*
X100491847Y-81616847D01*
X100461554Y-81641708D01*
X100426995Y-81660180D01*
X100389499Y-81671555D01*
X100344362Y-81676000D01*
X99605638Y-81676000D01*
X99560501Y-81671555D01*
X99523005Y-81660180D01*
X99488446Y-81641708D01*
X99458153Y-81616847D01*
X99433292Y-81586554D01*
X99414820Y-81551995D01*
X99403445Y-81514499D01*
X99399000Y-81469362D01*
X99399000Y-80830638D01*
X99403445Y-80785501D01*
X99414820Y-80748005D01*
X99433292Y-80713446D01*
X99458153Y-80683153D01*
X99488446Y-80658292D01*
X99523005Y-80639820D01*
X99560501Y-80628445D01*
X99605638Y-80624000D01*
X100344362Y-80624000D01*
X100389499Y-80628445D01*
G37*
G36*
X98639499Y-80628445D02*
G01*
X98676995Y-80639820D01*
X98711554Y-80658292D01*
X98741847Y-80683153D01*
X98766708Y-80713446D01*
X98785180Y-80748005D01*
X98796555Y-80785501D01*
X98801000Y-80830638D01*
X98801000Y-81469362D01*
X98796555Y-81514499D01*
X98785180Y-81551995D01*
X98766708Y-81586554D01*
X98741847Y-81616847D01*
X98711554Y-81641708D01*
X98676995Y-81660180D01*
X98639499Y-81671555D01*
X98594362Y-81676000D01*
X97855638Y-81676000D01*
X97810501Y-81671555D01*
X97773005Y-81660180D01*
X97738446Y-81641708D01*
X97708153Y-81616847D01*
X97683292Y-81586554D01*
X97664820Y-81551995D01*
X97653445Y-81514499D01*
X97649000Y-81469362D01*
X97649000Y-80830638D01*
X97653445Y-80785501D01*
X97664820Y-80748005D01*
X97683292Y-80713446D01*
X97708153Y-80683153D01*
X97738446Y-80658292D01*
X97773005Y-80639820D01*
X97810501Y-80628445D01*
X97855638Y-80624000D01*
X98594362Y-80624000D01*
X98639499Y-80628445D01*
G37*
G36*
X120901000Y-81651000D02*
G01*
X119099000Y-81651000D01*
X119099000Y-79849000D01*
X120901000Y-79849000D01*
X120901000Y-81651000D01*
G37*
G36*
X61401000Y-81401000D02*
G01*
X59599000Y-81401000D01*
X59599000Y-79599000D01*
X61401000Y-79599000D01*
X61401000Y-81401000D01*
G37*
G36*
X70773512Y-79603927D02*
G01*
X70922812Y-79633624D01*
X71086784Y-79701544D01*
X71234354Y-79800147D01*
X71359853Y-79925646D01*
X71458456Y-80073216D01*
X71526376Y-80237188D01*
X71561000Y-80411259D01*
X71561000Y-80588741D01*
X71526376Y-80762812D01*
X71458456Y-80926784D01*
X71359853Y-81074354D01*
X71234354Y-81199853D01*
X71086784Y-81298456D01*
X70922812Y-81366376D01*
X70773512Y-81396073D01*
X70748742Y-81401000D01*
X70571258Y-81401000D01*
X70546488Y-81396073D01*
X70397188Y-81366376D01*
X70233216Y-81298456D01*
X70085646Y-81199853D01*
X69960147Y-81074354D01*
X69861544Y-80926784D01*
X69793624Y-80762812D01*
X69759000Y-80588741D01*
X69759000Y-80411259D01*
X69793624Y-80237188D01*
X69861544Y-80073216D01*
X69960147Y-79925646D01*
X70085646Y-79800147D01*
X70233216Y-79701544D01*
X70397188Y-79633624D01*
X70546488Y-79603927D01*
X70571258Y-79599000D01*
X70748742Y-79599000D01*
X70773512Y-79603927D01*
G37*
G36*
X75853512Y-79603927D02*
G01*
X76002812Y-79633624D01*
X76166784Y-79701544D01*
X76314354Y-79800147D01*
X76439853Y-79925646D01*
X76538456Y-80073216D01*
X76606376Y-80237188D01*
X76641000Y-80411259D01*
X76641000Y-80588741D01*
X76606376Y-80762812D01*
X76538456Y-80926784D01*
X76439853Y-81074354D01*
X76314354Y-81199853D01*
X76166784Y-81298456D01*
X76002812Y-81366376D01*
X75853512Y-81396073D01*
X75828742Y-81401000D01*
X75651258Y-81401000D01*
X75626488Y-81396073D01*
X75477188Y-81366376D01*
X75313216Y-81298456D01*
X75165646Y-81199853D01*
X75040147Y-81074354D01*
X74941544Y-80926784D01*
X74873624Y-80762812D01*
X74839000Y-80588741D01*
X74839000Y-80411259D01*
X74873624Y-80237188D01*
X74941544Y-80073216D01*
X75040147Y-79925646D01*
X75165646Y-79800147D01*
X75313216Y-79701544D01*
X75477188Y-79633624D01*
X75626488Y-79603927D01*
X75651258Y-79599000D01*
X75828742Y-79599000D01*
X75853512Y-79603927D01*
G37*
G36*
X65693512Y-79603927D02*
G01*
X65842812Y-79633624D01*
X66006784Y-79701544D01*
X66154354Y-79800147D01*
X66279853Y-79925646D01*
X66378456Y-80073216D01*
X66446376Y-80237188D01*
X66481000Y-80411259D01*
X66481000Y-80588741D01*
X66446376Y-80762812D01*
X66378456Y-80926784D01*
X66279853Y-81074354D01*
X66154354Y-81199853D01*
X66006784Y-81298456D01*
X65842812Y-81366376D01*
X65693512Y-81396073D01*
X65668742Y-81401000D01*
X65491258Y-81401000D01*
X65466488Y-81396073D01*
X65317188Y-81366376D01*
X65153216Y-81298456D01*
X65005646Y-81199853D01*
X64880147Y-81074354D01*
X64781544Y-80926784D01*
X64713624Y-80762812D01*
X64679000Y-80588741D01*
X64679000Y-80411259D01*
X64713624Y-80237188D01*
X64781544Y-80073216D01*
X64880147Y-79925646D01*
X65005646Y-79800147D01*
X65153216Y-79701544D01*
X65317188Y-79633624D01*
X65466488Y-79603927D01*
X65491258Y-79599000D01*
X65668742Y-79599000D01*
X65693512Y-79603927D01*
G37*
G36*
X115289499Y-80228445D02*
G01*
X115326995Y-80239820D01*
X115361554Y-80258292D01*
X115391847Y-80283153D01*
X115416708Y-80313446D01*
X115435180Y-80348005D01*
X115446555Y-80385501D01*
X115451000Y-80430638D01*
X115451000Y-81069362D01*
X115446555Y-81114499D01*
X115435180Y-81151995D01*
X115416708Y-81186554D01*
X115391847Y-81216847D01*
X115361554Y-81241708D01*
X115326995Y-81260180D01*
X115289499Y-81271555D01*
X115244362Y-81276000D01*
X114505638Y-81276000D01*
X114460501Y-81271555D01*
X114423005Y-81260180D01*
X114388446Y-81241708D01*
X114358153Y-81216847D01*
X114333292Y-81186554D01*
X114314820Y-81151995D01*
X114303445Y-81114499D01*
X114299000Y-81069362D01*
X114299000Y-80430638D01*
X114303445Y-80385501D01*
X114314820Y-80348005D01*
X114333292Y-80313446D01*
X114358153Y-80283153D01*
X114388446Y-80258292D01*
X114423005Y-80239820D01*
X114460501Y-80228445D01*
X114505638Y-80224000D01*
X115244362Y-80224000D01*
X115289499Y-80228445D01*
G37*
G36*
X113539499Y-80228445D02*
G01*
X113576995Y-80239820D01*
X113611554Y-80258292D01*
X113641847Y-80283153D01*
X113666708Y-80313446D01*
X113685180Y-80348005D01*
X113696555Y-80385501D01*
X113701000Y-80430638D01*
X113701000Y-81069362D01*
X113696555Y-81114499D01*
X113685180Y-81151995D01*
X113666708Y-81186554D01*
X113641847Y-81216847D01*
X113611554Y-81241708D01*
X113576995Y-81260180D01*
X113539499Y-81271555D01*
X113494362Y-81276000D01*
X112755638Y-81276000D01*
X112710501Y-81271555D01*
X112673005Y-81260180D01*
X112638446Y-81241708D01*
X112608153Y-81216847D01*
X112583292Y-81186554D01*
X112564820Y-81151995D01*
X112553445Y-81114499D01*
X112549000Y-81069362D01*
X112549000Y-80430638D01*
X112553445Y-80385501D01*
X112564820Y-80348005D01*
X112583292Y-80313446D01*
X112608153Y-80283153D01*
X112638446Y-80258292D01*
X112673005Y-80239820D01*
X112710501Y-80228445D01*
X112755638Y-80224000D01*
X113494362Y-80224000D01*
X113539499Y-80228445D01*
G37*
G36*
X117573512Y-79353927D02*
G01*
X117722812Y-79383624D01*
X117886784Y-79451544D01*
X118034354Y-79550147D01*
X118159853Y-79675646D01*
X118258456Y-79823216D01*
X118326376Y-79987188D01*
X118361000Y-80161259D01*
X118361000Y-80338741D01*
X118326376Y-80512812D01*
X118258456Y-80676784D01*
X118159853Y-80824354D01*
X118034354Y-80949853D01*
X117886784Y-81048456D01*
X117722812Y-81116376D01*
X117573512Y-81146073D01*
X117548742Y-81151000D01*
X117371258Y-81151000D01*
X117346488Y-81146073D01*
X117197188Y-81116376D01*
X117033216Y-81048456D01*
X116885646Y-80949853D01*
X116760147Y-80824354D01*
X116661544Y-80676784D01*
X116593624Y-80512812D01*
X116559000Y-80338741D01*
X116559000Y-80161259D01*
X116593624Y-79987188D01*
X116661544Y-79823216D01*
X116760147Y-79675646D01*
X116885646Y-79550147D01*
X117033216Y-79451544D01*
X117197188Y-79383624D01*
X117346488Y-79353927D01*
X117371258Y-79349000D01*
X117548742Y-79349000D01*
X117573512Y-79353927D01*
G37*
G36*
X110864499Y-79303445D02*
G01*
X110901995Y-79314820D01*
X110936554Y-79333292D01*
X110966847Y-79358153D01*
X110991708Y-79388446D01*
X111010180Y-79423005D01*
X111021555Y-79460501D01*
X111026000Y-79505638D01*
X111026000Y-80244362D01*
X111021555Y-80289499D01*
X111010180Y-80326995D01*
X110991708Y-80361554D01*
X110966847Y-80391847D01*
X110936554Y-80416708D01*
X110901995Y-80435180D01*
X110864499Y-80446555D01*
X110819362Y-80451000D01*
X110180638Y-80451000D01*
X110135501Y-80446555D01*
X110098005Y-80435180D01*
X110063446Y-80416708D01*
X110033153Y-80391847D01*
X110008292Y-80361554D01*
X109989820Y-80326995D01*
X109978445Y-80289499D01*
X109974000Y-80244362D01*
X109974000Y-79505638D01*
X109978445Y-79460501D01*
X109989820Y-79423005D01*
X110008292Y-79388446D01*
X110033153Y-79358153D01*
X110063446Y-79333292D01*
X110098005Y-79314820D01*
X110135501Y-79303445D01*
X110180638Y-79299000D01*
X110819362Y-79299000D01*
X110864499Y-79303445D01*
G37*
G36*
X104864499Y-79303445D02*
G01*
X104901995Y-79314820D01*
X104936554Y-79333292D01*
X104966847Y-79358153D01*
X104991708Y-79388446D01*
X105010180Y-79423005D01*
X105021555Y-79460501D01*
X105026000Y-79505638D01*
X105026000Y-80244362D01*
X105021555Y-80289499D01*
X105010180Y-80326995D01*
X104991708Y-80361554D01*
X104966847Y-80391847D01*
X104936554Y-80416708D01*
X104901995Y-80435180D01*
X104864499Y-80446555D01*
X104819362Y-80451000D01*
X104180638Y-80451000D01*
X104135501Y-80446555D01*
X104098005Y-80435180D01*
X104063446Y-80416708D01*
X104033153Y-80391847D01*
X104008292Y-80361554D01*
X103989820Y-80326995D01*
X103978445Y-80289499D01*
X103974000Y-80244362D01*
X103974000Y-79505638D01*
X103978445Y-79460501D01*
X103989820Y-79423005D01*
X104008292Y-79388446D01*
X104033153Y-79358153D01*
X104063446Y-79333292D01*
X104098005Y-79314820D01*
X104135501Y-79303445D01*
X104180638Y-79299000D01*
X104819362Y-79299000D01*
X104864499Y-79303445D01*
G37*
G36*
X100214499Y-78453445D02*
G01*
X100251995Y-78464820D01*
X100286554Y-78483292D01*
X100316847Y-78508153D01*
X100341708Y-78538446D01*
X100360180Y-78573005D01*
X100371555Y-78610501D01*
X100376000Y-78655638D01*
X100376000Y-79394362D01*
X100371555Y-79439499D01*
X100360180Y-79476995D01*
X100341708Y-79511554D01*
X100316847Y-79541847D01*
X100286554Y-79566708D01*
X100251995Y-79585180D01*
X100214499Y-79596555D01*
X100169362Y-79601000D01*
X99530638Y-79601000D01*
X99485501Y-79596555D01*
X99448005Y-79585180D01*
X99413446Y-79566708D01*
X99383153Y-79541847D01*
X99358292Y-79511554D01*
X99339820Y-79476995D01*
X99328445Y-79439499D01*
X99324000Y-79394362D01*
X99324000Y-78655638D01*
X99328445Y-78610501D01*
X99339820Y-78573005D01*
X99358292Y-78538446D01*
X99383153Y-78508153D01*
X99413446Y-78483292D01*
X99448005Y-78464820D01*
X99485501Y-78453445D01*
X99530638Y-78449000D01*
X100169362Y-78449000D01*
X100214499Y-78453445D01*
G37*
G36*
X94464499Y-78453445D02*
G01*
X94501995Y-78464820D01*
X94536554Y-78483292D01*
X94566847Y-78508153D01*
X94591708Y-78538446D01*
X94610180Y-78573005D01*
X94621555Y-78610501D01*
X94626000Y-78655638D01*
X94626000Y-79394362D01*
X94621555Y-79439499D01*
X94610180Y-79476995D01*
X94591708Y-79511554D01*
X94566847Y-79541847D01*
X94536554Y-79566708D01*
X94501995Y-79585180D01*
X94464499Y-79596555D01*
X94419362Y-79601000D01*
X93780638Y-79601000D01*
X93735501Y-79596555D01*
X93698005Y-79585180D01*
X93663446Y-79566708D01*
X93633153Y-79541847D01*
X93608292Y-79511554D01*
X93589820Y-79476995D01*
X93578445Y-79439499D01*
X93574000Y-79394362D01*
X93574000Y-78655638D01*
X93578445Y-78610501D01*
X93589820Y-78573005D01*
X93608292Y-78538446D01*
X93633153Y-78508153D01*
X93663446Y-78483292D01*
X93698005Y-78464820D01*
X93735501Y-78453445D01*
X93780638Y-78449000D01*
X94419362Y-78449000D01*
X94464499Y-78453445D01*
G37*
G36*
X96601000Y-79551000D02*
G01*
X95599000Y-79551000D01*
X95599000Y-78649000D01*
X96601000Y-78649000D01*
X96601000Y-79551000D01*
G37*
G36*
X73313512Y-77603927D02*
G01*
X73462812Y-77633624D01*
X73626784Y-77701544D01*
X73774354Y-77800147D01*
X73899853Y-77925646D01*
X73998456Y-78073216D01*
X74066376Y-78237188D01*
X74101000Y-78411259D01*
X74101000Y-78588741D01*
X74066376Y-78762812D01*
X73998456Y-78926784D01*
X73899853Y-79074354D01*
X73774354Y-79199853D01*
X73626784Y-79298456D01*
X73462812Y-79366376D01*
X73322113Y-79394362D01*
X73288742Y-79401000D01*
X73111258Y-79401000D01*
X73077887Y-79394362D01*
X72937188Y-79366376D01*
X72773216Y-79298456D01*
X72625646Y-79199853D01*
X72500147Y-79074354D01*
X72401544Y-78926784D01*
X72333624Y-78762812D01*
X72299000Y-78588741D01*
X72299000Y-78411259D01*
X72333624Y-78237188D01*
X72401544Y-78073216D01*
X72500147Y-77925646D01*
X72625646Y-77800147D01*
X72773216Y-77701544D01*
X72937188Y-77633624D01*
X73086488Y-77603927D01*
X73111258Y-77599000D01*
X73288742Y-77599000D01*
X73313512Y-77603927D01*
G37*
G36*
X78393512Y-77603927D02*
G01*
X78542812Y-77633624D01*
X78706784Y-77701544D01*
X78854354Y-77800147D01*
X78979853Y-77925646D01*
X79078456Y-78073216D01*
X79146376Y-78237188D01*
X79181000Y-78411259D01*
X79181000Y-78588741D01*
X79146376Y-78762812D01*
X79078456Y-78926784D01*
X78979853Y-79074354D01*
X78854354Y-79199853D01*
X78706784Y-79298456D01*
X78542812Y-79366376D01*
X78402113Y-79394362D01*
X78368742Y-79401000D01*
X78191258Y-79401000D01*
X78157887Y-79394362D01*
X78017188Y-79366376D01*
X77853216Y-79298456D01*
X77705646Y-79199853D01*
X77580147Y-79074354D01*
X77481544Y-78926784D01*
X77413624Y-78762812D01*
X77379000Y-78588741D01*
X77379000Y-78411259D01*
X77413624Y-78237188D01*
X77481544Y-78073216D01*
X77580147Y-77925646D01*
X77705646Y-77800147D01*
X77853216Y-77701544D01*
X78017188Y-77633624D01*
X78166488Y-77603927D01*
X78191258Y-77599000D01*
X78368742Y-77599000D01*
X78393512Y-77603927D01*
G37*
G36*
X68233512Y-77603927D02*
G01*
X68382812Y-77633624D01*
X68546784Y-77701544D01*
X68694354Y-77800147D01*
X68819853Y-77925646D01*
X68918456Y-78073216D01*
X68986376Y-78237188D01*
X69021000Y-78411259D01*
X69021000Y-78588741D01*
X68986376Y-78762812D01*
X68918456Y-78926784D01*
X68819853Y-79074354D01*
X68694354Y-79199853D01*
X68546784Y-79298456D01*
X68382812Y-79366376D01*
X68242113Y-79394362D01*
X68208742Y-79401000D01*
X68031258Y-79401000D01*
X67997887Y-79394362D01*
X67857188Y-79366376D01*
X67693216Y-79298456D01*
X67545646Y-79199853D01*
X67420147Y-79074354D01*
X67321544Y-78926784D01*
X67253624Y-78762812D01*
X67219000Y-78588741D01*
X67219000Y-78411259D01*
X67253624Y-78237188D01*
X67321544Y-78073216D01*
X67420147Y-77925646D01*
X67545646Y-77800147D01*
X67693216Y-77701544D01*
X67857188Y-77633624D01*
X68006488Y-77603927D01*
X68031258Y-77599000D01*
X68208742Y-77599000D01*
X68233512Y-77603927D01*
G37*
G36*
X63153512Y-77603927D02*
G01*
X63302812Y-77633624D01*
X63466784Y-77701544D01*
X63614354Y-77800147D01*
X63739853Y-77925646D01*
X63838456Y-78073216D01*
X63906376Y-78237188D01*
X63941000Y-78411259D01*
X63941000Y-78588741D01*
X63906376Y-78762812D01*
X63838456Y-78926784D01*
X63739853Y-79074354D01*
X63614354Y-79199853D01*
X63466784Y-79298456D01*
X63302812Y-79366376D01*
X63162113Y-79394362D01*
X63128742Y-79401000D01*
X62951258Y-79401000D01*
X62917887Y-79394362D01*
X62777188Y-79366376D01*
X62613216Y-79298456D01*
X62465646Y-79199853D01*
X62340147Y-79074354D01*
X62241544Y-78926784D01*
X62173624Y-78762812D01*
X62139000Y-78588741D01*
X62139000Y-78411259D01*
X62173624Y-78237188D01*
X62241544Y-78073216D01*
X62340147Y-77925646D01*
X62465646Y-77800147D01*
X62613216Y-77701544D01*
X62777188Y-77633624D01*
X62926488Y-77603927D01*
X62951258Y-77599000D01*
X63128742Y-77599000D01*
X63153512Y-77603927D01*
G37*
G36*
X120113512Y-77353927D02*
G01*
X120262812Y-77383624D01*
X120426784Y-77451544D01*
X120574354Y-77550147D01*
X120699853Y-77675646D01*
X120798456Y-77823216D01*
X120866376Y-77987188D01*
X120901000Y-78161259D01*
X120901000Y-78338741D01*
X120866376Y-78512812D01*
X120798456Y-78676784D01*
X120699853Y-78824354D01*
X120574354Y-78949853D01*
X120426784Y-79048456D01*
X120262812Y-79116376D01*
X120113512Y-79146073D01*
X120088742Y-79151000D01*
X119911258Y-79151000D01*
X119886488Y-79146073D01*
X119737188Y-79116376D01*
X119573216Y-79048456D01*
X119425646Y-78949853D01*
X119300147Y-78824354D01*
X119201544Y-78676784D01*
X119133624Y-78512812D01*
X119099000Y-78338741D01*
X119099000Y-78161259D01*
X119133624Y-77987188D01*
X119201544Y-77823216D01*
X119300147Y-77675646D01*
X119425646Y-77550147D01*
X119573216Y-77451544D01*
X119737188Y-77383624D01*
X119886488Y-77353927D01*
X119911258Y-77349000D01*
X120088742Y-77349000D01*
X120113512Y-77353927D01*
G37*
G36*
X75853512Y-77103927D02*
G01*
X76002812Y-77133624D01*
X76166784Y-77201544D01*
X76314354Y-77300147D01*
X76439853Y-77425646D01*
X76538456Y-77573216D01*
X76606376Y-77737188D01*
X76641000Y-77911259D01*
X76641000Y-78088741D01*
X76606376Y-78262812D01*
X76538456Y-78426784D01*
X76439853Y-78574354D01*
X76314354Y-78699853D01*
X76166784Y-78798456D01*
X76002812Y-78866376D01*
X75853512Y-78896073D01*
X75828742Y-78901000D01*
X75651258Y-78901000D01*
X75626488Y-78896073D01*
X75477188Y-78866376D01*
X75313216Y-78798456D01*
X75165646Y-78699853D01*
X75040147Y-78574354D01*
X74941544Y-78426784D01*
X74873624Y-78262812D01*
X74839000Y-78088741D01*
X74839000Y-77911259D01*
X74873624Y-77737188D01*
X74941544Y-77573216D01*
X75040147Y-77425646D01*
X75165646Y-77300147D01*
X75313216Y-77201544D01*
X75477188Y-77133624D01*
X75626488Y-77103927D01*
X75651258Y-77099000D01*
X75828742Y-77099000D01*
X75853512Y-77103927D01*
G37*
G36*
X65693512Y-77103927D02*
G01*
X65842812Y-77133624D01*
X66006784Y-77201544D01*
X66154354Y-77300147D01*
X66279853Y-77425646D01*
X66378456Y-77573216D01*
X66446376Y-77737188D01*
X66481000Y-77911259D01*
X66481000Y-78088741D01*
X66446376Y-78262812D01*
X66378456Y-78426784D01*
X66279853Y-78574354D01*
X66154354Y-78699853D01*
X66006784Y-78798456D01*
X65842812Y-78866376D01*
X65693512Y-78896073D01*
X65668742Y-78901000D01*
X65491258Y-78901000D01*
X65466488Y-78896073D01*
X65317188Y-78866376D01*
X65153216Y-78798456D01*
X65005646Y-78699853D01*
X64880147Y-78574354D01*
X64781544Y-78426784D01*
X64713624Y-78262812D01*
X64679000Y-78088741D01*
X64679000Y-77911259D01*
X64713624Y-77737188D01*
X64781544Y-77573216D01*
X64880147Y-77425646D01*
X65005646Y-77300147D01*
X65153216Y-77201544D01*
X65317188Y-77133624D01*
X65466488Y-77103927D01*
X65491258Y-77099000D01*
X65668742Y-77099000D01*
X65693512Y-77103927D01*
G37*
G36*
X61401000Y-78901000D02*
G01*
X59599000Y-78901000D01*
X59599000Y-77099000D01*
X61401000Y-77099000D01*
X61401000Y-78901000D01*
G37*
G36*
X70773512Y-77103927D02*
G01*
X70922812Y-77133624D01*
X71086784Y-77201544D01*
X71234354Y-77300147D01*
X71359853Y-77425646D01*
X71458456Y-77573216D01*
X71526376Y-77737188D01*
X71561000Y-77911259D01*
X71561000Y-78088741D01*
X71526376Y-78262812D01*
X71458456Y-78426784D01*
X71359853Y-78574354D01*
X71234354Y-78699853D01*
X71086784Y-78798456D01*
X70922812Y-78866376D01*
X70773512Y-78896073D01*
X70748742Y-78901000D01*
X70571258Y-78901000D01*
X70546488Y-78896073D01*
X70397188Y-78866376D01*
X70233216Y-78798456D01*
X70085646Y-78699853D01*
X69960147Y-78574354D01*
X69861544Y-78426784D01*
X69793624Y-78262812D01*
X69759000Y-78088741D01*
X69759000Y-77911259D01*
X69793624Y-77737188D01*
X69861544Y-77573216D01*
X69960147Y-77425646D01*
X70085646Y-77300147D01*
X70233216Y-77201544D01*
X70397188Y-77133624D01*
X70546488Y-77103927D01*
X70571258Y-77099000D01*
X70748742Y-77099000D01*
X70773512Y-77103927D01*
G37*
G36*
X117573512Y-76853927D02*
G01*
X117722812Y-76883624D01*
X117886784Y-76951544D01*
X118034354Y-77050147D01*
X118159853Y-77175646D01*
X118258456Y-77323216D01*
X118326376Y-77487188D01*
X118346428Y-77588000D01*
X118358960Y-77651000D01*
X118361000Y-77661259D01*
X118361000Y-77838741D01*
X118326376Y-78012812D01*
X118258456Y-78176784D01*
X118159853Y-78324354D01*
X118034354Y-78449853D01*
X117886784Y-78548456D01*
X117722812Y-78616376D01*
X117573512Y-78646073D01*
X117548742Y-78651000D01*
X117371258Y-78651000D01*
X117346488Y-78646073D01*
X117197188Y-78616376D01*
X117033216Y-78548456D01*
X116885646Y-78449853D01*
X116760147Y-78324354D01*
X116661544Y-78176784D01*
X116593624Y-78012812D01*
X116559000Y-77838741D01*
X116559000Y-77661259D01*
X116561041Y-77651000D01*
X116573572Y-77588000D01*
X116593624Y-77487188D01*
X116661544Y-77323216D01*
X116760147Y-77175646D01*
X116885646Y-77050147D01*
X117033216Y-76951544D01*
X117197188Y-76883624D01*
X117346488Y-76853927D01*
X117371258Y-76849000D01*
X117548742Y-76849000D01*
X117573512Y-76853927D01*
G37*
G36*
X98601000Y-78601000D02*
G01*
X97599000Y-78601000D01*
X97599000Y-77699000D01*
X98601000Y-77699000D01*
X98601000Y-78601000D01*
G37*
G36*
X104039499Y-77478445D02*
G01*
X104076995Y-77489820D01*
X104111554Y-77508292D01*
X104141847Y-77533153D01*
X104166708Y-77563446D01*
X104185180Y-77598005D01*
X104196555Y-77635501D01*
X104201000Y-77680638D01*
X104201000Y-78319362D01*
X104196555Y-78364499D01*
X104185180Y-78401995D01*
X104166708Y-78436554D01*
X104141847Y-78466847D01*
X104111554Y-78491708D01*
X104076995Y-78510180D01*
X104039499Y-78521555D01*
X103994362Y-78526000D01*
X103255638Y-78526000D01*
X103210501Y-78521555D01*
X103173005Y-78510180D01*
X103138446Y-78491708D01*
X103108153Y-78466847D01*
X103083292Y-78436554D01*
X103064820Y-78401995D01*
X103053445Y-78364499D01*
X103049000Y-78319362D01*
X103049000Y-77680638D01*
X103053445Y-77635501D01*
X103064820Y-77598005D01*
X103083292Y-77563446D01*
X103108153Y-77533153D01*
X103138446Y-77508292D01*
X103173005Y-77489820D01*
X103210501Y-77478445D01*
X103255638Y-77474000D01*
X103994362Y-77474000D01*
X104039499Y-77478445D01*
G37*
G36*
X105789499Y-77478445D02*
G01*
X105826995Y-77489820D01*
X105861554Y-77508292D01*
X105891847Y-77533153D01*
X105916708Y-77563446D01*
X105935180Y-77598005D01*
X105946555Y-77635501D01*
X105951000Y-77680638D01*
X105951000Y-78319362D01*
X105946555Y-78364499D01*
X105935180Y-78401995D01*
X105916708Y-78436554D01*
X105891847Y-78466847D01*
X105861554Y-78491708D01*
X105826995Y-78510180D01*
X105789499Y-78521555D01*
X105744362Y-78526000D01*
X105005638Y-78526000D01*
X104960501Y-78521555D01*
X104923005Y-78510180D01*
X104888446Y-78491708D01*
X104858153Y-78466847D01*
X104833292Y-78436554D01*
X104814820Y-78401995D01*
X104803445Y-78364499D01*
X104799000Y-78319362D01*
X104799000Y-77680638D01*
X104803445Y-77635501D01*
X104814820Y-77598005D01*
X104833292Y-77563446D01*
X104858153Y-77533153D01*
X104888446Y-77508292D01*
X104923005Y-77489820D01*
X104960501Y-77478445D01*
X105005638Y-77474000D01*
X105744362Y-77474000D01*
X105789499Y-77478445D01*
G37*
G36*
X109326000Y-78251000D02*
G01*
X107774000Y-78251000D01*
X107774000Y-75749000D01*
X109326000Y-75749000D01*
X109326000Y-78251000D01*
G37*
G36*
X115226000Y-78251000D02*
G01*
X113674000Y-78251000D01*
X113674000Y-75749000D01*
X115226000Y-75749000D01*
X115226000Y-78251000D01*
G37*
G36*
X94464499Y-76703445D02*
G01*
X94501995Y-76714820D01*
X94536554Y-76733292D01*
X94566847Y-76758153D01*
X94591708Y-76788446D01*
X94610180Y-76823005D01*
X94621555Y-76860501D01*
X94626000Y-76905638D01*
X94626000Y-77644362D01*
X94621555Y-77689499D01*
X94610180Y-77726995D01*
X94591708Y-77761554D01*
X94566847Y-77791847D01*
X94536554Y-77816708D01*
X94501995Y-77835180D01*
X94464499Y-77846555D01*
X94419362Y-77851000D01*
X93780638Y-77851000D01*
X93735501Y-77846555D01*
X93698005Y-77835180D01*
X93663446Y-77816708D01*
X93633153Y-77791847D01*
X93608292Y-77761554D01*
X93589820Y-77726995D01*
X93578445Y-77689499D01*
X93574000Y-77644362D01*
X93574000Y-76905638D01*
X93578445Y-76860501D01*
X93589820Y-76823005D01*
X93608292Y-76788446D01*
X93633153Y-76758153D01*
X93663446Y-76733292D01*
X93698005Y-76714820D01*
X93735501Y-76703445D01*
X93780638Y-76699000D01*
X94419362Y-76699000D01*
X94464499Y-76703445D01*
G37*
G36*
X100214499Y-76703445D02*
G01*
X100251995Y-76714820D01*
X100286554Y-76733292D01*
X100316847Y-76758153D01*
X100341708Y-76788446D01*
X100360180Y-76823005D01*
X100371555Y-76860501D01*
X100376000Y-76905638D01*
X100376000Y-77644362D01*
X100371555Y-77689499D01*
X100360180Y-77726995D01*
X100341708Y-77761554D01*
X100316847Y-77791847D01*
X100286554Y-77816708D01*
X100251995Y-77835180D01*
X100214499Y-77846555D01*
X100169362Y-77851000D01*
X99530638Y-77851000D01*
X99485501Y-77846555D01*
X99448005Y-77835180D01*
X99413446Y-77816708D01*
X99383153Y-77791847D01*
X99358292Y-77761554D01*
X99339820Y-77726995D01*
X99328445Y-77689499D01*
X99324000Y-77644362D01*
X99324000Y-76905638D01*
X99328445Y-76860501D01*
X99339820Y-76823005D01*
X99358292Y-76788446D01*
X99383153Y-76758153D01*
X99413446Y-76733292D01*
X99448005Y-76714820D01*
X99485501Y-76703445D01*
X99530638Y-76699000D01*
X100169362Y-76699000D01*
X100214499Y-76703445D01*
G37*
G36*
X96601000Y-77651000D02*
G01*
X95599000Y-77651000D01*
X95599000Y-76749000D01*
X96601000Y-76749000D01*
X96601000Y-77651000D01*
G37*
G36*
X128088674Y-76178465D02*
G01*
X128126367Y-76189899D01*
X128161103Y-76208466D01*
X128191548Y-76233452D01*
X128216534Y-76263897D01*
X128235101Y-76298633D01*
X128246535Y-76336326D01*
X128251000Y-76381661D01*
X128251000Y-77218339D01*
X128246535Y-77263674D01*
X128235101Y-77301367D01*
X128216534Y-77336103D01*
X128191548Y-77366548D01*
X128161103Y-77391534D01*
X128126367Y-77410101D01*
X128088674Y-77421535D01*
X128043339Y-77426000D01*
X126956661Y-77426000D01*
X126911326Y-77421535D01*
X126873633Y-77410101D01*
X126838897Y-77391534D01*
X126808452Y-77366548D01*
X126783466Y-77336103D01*
X126764899Y-77301367D01*
X126753465Y-77263674D01*
X126749000Y-77218339D01*
X126749000Y-76381661D01*
X126753465Y-76336326D01*
X126764899Y-76298633D01*
X126783466Y-76263897D01*
X126808452Y-76233452D01*
X126838897Y-76208466D01*
X126873633Y-76189899D01*
X126911326Y-76178465D01*
X126956661Y-76174000D01*
X128043339Y-76174000D01*
X128088674Y-76178465D01*
G37*
G36*
X125864499Y-76178445D02*
G01*
X125901995Y-76189820D01*
X125936554Y-76208292D01*
X125966847Y-76233153D01*
X125991708Y-76263446D01*
X126010180Y-76298005D01*
X126021555Y-76335501D01*
X126026000Y-76380638D01*
X126026000Y-77119362D01*
X126021555Y-77164499D01*
X126010180Y-77201995D01*
X125991708Y-77236554D01*
X125966847Y-77266847D01*
X125936554Y-77291708D01*
X125901995Y-77310180D01*
X125864499Y-77321555D01*
X125819362Y-77326000D01*
X125180638Y-77326000D01*
X125135501Y-77321555D01*
X125098005Y-77310180D01*
X125063446Y-77291708D01*
X125033153Y-77266847D01*
X125008292Y-77236554D01*
X124989820Y-77201995D01*
X124978445Y-77164499D01*
X124974000Y-77119362D01*
X124974000Y-76380638D01*
X124978445Y-76335501D01*
X124989820Y-76298005D01*
X125008292Y-76263446D01*
X125033153Y-76233153D01*
X125063446Y-76208292D01*
X125098005Y-76189820D01*
X125135501Y-76178445D01*
X125180638Y-76174000D01*
X125819362Y-76174000D01*
X125864499Y-76178445D01*
G37*
G36*
X51363062Y-75328181D02*
G01*
X51397981Y-75338774D01*
X51430163Y-75355976D01*
X51458373Y-75379127D01*
X51481524Y-75407337D01*
X51498726Y-75439519D01*
X51509319Y-75474438D01*
X51513500Y-75516895D01*
X51513500Y-76983105D01*
X51509319Y-77025562D01*
X51498726Y-77060481D01*
X51481524Y-77092663D01*
X51458373Y-77120873D01*
X51430163Y-77144024D01*
X51397981Y-77161226D01*
X51363062Y-77171819D01*
X51320605Y-77176000D01*
X50179395Y-77176000D01*
X50136938Y-77171819D01*
X50102019Y-77161226D01*
X50069837Y-77144024D01*
X50041627Y-77120873D01*
X50018476Y-77092663D01*
X50001274Y-77060481D01*
X49990681Y-77025562D01*
X49986500Y-76983105D01*
X49986500Y-75516895D01*
X49990681Y-75474438D01*
X50001274Y-75439519D01*
X50018476Y-75407337D01*
X50041627Y-75379127D01*
X50069837Y-75355976D01*
X50102019Y-75338774D01*
X50136938Y-75328181D01*
X50179395Y-75324000D01*
X51320605Y-75324000D01*
X51363062Y-75328181D01*
G37*
G36*
X54338062Y-75328181D02*
G01*
X54372981Y-75338774D01*
X54405163Y-75355976D01*
X54433373Y-75379127D01*
X54456524Y-75407337D01*
X54473726Y-75439519D01*
X54484319Y-75474438D01*
X54488500Y-75516895D01*
X54488500Y-76983105D01*
X54484319Y-77025562D01*
X54473726Y-77060481D01*
X54456524Y-77092663D01*
X54433373Y-77120873D01*
X54405163Y-77144024D01*
X54372981Y-77161226D01*
X54338062Y-77171819D01*
X54295605Y-77176000D01*
X53154395Y-77176000D01*
X53111938Y-77171819D01*
X53077019Y-77161226D01*
X53044837Y-77144024D01*
X53016627Y-77120873D01*
X52993476Y-77092663D01*
X52976274Y-77060481D01*
X52965681Y-77025562D01*
X52961500Y-76983105D01*
X52961500Y-75516895D01*
X52965681Y-75474438D01*
X52976274Y-75439519D01*
X52993476Y-75407337D01*
X53016627Y-75379127D01*
X53044837Y-75355976D01*
X53077019Y-75338774D01*
X53111938Y-75328181D01*
X53154395Y-75324000D01*
X54295605Y-75324000D01*
X54338062Y-75328181D01*
G37*
G36*
X106789499Y-74728445D02*
G01*
X106826995Y-74739820D01*
X106861554Y-74758292D01*
X106891847Y-74783153D01*
X106916708Y-74813446D01*
X106935180Y-74848005D01*
X106946555Y-74885501D01*
X106951000Y-74930638D01*
X106951000Y-75569362D01*
X106946555Y-75614499D01*
X106935180Y-75651995D01*
X106916708Y-75686554D01*
X106891847Y-75716847D01*
X106861554Y-75741708D01*
X106826995Y-75760180D01*
X106789499Y-75771555D01*
X106744362Y-75776000D01*
X106005638Y-75776000D01*
X105960501Y-75771555D01*
X105923005Y-75760180D01*
X105888446Y-75741708D01*
X105858153Y-75716847D01*
X105833292Y-75686554D01*
X105814820Y-75651995D01*
X105803445Y-75614499D01*
X105799000Y-75569362D01*
X105799000Y-74930638D01*
X105803445Y-74885501D01*
X105814820Y-74848005D01*
X105833292Y-74813446D01*
X105858153Y-74783153D01*
X105888446Y-74758292D01*
X105923005Y-74739820D01*
X105960501Y-74728445D01*
X106005638Y-74724000D01*
X106744362Y-74724000D01*
X106789499Y-74728445D01*
G37*
G36*
X105039499Y-74728445D02*
G01*
X105076995Y-74739820D01*
X105111554Y-74758292D01*
X105141847Y-74783153D01*
X105166708Y-74813446D01*
X105185180Y-74848005D01*
X105196555Y-74885501D01*
X105201000Y-74930638D01*
X105201000Y-75569362D01*
X105196555Y-75614499D01*
X105185180Y-75651995D01*
X105166708Y-75686554D01*
X105141847Y-75716847D01*
X105111554Y-75741708D01*
X105076995Y-75760180D01*
X105039499Y-75771555D01*
X104994362Y-75776000D01*
X104255638Y-75776000D01*
X104210501Y-75771555D01*
X104173005Y-75760180D01*
X104138446Y-75741708D01*
X104108153Y-75716847D01*
X104083292Y-75686554D01*
X104064820Y-75651995D01*
X104053445Y-75614499D01*
X104049000Y-75569362D01*
X104049000Y-74930638D01*
X104053445Y-74885501D01*
X104064820Y-74848005D01*
X104083292Y-74813446D01*
X104108153Y-74783153D01*
X104138446Y-74758292D01*
X104173005Y-74739820D01*
X104210501Y-74728445D01*
X104255638Y-74724000D01*
X104994362Y-74724000D01*
X105039499Y-74728445D01*
G37*
G36*
X125864499Y-74428445D02*
G01*
X125901995Y-74439820D01*
X125936554Y-74458292D01*
X125966847Y-74483153D01*
X125991708Y-74513446D01*
X126010180Y-74548005D01*
X126021555Y-74585501D01*
X126026000Y-74630638D01*
X126026000Y-75369362D01*
X126021555Y-75414499D01*
X126010180Y-75451995D01*
X125991708Y-75486554D01*
X125966847Y-75516847D01*
X125936554Y-75541708D01*
X125901995Y-75560180D01*
X125864499Y-75571555D01*
X125819362Y-75576000D01*
X125180638Y-75576000D01*
X125135501Y-75571555D01*
X125098005Y-75560180D01*
X125063446Y-75541708D01*
X125033153Y-75516847D01*
X125008292Y-75486554D01*
X124989820Y-75451995D01*
X124978445Y-75414499D01*
X124974000Y-75369362D01*
X124974000Y-74630638D01*
X124978445Y-74585501D01*
X124989820Y-74548005D01*
X125008292Y-74513446D01*
X125033153Y-74483153D01*
X125063446Y-74458292D01*
X125098005Y-74439820D01*
X125135501Y-74428445D01*
X125180638Y-74424000D01*
X125819362Y-74424000D01*
X125864499Y-74428445D01*
G37*
G36*
X128088674Y-74128465D02*
G01*
X128126367Y-74139899D01*
X128161103Y-74158466D01*
X128191548Y-74183452D01*
X128216534Y-74213897D01*
X128235101Y-74248633D01*
X128246535Y-74286326D01*
X128251000Y-74331661D01*
X128251000Y-75168339D01*
X128246535Y-75213674D01*
X128235101Y-75251367D01*
X128216534Y-75286103D01*
X128191548Y-75316548D01*
X128161103Y-75341534D01*
X128126367Y-75360101D01*
X128088674Y-75371535D01*
X128043339Y-75376000D01*
X126956661Y-75376000D01*
X126911326Y-75371535D01*
X126873633Y-75360101D01*
X126838897Y-75341534D01*
X126808452Y-75316548D01*
X126783466Y-75286103D01*
X126764899Y-75251367D01*
X126753465Y-75213674D01*
X126749000Y-75168339D01*
X126749000Y-74331661D01*
X126753465Y-74286326D01*
X126764899Y-74248633D01*
X126783466Y-74213897D01*
X126808452Y-74183452D01*
X126838897Y-74158466D01*
X126873633Y-74139899D01*
X126911326Y-74128465D01*
X126956661Y-74124000D01*
X128043339Y-74124000D01*
X128088674Y-74128465D01*
G37*
G36*
X85664499Y-73728445D02*
G01*
X85701995Y-73739820D01*
X85736554Y-73758292D01*
X85766847Y-73783153D01*
X85791708Y-73813446D01*
X85810180Y-73848005D01*
X85821555Y-73885501D01*
X85826000Y-73930638D01*
X85826000Y-74569362D01*
X85821555Y-74614499D01*
X85810180Y-74651995D01*
X85791708Y-74686554D01*
X85766847Y-74716847D01*
X85736554Y-74741708D01*
X85701995Y-74760180D01*
X85664499Y-74771555D01*
X85619362Y-74776000D01*
X84880638Y-74776000D01*
X84835501Y-74771555D01*
X84798005Y-74760180D01*
X84763446Y-74741708D01*
X84733153Y-74716847D01*
X84708292Y-74686554D01*
X84689820Y-74651995D01*
X84678445Y-74614499D01*
X84674000Y-74569362D01*
X84674000Y-73930638D01*
X84678445Y-73885501D01*
X84689820Y-73848005D01*
X84708292Y-73813446D01*
X84733153Y-73783153D01*
X84763446Y-73758292D01*
X84798005Y-73739820D01*
X84835501Y-73728445D01*
X84880638Y-73724000D01*
X85619362Y-73724000D01*
X85664499Y-73728445D01*
G37*
G36*
X87414499Y-73728445D02*
G01*
X87451995Y-73739820D01*
X87486554Y-73758292D01*
X87516847Y-73783153D01*
X87541708Y-73813446D01*
X87560180Y-73848005D01*
X87571555Y-73885501D01*
X87576000Y-73930638D01*
X87576000Y-74569362D01*
X87571555Y-74614499D01*
X87560180Y-74651995D01*
X87541708Y-74686554D01*
X87516847Y-74716847D01*
X87486554Y-74741708D01*
X87451995Y-74760180D01*
X87414499Y-74771555D01*
X87369362Y-74776000D01*
X86630638Y-74776000D01*
X86585501Y-74771555D01*
X86548005Y-74760180D01*
X86513446Y-74741708D01*
X86483153Y-74716847D01*
X86458292Y-74686554D01*
X86439820Y-74651995D01*
X86428445Y-74614499D01*
X86424000Y-74569362D01*
X86424000Y-73930638D01*
X86428445Y-73885501D01*
X86439820Y-73848005D01*
X86458292Y-73813446D01*
X86483153Y-73783153D01*
X86513446Y-73758292D01*
X86548005Y-73739820D01*
X86585501Y-73728445D01*
X86630638Y-73724000D01*
X87369362Y-73724000D01*
X87414499Y-73728445D01*
G37*
G36*
X89414499Y-73728445D02*
G01*
X89451995Y-73739820D01*
X89486554Y-73758292D01*
X89516847Y-73783153D01*
X89541708Y-73813446D01*
X89560180Y-73848005D01*
X89571555Y-73885501D01*
X89576000Y-73930638D01*
X89576000Y-74569362D01*
X89571555Y-74614499D01*
X89560180Y-74651995D01*
X89541708Y-74686554D01*
X89516847Y-74716847D01*
X89486554Y-74741708D01*
X89451995Y-74760180D01*
X89414499Y-74771555D01*
X89369362Y-74776000D01*
X88630638Y-74776000D01*
X88585501Y-74771555D01*
X88548005Y-74760180D01*
X88513446Y-74741708D01*
X88483153Y-74716847D01*
X88458292Y-74686554D01*
X88439820Y-74651995D01*
X88428445Y-74614499D01*
X88424000Y-74569362D01*
X88424000Y-73930638D01*
X88428445Y-73885501D01*
X88439820Y-73848005D01*
X88458292Y-73813446D01*
X88483153Y-73783153D01*
X88513446Y-73758292D01*
X88548005Y-73739820D01*
X88585501Y-73728445D01*
X88630638Y-73724000D01*
X89369362Y-73724000D01*
X89414499Y-73728445D01*
G37*
G36*
X91164499Y-73728445D02*
G01*
X91201995Y-73739820D01*
X91236554Y-73758292D01*
X91266847Y-73783153D01*
X91291708Y-73813446D01*
X91310180Y-73848005D01*
X91321555Y-73885501D01*
X91326000Y-73930638D01*
X91326000Y-74569362D01*
X91321555Y-74614499D01*
X91310180Y-74651995D01*
X91291708Y-74686554D01*
X91266847Y-74716847D01*
X91236554Y-74741708D01*
X91201995Y-74760180D01*
X91164499Y-74771555D01*
X91119362Y-74776000D01*
X90380638Y-74776000D01*
X90335501Y-74771555D01*
X90298005Y-74760180D01*
X90263446Y-74741708D01*
X90233153Y-74716847D01*
X90208292Y-74686554D01*
X90189820Y-74651995D01*
X90178445Y-74614499D01*
X90174000Y-74569362D01*
X90174000Y-73930638D01*
X90178445Y-73885501D01*
X90189820Y-73848005D01*
X90208292Y-73813446D01*
X90233153Y-73783153D01*
X90263446Y-73758292D01*
X90298005Y-73739820D01*
X90335501Y-73728445D01*
X90380638Y-73724000D01*
X91119362Y-73724000D01*
X91164499Y-73728445D01*
G37*
G36*
X59289499Y-73478445D02*
G01*
X59326995Y-73489820D01*
X59361554Y-73508292D01*
X59391847Y-73533153D01*
X59416708Y-73563446D01*
X59435180Y-73598005D01*
X59446555Y-73635501D01*
X59451000Y-73680638D01*
X59451000Y-74319362D01*
X59446555Y-74364499D01*
X59435180Y-74401995D01*
X59416708Y-74436554D01*
X59391847Y-74466847D01*
X59361554Y-74491708D01*
X59326995Y-74510180D01*
X59289499Y-74521555D01*
X59244362Y-74526000D01*
X58505638Y-74526000D01*
X58460501Y-74521555D01*
X58423005Y-74510180D01*
X58388446Y-74491708D01*
X58358153Y-74466847D01*
X58333292Y-74436554D01*
X58314820Y-74401995D01*
X58303445Y-74364499D01*
X58299000Y-74319362D01*
X58299000Y-73680638D01*
X58303445Y-73635501D01*
X58314820Y-73598005D01*
X58333292Y-73563446D01*
X58358153Y-73533153D01*
X58388446Y-73508292D01*
X58423005Y-73489820D01*
X58460501Y-73478445D01*
X58505638Y-73474000D01*
X59244362Y-73474000D01*
X59289499Y-73478445D01*
G37*
G36*
X57539499Y-73478445D02*
G01*
X57576995Y-73489820D01*
X57611554Y-73508292D01*
X57641847Y-73533153D01*
X57666708Y-73563446D01*
X57685180Y-73598005D01*
X57696555Y-73635501D01*
X57701000Y-73680638D01*
X57701000Y-74319362D01*
X57696555Y-74364499D01*
X57685180Y-74401995D01*
X57666708Y-74436554D01*
X57641847Y-74466847D01*
X57611554Y-74491708D01*
X57576995Y-74510180D01*
X57539499Y-74521555D01*
X57494362Y-74526000D01*
X56755638Y-74526000D01*
X56710501Y-74521555D01*
X56673005Y-74510180D01*
X56638446Y-74491708D01*
X56608153Y-74466847D01*
X56583292Y-74436554D01*
X56564820Y-74401995D01*
X56553445Y-74364499D01*
X56549000Y-74319362D01*
X56549000Y-73680638D01*
X56553445Y-73635501D01*
X56564820Y-73598005D01*
X56583292Y-73563446D01*
X56608153Y-73533153D01*
X56638446Y-73508292D01*
X56673005Y-73489820D01*
X56710501Y-73478445D01*
X56755638Y-73474000D01*
X57494362Y-73474000D01*
X57539499Y-73478445D01*
G37*
G36*
X63806000Y-74061000D02*
G01*
X62804000Y-74061000D01*
X62804000Y-71959000D01*
X63806000Y-71959000D01*
X63806000Y-74061000D01*
G37*
G36*
X65076000Y-74061000D02*
G01*
X64074000Y-74061000D01*
X64074000Y-71959000D01*
X65076000Y-71959000D01*
X65076000Y-74061000D01*
G37*
G36*
X62536000Y-74061000D02*
G01*
X61534000Y-74061000D01*
X61534000Y-71959000D01*
X62536000Y-71959000D01*
X62536000Y-74061000D01*
G37*
G36*
X73966000Y-74061000D02*
G01*
X72964000Y-74061000D01*
X72964000Y-71959000D01*
X73966000Y-71959000D01*
X73966000Y-74061000D01*
G37*
G36*
X71426000Y-74061000D02*
G01*
X70424000Y-74061000D01*
X70424000Y-71959000D01*
X71426000Y-71959000D01*
X71426000Y-74061000D01*
G37*
G36*
X67616000Y-74061000D02*
G01*
X66614000Y-74061000D01*
X66614000Y-71959000D01*
X67616000Y-71959000D01*
X67616000Y-74061000D01*
G37*
G36*
X66346000Y-74061000D02*
G01*
X65344000Y-74061000D01*
X65344000Y-71959000D01*
X66346000Y-71959000D01*
X66346000Y-74061000D01*
G37*
G36*
X70156000Y-74061000D02*
G01*
X69154000Y-74061000D01*
X69154000Y-71959000D01*
X70156000Y-71959000D01*
X70156000Y-74061000D01*
G37*
G36*
X68886000Y-74061000D02*
G01*
X67884000Y-74061000D01*
X67884000Y-71959000D01*
X68886000Y-71959000D01*
X68886000Y-74061000D01*
G37*
G36*
X72696000Y-74061000D02*
G01*
X71694000Y-74061000D01*
X71694000Y-71959000D01*
X72696000Y-71959000D01*
X72696000Y-74061000D01*
G37*
G36*
X79289499Y-72978445D02*
G01*
X79326995Y-72989820D01*
X79361554Y-73008292D01*
X79391847Y-73033153D01*
X79416708Y-73063446D01*
X79435180Y-73098005D01*
X79446555Y-73135501D01*
X79451000Y-73180638D01*
X79451000Y-73819362D01*
X79446555Y-73864499D01*
X79435180Y-73901995D01*
X79416708Y-73936554D01*
X79391847Y-73966847D01*
X79361554Y-73991708D01*
X79326995Y-74010180D01*
X79289499Y-74021555D01*
X79244362Y-74026000D01*
X78505638Y-74026000D01*
X78460501Y-74021555D01*
X78423005Y-74010180D01*
X78388446Y-73991708D01*
X78358153Y-73966847D01*
X78333292Y-73936554D01*
X78314820Y-73901995D01*
X78303445Y-73864499D01*
X78299000Y-73819362D01*
X78299000Y-73180638D01*
X78303445Y-73135501D01*
X78314820Y-73098005D01*
X78333292Y-73063446D01*
X78358153Y-73033153D01*
X78388446Y-73008292D01*
X78423005Y-72989820D01*
X78460501Y-72978445D01*
X78505638Y-72974000D01*
X79244362Y-72974000D01*
X79289499Y-72978445D01*
G37*
G36*
X81039499Y-72978445D02*
G01*
X81076995Y-72989820D01*
X81111554Y-73008292D01*
X81141847Y-73033153D01*
X81166708Y-73063446D01*
X81185180Y-73098005D01*
X81196555Y-73135501D01*
X81201000Y-73180638D01*
X81201000Y-73819362D01*
X81196555Y-73864499D01*
X81185180Y-73901995D01*
X81166708Y-73936554D01*
X81141847Y-73966847D01*
X81111554Y-73991708D01*
X81076995Y-74010180D01*
X81039499Y-74021555D01*
X80994362Y-74026000D01*
X80255638Y-74026000D01*
X80210501Y-74021555D01*
X80173005Y-74010180D01*
X80138446Y-73991708D01*
X80108153Y-73966847D01*
X80083292Y-73936554D01*
X80064820Y-73901995D01*
X80053445Y-73864499D01*
X80049000Y-73819362D01*
X80049000Y-73180638D01*
X80053445Y-73135501D01*
X80064820Y-73098005D01*
X80083292Y-73063446D01*
X80108153Y-73033153D01*
X80138446Y-73008292D01*
X80173005Y-72989820D01*
X80210501Y-72978445D01*
X80255638Y-72974000D01*
X80994362Y-72974000D01*
X81039499Y-72978445D01*
G37*
G36*
X123100562Y-72078181D02*
G01*
X123135481Y-72088774D01*
X123167663Y-72105976D01*
X123195873Y-72129127D01*
X123219024Y-72157337D01*
X123236226Y-72189519D01*
X123246819Y-72224438D01*
X123251000Y-72266895D01*
X123251000Y-73733105D01*
X123246819Y-73775562D01*
X123236226Y-73810481D01*
X123219024Y-73842663D01*
X123195873Y-73870873D01*
X123167663Y-73894024D01*
X123135481Y-73911226D01*
X123100562Y-73921819D01*
X123058105Y-73926000D01*
X121916895Y-73926000D01*
X121874438Y-73921819D01*
X121839519Y-73911226D01*
X121807337Y-73894024D01*
X121779127Y-73870873D01*
X121755976Y-73842663D01*
X121738774Y-73810481D01*
X121728181Y-73775562D01*
X121724000Y-73733105D01*
X121724000Y-72266895D01*
X121728181Y-72224438D01*
X121738774Y-72189519D01*
X121755976Y-72157337D01*
X121779127Y-72129127D01*
X121807337Y-72105976D01*
X121839519Y-72088774D01*
X121874438Y-72078181D01*
X121916895Y-72074000D01*
X123058105Y-72074000D01*
X123100562Y-72078181D01*
G37*
G36*
X120125562Y-72078181D02*
G01*
X120160481Y-72088774D01*
X120192663Y-72105976D01*
X120220873Y-72129127D01*
X120244024Y-72157337D01*
X120261226Y-72189519D01*
X120271819Y-72224438D01*
X120276000Y-72266895D01*
X120276000Y-73733105D01*
X120271819Y-73775562D01*
X120261226Y-73810481D01*
X120244024Y-73842663D01*
X120220873Y-73870873D01*
X120192663Y-73894024D01*
X120160481Y-73911226D01*
X120125562Y-73921819D01*
X120083105Y-73926000D01*
X118941895Y-73926000D01*
X118899438Y-73921819D01*
X118864519Y-73911226D01*
X118832337Y-73894024D01*
X118804127Y-73870873D01*
X118780976Y-73842663D01*
X118763774Y-73810481D01*
X118753181Y-73775562D01*
X118749000Y-73733105D01*
X118749000Y-72266895D01*
X118753181Y-72224438D01*
X118763774Y-72189519D01*
X118780976Y-72157337D01*
X118804127Y-72129127D01*
X118832337Y-72105976D01*
X118864519Y-72088774D01*
X118899438Y-72078181D01*
X118941895Y-72074000D01*
X120083105Y-72074000D01*
X120125562Y-72078181D01*
G37*
G36*
X106789499Y-72478445D02*
G01*
X106826995Y-72489820D01*
X106861554Y-72508292D01*
X106891847Y-72533153D01*
X106916708Y-72563446D01*
X106935180Y-72598005D01*
X106946555Y-72635501D01*
X106951000Y-72680638D01*
X106951000Y-73319362D01*
X106946555Y-73364499D01*
X106935180Y-73401995D01*
X106916708Y-73436554D01*
X106891847Y-73466847D01*
X106861554Y-73491708D01*
X106826995Y-73510180D01*
X106789499Y-73521555D01*
X106744362Y-73526000D01*
X106005638Y-73526000D01*
X105960501Y-73521555D01*
X105923005Y-73510180D01*
X105888446Y-73491708D01*
X105858153Y-73466847D01*
X105833292Y-73436554D01*
X105814820Y-73401995D01*
X105803445Y-73364499D01*
X105799000Y-73319362D01*
X105799000Y-72680638D01*
X105803445Y-72635501D01*
X105814820Y-72598005D01*
X105833292Y-72563446D01*
X105858153Y-72533153D01*
X105888446Y-72508292D01*
X105923005Y-72489820D01*
X105960501Y-72478445D01*
X106005638Y-72474000D01*
X106744362Y-72474000D01*
X106789499Y-72478445D01*
G37*
G36*
X113664499Y-72478445D02*
G01*
X113701995Y-72489820D01*
X113736554Y-72508292D01*
X113766847Y-72533153D01*
X113791708Y-72563446D01*
X113810180Y-72598005D01*
X113821555Y-72635501D01*
X113826000Y-72680638D01*
X113826000Y-73319362D01*
X113821555Y-73364499D01*
X113810180Y-73401995D01*
X113791708Y-73436554D01*
X113766847Y-73466847D01*
X113736554Y-73491708D01*
X113701995Y-73510180D01*
X113664499Y-73521555D01*
X113619362Y-73526000D01*
X112880638Y-73526000D01*
X112835501Y-73521555D01*
X112798005Y-73510180D01*
X112763446Y-73491708D01*
X112733153Y-73466847D01*
X112708292Y-73436554D01*
X112689820Y-73401995D01*
X112678445Y-73364499D01*
X112674000Y-73319362D01*
X112674000Y-72680638D01*
X112678445Y-72635501D01*
X112689820Y-72598005D01*
X112708292Y-72563446D01*
X112733153Y-72533153D01*
X112763446Y-72508292D01*
X112798005Y-72489820D01*
X112835501Y-72478445D01*
X112880638Y-72474000D01*
X113619362Y-72474000D01*
X113664499Y-72478445D01*
G37*
G36*
X105039499Y-72478445D02*
G01*
X105076995Y-72489820D01*
X105111554Y-72508292D01*
X105141847Y-72533153D01*
X105166708Y-72563446D01*
X105185180Y-72598005D01*
X105196555Y-72635501D01*
X105201000Y-72680638D01*
X105201000Y-73319362D01*
X105196555Y-73364499D01*
X105185180Y-73401995D01*
X105166708Y-73436554D01*
X105141847Y-73466847D01*
X105111554Y-73491708D01*
X105076995Y-73510180D01*
X105039499Y-73521555D01*
X104994362Y-73526000D01*
X104255638Y-73526000D01*
X104210501Y-73521555D01*
X104173005Y-73510180D01*
X104138446Y-73491708D01*
X104108153Y-73466847D01*
X104083292Y-73436554D01*
X104064820Y-73401995D01*
X104053445Y-73364499D01*
X104049000Y-73319362D01*
X104049000Y-72680638D01*
X104053445Y-72635501D01*
X104064820Y-72598005D01*
X104083292Y-72563446D01*
X104108153Y-72533153D01*
X104138446Y-72508292D01*
X104173005Y-72489820D01*
X104210501Y-72478445D01*
X104255638Y-72474000D01*
X104994362Y-72474000D01*
X105039499Y-72478445D01*
G37*
G36*
X111914499Y-72478445D02*
G01*
X111951995Y-72489820D01*
X111986554Y-72508292D01*
X112016847Y-72533153D01*
X112041708Y-72563446D01*
X112060180Y-72598005D01*
X112071555Y-72635501D01*
X112076000Y-72680638D01*
X112076000Y-73319362D01*
X112071555Y-73364499D01*
X112060180Y-73401995D01*
X112041708Y-73436554D01*
X112016847Y-73466847D01*
X111986554Y-73491708D01*
X111951995Y-73510180D01*
X111914499Y-73521555D01*
X111869362Y-73526000D01*
X111130638Y-73526000D01*
X111085501Y-73521555D01*
X111048005Y-73510180D01*
X111013446Y-73491708D01*
X110983153Y-73466847D01*
X110958292Y-73436554D01*
X110939820Y-73401995D01*
X110928445Y-73364499D01*
X110924000Y-73319362D01*
X110924000Y-72680638D01*
X110928445Y-72635501D01*
X110939820Y-72598005D01*
X110958292Y-72563446D01*
X110983153Y-72533153D01*
X111013446Y-72508292D01*
X111048005Y-72489820D01*
X111085501Y-72478445D01*
X111130638Y-72474000D01*
X111869362Y-72474000D01*
X111914499Y-72478445D01*
G37*
G36*
X52248305Y-70298005D02*
G01*
X52452410Y-70338604D01*
X52734674Y-70455521D01*
X52988705Y-70625259D01*
X53204741Y-70841295D01*
X53374479Y-71095326D01*
X53491396Y-71377590D01*
X53491396Y-71377591D01*
X53551000Y-71677239D01*
X53551000Y-71982761D01*
X53547372Y-72001000D01*
X53491396Y-72282410D01*
X53374479Y-72564674D01*
X53204741Y-72818705D01*
X52988705Y-73034741D01*
X52734674Y-73204479D01*
X52452410Y-73321396D01*
X52302585Y-73351198D01*
X52152761Y-73381000D01*
X51847239Y-73381000D01*
X51697415Y-73351198D01*
X51547590Y-73321396D01*
X51265326Y-73204479D01*
X51011295Y-73034741D01*
X50795259Y-72818705D01*
X50625521Y-72564674D01*
X50508604Y-72282410D01*
X50452628Y-72001000D01*
X50449000Y-71982761D01*
X50449000Y-71677239D01*
X50508604Y-71377591D01*
X50508604Y-71377590D01*
X50625521Y-71095326D01*
X50795259Y-70841295D01*
X51011295Y-70625259D01*
X51265326Y-70455521D01*
X51547590Y-70338604D01*
X51751695Y-70298005D01*
X51847239Y-70279000D01*
X52152761Y-70279000D01*
X52248305Y-70298005D01*
G37*
G36*
X128088674Y-71903465D02*
G01*
X128126367Y-71914899D01*
X128161103Y-71933466D01*
X128191548Y-71958452D01*
X128216534Y-71988897D01*
X128235101Y-72023633D01*
X128246535Y-72061326D01*
X128251000Y-72106661D01*
X128251000Y-72943339D01*
X128246535Y-72988674D01*
X128235102Y-73026364D01*
X128216534Y-73061103D01*
X128191548Y-73091548D01*
X128161103Y-73116534D01*
X128126367Y-73135101D01*
X128088674Y-73146535D01*
X128043339Y-73151000D01*
X126956661Y-73151000D01*
X126911326Y-73146535D01*
X126873633Y-73135101D01*
X126838897Y-73116534D01*
X126808452Y-73091548D01*
X126783466Y-73061103D01*
X126764898Y-73026364D01*
X126753465Y-72988674D01*
X126749000Y-72943339D01*
X126749000Y-72106661D01*
X126753465Y-72061326D01*
X126764899Y-72023633D01*
X126783466Y-71988897D01*
X126808452Y-71958452D01*
X126838897Y-71933466D01*
X126873633Y-71914899D01*
X126911326Y-71903465D01*
X126956661Y-71899000D01*
X128043339Y-71899000D01*
X128088674Y-71903465D01*
G37*
G36*
X95864499Y-71928445D02*
G01*
X95901995Y-71939820D01*
X95936554Y-71958292D01*
X95966847Y-71983153D01*
X95991708Y-72013446D01*
X96010180Y-72048005D01*
X96021555Y-72085501D01*
X96026000Y-72130638D01*
X96026000Y-72869362D01*
X96021555Y-72914499D01*
X96010180Y-72951995D01*
X95991708Y-72986554D01*
X95966847Y-73016847D01*
X95936554Y-73041708D01*
X95901995Y-73060180D01*
X95864499Y-73071555D01*
X95819362Y-73076000D01*
X95180638Y-73076000D01*
X95135501Y-73071555D01*
X95098005Y-73060180D01*
X95063446Y-73041708D01*
X95033153Y-73016847D01*
X95008292Y-72986554D01*
X94989820Y-72951995D01*
X94978445Y-72914499D01*
X94974000Y-72869362D01*
X94974000Y-72130638D01*
X94978445Y-72085501D01*
X94989820Y-72048005D01*
X95008292Y-72013446D01*
X95033153Y-71983153D01*
X95063446Y-71958292D01*
X95098005Y-71939820D01*
X95135501Y-71928445D01*
X95180638Y-71924000D01*
X95819362Y-71924000D01*
X95864499Y-71928445D01*
G37*
G36*
X125864499Y-71803445D02*
G01*
X125901995Y-71814820D01*
X125936554Y-71833292D01*
X125966847Y-71858153D01*
X125991708Y-71888446D01*
X126010180Y-71923005D01*
X126021555Y-71960501D01*
X126026000Y-72005638D01*
X126026000Y-72744362D01*
X126021555Y-72789499D01*
X126010180Y-72826995D01*
X125991708Y-72861554D01*
X125966847Y-72891847D01*
X125936554Y-72916708D01*
X125901995Y-72935180D01*
X125864499Y-72946555D01*
X125819362Y-72951000D01*
X125180638Y-72951000D01*
X125135501Y-72946555D01*
X125098005Y-72935180D01*
X125063446Y-72916708D01*
X125033153Y-72891847D01*
X125008292Y-72861554D01*
X124989820Y-72826995D01*
X124978445Y-72789499D01*
X124974000Y-72744362D01*
X124974000Y-72005638D01*
X124978445Y-71960501D01*
X124989820Y-71923005D01*
X125008292Y-71888446D01*
X125033153Y-71858153D01*
X125063446Y-71833292D01*
X125098005Y-71814820D01*
X125135501Y-71803445D01*
X125180638Y-71799000D01*
X125819362Y-71799000D01*
X125864499Y-71803445D01*
G37*
G36*
X57364499Y-71678445D02*
G01*
X57401995Y-71689820D01*
X57436554Y-71708292D01*
X57466847Y-71733153D01*
X57491708Y-71763446D01*
X57510180Y-71798005D01*
X57521555Y-71835501D01*
X57526000Y-71880638D01*
X57526000Y-72619362D01*
X57521555Y-72664499D01*
X57510180Y-72701995D01*
X57491708Y-72736554D01*
X57466847Y-72766847D01*
X57436554Y-72791708D01*
X57401995Y-72810180D01*
X57364499Y-72821555D01*
X57319362Y-72826000D01*
X56680638Y-72826000D01*
X56635501Y-72821555D01*
X56598005Y-72810180D01*
X56563446Y-72791708D01*
X56533153Y-72766847D01*
X56508292Y-72736554D01*
X56489820Y-72701995D01*
X56478445Y-72664499D01*
X56474000Y-72619362D01*
X56474000Y-71880638D01*
X56478445Y-71835501D01*
X56489820Y-71798005D01*
X56508292Y-71763446D01*
X56533153Y-71733153D01*
X56563446Y-71708292D01*
X56598005Y-71689820D01*
X56635501Y-71678445D01*
X56680638Y-71674000D01*
X57319362Y-71674000D01*
X57364499Y-71678445D01*
G37*
G36*
X94001000Y-72586000D02*
G01*
X91899000Y-72586000D01*
X91899000Y-71884000D01*
X94001000Y-71884000D01*
X94001000Y-72586000D01*
G37*
G36*
X84601000Y-72586000D02*
G01*
X82499000Y-72586000D01*
X82499000Y-71884000D01*
X84601000Y-71884000D01*
X84601000Y-72586000D01*
G37*
G36*
X77301000Y-72511000D02*
G01*
X75199000Y-72511000D01*
X75199000Y-71509000D01*
X77301000Y-71509000D01*
X77301000Y-72511000D01*
G37*
G36*
X60301000Y-72511000D02*
G01*
X58199000Y-72511000D01*
X58199000Y-71509000D01*
X60301000Y-71509000D01*
X60301000Y-72511000D01*
G37*
G36*
X116525562Y-70478181D02*
G01*
X116560481Y-70488774D01*
X116592663Y-70505976D01*
X116620873Y-70529127D01*
X116644024Y-70557337D01*
X116661226Y-70589519D01*
X116671819Y-70624438D01*
X116676000Y-70666895D01*
X116676000Y-71808105D01*
X116671819Y-71850562D01*
X116661226Y-71885481D01*
X116644024Y-71917663D01*
X116620873Y-71945873D01*
X116592663Y-71969024D01*
X116560481Y-71986226D01*
X116525562Y-71996819D01*
X116483105Y-72001000D01*
X115016895Y-72001000D01*
X114974438Y-71996819D01*
X114939519Y-71986226D01*
X114907337Y-71969024D01*
X114879127Y-71945873D01*
X114855976Y-71917663D01*
X114838774Y-71885481D01*
X114828181Y-71850562D01*
X114824000Y-71808105D01*
X114824000Y-70666895D01*
X114828181Y-70624438D01*
X114838774Y-70589519D01*
X114855976Y-70557337D01*
X114879127Y-70529127D01*
X114907337Y-70505976D01*
X114939519Y-70488774D01*
X114974438Y-70478181D01*
X115016895Y-70474000D01*
X116483105Y-70474000D01*
X116525562Y-70478181D01*
G37*
G36*
X109525562Y-70465681D02*
G01*
X109560481Y-70476274D01*
X109592663Y-70493476D01*
X109620873Y-70516627D01*
X109644024Y-70544837D01*
X109661226Y-70577019D01*
X109671819Y-70611938D01*
X109676000Y-70654395D01*
X109676000Y-71795605D01*
X109671819Y-71838062D01*
X109661226Y-71872981D01*
X109644024Y-71905163D01*
X109620873Y-71933373D01*
X109592663Y-71956524D01*
X109560481Y-71973726D01*
X109525562Y-71984319D01*
X109483105Y-71988500D01*
X108016895Y-71988500D01*
X107974438Y-71984319D01*
X107939519Y-71973726D01*
X107907337Y-71956524D01*
X107879127Y-71933373D01*
X107855976Y-71905163D01*
X107838774Y-71872981D01*
X107828181Y-71838062D01*
X107824000Y-71795605D01*
X107824000Y-70654395D01*
X107828181Y-70611938D01*
X107838774Y-70577019D01*
X107855976Y-70544837D01*
X107879127Y-70516627D01*
X107907337Y-70493476D01*
X107939519Y-70476274D01*
X107974438Y-70465681D01*
X108016895Y-70461500D01*
X109483105Y-70461500D01*
X109525562Y-70465681D01*
G37*
G36*
X81364499Y-70803445D02*
G01*
X81401995Y-70814820D01*
X81436554Y-70833292D01*
X81466847Y-70858153D01*
X81491708Y-70888446D01*
X81510180Y-70923005D01*
X81521555Y-70960501D01*
X81526000Y-71005638D01*
X81526000Y-71744362D01*
X81521555Y-71789499D01*
X81510180Y-71826995D01*
X81491708Y-71861554D01*
X81466847Y-71891847D01*
X81436554Y-71916708D01*
X81401995Y-71935180D01*
X81364499Y-71946555D01*
X81319362Y-71951000D01*
X80680638Y-71951000D01*
X80635501Y-71946555D01*
X80598005Y-71935180D01*
X80563446Y-71916708D01*
X80533153Y-71891847D01*
X80508292Y-71861554D01*
X80489820Y-71826995D01*
X80478445Y-71789499D01*
X80474000Y-71744362D01*
X80474000Y-71005638D01*
X80478445Y-70960501D01*
X80489820Y-70923005D01*
X80508292Y-70888446D01*
X80533153Y-70858153D01*
X80563446Y-70833292D01*
X80598005Y-70814820D01*
X80635501Y-70803445D01*
X80680638Y-70799000D01*
X81319362Y-70799000D01*
X81364499Y-70803445D01*
G37*
G36*
X79114499Y-70803445D02*
G01*
X79151995Y-70814820D01*
X79186554Y-70833292D01*
X79216847Y-70858153D01*
X79241708Y-70888446D01*
X79260180Y-70923005D01*
X79271555Y-70960501D01*
X79276000Y-71005638D01*
X79276000Y-71744362D01*
X79271555Y-71789499D01*
X79260180Y-71826995D01*
X79241708Y-71861554D01*
X79216847Y-71891847D01*
X79186554Y-71916708D01*
X79151995Y-71935180D01*
X79114499Y-71946555D01*
X79069362Y-71951000D01*
X78430638Y-71951000D01*
X78385501Y-71946555D01*
X78348005Y-71935180D01*
X78313446Y-71916708D01*
X78283153Y-71891847D01*
X78258292Y-71861554D01*
X78239820Y-71826995D01*
X78228445Y-71789499D01*
X78224000Y-71744362D01*
X78224000Y-71005638D01*
X78228445Y-70960501D01*
X78239820Y-70923005D01*
X78258292Y-70888446D01*
X78283153Y-70858153D01*
X78313446Y-70833292D01*
X78348005Y-70814820D01*
X78385501Y-70803445D01*
X78430638Y-70799000D01*
X79069362Y-70799000D01*
X79114499Y-70803445D01*
G37*
G36*
X106789499Y-70478445D02*
G01*
X106826995Y-70489820D01*
X106861554Y-70508292D01*
X106891847Y-70533153D01*
X106916708Y-70563446D01*
X106935180Y-70598005D01*
X106946555Y-70635501D01*
X106951000Y-70680638D01*
X106951000Y-71319362D01*
X106946555Y-71364499D01*
X106935180Y-71401995D01*
X106916708Y-71436554D01*
X106891847Y-71466847D01*
X106861554Y-71491708D01*
X106826995Y-71510180D01*
X106789499Y-71521555D01*
X106744362Y-71526000D01*
X106005638Y-71526000D01*
X105960501Y-71521555D01*
X105923005Y-71510180D01*
X105888446Y-71491708D01*
X105858153Y-71466847D01*
X105833292Y-71436554D01*
X105814820Y-71401995D01*
X105803445Y-71364499D01*
X105799000Y-71319362D01*
X105799000Y-70680638D01*
X105803445Y-70635501D01*
X105814820Y-70598005D01*
X105833292Y-70563446D01*
X105858153Y-70533153D01*
X105888446Y-70508292D01*
X105923005Y-70489820D01*
X105960501Y-70478445D01*
X106005638Y-70474000D01*
X106744362Y-70474000D01*
X106789499Y-70478445D01*
G37*
G36*
X105039499Y-70478445D02*
G01*
X105076995Y-70489820D01*
X105111554Y-70508292D01*
X105141847Y-70533153D01*
X105166708Y-70563446D01*
X105185180Y-70598005D01*
X105196555Y-70635501D01*
X105201000Y-70680638D01*
X105201000Y-71319362D01*
X105196555Y-71364499D01*
X105185180Y-71401995D01*
X105166708Y-71436554D01*
X105141847Y-71466847D01*
X105111554Y-71491708D01*
X105076995Y-71510180D01*
X105039499Y-71521555D01*
X104994362Y-71526000D01*
X104255638Y-71526000D01*
X104210501Y-71521555D01*
X104173005Y-71510180D01*
X104138446Y-71491708D01*
X104108153Y-71466847D01*
X104083292Y-71436554D01*
X104064820Y-71401995D01*
X104053445Y-71364499D01*
X104049000Y-71319362D01*
X104049000Y-70680638D01*
X104053445Y-70635501D01*
X104064820Y-70598005D01*
X104083292Y-70563446D01*
X104108153Y-70533153D01*
X104138446Y-70508292D01*
X104173005Y-70489820D01*
X104210501Y-70478445D01*
X104255638Y-70474000D01*
X104994362Y-70474000D01*
X105039499Y-70478445D01*
G37*
G36*
X122826000Y-71431000D02*
G01*
X120174000Y-71431000D01*
X120174000Y-70269000D01*
X122826000Y-70269000D01*
X122826000Y-71431000D01*
G37*
G36*
X113606000Y-71381000D02*
G01*
X110954000Y-71381000D01*
X110954000Y-70219000D01*
X113606000Y-70219000D01*
X113606000Y-71381000D01*
G37*
G36*
X95864499Y-70178445D02*
G01*
X95901995Y-70189820D01*
X95936554Y-70208292D01*
X95966847Y-70233153D01*
X95991708Y-70263446D01*
X96010180Y-70298005D01*
X96021555Y-70335501D01*
X96026000Y-70380638D01*
X96026000Y-71119362D01*
X96021555Y-71164499D01*
X96010180Y-71201995D01*
X95991708Y-71236554D01*
X95966847Y-71266847D01*
X95936554Y-71291708D01*
X95901995Y-71310180D01*
X95864499Y-71321555D01*
X95819362Y-71326000D01*
X95180638Y-71326000D01*
X95135501Y-71321555D01*
X95098005Y-71310180D01*
X95063446Y-71291708D01*
X95033153Y-71266847D01*
X95008292Y-71236554D01*
X94989820Y-71201995D01*
X94978445Y-71164499D01*
X94974000Y-71119362D01*
X94974000Y-70380638D01*
X94978445Y-70335501D01*
X94989820Y-70298005D01*
X95008292Y-70263446D01*
X95033153Y-70233153D01*
X95063446Y-70208292D01*
X95098005Y-70189820D01*
X95135501Y-70178445D01*
X95180638Y-70174000D01*
X95819362Y-70174000D01*
X95864499Y-70178445D01*
G37*
G36*
X94001000Y-71316000D02*
G01*
X91899000Y-71316000D01*
X91899000Y-70614000D01*
X94001000Y-70614000D01*
X94001000Y-71316000D01*
G37*
G36*
X84601000Y-71316000D02*
G01*
X82499000Y-71316000D01*
X82499000Y-70614000D01*
X84601000Y-70614000D01*
X84601000Y-71316000D01*
G37*
G36*
X60301000Y-71241000D02*
G01*
X58199000Y-71241000D01*
X58199000Y-70239000D01*
X60301000Y-70239000D01*
X60301000Y-71241000D01*
G37*
G36*
X77301000Y-71241000D02*
G01*
X75199000Y-71241000D01*
X75199000Y-70239000D01*
X77301000Y-70239000D01*
X77301000Y-71241000D01*
G37*
G36*
X125864499Y-70053445D02*
G01*
X125901995Y-70064820D01*
X125936554Y-70083292D01*
X125966847Y-70108153D01*
X125991708Y-70138446D01*
X126010180Y-70173005D01*
X126021555Y-70210501D01*
X126026000Y-70255638D01*
X126026000Y-70994362D01*
X126021555Y-71039499D01*
X126010180Y-71076995D01*
X125991708Y-71111554D01*
X125966847Y-71141847D01*
X125936554Y-71166708D01*
X125901995Y-71185180D01*
X125864499Y-71196555D01*
X125819362Y-71201000D01*
X125180638Y-71201000D01*
X125135501Y-71196555D01*
X125098005Y-71185180D01*
X125063446Y-71166708D01*
X125033153Y-71141847D01*
X125008292Y-71111554D01*
X124989820Y-71076995D01*
X124978445Y-71039499D01*
X124974000Y-70994362D01*
X124974000Y-70255638D01*
X124978445Y-70210501D01*
X124989820Y-70173005D01*
X125008292Y-70138446D01*
X125033153Y-70108153D01*
X125063446Y-70083292D01*
X125098005Y-70064820D01*
X125135501Y-70053445D01*
X125180638Y-70049000D01*
X125819362Y-70049000D01*
X125864499Y-70053445D01*
G37*
G36*
X128088674Y-69853465D02*
G01*
X128126367Y-69864899D01*
X128161103Y-69883466D01*
X128191548Y-69908452D01*
X128216534Y-69938897D01*
X128235101Y-69973633D01*
X128246535Y-70011326D01*
X128251000Y-70056661D01*
X128251000Y-70893339D01*
X128246535Y-70938674D01*
X128235101Y-70976367D01*
X128216534Y-71011103D01*
X128191548Y-71041548D01*
X128161103Y-71066534D01*
X128126367Y-71085101D01*
X128088674Y-71096535D01*
X128043339Y-71101000D01*
X126956661Y-71101000D01*
X126911326Y-71096535D01*
X126873633Y-71085101D01*
X126838897Y-71066534D01*
X126808452Y-71041548D01*
X126783466Y-71011103D01*
X126764899Y-70976367D01*
X126753465Y-70938674D01*
X126749000Y-70893339D01*
X126749000Y-70056661D01*
X126753465Y-70011326D01*
X126764899Y-69973633D01*
X126783466Y-69938897D01*
X126808452Y-69908452D01*
X126838897Y-69883466D01*
X126873633Y-69864899D01*
X126911326Y-69853465D01*
X126956661Y-69849000D01*
X128043339Y-69849000D01*
X128088674Y-69853465D01*
G37*
G36*
X57364499Y-69928445D02*
G01*
X57401995Y-69939820D01*
X57436554Y-69958292D01*
X57466847Y-69983153D01*
X57491708Y-70013446D01*
X57510180Y-70048005D01*
X57521555Y-70085501D01*
X57526000Y-70130638D01*
X57526000Y-70869362D01*
X57521555Y-70914499D01*
X57510180Y-70951995D01*
X57491708Y-70986554D01*
X57466847Y-71016847D01*
X57436554Y-71041708D01*
X57401995Y-71060180D01*
X57364499Y-71071555D01*
X57319362Y-71076000D01*
X56680638Y-71076000D01*
X56635501Y-71071555D01*
X56598005Y-71060180D01*
X56563446Y-71041708D01*
X56533153Y-71016847D01*
X56508292Y-70986554D01*
X56489820Y-70951995D01*
X56478445Y-70914499D01*
X56474000Y-70869362D01*
X56474000Y-70130638D01*
X56478445Y-70085501D01*
X56489820Y-70048005D01*
X56508292Y-70013446D01*
X56533153Y-69983153D01*
X56563446Y-69958292D01*
X56598005Y-69939820D01*
X56635501Y-69928445D01*
X56680638Y-69924000D01*
X57319362Y-69924000D01*
X57364499Y-69928445D01*
G37*
G36*
X118564499Y-69928445D02*
G01*
X118601995Y-69939820D01*
X118636554Y-69958292D01*
X118666847Y-69983153D01*
X118691708Y-70013446D01*
X118710180Y-70048005D01*
X118721555Y-70085501D01*
X118726000Y-70130638D01*
X118726000Y-70869362D01*
X118721555Y-70914499D01*
X118710180Y-70951995D01*
X118691708Y-70986554D01*
X118666847Y-71016847D01*
X118636554Y-71041708D01*
X118601995Y-71060180D01*
X118564499Y-71071555D01*
X118519362Y-71076000D01*
X117880638Y-71076000D01*
X117835501Y-71071555D01*
X117798005Y-71060180D01*
X117763446Y-71041708D01*
X117733153Y-71016847D01*
X117708292Y-70986554D01*
X117689820Y-70951995D01*
X117678445Y-70914499D01*
X117674000Y-70869362D01*
X117674000Y-70130638D01*
X117678445Y-70085501D01*
X117689820Y-70048005D01*
X117708292Y-70013446D01*
X117733153Y-69983153D01*
X117763446Y-69958292D01*
X117798005Y-69939820D01*
X117835501Y-69928445D01*
X117880638Y-69924000D01*
X118519362Y-69924000D01*
X118564499Y-69928445D01*
G37*
G36*
X81364499Y-69053445D02*
G01*
X81401995Y-69064820D01*
X81436554Y-69083292D01*
X81466847Y-69108153D01*
X81491708Y-69138446D01*
X81510180Y-69173005D01*
X81521555Y-69210501D01*
X81526000Y-69255638D01*
X81526000Y-69994362D01*
X81521555Y-70039499D01*
X81510180Y-70076995D01*
X81491708Y-70111554D01*
X81466847Y-70141847D01*
X81436554Y-70166708D01*
X81401995Y-70185180D01*
X81364499Y-70196555D01*
X81319362Y-70201000D01*
X80680638Y-70201000D01*
X80635501Y-70196555D01*
X80598005Y-70185180D01*
X80563446Y-70166708D01*
X80533153Y-70141847D01*
X80508292Y-70111554D01*
X80489820Y-70076995D01*
X80478445Y-70039499D01*
X80474000Y-69994362D01*
X80474000Y-69255638D01*
X80478445Y-69210501D01*
X80489820Y-69173005D01*
X80508292Y-69138446D01*
X80533153Y-69108153D01*
X80563446Y-69083292D01*
X80598005Y-69064820D01*
X80635501Y-69053445D01*
X80680638Y-69049000D01*
X81319362Y-69049000D01*
X81364499Y-69053445D01*
G37*
G36*
X79114499Y-69053445D02*
G01*
X79151995Y-69064820D01*
X79186554Y-69083292D01*
X79216847Y-69108153D01*
X79241708Y-69138446D01*
X79260180Y-69173005D01*
X79271555Y-69210501D01*
X79276000Y-69255638D01*
X79276000Y-69994362D01*
X79271555Y-70039499D01*
X79260180Y-70076995D01*
X79241708Y-70111554D01*
X79216847Y-70141847D01*
X79186554Y-70166708D01*
X79151995Y-70185180D01*
X79114499Y-70196555D01*
X79069362Y-70201000D01*
X78430638Y-70201000D01*
X78385501Y-70196555D01*
X78348005Y-70185180D01*
X78313446Y-70166708D01*
X78283153Y-70141847D01*
X78258292Y-70111554D01*
X78239820Y-70076995D01*
X78228445Y-70039499D01*
X78224000Y-69994362D01*
X78224000Y-69255638D01*
X78228445Y-69210501D01*
X78239820Y-69173005D01*
X78258292Y-69138446D01*
X78283153Y-69108153D01*
X78313446Y-69083292D01*
X78348005Y-69064820D01*
X78385501Y-69053445D01*
X78430638Y-69049000D01*
X79069362Y-69049000D01*
X79114499Y-69053445D01*
G37*
G36*
X84601000Y-70046000D02*
G01*
X82499000Y-70046000D01*
X82499000Y-69344000D01*
X84601000Y-69344000D01*
X84601000Y-70046000D01*
G37*
G36*
X94001000Y-70046000D02*
G01*
X91899000Y-70046000D01*
X91899000Y-69344000D01*
X94001000Y-69344000D01*
X94001000Y-70046000D01*
G37*
G36*
X77301000Y-69971000D02*
G01*
X75199000Y-69971000D01*
X75199000Y-68969000D01*
X77301000Y-68969000D01*
X77301000Y-69971000D01*
G37*
G36*
X60301000Y-69971000D02*
G01*
X58199000Y-69971000D01*
X58199000Y-68969000D01*
X60301000Y-68969000D01*
X60301000Y-69971000D01*
G37*
G36*
X102789499Y-68728445D02*
G01*
X102826995Y-68739820D01*
X102861554Y-68758292D01*
X102891847Y-68783153D01*
X102916708Y-68813446D01*
X102935180Y-68848005D01*
X102946555Y-68885501D01*
X102951000Y-68930638D01*
X102951000Y-69569362D01*
X102946555Y-69614499D01*
X102935180Y-69651995D01*
X102916708Y-69686554D01*
X102891847Y-69716847D01*
X102861554Y-69741708D01*
X102826995Y-69760180D01*
X102789499Y-69771555D01*
X102744362Y-69776000D01*
X102005638Y-69776000D01*
X101960501Y-69771555D01*
X101923005Y-69760180D01*
X101888446Y-69741708D01*
X101858153Y-69716847D01*
X101833292Y-69686554D01*
X101814820Y-69651995D01*
X101803445Y-69614499D01*
X101799000Y-69569362D01*
X101799000Y-68930638D01*
X101803445Y-68885501D01*
X101814820Y-68848005D01*
X101833292Y-68813446D01*
X101858153Y-68783153D01*
X101888446Y-68758292D01*
X101923005Y-68739820D01*
X101960501Y-68728445D01*
X102005638Y-68724000D01*
X102744362Y-68724000D01*
X102789499Y-68728445D01*
G37*
G36*
X101039499Y-68728445D02*
G01*
X101076995Y-68739820D01*
X101111554Y-68758292D01*
X101141847Y-68783153D01*
X101166708Y-68813446D01*
X101185180Y-68848005D01*
X101196555Y-68885501D01*
X101201000Y-68930638D01*
X101201000Y-69569362D01*
X101196555Y-69614499D01*
X101185180Y-69651995D01*
X101166708Y-69686554D01*
X101141847Y-69716847D01*
X101111554Y-69741708D01*
X101076995Y-69760180D01*
X101039499Y-69771555D01*
X100994362Y-69776000D01*
X100255638Y-69776000D01*
X100210501Y-69771555D01*
X100173005Y-69760180D01*
X100138446Y-69741708D01*
X100108153Y-69716847D01*
X100083292Y-69686554D01*
X100064820Y-69651995D01*
X100053445Y-69614499D01*
X100049000Y-69569362D01*
X100049000Y-68930638D01*
X100053445Y-68885501D01*
X100064820Y-68848005D01*
X100083292Y-68813446D01*
X100108153Y-68783153D01*
X100138446Y-68758292D01*
X100173005Y-68739820D01*
X100210501Y-68728445D01*
X100255638Y-68724000D01*
X100994362Y-68724000D01*
X101039499Y-68728445D01*
G37*
G36*
X57364499Y-68428445D02*
G01*
X57401995Y-68439820D01*
X57436554Y-68458292D01*
X57466847Y-68483153D01*
X57491708Y-68513446D01*
X57510180Y-68548005D01*
X57521555Y-68585501D01*
X57526000Y-68630638D01*
X57526000Y-69369362D01*
X57521555Y-69414499D01*
X57510180Y-69451995D01*
X57491708Y-69486554D01*
X57466847Y-69516847D01*
X57436554Y-69541708D01*
X57401995Y-69560180D01*
X57364499Y-69571555D01*
X57319362Y-69576000D01*
X56680638Y-69576000D01*
X56635501Y-69571555D01*
X56598005Y-69560180D01*
X56563446Y-69541708D01*
X56533153Y-69516847D01*
X56508292Y-69486554D01*
X56489820Y-69451995D01*
X56478445Y-69414499D01*
X56474000Y-69369362D01*
X56474000Y-68630638D01*
X56478445Y-68585501D01*
X56489820Y-68548005D01*
X56508292Y-68513446D01*
X56533153Y-68483153D01*
X56563446Y-68458292D01*
X56598005Y-68439820D01*
X56635501Y-68428445D01*
X56680638Y-68424000D01*
X57319362Y-68424000D01*
X57364499Y-68428445D01*
G37*
G36*
X95864499Y-68378445D02*
G01*
X95901995Y-68389820D01*
X95936554Y-68408292D01*
X95966847Y-68433153D01*
X95991708Y-68463446D01*
X96010180Y-68498005D01*
X96021555Y-68535501D01*
X96026000Y-68580638D01*
X96026000Y-69319362D01*
X96021555Y-69364499D01*
X96010180Y-69401995D01*
X95991708Y-69436554D01*
X95966847Y-69466847D01*
X95936554Y-69491708D01*
X95901995Y-69510180D01*
X95864499Y-69521555D01*
X95819362Y-69526000D01*
X95180638Y-69526000D01*
X95135501Y-69521555D01*
X95098005Y-69510180D01*
X95063446Y-69491708D01*
X95033153Y-69466847D01*
X95008292Y-69436554D01*
X94989820Y-69401995D01*
X94978445Y-69364499D01*
X94974000Y-69319362D01*
X94974000Y-68580638D01*
X94978445Y-68535501D01*
X94989820Y-68498005D01*
X95008292Y-68463446D01*
X95033153Y-68433153D01*
X95063446Y-68408292D01*
X95098005Y-68389820D01*
X95135501Y-68378445D01*
X95180638Y-68374000D01*
X95819362Y-68374000D01*
X95864499Y-68378445D01*
G37*
G36*
X118564499Y-68178445D02*
G01*
X118601995Y-68189820D01*
X118636554Y-68208292D01*
X118666847Y-68233153D01*
X118691708Y-68263446D01*
X118710180Y-68298005D01*
X118721555Y-68335501D01*
X118726000Y-68380638D01*
X118726000Y-69119362D01*
X118721555Y-69164499D01*
X118710180Y-69201995D01*
X118691708Y-69236554D01*
X118666847Y-69266847D01*
X118636554Y-69291708D01*
X118601995Y-69310180D01*
X118564499Y-69321555D01*
X118519362Y-69326000D01*
X117880638Y-69326000D01*
X117835501Y-69321555D01*
X117798005Y-69310180D01*
X117763446Y-69291708D01*
X117733153Y-69266847D01*
X117708292Y-69236554D01*
X117689820Y-69201995D01*
X117678445Y-69164499D01*
X117674000Y-69119362D01*
X117674000Y-68380638D01*
X117678445Y-68335501D01*
X117689820Y-68298005D01*
X117708292Y-68263446D01*
X117733153Y-68233153D01*
X117763446Y-68208292D01*
X117798005Y-68189820D01*
X117835501Y-68178445D01*
X117880638Y-68174000D01*
X118519362Y-68174000D01*
X118564499Y-68178445D01*
G37*
G36*
X120926000Y-69231000D02*
G01*
X120174000Y-69231000D01*
X120174000Y-68069000D01*
X120926000Y-68069000D01*
X120926000Y-69231000D01*
G37*
G36*
X122826000Y-69231000D02*
G01*
X122074000Y-69231000D01*
X122074000Y-68069000D01*
X122826000Y-68069000D01*
X122826000Y-69231000D01*
G37*
G36*
X113606000Y-69181000D02*
G01*
X110954000Y-69181000D01*
X110954000Y-68019000D01*
X113606000Y-68019000D01*
X113606000Y-69181000D01*
G37*
G36*
X116525562Y-67503181D02*
G01*
X116560481Y-67513774D01*
X116592663Y-67530976D01*
X116620873Y-67554127D01*
X116644024Y-67582337D01*
X116661226Y-67614519D01*
X116671819Y-67649438D01*
X116676000Y-67691895D01*
X116676000Y-68833105D01*
X116671819Y-68875562D01*
X116661226Y-68910481D01*
X116644024Y-68942663D01*
X116620873Y-68970873D01*
X116592663Y-68994024D01*
X116560481Y-69011226D01*
X116525562Y-69021819D01*
X116483105Y-69026000D01*
X115016895Y-69026000D01*
X114974438Y-69021819D01*
X114939519Y-69011226D01*
X114907337Y-68994024D01*
X114879127Y-68970873D01*
X114855976Y-68942663D01*
X114838774Y-68910481D01*
X114828181Y-68875562D01*
X114824000Y-68833105D01*
X114824000Y-67691895D01*
X114828181Y-67649438D01*
X114838774Y-67614519D01*
X114855976Y-67582337D01*
X114879127Y-67554127D01*
X114907337Y-67530976D01*
X114939519Y-67513774D01*
X114974438Y-67503181D01*
X115016895Y-67499000D01*
X116483105Y-67499000D01*
X116525562Y-67503181D01*
G37*
G36*
X109525562Y-67490681D02*
G01*
X109560481Y-67501274D01*
X109592663Y-67518476D01*
X109620873Y-67541627D01*
X109644024Y-67569837D01*
X109661226Y-67602019D01*
X109671819Y-67636938D01*
X109676000Y-67679395D01*
X109676000Y-68820605D01*
X109671819Y-68863062D01*
X109661226Y-68897981D01*
X109644024Y-68930163D01*
X109620873Y-68958373D01*
X109592663Y-68981524D01*
X109560481Y-68998726D01*
X109525562Y-69009319D01*
X109483105Y-69013500D01*
X108016895Y-69013500D01*
X107974438Y-69009319D01*
X107939519Y-68998726D01*
X107907337Y-68981524D01*
X107879127Y-68958373D01*
X107855976Y-68930163D01*
X107838774Y-68897981D01*
X107828181Y-68863062D01*
X107824000Y-68820605D01*
X107824000Y-67679395D01*
X107828181Y-67636938D01*
X107838774Y-67602019D01*
X107855976Y-67569837D01*
X107879127Y-67541627D01*
X107907337Y-67518476D01*
X107939519Y-67501274D01*
X107974438Y-67490681D01*
X108016895Y-67486500D01*
X109483105Y-67486500D01*
X109525562Y-67490681D01*
G37*
G36*
X128088674Y-67678465D02*
G01*
X128126367Y-67689899D01*
X128161103Y-67708466D01*
X128191548Y-67733452D01*
X128216534Y-67763897D01*
X128235101Y-67798633D01*
X128246535Y-67836326D01*
X128251000Y-67881661D01*
X128251000Y-68718339D01*
X128246535Y-68763674D01*
X128235101Y-68801367D01*
X128216534Y-68836103D01*
X128191548Y-68866548D01*
X128161103Y-68891534D01*
X128126367Y-68910101D01*
X128088674Y-68921535D01*
X128043339Y-68926000D01*
X126956661Y-68926000D01*
X126911326Y-68921535D01*
X126873633Y-68910101D01*
X126838897Y-68891534D01*
X126808452Y-68866548D01*
X126783466Y-68836103D01*
X126764899Y-68801367D01*
X126753465Y-68763674D01*
X126749000Y-68718339D01*
X126749000Y-67881661D01*
X126753465Y-67836326D01*
X126764899Y-67798633D01*
X126783466Y-67763897D01*
X126808452Y-67733452D01*
X126838897Y-67708466D01*
X126873633Y-67689899D01*
X126911326Y-67678465D01*
X126956661Y-67674000D01*
X128043339Y-67674000D01*
X128088674Y-67678465D01*
G37*
G36*
X125864499Y-67678445D02*
G01*
X125901995Y-67689820D01*
X125936554Y-67708292D01*
X125966847Y-67733153D01*
X125991708Y-67763446D01*
X126010180Y-67798005D01*
X126021555Y-67835501D01*
X126026000Y-67880638D01*
X126026000Y-68619362D01*
X126021555Y-68664499D01*
X126010180Y-68701995D01*
X125991708Y-68736554D01*
X125966847Y-68766847D01*
X125936554Y-68791708D01*
X125901995Y-68810180D01*
X125864499Y-68821555D01*
X125819362Y-68826000D01*
X125180638Y-68826000D01*
X125135501Y-68821555D01*
X125098005Y-68810180D01*
X125063446Y-68791708D01*
X125033153Y-68766847D01*
X125008292Y-68736554D01*
X124989820Y-68701995D01*
X124978445Y-68664499D01*
X124974000Y-68619362D01*
X124974000Y-67880638D01*
X124978445Y-67835501D01*
X124989820Y-67798005D01*
X125008292Y-67763446D01*
X125033153Y-67733153D01*
X125063446Y-67708292D01*
X125098005Y-67689820D01*
X125135501Y-67678445D01*
X125180638Y-67674000D01*
X125819362Y-67674000D01*
X125864499Y-67678445D01*
G37*
G36*
X94001000Y-68776000D02*
G01*
X91899000Y-68776000D01*
X91899000Y-68074000D01*
X94001000Y-68074000D01*
X94001000Y-68776000D01*
G37*
G36*
X84601000Y-68776000D02*
G01*
X82499000Y-68776000D01*
X82499000Y-68074000D01*
X84601000Y-68074000D01*
X84601000Y-68776000D01*
G37*
G36*
X60301000Y-68701000D02*
G01*
X58199000Y-68701000D01*
X58199000Y-67699000D01*
X60301000Y-67699000D01*
X60301000Y-68701000D01*
G37*
G36*
X77301000Y-68701000D02*
G01*
X75199000Y-68701000D01*
X75199000Y-67699000D01*
X77301000Y-67699000D01*
X77301000Y-68701000D01*
G37*
G36*
X53551000Y-68301000D02*
G01*
X50449000Y-68301000D01*
X50449000Y-65199000D01*
X53551000Y-65199000D01*
X53551000Y-68301000D01*
G37*
G36*
X79414499Y-67228445D02*
G01*
X79451995Y-67239820D01*
X79486554Y-67258292D01*
X79516847Y-67283153D01*
X79541708Y-67313446D01*
X79560180Y-67348005D01*
X79571555Y-67385501D01*
X79576000Y-67430638D01*
X79576000Y-68069362D01*
X79571555Y-68114499D01*
X79560180Y-68151995D01*
X79541708Y-68186554D01*
X79516847Y-68216847D01*
X79486554Y-68241708D01*
X79451995Y-68260180D01*
X79414499Y-68271555D01*
X79369362Y-68276000D01*
X78630638Y-68276000D01*
X78585501Y-68271555D01*
X78548005Y-68260180D01*
X78513446Y-68241708D01*
X78483153Y-68216847D01*
X78458292Y-68186554D01*
X78439820Y-68151995D01*
X78428445Y-68114499D01*
X78424000Y-68069362D01*
X78424000Y-67430638D01*
X78428445Y-67385501D01*
X78439820Y-67348005D01*
X78458292Y-67313446D01*
X78483153Y-67283153D01*
X78513446Y-67258292D01*
X78548005Y-67239820D01*
X78585501Y-67228445D01*
X78630638Y-67224000D01*
X79369362Y-67224000D01*
X79414499Y-67228445D01*
G37*
G36*
X81164499Y-67228445D02*
G01*
X81201995Y-67239820D01*
X81236554Y-67258292D01*
X81266847Y-67283153D01*
X81291708Y-67313446D01*
X81310180Y-67348005D01*
X81321555Y-67385501D01*
X81326000Y-67430638D01*
X81326000Y-68069362D01*
X81321555Y-68114499D01*
X81310180Y-68151995D01*
X81291708Y-68186554D01*
X81266847Y-68216847D01*
X81236554Y-68241708D01*
X81201995Y-68260180D01*
X81164499Y-68271555D01*
X81119362Y-68276000D01*
X80380638Y-68276000D01*
X80335501Y-68271555D01*
X80298005Y-68260180D01*
X80263446Y-68241708D01*
X80233153Y-68216847D01*
X80208292Y-68186554D01*
X80189820Y-68151995D01*
X80178445Y-68114499D01*
X80174000Y-68069362D01*
X80174000Y-67430638D01*
X80178445Y-67385501D01*
X80189820Y-67348005D01*
X80208292Y-67313446D01*
X80233153Y-67283153D01*
X80263446Y-67258292D01*
X80298005Y-67239820D01*
X80335501Y-67228445D01*
X80380638Y-67224000D01*
X81119362Y-67224000D01*
X81164499Y-67228445D01*
G37*
G36*
X57364499Y-66678445D02*
G01*
X57401995Y-66689820D01*
X57436554Y-66708292D01*
X57466847Y-66733153D01*
X57491708Y-66763446D01*
X57510180Y-66798005D01*
X57521555Y-66835501D01*
X57526000Y-66880638D01*
X57526000Y-67619362D01*
X57521555Y-67664499D01*
X57510180Y-67701995D01*
X57491708Y-67736554D01*
X57466847Y-67766847D01*
X57436554Y-67791708D01*
X57401995Y-67810180D01*
X57364499Y-67821555D01*
X57319362Y-67826000D01*
X56680638Y-67826000D01*
X56635501Y-67821555D01*
X56598005Y-67810180D01*
X56563446Y-67791708D01*
X56533153Y-67766847D01*
X56508292Y-67736554D01*
X56489820Y-67701995D01*
X56478445Y-67664499D01*
X56474000Y-67619362D01*
X56474000Y-66880638D01*
X56478445Y-66835501D01*
X56489820Y-66798005D01*
X56508292Y-66763446D01*
X56533153Y-66733153D01*
X56563446Y-66708292D01*
X56598005Y-66689820D01*
X56635501Y-66678445D01*
X56680638Y-66674000D01*
X57319362Y-66674000D01*
X57364499Y-66678445D01*
G37*
G36*
X95864499Y-66628445D02*
G01*
X95901995Y-66639820D01*
X95936554Y-66658292D01*
X95966847Y-66683153D01*
X95991708Y-66713446D01*
X96010180Y-66748005D01*
X96021555Y-66785501D01*
X96026000Y-66830638D01*
X96026000Y-67569362D01*
X96021555Y-67614499D01*
X96010180Y-67651995D01*
X95991708Y-67686554D01*
X95966847Y-67716847D01*
X95936554Y-67741708D01*
X95901995Y-67760180D01*
X95864499Y-67771555D01*
X95819362Y-67776000D01*
X95180638Y-67776000D01*
X95135501Y-67771555D01*
X95098005Y-67760180D01*
X95063446Y-67741708D01*
X95033153Y-67716847D01*
X95008292Y-67686554D01*
X94989820Y-67651995D01*
X94978445Y-67614499D01*
X94974000Y-67569362D01*
X94974000Y-66830638D01*
X94978445Y-66785501D01*
X94989820Y-66748005D01*
X95008292Y-66713446D01*
X95033153Y-66683153D01*
X95063446Y-66658292D01*
X95098005Y-66639820D01*
X95135501Y-66628445D01*
X95180638Y-66624000D01*
X95819362Y-66624000D01*
X95864499Y-66628445D01*
G37*
G36*
X102826000Y-67681000D02*
G01*
X100174000Y-67681000D01*
X100174000Y-66519000D01*
X102826000Y-66519000D01*
X102826000Y-67681000D01*
G37*
G36*
X94001000Y-67506000D02*
G01*
X91899000Y-67506000D01*
X91899000Y-66804000D01*
X94001000Y-66804000D01*
X94001000Y-67506000D01*
G37*
G36*
X84601000Y-67506000D02*
G01*
X82499000Y-67506000D01*
X82499000Y-66804000D01*
X84601000Y-66804000D01*
X84601000Y-67506000D01*
G37*
G36*
X60301000Y-67431000D02*
G01*
X58199000Y-67431000D01*
X58199000Y-66429000D01*
X60301000Y-66429000D01*
X60301000Y-67431000D01*
G37*
G36*
X77301000Y-67431000D02*
G01*
X75199000Y-67431000D01*
X75199000Y-66429000D01*
X77301000Y-66429000D01*
X77301000Y-67431000D01*
G37*
G36*
X123100562Y-65578181D02*
G01*
X123135481Y-65588774D01*
X123167663Y-65605976D01*
X123195873Y-65629127D01*
X123219024Y-65657337D01*
X123236226Y-65689519D01*
X123246819Y-65724438D01*
X123251000Y-65766895D01*
X123251000Y-67233105D01*
X123246819Y-67275562D01*
X123236226Y-67310481D01*
X123219024Y-67342663D01*
X123195873Y-67370873D01*
X123167663Y-67394024D01*
X123135481Y-67411226D01*
X123100562Y-67421819D01*
X123058105Y-67426000D01*
X121916895Y-67426000D01*
X121874438Y-67421819D01*
X121839519Y-67411226D01*
X121807337Y-67394024D01*
X121779127Y-67370873D01*
X121755976Y-67342663D01*
X121738774Y-67310481D01*
X121728181Y-67275562D01*
X121724000Y-67233105D01*
X121724000Y-65766895D01*
X121728181Y-65724438D01*
X121738774Y-65689519D01*
X121755976Y-65657337D01*
X121779127Y-65629127D01*
X121807337Y-65605976D01*
X121839519Y-65588774D01*
X121874438Y-65578181D01*
X121916895Y-65574000D01*
X123058105Y-65574000D01*
X123100562Y-65578181D01*
G37*
G36*
X120125562Y-65578181D02*
G01*
X120160481Y-65588774D01*
X120192663Y-65605976D01*
X120220873Y-65629127D01*
X120244024Y-65657337D01*
X120261226Y-65689519D01*
X120271819Y-65724438D01*
X120276000Y-65766895D01*
X120276000Y-67233105D01*
X120271819Y-67275562D01*
X120261226Y-67310481D01*
X120244024Y-67342663D01*
X120220873Y-67370873D01*
X120192663Y-67394024D01*
X120160481Y-67411226D01*
X120125562Y-67421819D01*
X120083105Y-67426000D01*
X118941895Y-67426000D01*
X118899438Y-67421819D01*
X118864519Y-67411226D01*
X118832337Y-67394024D01*
X118804127Y-67370873D01*
X118780976Y-67342663D01*
X118763774Y-67310481D01*
X118753181Y-67275562D01*
X118749000Y-67233105D01*
X118749000Y-65766895D01*
X118753181Y-65724438D01*
X118763774Y-65689519D01*
X118780976Y-65657337D01*
X118804127Y-65629127D01*
X118832337Y-65605976D01*
X118864519Y-65588774D01*
X118899438Y-65578181D01*
X118941895Y-65574000D01*
X120083105Y-65574000D01*
X120125562Y-65578181D01*
G37*
G36*
X125864499Y-65928445D02*
G01*
X125901995Y-65939820D01*
X125936554Y-65958292D01*
X125966847Y-65983153D01*
X125991708Y-66013446D01*
X126010180Y-66048005D01*
X126021555Y-66085501D01*
X126026000Y-66130638D01*
X126026000Y-66869362D01*
X126021555Y-66914499D01*
X126010180Y-66951995D01*
X125991708Y-66986554D01*
X125966847Y-67016847D01*
X125936554Y-67041708D01*
X125901995Y-67060180D01*
X125864499Y-67071555D01*
X125819362Y-67076000D01*
X125180638Y-67076000D01*
X125135501Y-67071555D01*
X125098005Y-67060180D01*
X125063446Y-67041708D01*
X125033153Y-67016847D01*
X125008292Y-66986554D01*
X124989820Y-66951995D01*
X124978445Y-66914499D01*
X124974000Y-66869362D01*
X124974000Y-66130638D01*
X124978445Y-66085501D01*
X124989820Y-66048005D01*
X125008292Y-66013446D01*
X125033153Y-65983153D01*
X125063446Y-65958292D01*
X125098005Y-65939820D01*
X125135501Y-65928445D01*
X125180638Y-65924000D01*
X125819362Y-65924000D01*
X125864499Y-65928445D01*
G37*
G36*
X128088674Y-65628465D02*
G01*
X128126367Y-65639899D01*
X128161103Y-65658466D01*
X128191548Y-65683452D01*
X128216534Y-65713897D01*
X128235101Y-65748633D01*
X128246535Y-65786326D01*
X128251000Y-65831661D01*
X128251000Y-66668339D01*
X128246535Y-66713674D01*
X128235101Y-66751367D01*
X128216534Y-66786103D01*
X128191548Y-66816548D01*
X128161103Y-66841534D01*
X128126367Y-66860101D01*
X128088674Y-66871535D01*
X128043339Y-66876000D01*
X126956661Y-66876000D01*
X126911326Y-66871535D01*
X126873633Y-66860101D01*
X126838897Y-66841534D01*
X126808452Y-66816548D01*
X126783466Y-66786103D01*
X126764899Y-66751367D01*
X126753465Y-66713674D01*
X126749000Y-66668339D01*
X126749000Y-65831661D01*
X126753465Y-65786326D01*
X126764899Y-65748633D01*
X126783466Y-65713897D01*
X126808452Y-65683452D01*
X126838897Y-65658466D01*
X126873633Y-65639899D01*
X126911326Y-65628465D01*
X126956661Y-65624000D01*
X128043339Y-65624000D01*
X128088674Y-65628465D01*
G37*
G36*
X115164499Y-65478445D02*
G01*
X115201995Y-65489820D01*
X115236554Y-65508292D01*
X115266847Y-65533153D01*
X115291708Y-65563446D01*
X115310180Y-65598005D01*
X115321555Y-65635501D01*
X115326000Y-65680638D01*
X115326000Y-66319362D01*
X115321555Y-66364499D01*
X115310180Y-66401995D01*
X115291708Y-66436554D01*
X115266847Y-66466847D01*
X115236554Y-66491708D01*
X115201995Y-66510180D01*
X115164499Y-66521555D01*
X115119362Y-66526000D01*
X114380638Y-66526000D01*
X114335501Y-66521555D01*
X114298005Y-66510180D01*
X114263446Y-66491708D01*
X114233153Y-66466847D01*
X114208292Y-66436554D01*
X114189820Y-66401995D01*
X114178445Y-66364499D01*
X114174000Y-66319362D01*
X114174000Y-65680638D01*
X114178445Y-65635501D01*
X114189820Y-65598005D01*
X114208292Y-65563446D01*
X114233153Y-65533153D01*
X114263446Y-65508292D01*
X114298005Y-65489820D01*
X114335501Y-65478445D01*
X114380638Y-65474000D01*
X115119362Y-65474000D01*
X115164499Y-65478445D01*
G37*
G36*
X113414499Y-65478445D02*
G01*
X113451995Y-65489820D01*
X113486554Y-65508292D01*
X113516847Y-65533153D01*
X113541708Y-65563446D01*
X113560180Y-65598005D01*
X113571555Y-65635501D01*
X113576000Y-65680638D01*
X113576000Y-66319362D01*
X113571555Y-66364499D01*
X113560180Y-66401995D01*
X113541708Y-66436554D01*
X113516847Y-66466847D01*
X113486554Y-66491708D01*
X113451995Y-66510180D01*
X113414499Y-66521555D01*
X113369362Y-66526000D01*
X112630638Y-66526000D01*
X112585501Y-66521555D01*
X112548005Y-66510180D01*
X112513446Y-66491708D01*
X112483153Y-66466847D01*
X112458292Y-66436554D01*
X112439820Y-66401995D01*
X112428445Y-66364499D01*
X112424000Y-66319362D01*
X112424000Y-65680638D01*
X112428445Y-65635501D01*
X112439820Y-65598005D01*
X112458292Y-65563446D01*
X112483153Y-65533153D01*
X112513446Y-65508292D01*
X112548005Y-65489820D01*
X112585501Y-65478445D01*
X112630638Y-65474000D01*
X113369362Y-65474000D01*
X113414499Y-65478445D01*
G37*
G36*
X110664499Y-65478445D02*
G01*
X110701995Y-65489820D01*
X110736554Y-65508292D01*
X110766847Y-65533153D01*
X110791708Y-65563446D01*
X110810180Y-65598005D01*
X110821555Y-65635501D01*
X110826000Y-65680638D01*
X110826000Y-66319362D01*
X110821555Y-66364499D01*
X110810180Y-66401995D01*
X110791708Y-66436554D01*
X110766847Y-66466847D01*
X110736554Y-66491708D01*
X110701995Y-66510180D01*
X110664499Y-66521555D01*
X110619362Y-66526000D01*
X109880638Y-66526000D01*
X109835501Y-66521555D01*
X109798005Y-66510180D01*
X109763446Y-66491708D01*
X109733153Y-66466847D01*
X109708292Y-66436554D01*
X109689820Y-66401995D01*
X109678445Y-66364499D01*
X109674000Y-66319362D01*
X109674000Y-65680638D01*
X109678445Y-65635501D01*
X109689820Y-65598005D01*
X109708292Y-65563446D01*
X109733153Y-65533153D01*
X109763446Y-65508292D01*
X109798005Y-65489820D01*
X109835501Y-65478445D01*
X109880638Y-65474000D01*
X110619362Y-65474000D01*
X110664499Y-65478445D01*
G37*
G36*
X108914499Y-65478445D02*
G01*
X108951995Y-65489820D01*
X108986554Y-65508292D01*
X109016847Y-65533153D01*
X109041708Y-65563446D01*
X109060180Y-65598005D01*
X109071555Y-65635501D01*
X109076000Y-65680638D01*
X109076000Y-66319362D01*
X109071555Y-66364499D01*
X109060180Y-66401995D01*
X109041708Y-66436554D01*
X109016847Y-66466847D01*
X108986554Y-66491708D01*
X108951995Y-66510180D01*
X108914499Y-66521555D01*
X108869362Y-66526000D01*
X108130638Y-66526000D01*
X108085501Y-66521555D01*
X108048005Y-66510180D01*
X108013446Y-66491708D01*
X107983153Y-66466847D01*
X107958292Y-66436554D01*
X107939820Y-66401995D01*
X107928445Y-66364499D01*
X107924000Y-66319362D01*
X107924000Y-65680638D01*
X107928445Y-65635501D01*
X107939820Y-65598005D01*
X107958292Y-65563446D01*
X107983153Y-65533153D01*
X108013446Y-65508292D01*
X108048005Y-65489820D01*
X108085501Y-65478445D01*
X108130638Y-65474000D01*
X108869362Y-65474000D01*
X108914499Y-65478445D01*
G37*
G36*
X57364499Y-65178445D02*
G01*
X57401995Y-65189820D01*
X57436554Y-65208292D01*
X57466847Y-65233153D01*
X57491708Y-65263446D01*
X57510180Y-65298005D01*
X57521555Y-65335501D01*
X57526000Y-65380638D01*
X57526000Y-66119362D01*
X57521555Y-66164499D01*
X57510180Y-66201995D01*
X57491708Y-66236554D01*
X57466847Y-66266847D01*
X57436554Y-66291708D01*
X57401995Y-66310180D01*
X57364499Y-66321555D01*
X57319362Y-66326000D01*
X56680638Y-66326000D01*
X56635501Y-66321555D01*
X56598005Y-66310180D01*
X56563446Y-66291708D01*
X56533153Y-66266847D01*
X56508292Y-66236554D01*
X56489820Y-66201995D01*
X56478445Y-66164499D01*
X56474000Y-66119362D01*
X56474000Y-65380638D01*
X56478445Y-65335501D01*
X56489820Y-65298005D01*
X56508292Y-65263446D01*
X56533153Y-65233153D01*
X56563446Y-65208292D01*
X56598005Y-65189820D01*
X56635501Y-65178445D01*
X56680638Y-65174000D01*
X57319362Y-65174000D01*
X57364499Y-65178445D01*
G37*
G36*
X84601000Y-66236000D02*
G01*
X82499000Y-66236000D01*
X82499000Y-65534000D01*
X84601000Y-65534000D01*
X84601000Y-66236000D01*
G37*
G36*
X94001000Y-66236000D02*
G01*
X91899000Y-66236000D01*
X91899000Y-65534000D01*
X94001000Y-65534000D01*
X94001000Y-66236000D01*
G37*
G36*
X77301000Y-66161000D02*
G01*
X75199000Y-66161000D01*
X75199000Y-65159000D01*
X77301000Y-65159000D01*
X77301000Y-66161000D01*
G37*
G36*
X60301000Y-66161000D02*
G01*
X58199000Y-66161000D01*
X58199000Y-65159000D01*
X60301000Y-65159000D01*
X60301000Y-66161000D01*
G37*
G36*
X69301000Y-65551000D02*
G01*
X64199000Y-65551000D01*
X64199000Y-60449000D01*
X69301000Y-60449000D01*
X69301000Y-65551000D01*
G37*
G36*
X102826000Y-65481000D02*
G01*
X102074000Y-65481000D01*
X102074000Y-64319000D01*
X102826000Y-64319000D01*
X102826000Y-65481000D01*
G37*
G36*
X100926000Y-65481000D02*
G01*
X100174000Y-65481000D01*
X100174000Y-64319000D01*
X100926000Y-64319000D01*
X100926000Y-65481000D01*
G37*
G36*
X84601000Y-64966000D02*
G01*
X82499000Y-64966000D01*
X82499000Y-64264000D01*
X84601000Y-64264000D01*
X84601000Y-64966000D01*
G37*
G36*
X94001000Y-64966000D02*
G01*
X91899000Y-64966000D01*
X91899000Y-64264000D01*
X94001000Y-64264000D01*
X94001000Y-64966000D01*
G37*
G36*
X60301000Y-64891000D02*
G01*
X58199000Y-64891000D01*
X58199000Y-63889000D01*
X60301000Y-63889000D01*
X60301000Y-64891000D01*
G37*
G36*
X77301000Y-64891000D02*
G01*
X75199000Y-64891000D01*
X75199000Y-63889000D01*
X77301000Y-63889000D01*
X77301000Y-64891000D01*
G37*
G36*
X57364499Y-63428445D02*
G01*
X57401995Y-63439820D01*
X57436554Y-63458292D01*
X57466847Y-63483153D01*
X57491708Y-63513446D01*
X57510180Y-63548005D01*
X57521555Y-63585501D01*
X57526000Y-63630638D01*
X57526000Y-64369362D01*
X57521555Y-64414499D01*
X57510180Y-64451995D01*
X57491708Y-64486554D01*
X57466847Y-64516847D01*
X57436554Y-64541708D01*
X57401995Y-64560180D01*
X57364499Y-64571555D01*
X57319362Y-64576000D01*
X56680638Y-64576000D01*
X56635501Y-64571555D01*
X56598005Y-64560180D01*
X56563446Y-64541708D01*
X56533153Y-64516847D01*
X56508292Y-64486554D01*
X56489820Y-64451995D01*
X56478445Y-64414499D01*
X56474000Y-64369362D01*
X56474000Y-63630638D01*
X56478445Y-63585501D01*
X56489820Y-63548005D01*
X56508292Y-63513446D01*
X56533153Y-63483153D01*
X56563446Y-63458292D01*
X56598005Y-63439820D01*
X56635501Y-63428445D01*
X56680638Y-63424000D01*
X57319362Y-63424000D01*
X57364499Y-63428445D01*
G37*
G36*
X123974795Y-62180156D02*
G01*
X124081150Y-62201311D01*
X124181334Y-62242809D01*
X124281520Y-62284307D01*
X124461844Y-62404795D01*
X124615205Y-62558156D01*
X124735693Y-62738480D01*
X124769713Y-62820611D01*
X124818689Y-62938850D01*
X124830919Y-63000336D01*
X124853415Y-63113426D01*
X124861000Y-63151561D01*
X124861000Y-63368439D01*
X124818689Y-63581150D01*
X124798190Y-63630638D01*
X124735693Y-63781520D01*
X124615205Y-63961844D01*
X124461844Y-64115205D01*
X124281520Y-64235693D01*
X124081150Y-64318689D01*
X123974794Y-64339845D01*
X123868440Y-64361000D01*
X123651560Y-64361000D01*
X123545206Y-64339845D01*
X123438850Y-64318689D01*
X123238480Y-64235693D01*
X123058156Y-64115205D01*
X122904795Y-63961844D01*
X122784307Y-63781520D01*
X122721810Y-63630638D01*
X122701311Y-63581150D01*
X122659000Y-63368439D01*
X122659000Y-63151561D01*
X122666586Y-63113426D01*
X122689081Y-63000336D01*
X122701311Y-62938850D01*
X122750287Y-62820611D01*
X122784307Y-62738480D01*
X122904795Y-62558156D01*
X123058156Y-62404795D01*
X123238480Y-62284307D01*
X123338666Y-62242809D01*
X123438850Y-62201311D01*
X123545205Y-62180156D01*
X123651560Y-62159000D01*
X123868440Y-62159000D01*
X123974795Y-62180156D01*
G37*
G36*
X94001000Y-63696000D02*
G01*
X91899000Y-63696000D01*
X91899000Y-62994000D01*
X94001000Y-62994000D01*
X94001000Y-63696000D01*
G37*
G36*
X84601000Y-63696000D02*
G01*
X82499000Y-63696000D01*
X82499000Y-62994000D01*
X84601000Y-62994000D01*
X84601000Y-63696000D01*
G37*
G36*
X60301000Y-63621000D02*
G01*
X58199000Y-63621000D01*
X58199000Y-62619000D01*
X60301000Y-62619000D01*
X60301000Y-63621000D01*
G37*
G36*
X77301000Y-63621000D02*
G01*
X75199000Y-63621000D01*
X75199000Y-62619000D01*
X77301000Y-62619000D01*
X77301000Y-63621000D01*
G37*
G36*
X103350562Y-61578181D02*
G01*
X103385481Y-61588774D01*
X103417663Y-61605976D01*
X103445873Y-61629127D01*
X103469024Y-61657337D01*
X103486226Y-61689519D01*
X103496819Y-61724438D01*
X103501000Y-61766895D01*
X103501000Y-63233105D01*
X103496819Y-63275562D01*
X103486226Y-63310481D01*
X103469024Y-63342663D01*
X103445873Y-63370873D01*
X103417663Y-63394024D01*
X103385481Y-63411226D01*
X103350562Y-63421819D01*
X103308105Y-63426000D01*
X102166895Y-63426000D01*
X102124438Y-63421819D01*
X102089519Y-63411226D01*
X102057337Y-63394024D01*
X102029127Y-63370873D01*
X102005976Y-63342663D01*
X101988774Y-63310481D01*
X101978181Y-63275562D01*
X101974000Y-63233105D01*
X101974000Y-61766895D01*
X101978181Y-61724438D01*
X101988774Y-61689519D01*
X102005976Y-61657337D01*
X102029127Y-61629127D01*
X102057337Y-61605976D01*
X102089519Y-61588774D01*
X102124438Y-61578181D01*
X102166895Y-61574000D01*
X103308105Y-61574000D01*
X103350562Y-61578181D01*
G37*
G36*
X100375562Y-61578181D02*
G01*
X100410481Y-61588774D01*
X100442663Y-61605976D01*
X100470873Y-61629127D01*
X100494024Y-61657337D01*
X100511226Y-61689519D01*
X100521819Y-61724438D01*
X100526000Y-61766895D01*
X100526000Y-63233105D01*
X100521819Y-63275562D01*
X100511226Y-63310481D01*
X100494024Y-63342663D01*
X100470873Y-63370873D01*
X100442663Y-63394024D01*
X100410481Y-63411226D01*
X100375562Y-63421819D01*
X100333105Y-63426000D01*
X99191895Y-63426000D01*
X99149438Y-63421819D01*
X99114519Y-63411226D01*
X99082337Y-63394024D01*
X99054127Y-63370873D01*
X99030976Y-63342663D01*
X99013774Y-63310481D01*
X99003181Y-63275562D01*
X98999000Y-63233105D01*
X98999000Y-61766895D01*
X99003181Y-61724438D01*
X99013774Y-61689519D01*
X99030976Y-61657337D01*
X99054127Y-61629127D01*
X99082337Y-61605976D01*
X99114519Y-61588774D01*
X99149438Y-61578181D01*
X99191895Y-61574000D01*
X100333105Y-61574000D01*
X100375562Y-61578181D01*
G37*
G36*
X52501000Y-62711886D02*
G01*
X52501602Y-62724138D01*
X52504149Y-62750000D01*
X52501602Y-62775862D01*
X52501000Y-62788114D01*
X52501000Y-62861406D01*
X52492043Y-62878164D01*
X52487915Y-62889701D01*
X52470668Y-62946555D01*
X52454354Y-63000336D01*
X52393906Y-63113425D01*
X52312554Y-63212554D01*
X52213425Y-63293906D01*
X52100336Y-63354354D01*
X52068404Y-63364040D01*
X51977618Y-63391580D01*
X51913855Y-63397860D01*
X51881974Y-63401000D01*
X51118026Y-63401000D01*
X51086145Y-63397860D01*
X51022382Y-63391580D01*
X50931596Y-63364040D01*
X50899664Y-63354354D01*
X50786575Y-63293906D01*
X50687446Y-63212554D01*
X50606094Y-63113425D01*
X50545646Y-63000336D01*
X50529332Y-62946555D01*
X50512087Y-62889708D01*
X50502713Y-62867075D01*
X50499000Y-62861518D01*
X50499000Y-62788114D01*
X50498398Y-62775862D01*
X50495851Y-62750000D01*
X50498398Y-62724138D01*
X50499000Y-62711886D01*
X50499000Y-61499000D01*
X52501000Y-61499000D01*
X52501000Y-62711886D01*
G37*
G36*
X57364499Y-61803445D02*
G01*
X57401995Y-61814820D01*
X57436554Y-61833292D01*
X57466847Y-61858153D01*
X57491708Y-61888446D01*
X57510180Y-61923005D01*
X57521555Y-61960501D01*
X57526000Y-62005638D01*
X57526000Y-62744362D01*
X57521555Y-62789499D01*
X57510180Y-62826995D01*
X57491708Y-62861554D01*
X57466847Y-62891847D01*
X57436554Y-62916708D01*
X57401995Y-62935180D01*
X57364499Y-62946555D01*
X57319362Y-62951000D01*
X56680638Y-62951000D01*
X56635501Y-62946555D01*
X56598005Y-62935180D01*
X56563446Y-62916708D01*
X56533153Y-62891847D01*
X56508292Y-62861554D01*
X56489820Y-62826995D01*
X56478445Y-62789499D01*
X56474000Y-62744362D01*
X56474000Y-62005638D01*
X56478445Y-61960501D01*
X56489820Y-61923005D01*
X56508292Y-61888446D01*
X56533153Y-61858153D01*
X56563446Y-61833292D01*
X56598005Y-61814820D01*
X56635501Y-61803445D01*
X56680638Y-61799000D01*
X57319362Y-61799000D01*
X57364499Y-61803445D01*
G37*
G36*
X126520104Y-61109585D02*
G01*
X126688626Y-61179389D01*
X126840291Y-61280728D01*
X126969272Y-61409709D01*
X127070611Y-61561374D01*
X127140415Y-61729896D01*
X127176000Y-61908797D01*
X127176000Y-62091203D01*
X127140415Y-62270104D01*
X127070611Y-62438626D01*
X126969272Y-62590291D01*
X126840291Y-62719272D01*
X126688626Y-62820611D01*
X126520104Y-62890415D01*
X126341203Y-62926000D01*
X126158797Y-62926000D01*
X125979896Y-62890415D01*
X125811374Y-62820611D01*
X125659709Y-62719272D01*
X125530728Y-62590291D01*
X125429389Y-62438626D01*
X125359585Y-62270104D01*
X125324000Y-62091203D01*
X125324000Y-61908797D01*
X125359585Y-61729896D01*
X125429389Y-61561374D01*
X125530728Y-61409709D01*
X125659709Y-61280728D01*
X125811374Y-61179389D01*
X125979896Y-61109585D01*
X126158797Y-61074000D01*
X126341203Y-61074000D01*
X126520104Y-61109585D01*
G37*
G36*
X54426348Y-56003820D02*
G01*
X54426350Y-56003821D01*
X54426351Y-56003821D01*
X54567574Y-56062317D01*
X54567577Y-56062319D01*
X54694669Y-56147239D01*
X54802761Y-56255331D01*
X54871655Y-56358439D01*
X54887683Y-56382426D01*
X54946179Y-56523649D01*
X54946180Y-56523652D01*
X54976000Y-56673569D01*
X54976000Y-56826431D01*
X54950279Y-56955743D01*
X54946179Y-56976351D01*
X54887683Y-57117574D01*
X54887681Y-57117577D01*
X54802761Y-57244669D01*
X54694669Y-57352761D01*
X54610805Y-57408797D01*
X54567574Y-57437683D01*
X54517272Y-57458519D01*
X54495664Y-57470068D01*
X54476722Y-57485614D01*
X54461177Y-57504556D01*
X54449626Y-57526166D01*
X54442513Y-57549615D01*
X54440111Y-57574001D01*
X54442513Y-57598387D01*
X54449626Y-57621836D01*
X54461177Y-57643447D01*
X54476723Y-57662389D01*
X54495665Y-57677934D01*
X54517275Y-57689485D01*
X54540724Y-57696598D01*
X54565110Y-57699000D01*
X54926000Y-57699000D01*
X54926000Y-60801000D01*
X54565110Y-60801000D01*
X54540724Y-60803402D01*
X54517275Y-60810515D01*
X54495664Y-60822066D01*
X54476722Y-60837611D01*
X54461177Y-60856553D01*
X54449626Y-60878164D01*
X54442513Y-60901613D01*
X54440111Y-60925999D01*
X54442513Y-60950385D01*
X54449626Y-60973834D01*
X54461177Y-60995445D01*
X54476722Y-61014387D01*
X54495664Y-61029932D01*
X54517272Y-61041481D01*
X54567574Y-61062317D01*
X54588052Y-61076000D01*
X54694669Y-61147239D01*
X54802761Y-61255331D01*
X54887681Y-61382423D01*
X54887683Y-61382426D01*
X54898984Y-61409710D01*
X54946180Y-61523652D01*
X54976000Y-61673569D01*
X54976000Y-61826431D01*
X54958207Y-61915885D01*
X54946179Y-61976351D01*
X54887683Y-62117574D01*
X54887681Y-62117577D01*
X54802761Y-62244669D01*
X54694669Y-62352761D01*
X54644064Y-62386574D01*
X54567574Y-62437683D01*
X54426351Y-62496179D01*
X54426350Y-62496179D01*
X54426348Y-62496180D01*
X54276431Y-62526000D01*
X54123569Y-62526000D01*
X53973652Y-62496180D01*
X53973650Y-62496179D01*
X53973649Y-62496179D01*
X53832426Y-62437683D01*
X53755936Y-62386574D01*
X53705331Y-62352761D01*
X53597239Y-62244669D01*
X53512319Y-62117577D01*
X53512317Y-62117574D01*
X53453821Y-61976351D01*
X53441794Y-61915885D01*
X53424000Y-61826431D01*
X53424000Y-61673569D01*
X53453820Y-61523652D01*
X53501016Y-61409710D01*
X53512317Y-61382426D01*
X53512319Y-61382423D01*
X53597239Y-61255331D01*
X53705331Y-61147239D01*
X53811948Y-61076000D01*
X53832426Y-61062317D01*
X53882728Y-61041481D01*
X53904336Y-61029932D01*
X53923278Y-61014386D01*
X53938823Y-60995444D01*
X53950374Y-60973834D01*
X53957487Y-60950385D01*
X53959889Y-60925999D01*
X53957487Y-60901613D01*
X53950374Y-60878164D01*
X53938823Y-60856553D01*
X53923277Y-60837611D01*
X53904335Y-60822066D01*
X53882725Y-60810515D01*
X53859276Y-60803402D01*
X53834890Y-60801000D01*
X53474000Y-60801000D01*
X53474000Y-57699000D01*
X53834890Y-57699000D01*
X53859276Y-57696598D01*
X53882725Y-57689485D01*
X53904336Y-57677934D01*
X53923278Y-57662389D01*
X53938823Y-57643447D01*
X53950374Y-57621836D01*
X53957487Y-57598387D01*
X53959889Y-57574001D01*
X53957487Y-57549615D01*
X53950374Y-57526166D01*
X53938823Y-57504555D01*
X53923278Y-57485613D01*
X53904336Y-57470068D01*
X53882728Y-57458519D01*
X53832426Y-57437683D01*
X53789195Y-57408797D01*
X53705331Y-57352761D01*
X53597239Y-57244669D01*
X53512319Y-57117577D01*
X53512317Y-57117574D01*
X53453821Y-56976351D01*
X53449722Y-56955743D01*
X53424000Y-56826431D01*
X53424000Y-56673569D01*
X53453820Y-56523652D01*
X53453821Y-56523649D01*
X53512317Y-56382426D01*
X53528345Y-56358439D01*
X53597239Y-56255331D01*
X53705331Y-56147239D01*
X53832423Y-56062319D01*
X53832426Y-56062317D01*
X53973649Y-56003821D01*
X53973650Y-56003821D01*
X53973652Y-56003820D01*
X54123569Y-55974000D01*
X54276431Y-55974000D01*
X54426348Y-56003820D01*
G37*
G36*
X94001000Y-62426000D02*
G01*
X91899000Y-62426000D01*
X91899000Y-61724000D01*
X94001000Y-61724000D01*
X94001000Y-62426000D01*
G37*
G36*
X84601000Y-62426000D02*
G01*
X82499000Y-62426000D01*
X82499000Y-61724000D01*
X84601000Y-61724000D01*
X84601000Y-62426000D01*
G37*
G36*
X60301000Y-62351000D02*
G01*
X58199000Y-62351000D01*
X58199000Y-61349000D01*
X60301000Y-61349000D01*
X60301000Y-62351000D01*
G37*
G36*
X77301000Y-62351000D02*
G01*
X75199000Y-62351000D01*
X75199000Y-61349000D01*
X77301000Y-61349000D01*
X77301000Y-62351000D01*
G37*
G36*
X57364499Y-60053445D02*
G01*
X57401995Y-60064820D01*
X57436554Y-60083292D01*
X57466847Y-60108153D01*
X57491708Y-60138446D01*
X57510180Y-60173005D01*
X57521555Y-60210501D01*
X57526000Y-60255638D01*
X57526000Y-60994362D01*
X57521555Y-61039499D01*
X57510180Y-61076995D01*
X57491708Y-61111554D01*
X57466847Y-61141847D01*
X57436554Y-61166708D01*
X57401995Y-61185180D01*
X57364499Y-61196555D01*
X57319362Y-61201000D01*
X56680638Y-61201000D01*
X56635501Y-61196555D01*
X56598005Y-61185180D01*
X56563446Y-61166708D01*
X56533153Y-61141847D01*
X56508292Y-61111554D01*
X56489820Y-61076995D01*
X56478445Y-61039499D01*
X56474000Y-60994362D01*
X56474000Y-60255638D01*
X56478445Y-60210501D01*
X56489820Y-60173005D01*
X56508292Y-60138446D01*
X56533153Y-60108153D01*
X56563446Y-60083292D01*
X56598005Y-60064820D01*
X56635501Y-60053445D01*
X56680638Y-60049000D01*
X57319362Y-60049000D01*
X57364499Y-60053445D01*
G37*
G36*
X84601000Y-61156000D02*
G01*
X82499000Y-61156000D01*
X82499000Y-60454000D01*
X84601000Y-60454000D01*
X84601000Y-61156000D01*
G37*
G36*
X94001000Y-61156000D02*
G01*
X91899000Y-61156000D01*
X91899000Y-60454000D01*
X94001000Y-60454000D01*
X94001000Y-61156000D01*
G37*
G36*
X77301000Y-61081000D02*
G01*
X75199000Y-61081000D01*
X75199000Y-60079000D01*
X77301000Y-60079000D01*
X77301000Y-61081000D01*
G37*
G36*
X60301000Y-61081000D02*
G01*
X58199000Y-61081000D01*
X58199000Y-60079000D01*
X60301000Y-60079000D01*
X60301000Y-61081000D01*
G37*
G36*
X116490935Y-59455742D02*
G01*
X116641258Y-59518008D01*
X116776545Y-59608404D01*
X116891596Y-59723455D01*
X116981992Y-59858742D01*
X117044258Y-60009065D01*
X117076000Y-60168646D01*
X117076000Y-60331354D01*
X117044258Y-60490935D01*
X116981992Y-60641258D01*
X116891596Y-60776545D01*
X116776545Y-60891596D01*
X116641258Y-60981992D01*
X116490935Y-61044258D01*
X116331354Y-61076000D01*
X116168646Y-61076000D01*
X116009065Y-61044258D01*
X115858742Y-60981992D01*
X115723455Y-60891596D01*
X115608404Y-60776545D01*
X115518008Y-60641258D01*
X115455742Y-60490935D01*
X115424000Y-60331354D01*
X115424000Y-60168646D01*
X115455742Y-60009065D01*
X115518008Y-59858742D01*
X115608404Y-59723455D01*
X115723455Y-59608404D01*
X115858742Y-59518008D01*
X116009065Y-59455742D01*
X116168646Y-59424000D01*
X116331354Y-59424000D01*
X116490935Y-59455742D01*
G37*
G36*
X52501000Y-61051000D02*
G01*
X50499000Y-61051000D01*
X50499000Y-59449000D01*
X52501000Y-59449000D01*
X52501000Y-61051000D01*
G37*
G36*
X94001000Y-59886000D02*
G01*
X91899000Y-59886000D01*
X91899000Y-59184000D01*
X94001000Y-59184000D01*
X94001000Y-59886000D01*
G37*
G36*
X84601000Y-59886000D02*
G01*
X82499000Y-59886000D01*
X82499000Y-59184000D01*
X84601000Y-59184000D01*
X84601000Y-59886000D01*
G37*
G36*
X77301000Y-59811000D02*
G01*
X75199000Y-59811000D01*
X75199000Y-58809000D01*
X77301000Y-58809000D01*
X77301000Y-59811000D01*
G37*
G36*
X60301000Y-59811000D02*
G01*
X58199000Y-59811000D01*
X58199000Y-58809000D01*
X60301000Y-58809000D01*
X60301000Y-59811000D01*
G37*
G36*
X52501000Y-59051000D02*
G01*
X50499000Y-59051000D01*
X50499000Y-57449000D01*
X52501000Y-57449000D01*
X52501000Y-59051000D01*
G37*
G36*
X57275562Y-57478181D02*
G01*
X57310481Y-57488774D01*
X57342663Y-57505976D01*
X57370873Y-57529127D01*
X57394024Y-57557337D01*
X57411226Y-57589519D01*
X57421819Y-57624438D01*
X57426000Y-57666895D01*
X57426000Y-58808105D01*
X57421819Y-58850562D01*
X57411226Y-58885481D01*
X57394024Y-58917663D01*
X57370873Y-58945873D01*
X57342663Y-58969024D01*
X57310481Y-58986226D01*
X57275562Y-58996819D01*
X57233105Y-59001000D01*
X55766895Y-59001000D01*
X55724438Y-58996819D01*
X55689519Y-58986226D01*
X55657337Y-58969024D01*
X55629127Y-58945873D01*
X55605976Y-58917663D01*
X55588774Y-58885481D01*
X55578181Y-58850562D01*
X55574000Y-58808105D01*
X55574000Y-57666895D01*
X55578181Y-57624438D01*
X55588774Y-57589519D01*
X55605976Y-57557337D01*
X55629127Y-57529127D01*
X55657337Y-57505976D01*
X55689519Y-57488774D01*
X55724438Y-57478181D01*
X55766895Y-57474000D01*
X57233105Y-57474000D01*
X57275562Y-57478181D01*
G37*
G36*
X94001000Y-58616000D02*
G01*
X91899000Y-58616000D01*
X91899000Y-57914000D01*
X94001000Y-57914000D01*
X94001000Y-58616000D01*
G37*
G36*
X84601000Y-58616000D02*
G01*
X82499000Y-58616000D01*
X82499000Y-57914000D01*
X84601000Y-57914000D01*
X84601000Y-58616000D01*
G37*
G36*
X111490935Y-56955742D02*
G01*
X111641258Y-57018008D01*
X111776545Y-57108404D01*
X111891596Y-57223455D01*
X111981992Y-57358742D01*
X112044258Y-57509065D01*
X112076000Y-57668646D01*
X112076000Y-57831354D01*
X112044258Y-57990935D01*
X111981992Y-58141258D01*
X111891596Y-58276545D01*
X111776545Y-58391596D01*
X111641258Y-58481992D01*
X111490935Y-58544258D01*
X111331354Y-58576000D01*
X111168646Y-58576000D01*
X111009065Y-58544258D01*
X110858742Y-58481992D01*
X110723455Y-58391596D01*
X110608404Y-58276545D01*
X110518008Y-58141258D01*
X110455742Y-57990935D01*
X110424000Y-57831354D01*
X110424000Y-57668646D01*
X110455742Y-57509065D01*
X110518008Y-57358742D01*
X110608404Y-57223455D01*
X110723455Y-57108404D01*
X110858742Y-57018008D01*
X111009065Y-56955742D01*
X111168646Y-56924000D01*
X111331354Y-56924000D01*
X111490935Y-56955742D01*
G37*
G36*
X60301000Y-58541000D02*
G01*
X58199000Y-58541000D01*
X58199000Y-57539000D01*
X60301000Y-57539000D01*
X60301000Y-58541000D01*
G37*
G36*
X77301000Y-58541000D02*
G01*
X75199000Y-58541000D01*
X75199000Y-57539000D01*
X77301000Y-57539000D01*
X77301000Y-58541000D01*
G37*
G36*
X126520104Y-56609585D02*
G01*
X126688626Y-56679389D01*
X126840291Y-56780728D01*
X126969272Y-56909709D01*
X127070611Y-57061374D01*
X127140415Y-57229896D01*
X127176000Y-57408797D01*
X127176000Y-57591203D01*
X127140415Y-57770104D01*
X127070611Y-57938626D01*
X126969272Y-58090291D01*
X126840291Y-58219272D01*
X126688626Y-58320611D01*
X126520104Y-58390415D01*
X126341203Y-58426000D01*
X126158797Y-58426000D01*
X125979896Y-58390415D01*
X125811374Y-58320611D01*
X125659709Y-58219272D01*
X125530728Y-58090291D01*
X125429389Y-57938626D01*
X125359585Y-57770104D01*
X125324000Y-57591203D01*
X125324000Y-57408797D01*
X125359585Y-57229896D01*
X125429389Y-57061374D01*
X125530728Y-56909709D01*
X125659709Y-56780728D01*
X125811374Y-56679389D01*
X125979896Y-56609585D01*
X126158797Y-56574000D01*
X126341203Y-56574000D01*
X126520104Y-56609585D01*
G37*
G36*
X120864499Y-57053445D02*
G01*
X120901995Y-57064820D01*
X120936554Y-57083292D01*
X120966847Y-57108153D01*
X120991708Y-57138446D01*
X121010180Y-57173005D01*
X121021555Y-57210501D01*
X121026000Y-57255638D01*
X121026000Y-57994362D01*
X121021555Y-58039499D01*
X121010180Y-58076995D01*
X120991708Y-58111554D01*
X120966847Y-58141847D01*
X120936554Y-58166708D01*
X120901995Y-58185180D01*
X120864499Y-58196555D01*
X120819362Y-58201000D01*
X120180638Y-58201000D01*
X120135501Y-58196555D01*
X120098005Y-58185180D01*
X120063446Y-58166708D01*
X120033153Y-58141847D01*
X120008292Y-58111554D01*
X119989820Y-58076995D01*
X119978445Y-58039499D01*
X119974000Y-57994362D01*
X119974000Y-57255638D01*
X119978445Y-57210501D01*
X119989820Y-57173005D01*
X120008292Y-57138446D01*
X120033153Y-57108153D01*
X120063446Y-57083292D01*
X120098005Y-57064820D01*
X120135501Y-57053445D01*
X120180638Y-57049000D01*
X120819362Y-57049000D01*
X120864499Y-57053445D01*
G37*
G36*
X119114499Y-57053445D02*
G01*
X119151995Y-57064820D01*
X119186554Y-57083292D01*
X119216847Y-57108153D01*
X119241708Y-57138446D01*
X119260180Y-57173005D01*
X119271555Y-57210501D01*
X119276000Y-57255638D01*
X119276000Y-57994362D01*
X119271555Y-58039499D01*
X119260180Y-58076995D01*
X119241708Y-58111554D01*
X119216847Y-58141847D01*
X119186554Y-58166708D01*
X119151995Y-58185180D01*
X119114499Y-58196555D01*
X119069362Y-58201000D01*
X118430638Y-58201000D01*
X118385501Y-58196555D01*
X118348005Y-58185180D01*
X118313446Y-58166708D01*
X118283153Y-58141847D01*
X118258292Y-58111554D01*
X118239820Y-58076995D01*
X118228445Y-58039499D01*
X118224000Y-57994362D01*
X118224000Y-57255638D01*
X118228445Y-57210501D01*
X118239820Y-57173005D01*
X118258292Y-57138446D01*
X118283153Y-57108153D01*
X118313446Y-57083292D01*
X118348005Y-57064820D01*
X118385501Y-57053445D01*
X118430638Y-57049000D01*
X119069362Y-57049000D01*
X119114499Y-57053445D01*
G37*
G36*
X123974795Y-55170156D02*
G01*
X124081150Y-55191311D01*
X124146362Y-55218323D01*
X124281520Y-55274307D01*
X124461844Y-55394795D01*
X124615205Y-55548156D01*
X124735693Y-55728480D01*
X124735693Y-55728481D01*
X124818689Y-55928850D01*
X124833602Y-56003821D01*
X124861000Y-56141560D01*
X124861000Y-56358440D01*
X124857911Y-56373969D01*
X124818689Y-56571150D01*
X124802768Y-56609586D01*
X124735693Y-56771520D01*
X124615205Y-56951844D01*
X124461844Y-57105205D01*
X124281520Y-57225693D01*
X124209226Y-57255638D01*
X124081150Y-57308689D01*
X123974795Y-57329844D01*
X123868440Y-57351000D01*
X123651560Y-57351000D01*
X123545205Y-57329844D01*
X123438850Y-57308689D01*
X123310774Y-57255638D01*
X123238480Y-57225693D01*
X123058156Y-57105205D01*
X122904795Y-56951844D01*
X122784307Y-56771520D01*
X122717232Y-56609586D01*
X122701311Y-56571150D01*
X122662089Y-56373969D01*
X122659000Y-56358440D01*
X122659000Y-56141560D01*
X122686398Y-56003821D01*
X122701311Y-55928850D01*
X122784307Y-55728481D01*
X122784307Y-55728480D01*
X122904795Y-55548156D01*
X123058156Y-55394795D01*
X123238480Y-55274307D01*
X123373638Y-55218323D01*
X123438850Y-55191311D01*
X123545205Y-55170156D01*
X123651560Y-55149000D01*
X123868440Y-55149000D01*
X123974795Y-55170156D01*
G37*
G36*
X77301000Y-57271000D02*
G01*
X75199000Y-57271000D01*
X75199000Y-56269000D01*
X77301000Y-56269000D01*
X77301000Y-57271000D01*
G37*
G36*
X60301000Y-57271000D02*
G01*
X58199000Y-57271000D01*
X58199000Y-56269000D01*
X60301000Y-56269000D01*
X60301000Y-57271000D01*
G37*
G36*
X51913855Y-55102140D02*
G01*
X51977618Y-55108420D01*
X52068404Y-55135960D01*
X52100336Y-55145646D01*
X52213425Y-55206094D01*
X52312554Y-55287446D01*
X52393906Y-55386575D01*
X52454354Y-55499664D01*
X52454355Y-55499668D01*
X52487913Y-55610292D01*
X52497287Y-55632925D01*
X52501000Y-55638482D01*
X52501000Y-55711886D01*
X52501602Y-55724138D01*
X52504149Y-55750000D01*
X52501602Y-55775862D01*
X52501000Y-55788114D01*
X52501000Y-57001000D01*
X50499000Y-57001000D01*
X50499000Y-55788114D01*
X50498398Y-55775862D01*
X50495851Y-55750000D01*
X50498398Y-55724138D01*
X50499000Y-55711886D01*
X50499000Y-55638594D01*
X50507957Y-55621836D01*
X50512085Y-55610299D01*
X50545645Y-55499668D01*
X50545646Y-55499664D01*
X50606094Y-55386575D01*
X50687446Y-55287446D01*
X50786575Y-55206094D01*
X50899664Y-55145646D01*
X50931596Y-55135960D01*
X51022382Y-55108420D01*
X51086145Y-55102140D01*
X51118026Y-55099000D01*
X51881974Y-55099000D01*
X51913855Y-55102140D01*
G37*
G36*
X89401000Y-56501000D02*
G01*
X88499000Y-56501000D01*
X88499000Y-55499000D01*
X89401000Y-55499000D01*
X89401000Y-56501000D01*
G37*
G36*
X87501000Y-56501000D02*
G01*
X86599000Y-56501000D01*
X86599000Y-55499000D01*
X87501000Y-55499000D01*
X87501000Y-56501000D01*
G37*
G36*
X119114499Y-55303445D02*
G01*
X119151995Y-55314820D01*
X119186554Y-55333292D01*
X119216847Y-55358153D01*
X119241708Y-55388446D01*
X119260180Y-55423005D01*
X119271555Y-55460501D01*
X119276000Y-55505638D01*
X119276000Y-56244362D01*
X119271555Y-56289499D01*
X119260180Y-56326995D01*
X119241708Y-56361554D01*
X119216847Y-56391847D01*
X119186554Y-56416708D01*
X119151995Y-56435180D01*
X119114499Y-56446555D01*
X119069362Y-56451000D01*
X118430638Y-56451000D01*
X118385501Y-56446555D01*
X118348005Y-56435180D01*
X118313446Y-56416708D01*
X118283153Y-56391847D01*
X118258292Y-56361554D01*
X118239820Y-56326995D01*
X118228445Y-56289499D01*
X118224000Y-56244362D01*
X118224000Y-55505638D01*
X118228445Y-55460501D01*
X118239820Y-55423005D01*
X118258292Y-55388446D01*
X118283153Y-55358153D01*
X118313446Y-55333292D01*
X118348005Y-55314820D01*
X118385501Y-55303445D01*
X118430638Y-55299000D01*
X119069362Y-55299000D01*
X119114499Y-55303445D01*
G37*
G36*
X83364499Y-55303445D02*
G01*
X83401995Y-55314820D01*
X83436554Y-55333292D01*
X83466847Y-55358153D01*
X83491708Y-55388446D01*
X83510180Y-55423005D01*
X83521555Y-55460501D01*
X83526000Y-55505638D01*
X83526000Y-56244362D01*
X83521555Y-56289499D01*
X83510180Y-56326995D01*
X83491708Y-56361554D01*
X83466847Y-56391847D01*
X83436554Y-56416708D01*
X83401995Y-56435180D01*
X83364499Y-56446555D01*
X83319362Y-56451000D01*
X82680638Y-56451000D01*
X82635501Y-56446555D01*
X82598005Y-56435180D01*
X82563446Y-56416708D01*
X82533153Y-56391847D01*
X82508292Y-56361554D01*
X82489820Y-56326995D01*
X82478445Y-56289499D01*
X82474000Y-56244362D01*
X82474000Y-55505638D01*
X82478445Y-55460501D01*
X82489820Y-55423005D01*
X82508292Y-55388446D01*
X82533153Y-55358153D01*
X82563446Y-55333292D01*
X82598005Y-55314820D01*
X82635501Y-55303445D01*
X82680638Y-55299000D01*
X83319362Y-55299000D01*
X83364499Y-55303445D01*
G37*
G36*
X85364499Y-55303445D02*
G01*
X85401995Y-55314820D01*
X85436554Y-55333292D01*
X85466847Y-55358153D01*
X85491708Y-55388446D01*
X85510180Y-55423005D01*
X85521555Y-55460501D01*
X85526000Y-55505638D01*
X85526000Y-56244362D01*
X85521555Y-56289499D01*
X85510180Y-56326995D01*
X85491708Y-56361554D01*
X85466847Y-56391847D01*
X85436554Y-56416708D01*
X85401995Y-56435180D01*
X85364499Y-56446555D01*
X85319362Y-56451000D01*
X84680638Y-56451000D01*
X84635501Y-56446555D01*
X84598005Y-56435180D01*
X84563446Y-56416708D01*
X84533153Y-56391847D01*
X84508292Y-56361554D01*
X84489820Y-56326995D01*
X84478445Y-56289499D01*
X84474000Y-56244362D01*
X84474000Y-55505638D01*
X84478445Y-55460501D01*
X84489820Y-55423005D01*
X84508292Y-55388446D01*
X84533153Y-55358153D01*
X84563446Y-55333292D01*
X84598005Y-55314820D01*
X84635501Y-55303445D01*
X84680638Y-55299000D01*
X85319362Y-55299000D01*
X85364499Y-55303445D01*
G37*
G36*
X120864499Y-55303445D02*
G01*
X120901995Y-55314820D01*
X120936554Y-55333292D01*
X120966847Y-55358153D01*
X120991708Y-55388446D01*
X121010180Y-55423005D01*
X121021555Y-55460501D01*
X121026000Y-55505638D01*
X121026000Y-56244362D01*
X121021555Y-56289499D01*
X121010180Y-56326995D01*
X120991708Y-56361554D01*
X120966847Y-56391847D01*
X120936554Y-56416708D01*
X120901995Y-56435180D01*
X120864499Y-56446555D01*
X120819362Y-56451000D01*
X120180638Y-56451000D01*
X120135501Y-56446555D01*
X120098005Y-56435180D01*
X120063446Y-56416708D01*
X120033153Y-56391847D01*
X120008292Y-56361554D01*
X119989820Y-56326995D01*
X119978445Y-56289499D01*
X119974000Y-56244362D01*
X119974000Y-55505638D01*
X119978445Y-55460501D01*
X119989820Y-55423005D01*
X120008292Y-55388446D01*
X120033153Y-55358153D01*
X120063446Y-55333292D01*
X120098005Y-55314820D01*
X120135501Y-55303445D01*
X120180638Y-55299000D01*
X120819362Y-55299000D01*
X120864499Y-55303445D01*
G37*
G36*
X108764499Y-55178445D02*
G01*
X108801995Y-55189820D01*
X108836554Y-55208292D01*
X108866847Y-55233153D01*
X108891708Y-55263446D01*
X108910180Y-55298005D01*
X108921555Y-55335501D01*
X108926000Y-55380638D01*
X108926000Y-56119362D01*
X108921555Y-56164499D01*
X108910180Y-56201995D01*
X108891708Y-56236554D01*
X108866847Y-56266847D01*
X108836554Y-56291708D01*
X108801995Y-56310180D01*
X108764499Y-56321555D01*
X108719362Y-56326000D01*
X108080638Y-56326000D01*
X108035501Y-56321555D01*
X107998005Y-56310180D01*
X107963446Y-56291708D01*
X107933153Y-56266847D01*
X107908292Y-56236554D01*
X107889820Y-56201995D01*
X107878445Y-56164499D01*
X107874000Y-56119362D01*
X107874000Y-55380638D01*
X107878445Y-55335501D01*
X107889820Y-55298005D01*
X107908292Y-55263446D01*
X107933153Y-55233153D01*
X107963446Y-55208292D01*
X107998005Y-55189820D01*
X108035501Y-55178445D01*
X108080638Y-55174000D01*
X108719362Y-55174000D01*
X108764499Y-55178445D01*
G37*
G36*
X106144499Y-55178445D02*
G01*
X106181995Y-55189820D01*
X106216554Y-55208292D01*
X106246847Y-55233153D01*
X106271708Y-55263446D01*
X106290180Y-55298005D01*
X106301555Y-55335501D01*
X106306000Y-55380638D01*
X106306000Y-56119362D01*
X106301555Y-56164499D01*
X106290180Y-56201995D01*
X106271708Y-56236554D01*
X106246847Y-56266847D01*
X106216554Y-56291708D01*
X106181995Y-56310180D01*
X106144499Y-56321555D01*
X106099362Y-56326000D01*
X105460638Y-56326000D01*
X105415501Y-56321555D01*
X105378005Y-56310180D01*
X105343446Y-56291708D01*
X105313153Y-56266847D01*
X105288292Y-56236554D01*
X105269820Y-56201995D01*
X105258445Y-56164499D01*
X105254000Y-56119362D01*
X105254000Y-55380638D01*
X105258445Y-55335501D01*
X105269820Y-55298005D01*
X105288292Y-55263446D01*
X105313153Y-55233153D01*
X105343446Y-55208292D01*
X105378005Y-55189820D01*
X105415501Y-55178445D01*
X105460638Y-55174000D01*
X106099362Y-55174000D01*
X106144499Y-55178445D01*
G37*
G36*
X103604499Y-55178445D02*
G01*
X103641995Y-55189820D01*
X103676554Y-55208292D01*
X103706847Y-55233153D01*
X103731708Y-55263446D01*
X103750180Y-55298005D01*
X103761555Y-55335501D01*
X103766000Y-55380638D01*
X103766000Y-56119362D01*
X103761555Y-56164499D01*
X103750180Y-56201995D01*
X103731708Y-56236554D01*
X103706847Y-56266847D01*
X103676554Y-56291708D01*
X103641995Y-56310180D01*
X103604499Y-56321555D01*
X103559362Y-56326000D01*
X102920638Y-56326000D01*
X102875501Y-56321555D01*
X102838005Y-56310180D01*
X102803446Y-56291708D01*
X102773153Y-56266847D01*
X102748292Y-56236554D01*
X102729820Y-56201995D01*
X102718445Y-56164499D01*
X102714000Y-56119362D01*
X102714000Y-55380638D01*
X102718445Y-55335501D01*
X102729820Y-55298005D01*
X102748292Y-55263446D01*
X102773153Y-55233153D01*
X102803446Y-55208292D01*
X102838005Y-55189820D01*
X102875501Y-55178445D01*
X102920638Y-55174000D01*
X103559362Y-55174000D01*
X103604499Y-55178445D01*
G37*
G36*
X101064499Y-55178445D02*
G01*
X101101995Y-55189820D01*
X101136554Y-55208292D01*
X101166847Y-55233153D01*
X101191708Y-55263446D01*
X101210180Y-55298005D01*
X101221555Y-55335501D01*
X101226000Y-55380638D01*
X101226000Y-56119362D01*
X101221555Y-56164499D01*
X101210180Y-56201995D01*
X101191708Y-56236554D01*
X101166847Y-56266847D01*
X101136554Y-56291708D01*
X101101995Y-56310180D01*
X101064499Y-56321555D01*
X101019362Y-56326000D01*
X100380638Y-56326000D01*
X100335501Y-56321555D01*
X100298005Y-56310180D01*
X100263446Y-56291708D01*
X100233153Y-56266847D01*
X100208292Y-56236554D01*
X100189820Y-56201995D01*
X100178445Y-56164499D01*
X100174000Y-56119362D01*
X100174000Y-55380638D01*
X100178445Y-55335501D01*
X100189820Y-55298005D01*
X100208292Y-55263446D01*
X100233153Y-55233153D01*
X100263446Y-55208292D01*
X100298005Y-55189820D01*
X100335501Y-55178445D01*
X100380638Y-55174000D01*
X101019362Y-55174000D01*
X101064499Y-55178445D01*
G37*
G36*
X98524499Y-55178445D02*
G01*
X98561995Y-55189820D01*
X98596554Y-55208292D01*
X98626847Y-55233153D01*
X98651708Y-55263446D01*
X98670180Y-55298005D01*
X98681555Y-55335501D01*
X98686000Y-55380638D01*
X98686000Y-56119362D01*
X98681555Y-56164499D01*
X98670180Y-56201995D01*
X98651708Y-56236554D01*
X98626847Y-56266847D01*
X98596554Y-56291708D01*
X98561995Y-56310180D01*
X98524499Y-56321555D01*
X98479362Y-56326000D01*
X97840638Y-56326000D01*
X97795501Y-56321555D01*
X97758005Y-56310180D01*
X97723446Y-56291708D01*
X97693153Y-56266847D01*
X97668292Y-56236554D01*
X97649820Y-56201995D01*
X97638445Y-56164499D01*
X97634000Y-56119362D01*
X97634000Y-55380638D01*
X97638445Y-55335501D01*
X97649820Y-55298005D01*
X97668292Y-55263446D01*
X97693153Y-55233153D01*
X97723446Y-55208292D01*
X97758005Y-55189820D01*
X97795501Y-55178445D01*
X97840638Y-55174000D01*
X98479362Y-55174000D01*
X98524499Y-55178445D01*
G37*
G36*
X117076000Y-56076000D02*
G01*
X115424000Y-56076000D01*
X115424000Y-54424000D01*
X117076000Y-54424000D01*
X117076000Y-56076000D01*
G37*
G36*
X57275562Y-54503181D02*
G01*
X57310481Y-54513774D01*
X57342663Y-54530976D01*
X57370873Y-54554127D01*
X57394024Y-54582337D01*
X57411226Y-54614519D01*
X57421819Y-54649438D01*
X57426000Y-54691895D01*
X57426000Y-55833105D01*
X57421819Y-55875562D01*
X57411226Y-55910481D01*
X57394024Y-55942663D01*
X57370873Y-55970873D01*
X57342663Y-55994024D01*
X57310481Y-56011226D01*
X57275562Y-56021819D01*
X57233105Y-56026000D01*
X55766895Y-56026000D01*
X55724438Y-56021819D01*
X55689519Y-56011226D01*
X55657337Y-55994024D01*
X55629127Y-55970873D01*
X55605976Y-55942663D01*
X55588774Y-55910481D01*
X55578181Y-55875562D01*
X55574000Y-55833105D01*
X55574000Y-54691895D01*
X55578181Y-54649438D01*
X55588774Y-54614519D01*
X55605976Y-54582337D01*
X55629127Y-54554127D01*
X55657337Y-54530976D01*
X55689519Y-54513774D01*
X55724438Y-54503181D01*
X55766895Y-54499000D01*
X57233105Y-54499000D01*
X57275562Y-54503181D01*
G37*
G36*
X77301000Y-56001000D02*
G01*
X75199000Y-56001000D01*
X75199000Y-54999000D01*
X77301000Y-54999000D01*
X77301000Y-56001000D01*
G37*
G36*
X60301000Y-56001000D02*
G01*
X58199000Y-56001000D01*
X58199000Y-54999000D01*
X60301000Y-54999000D01*
X60301000Y-56001000D01*
G37*
G36*
X83364499Y-53553445D02*
G01*
X83401995Y-53564820D01*
X83436554Y-53583292D01*
X83466847Y-53608153D01*
X83491708Y-53638446D01*
X83510180Y-53673005D01*
X83521555Y-53710501D01*
X83526000Y-53755638D01*
X83526000Y-54494362D01*
X83521555Y-54539499D01*
X83510180Y-54576995D01*
X83491708Y-54611554D01*
X83466847Y-54641847D01*
X83436554Y-54666708D01*
X83401995Y-54685180D01*
X83364499Y-54696555D01*
X83319362Y-54701000D01*
X82680638Y-54701000D01*
X82635501Y-54696555D01*
X82598005Y-54685180D01*
X82563446Y-54666708D01*
X82533153Y-54641847D01*
X82508292Y-54611554D01*
X82489820Y-54576995D01*
X82478445Y-54539499D01*
X82474000Y-54494362D01*
X82474000Y-53755638D01*
X82478445Y-53710501D01*
X82489820Y-53673005D01*
X82508292Y-53638446D01*
X82533153Y-53608153D01*
X82563446Y-53583292D01*
X82598005Y-53564820D01*
X82635501Y-53553445D01*
X82680638Y-53549000D01*
X83319362Y-53549000D01*
X83364499Y-53553445D01*
G37*
G36*
X85364499Y-53553445D02*
G01*
X85401995Y-53564820D01*
X85436554Y-53583292D01*
X85466847Y-53608153D01*
X85491708Y-53638446D01*
X85510180Y-53673005D01*
X85521555Y-53710501D01*
X85526000Y-53755638D01*
X85526000Y-54494362D01*
X85521555Y-54539499D01*
X85510180Y-54576995D01*
X85491708Y-54611554D01*
X85466847Y-54641847D01*
X85436554Y-54666708D01*
X85401995Y-54685180D01*
X85364499Y-54696555D01*
X85319362Y-54701000D01*
X84680638Y-54701000D01*
X84635501Y-54696555D01*
X84598005Y-54685180D01*
X84563446Y-54666708D01*
X84533153Y-54641847D01*
X84508292Y-54611554D01*
X84489820Y-54576995D01*
X84478445Y-54539499D01*
X84474000Y-54494362D01*
X84474000Y-53755638D01*
X84478445Y-53710501D01*
X84489820Y-53673005D01*
X84508292Y-53638446D01*
X84533153Y-53608153D01*
X84563446Y-53583292D01*
X84598005Y-53564820D01*
X84635501Y-53553445D01*
X84680638Y-53549000D01*
X85319362Y-53549000D01*
X85364499Y-53553445D01*
G37*
G36*
X103604499Y-53428445D02*
G01*
X103641995Y-53439820D01*
X103676554Y-53458292D01*
X103706847Y-53483153D01*
X103731708Y-53513446D01*
X103750180Y-53548005D01*
X103761555Y-53585501D01*
X103766000Y-53630638D01*
X103766000Y-54369362D01*
X103761555Y-54414499D01*
X103750180Y-54451995D01*
X103731708Y-54486554D01*
X103706847Y-54516847D01*
X103676554Y-54541708D01*
X103641995Y-54560180D01*
X103604499Y-54571555D01*
X103559362Y-54576000D01*
X102920638Y-54576000D01*
X102875501Y-54571555D01*
X102838005Y-54560180D01*
X102803446Y-54541708D01*
X102773153Y-54516847D01*
X102748292Y-54486554D01*
X102729820Y-54451995D01*
X102718445Y-54414499D01*
X102714000Y-54369362D01*
X102714000Y-53630638D01*
X102718445Y-53585501D01*
X102729820Y-53548005D01*
X102748292Y-53513446D01*
X102773153Y-53483153D01*
X102803446Y-53458292D01*
X102838005Y-53439820D01*
X102875501Y-53428445D01*
X102920638Y-53424000D01*
X103559362Y-53424000D01*
X103604499Y-53428445D01*
G37*
G36*
X108764499Y-53428445D02*
G01*
X108801995Y-53439820D01*
X108836554Y-53458292D01*
X108866847Y-53483153D01*
X108891708Y-53513446D01*
X108910180Y-53548005D01*
X108921555Y-53585501D01*
X108926000Y-53630638D01*
X108926000Y-54369362D01*
X108921555Y-54414499D01*
X108910180Y-54451995D01*
X108891708Y-54486554D01*
X108866847Y-54516847D01*
X108836554Y-54541708D01*
X108801995Y-54560180D01*
X108764499Y-54571555D01*
X108719362Y-54576000D01*
X108080638Y-54576000D01*
X108035501Y-54571555D01*
X107998005Y-54560180D01*
X107963446Y-54541708D01*
X107933153Y-54516847D01*
X107908292Y-54486554D01*
X107889820Y-54451995D01*
X107878445Y-54414499D01*
X107874000Y-54369362D01*
X107874000Y-53630638D01*
X107878445Y-53585501D01*
X107889820Y-53548005D01*
X107908292Y-53513446D01*
X107933153Y-53483153D01*
X107963446Y-53458292D01*
X107998005Y-53439820D01*
X108035501Y-53428445D01*
X108080638Y-53424000D01*
X108719362Y-53424000D01*
X108764499Y-53428445D01*
G37*
G36*
X106144499Y-53428445D02*
G01*
X106181995Y-53439820D01*
X106216554Y-53458292D01*
X106246847Y-53483153D01*
X106271708Y-53513446D01*
X106290180Y-53548005D01*
X106301555Y-53585501D01*
X106306000Y-53630638D01*
X106306000Y-54369362D01*
X106301555Y-54414499D01*
X106290180Y-54451995D01*
X106271708Y-54486554D01*
X106246847Y-54516847D01*
X106216554Y-54541708D01*
X106181995Y-54560180D01*
X106144499Y-54571555D01*
X106099362Y-54576000D01*
X105460638Y-54576000D01*
X105415501Y-54571555D01*
X105378005Y-54560180D01*
X105343446Y-54541708D01*
X105313153Y-54516847D01*
X105288292Y-54486554D01*
X105269820Y-54451995D01*
X105258445Y-54414499D01*
X105254000Y-54369362D01*
X105254000Y-53630638D01*
X105258445Y-53585501D01*
X105269820Y-53548005D01*
X105288292Y-53513446D01*
X105313153Y-53483153D01*
X105343446Y-53458292D01*
X105378005Y-53439820D01*
X105415501Y-53428445D01*
X105460638Y-53424000D01*
X106099362Y-53424000D01*
X106144499Y-53428445D01*
G37*
G36*
X101064499Y-53428445D02*
G01*
X101101995Y-53439820D01*
X101136554Y-53458292D01*
X101166847Y-53483153D01*
X101191708Y-53513446D01*
X101210180Y-53548005D01*
X101221555Y-53585501D01*
X101226000Y-53630638D01*
X101226000Y-54369362D01*
X101221555Y-54414499D01*
X101210180Y-54451995D01*
X101191708Y-54486554D01*
X101166847Y-54516847D01*
X101136554Y-54541708D01*
X101101995Y-54560180D01*
X101064499Y-54571555D01*
X101019362Y-54576000D01*
X100380638Y-54576000D01*
X100335501Y-54571555D01*
X100298005Y-54560180D01*
X100263446Y-54541708D01*
X100233153Y-54516847D01*
X100208292Y-54486554D01*
X100189820Y-54451995D01*
X100178445Y-54414499D01*
X100174000Y-54369362D01*
X100174000Y-53630638D01*
X100178445Y-53585501D01*
X100189820Y-53548005D01*
X100208292Y-53513446D01*
X100233153Y-53483153D01*
X100263446Y-53458292D01*
X100298005Y-53439820D01*
X100335501Y-53428445D01*
X100380638Y-53424000D01*
X101019362Y-53424000D01*
X101064499Y-53428445D01*
G37*
G36*
X98524499Y-53428445D02*
G01*
X98561995Y-53439820D01*
X98596554Y-53458292D01*
X98626847Y-53483153D01*
X98651708Y-53513446D01*
X98670180Y-53548005D01*
X98681555Y-53585501D01*
X98686000Y-53630638D01*
X98686000Y-54369362D01*
X98681555Y-54414499D01*
X98670180Y-54451995D01*
X98651708Y-54486554D01*
X98626847Y-54516847D01*
X98596554Y-54541708D01*
X98561995Y-54560180D01*
X98524499Y-54571555D01*
X98479362Y-54576000D01*
X97840638Y-54576000D01*
X97795501Y-54571555D01*
X97758005Y-54560180D01*
X97723446Y-54541708D01*
X97693153Y-54516847D01*
X97668292Y-54486554D01*
X97649820Y-54451995D01*
X97638445Y-54414499D01*
X97634000Y-54369362D01*
X97634000Y-53630638D01*
X97638445Y-53585501D01*
X97649820Y-53548005D01*
X97668292Y-53513446D01*
X97693153Y-53483153D01*
X97723446Y-53458292D01*
X97758005Y-53439820D01*
X97795501Y-53428445D01*
X97840638Y-53424000D01*
X98479362Y-53424000D01*
X98524499Y-53428445D01*
G37*
G36*
X88451000Y-54501000D02*
G01*
X87549000Y-54501000D01*
X87549000Y-53499000D01*
X88451000Y-53499000D01*
X88451000Y-54501000D01*
G37*
G36*
X121014499Y-53378445D02*
G01*
X121051995Y-53389820D01*
X121086554Y-53408292D01*
X121116847Y-53433153D01*
X121141708Y-53463446D01*
X121160180Y-53498005D01*
X121171555Y-53535501D01*
X121176000Y-53580638D01*
X121176000Y-54219362D01*
X121171555Y-54264499D01*
X121160180Y-54301995D01*
X121141708Y-54336554D01*
X121116847Y-54366847D01*
X121086554Y-54391708D01*
X121051995Y-54410180D01*
X121014499Y-54421555D01*
X120969362Y-54426000D01*
X120230638Y-54426000D01*
X120185501Y-54421555D01*
X120148005Y-54410180D01*
X120113446Y-54391708D01*
X120083153Y-54366847D01*
X120058292Y-54336554D01*
X120039820Y-54301995D01*
X120028445Y-54264499D01*
X120024000Y-54219362D01*
X120024000Y-53580638D01*
X120028445Y-53535501D01*
X120039820Y-53498005D01*
X120058292Y-53463446D01*
X120083153Y-53433153D01*
X120113446Y-53408292D01*
X120148005Y-53389820D01*
X120185501Y-53378445D01*
X120230638Y-53374000D01*
X120969362Y-53374000D01*
X121014499Y-53378445D01*
G37*
G36*
X119264499Y-53378445D02*
G01*
X119301995Y-53389820D01*
X119336554Y-53408292D01*
X119366847Y-53433153D01*
X119391708Y-53463446D01*
X119410180Y-53498005D01*
X119421555Y-53535501D01*
X119426000Y-53580638D01*
X119426000Y-54219362D01*
X119421555Y-54264499D01*
X119410180Y-54301995D01*
X119391708Y-54336554D01*
X119366847Y-54366847D01*
X119336554Y-54391708D01*
X119301995Y-54410180D01*
X119264499Y-54421555D01*
X119219362Y-54426000D01*
X118480638Y-54426000D01*
X118435501Y-54421555D01*
X118398005Y-54410180D01*
X118363446Y-54391708D01*
X118333153Y-54366847D01*
X118308292Y-54336554D01*
X118289820Y-54301995D01*
X118278445Y-54264499D01*
X118274000Y-54219362D01*
X118274000Y-53580638D01*
X118278445Y-53535501D01*
X118289820Y-53498005D01*
X118308292Y-53463446D01*
X118333153Y-53433153D01*
X118363446Y-53408292D01*
X118398005Y-53389820D01*
X118435501Y-53378445D01*
X118480638Y-53374000D01*
X119219362Y-53374000D01*
X119264499Y-53378445D01*
G37*
G36*
X126801685Y-49048802D02*
G01*
X126951510Y-49078604D01*
X127233774Y-49195521D01*
X127487805Y-49365259D01*
X127703841Y-49581295D01*
X127873579Y-49835326D01*
X127990496Y-50117590D01*
X128050100Y-50417240D01*
X128050100Y-50722760D01*
X127990496Y-51022410D01*
X127873579Y-51304674D01*
X127703841Y-51558705D01*
X127487805Y-51774741D01*
X127233774Y-51944479D01*
X126951510Y-52061396D01*
X126801685Y-52091198D01*
X126651861Y-52121000D01*
X126346339Y-52121000D01*
X126196515Y-52091198D01*
X126046690Y-52061396D01*
X125764426Y-51944479D01*
X125510395Y-51774741D01*
X125294359Y-51558705D01*
X125124621Y-51304674D01*
X125007704Y-51022410D01*
X124948100Y-50722760D01*
X124948100Y-50417240D01*
X125007704Y-50117590D01*
X125124621Y-49835326D01*
X125294359Y-49581295D01*
X125510395Y-49365259D01*
X125764426Y-49195521D01*
X126046690Y-49078604D01*
X126196515Y-49048802D01*
X126346339Y-49019000D01*
X126651861Y-49019000D01*
X126801685Y-49048802D01*
G37*
G36*
X51802585Y-49048802D02*
G01*
X51952410Y-49078604D01*
X52234674Y-49195521D01*
X52488705Y-49365259D01*
X52704741Y-49581295D01*
X52874479Y-49835326D01*
X52991396Y-50117590D01*
X53051000Y-50417240D01*
X53051000Y-50722760D01*
X52991396Y-51022410D01*
X52874479Y-51304674D01*
X52704741Y-51558705D01*
X52488705Y-51774741D01*
X52234674Y-51944479D01*
X51952410Y-52061396D01*
X51802585Y-52091198D01*
X51652761Y-52121000D01*
X51347239Y-52121000D01*
X51197415Y-52091198D01*
X51047590Y-52061396D01*
X50765326Y-51944479D01*
X50511295Y-51774741D01*
X50295259Y-51558705D01*
X50125521Y-51304674D01*
X50008604Y-51022410D01*
X49949000Y-50722760D01*
X49949000Y-50417240D01*
X50008604Y-50117590D01*
X50125521Y-49835326D01*
X50295259Y-49581295D01*
X50511295Y-49365259D01*
X50765326Y-49195521D01*
X51047590Y-49078604D01*
X51197415Y-49048802D01*
X51347239Y-49019000D01*
X51652761Y-49019000D01*
X51802585Y-49048802D01*
G37*
G36*
X111026425Y-49232760D02*
G01*
X111026428Y-49232761D01*
X111026429Y-49232761D01*
X111205693Y-49287140D01*
X111205696Y-49287142D01*
X111205697Y-49287142D01*
X111370903Y-49375446D01*
X111515712Y-49494288D01*
X111634554Y-49639097D01*
X111722859Y-49804305D01*
X111777240Y-49983574D01*
X111791000Y-50123283D01*
X111791000Y-51016718D01*
X111777240Y-51156425D01*
X111777239Y-51156428D01*
X111777239Y-51156429D01*
X111722860Y-51335693D01*
X111722858Y-51335696D01*
X111722858Y-51335697D01*
X111634554Y-51500903D01*
X111515712Y-51645712D01*
X111370903Y-51764554D01*
X111205696Y-51852858D01*
X111205692Y-51852860D01*
X111026428Y-51907239D01*
X111026427Y-51907239D01*
X111026424Y-51907240D01*
X110840000Y-51925601D01*
X110653575Y-51907240D01*
X110653572Y-51907239D01*
X110653571Y-51907239D01*
X110474307Y-51852860D01*
X110474303Y-51852858D01*
X110309097Y-51764554D01*
X110164288Y-51645712D01*
X110045446Y-51500903D01*
X109957142Y-51335696D01*
X109957141Y-51335693D01*
X109957140Y-51335692D01*
X109902761Y-51156428D01*
X109902761Y-51156427D01*
X109902760Y-51156424D01*
X109889000Y-51016717D01*
X109889000Y-50123282D01*
X109902760Y-49983570D01*
X109957140Y-49804308D01*
X110045447Y-49639097D01*
X110164289Y-49494288D01*
X110309098Y-49375446D01*
X110474304Y-49287142D01*
X110474305Y-49287142D01*
X110474308Y-49287140D01*
X110653572Y-49232761D01*
X110653573Y-49232761D01*
X110653576Y-49232760D01*
X110840000Y-49214399D01*
X111026425Y-49232760D01*
G37*
G36*
X118646425Y-49232760D02*
G01*
X118646428Y-49232761D01*
X118646429Y-49232761D01*
X118825693Y-49287140D01*
X118825696Y-49287142D01*
X118825697Y-49287142D01*
X118990903Y-49375446D01*
X119135712Y-49494288D01*
X119254554Y-49639097D01*
X119342859Y-49804305D01*
X119397240Y-49983574D01*
X119411000Y-50123283D01*
X119411000Y-51016718D01*
X119397240Y-51156425D01*
X119397239Y-51156428D01*
X119397239Y-51156429D01*
X119342860Y-51335693D01*
X119342858Y-51335696D01*
X119342858Y-51335697D01*
X119254554Y-51500903D01*
X119135712Y-51645712D01*
X118990903Y-51764554D01*
X118825696Y-51852858D01*
X118825692Y-51852860D01*
X118646428Y-51907239D01*
X118646427Y-51907239D01*
X118646424Y-51907240D01*
X118460000Y-51925601D01*
X118273575Y-51907240D01*
X118273572Y-51907239D01*
X118273571Y-51907239D01*
X118094307Y-51852860D01*
X118094303Y-51852858D01*
X117929097Y-51764554D01*
X117784288Y-51645712D01*
X117665446Y-51500903D01*
X117577142Y-51335696D01*
X117577141Y-51335693D01*
X117577140Y-51335692D01*
X117522761Y-51156428D01*
X117522761Y-51156427D01*
X117522760Y-51156424D01*
X117509000Y-51016717D01*
X117509000Y-50123282D01*
X117522760Y-49983570D01*
X117577140Y-49804308D01*
X117665447Y-49639097D01*
X117784289Y-49494288D01*
X117929098Y-49375446D01*
X118094304Y-49287142D01*
X118094305Y-49287142D01*
X118094308Y-49287140D01*
X118273572Y-49232761D01*
X118273573Y-49232761D01*
X118273576Y-49232760D01*
X118460000Y-49214399D01*
X118646425Y-49232760D01*
G37*
G36*
X116106425Y-49232760D02*
G01*
X116106428Y-49232761D01*
X116106429Y-49232761D01*
X116285693Y-49287140D01*
X116285696Y-49287142D01*
X116285697Y-49287142D01*
X116450903Y-49375446D01*
X116595712Y-49494288D01*
X116714554Y-49639097D01*
X116802859Y-49804305D01*
X116857240Y-49983574D01*
X116871000Y-50123283D01*
X116871000Y-51016718D01*
X116857240Y-51156425D01*
X116857239Y-51156428D01*
X116857239Y-51156429D01*
X116802860Y-51335693D01*
X116802858Y-51335696D01*
X116802858Y-51335697D01*
X116714554Y-51500903D01*
X116595712Y-51645712D01*
X116450903Y-51764554D01*
X116285696Y-51852858D01*
X116285692Y-51852860D01*
X116106428Y-51907239D01*
X116106427Y-51907239D01*
X116106424Y-51907240D01*
X115920000Y-51925601D01*
X115733575Y-51907240D01*
X115733572Y-51907239D01*
X115733571Y-51907239D01*
X115554307Y-51852860D01*
X115554303Y-51852858D01*
X115389097Y-51764554D01*
X115244288Y-51645712D01*
X115125446Y-51500903D01*
X115037142Y-51335696D01*
X115037141Y-51335693D01*
X115037140Y-51335692D01*
X114982761Y-51156428D01*
X114982761Y-51156427D01*
X114982760Y-51156424D01*
X114969000Y-51016717D01*
X114969000Y-50123282D01*
X114982760Y-49983570D01*
X115037140Y-49804308D01*
X115125447Y-49639097D01*
X115244289Y-49494288D01*
X115389098Y-49375446D01*
X115554304Y-49287142D01*
X115554305Y-49287142D01*
X115554308Y-49287140D01*
X115733572Y-49232761D01*
X115733573Y-49232761D01*
X115733576Y-49232760D01*
X115920000Y-49214399D01*
X116106425Y-49232760D01*
G37*
G36*
X113566425Y-49232760D02*
G01*
X113566428Y-49232761D01*
X113566429Y-49232761D01*
X113745693Y-49287140D01*
X113745696Y-49287142D01*
X113745697Y-49287142D01*
X113910903Y-49375446D01*
X114055712Y-49494288D01*
X114174554Y-49639097D01*
X114262859Y-49804305D01*
X114317240Y-49983574D01*
X114331000Y-50123283D01*
X114331000Y-51016718D01*
X114317240Y-51156425D01*
X114317239Y-51156428D01*
X114317239Y-51156429D01*
X114262860Y-51335693D01*
X114262858Y-51335696D01*
X114262858Y-51335697D01*
X114174554Y-51500903D01*
X114055712Y-51645712D01*
X113910903Y-51764554D01*
X113745696Y-51852858D01*
X113745692Y-51852860D01*
X113566428Y-51907239D01*
X113566427Y-51907239D01*
X113566424Y-51907240D01*
X113380000Y-51925601D01*
X113193575Y-51907240D01*
X113193572Y-51907239D01*
X113193571Y-51907239D01*
X113014307Y-51852860D01*
X113014303Y-51852858D01*
X112849097Y-51764554D01*
X112704288Y-51645712D01*
X112585446Y-51500903D01*
X112497142Y-51335696D01*
X112497141Y-51335693D01*
X112497140Y-51335692D01*
X112442761Y-51156428D01*
X112442761Y-51156427D01*
X112442760Y-51156424D01*
X112429000Y-51016717D01*
X112429000Y-50123282D01*
X112442760Y-49983570D01*
X112497140Y-49804308D01*
X112585447Y-49639097D01*
X112704289Y-49494288D01*
X112849098Y-49375446D01*
X113014304Y-49287142D01*
X113014305Y-49287142D01*
X113014308Y-49287140D01*
X113193572Y-49232761D01*
X113193573Y-49232761D01*
X113193576Y-49232760D01*
X113380000Y-49214399D01*
X113566425Y-49232760D01*
G37*
G36*
X83086425Y-49232760D02*
G01*
X83086428Y-49232761D01*
X83086429Y-49232761D01*
X83265693Y-49287140D01*
X83265696Y-49287142D01*
X83265697Y-49287142D01*
X83430903Y-49375446D01*
X83575712Y-49494288D01*
X83694554Y-49639097D01*
X83782859Y-49804305D01*
X83837240Y-49983574D01*
X83851000Y-50123283D01*
X83851000Y-51016718D01*
X83837240Y-51156425D01*
X83837239Y-51156428D01*
X83837239Y-51156429D01*
X83782860Y-51335693D01*
X83782858Y-51335696D01*
X83782858Y-51335697D01*
X83694554Y-51500903D01*
X83575712Y-51645712D01*
X83430903Y-51764554D01*
X83265696Y-51852858D01*
X83265692Y-51852860D01*
X83086428Y-51907239D01*
X83086427Y-51907239D01*
X83086424Y-51907240D01*
X82900000Y-51925601D01*
X82713575Y-51907240D01*
X82713572Y-51907239D01*
X82713571Y-51907239D01*
X82534307Y-51852860D01*
X82534303Y-51852858D01*
X82369097Y-51764554D01*
X82224288Y-51645712D01*
X82105446Y-51500903D01*
X82017142Y-51335696D01*
X82017141Y-51335693D01*
X82017140Y-51335692D01*
X81962761Y-51156428D01*
X81962761Y-51156427D01*
X81962760Y-51156424D01*
X81949000Y-51016717D01*
X81949000Y-50123282D01*
X81962760Y-49983570D01*
X82017140Y-49804308D01*
X82105447Y-49639097D01*
X82224289Y-49494288D01*
X82369098Y-49375446D01*
X82534304Y-49287142D01*
X82534305Y-49287142D01*
X82534308Y-49287140D01*
X82713572Y-49232761D01*
X82713573Y-49232761D01*
X82713576Y-49232760D01*
X82900000Y-49214399D01*
X83086425Y-49232760D01*
G37*
G36*
X88166425Y-49232760D02*
G01*
X88166428Y-49232761D01*
X88166429Y-49232761D01*
X88345693Y-49287140D01*
X88345696Y-49287142D01*
X88345697Y-49287142D01*
X88510903Y-49375446D01*
X88655712Y-49494288D01*
X88774554Y-49639097D01*
X88862859Y-49804305D01*
X88917240Y-49983574D01*
X88931000Y-50123283D01*
X88931000Y-51016718D01*
X88917240Y-51156425D01*
X88917239Y-51156428D01*
X88917239Y-51156429D01*
X88862860Y-51335693D01*
X88862858Y-51335696D01*
X88862858Y-51335697D01*
X88774554Y-51500903D01*
X88655712Y-51645712D01*
X88510903Y-51764554D01*
X88345696Y-51852858D01*
X88345692Y-51852860D01*
X88166428Y-51907239D01*
X88166427Y-51907239D01*
X88166424Y-51907240D01*
X87980000Y-51925601D01*
X87793575Y-51907240D01*
X87793572Y-51907239D01*
X87793571Y-51907239D01*
X87614307Y-51852860D01*
X87614303Y-51852858D01*
X87449097Y-51764554D01*
X87304288Y-51645712D01*
X87185446Y-51500903D01*
X87097142Y-51335696D01*
X87097141Y-51335693D01*
X87097140Y-51335692D01*
X87042761Y-51156428D01*
X87042761Y-51156427D01*
X87042760Y-51156424D01*
X87029000Y-51016717D01*
X87029000Y-50123282D01*
X87042760Y-49983570D01*
X87097140Y-49804308D01*
X87185447Y-49639097D01*
X87304289Y-49494288D01*
X87449098Y-49375446D01*
X87614304Y-49287142D01*
X87614305Y-49287142D01*
X87614308Y-49287140D01*
X87793572Y-49232761D01*
X87793573Y-49232761D01*
X87793576Y-49232760D01*
X87980000Y-49214399D01*
X88166425Y-49232760D01*
G37*
G36*
X90706425Y-49232760D02*
G01*
X90706428Y-49232761D01*
X90706429Y-49232761D01*
X90885693Y-49287140D01*
X90885696Y-49287142D01*
X90885697Y-49287142D01*
X91050903Y-49375446D01*
X91195712Y-49494288D01*
X91314554Y-49639097D01*
X91402859Y-49804305D01*
X91457240Y-49983574D01*
X91471000Y-50123283D01*
X91471000Y-51016718D01*
X91457240Y-51156425D01*
X91457239Y-51156428D01*
X91457239Y-51156429D01*
X91402860Y-51335693D01*
X91402858Y-51335696D01*
X91402858Y-51335697D01*
X91314554Y-51500903D01*
X91195712Y-51645712D01*
X91050903Y-51764554D01*
X90885696Y-51852858D01*
X90885692Y-51852860D01*
X90706428Y-51907239D01*
X90706427Y-51907239D01*
X90706424Y-51907240D01*
X90520000Y-51925601D01*
X90333575Y-51907240D01*
X90333572Y-51907239D01*
X90333571Y-51907239D01*
X90154307Y-51852860D01*
X90154303Y-51852858D01*
X89989097Y-51764554D01*
X89844288Y-51645712D01*
X89725446Y-51500903D01*
X89637142Y-51335696D01*
X89637141Y-51335693D01*
X89637140Y-51335692D01*
X89582761Y-51156428D01*
X89582761Y-51156427D01*
X89582760Y-51156424D01*
X89569000Y-51016717D01*
X89569000Y-50123282D01*
X89582760Y-49983570D01*
X89637140Y-49804308D01*
X89725447Y-49639097D01*
X89844289Y-49494288D01*
X89989098Y-49375446D01*
X90154304Y-49287142D01*
X90154305Y-49287142D01*
X90154308Y-49287140D01*
X90333572Y-49232761D01*
X90333573Y-49232761D01*
X90333576Y-49232760D01*
X90520000Y-49214399D01*
X90706425Y-49232760D01*
G37*
G36*
X85626425Y-49232760D02*
G01*
X85626428Y-49232761D01*
X85626429Y-49232761D01*
X85805693Y-49287140D01*
X85805696Y-49287142D01*
X85805697Y-49287142D01*
X85970903Y-49375446D01*
X86115712Y-49494288D01*
X86234554Y-49639097D01*
X86322859Y-49804305D01*
X86377240Y-49983574D01*
X86391000Y-50123283D01*
X86391000Y-51016718D01*
X86377240Y-51156425D01*
X86377239Y-51156428D01*
X86377239Y-51156429D01*
X86322860Y-51335693D01*
X86322858Y-51335696D01*
X86322858Y-51335697D01*
X86234554Y-51500903D01*
X86115712Y-51645712D01*
X85970903Y-51764554D01*
X85805696Y-51852858D01*
X85805692Y-51852860D01*
X85626428Y-51907239D01*
X85626427Y-51907239D01*
X85626424Y-51907240D01*
X85440000Y-51925601D01*
X85253575Y-51907240D01*
X85253572Y-51907239D01*
X85253571Y-51907239D01*
X85074307Y-51852860D01*
X85074303Y-51852858D01*
X84909097Y-51764554D01*
X84764288Y-51645712D01*
X84645446Y-51500903D01*
X84557142Y-51335696D01*
X84557141Y-51335693D01*
X84557140Y-51335692D01*
X84502761Y-51156428D01*
X84502761Y-51156427D01*
X84502760Y-51156424D01*
X84489000Y-51016717D01*
X84489000Y-50123282D01*
X84502760Y-49983570D01*
X84557140Y-49804308D01*
X84645447Y-49639097D01*
X84764289Y-49494288D01*
X84909098Y-49375446D01*
X85074304Y-49287142D01*
X85074305Y-49287142D01*
X85074308Y-49287140D01*
X85253572Y-49232761D01*
X85253573Y-49232761D01*
X85253576Y-49232760D01*
X85440000Y-49214399D01*
X85626425Y-49232760D01*
G37*
G36*
X93246425Y-49232760D02*
G01*
X93246428Y-49232761D01*
X93246429Y-49232761D01*
X93425693Y-49287140D01*
X93425696Y-49287142D01*
X93425697Y-49287142D01*
X93590903Y-49375446D01*
X93735712Y-49494288D01*
X93854554Y-49639097D01*
X93942859Y-49804305D01*
X93997240Y-49983574D01*
X94011000Y-50123283D01*
X94011000Y-51016718D01*
X93997240Y-51156425D01*
X93997239Y-51156428D01*
X93997239Y-51156429D01*
X93942860Y-51335693D01*
X93942858Y-51335696D01*
X93942858Y-51335697D01*
X93854554Y-51500903D01*
X93735712Y-51645712D01*
X93590903Y-51764554D01*
X93425696Y-51852858D01*
X93425692Y-51852860D01*
X93246428Y-51907239D01*
X93246427Y-51907239D01*
X93246424Y-51907240D01*
X93060000Y-51925601D01*
X92873575Y-51907240D01*
X92873572Y-51907239D01*
X92873571Y-51907239D01*
X92694307Y-51852860D01*
X92694303Y-51852858D01*
X92529097Y-51764554D01*
X92384288Y-51645712D01*
X92265446Y-51500903D01*
X92177142Y-51335696D01*
X92177141Y-51335693D01*
X92177140Y-51335692D01*
X92122761Y-51156428D01*
X92122761Y-51156427D01*
X92122760Y-51156424D01*
X92109000Y-51016717D01*
X92109000Y-50123282D01*
X92122760Y-49983570D01*
X92177140Y-49804308D01*
X92265447Y-49639097D01*
X92384289Y-49494288D01*
X92529098Y-49375446D01*
X92694304Y-49287142D01*
X92694305Y-49287142D01*
X92694308Y-49287140D01*
X92873572Y-49232761D01*
X92873573Y-49232761D01*
X92873576Y-49232760D01*
X93060000Y-49214399D01*
X93246425Y-49232760D01*
G37*
G36*
X95786425Y-49232760D02*
G01*
X95786428Y-49232761D01*
X95786429Y-49232761D01*
X95965693Y-49287140D01*
X95965696Y-49287142D01*
X95965697Y-49287142D01*
X96130903Y-49375446D01*
X96275712Y-49494288D01*
X96394554Y-49639097D01*
X96482859Y-49804305D01*
X96537240Y-49983574D01*
X96551000Y-50123283D01*
X96551000Y-51016718D01*
X96537240Y-51156425D01*
X96537239Y-51156428D01*
X96537239Y-51156429D01*
X96482860Y-51335693D01*
X96482858Y-51335696D01*
X96482858Y-51335697D01*
X96394554Y-51500903D01*
X96275712Y-51645712D01*
X96130903Y-51764554D01*
X95965696Y-51852858D01*
X95965692Y-51852860D01*
X95786428Y-51907239D01*
X95786427Y-51907239D01*
X95786424Y-51907240D01*
X95600000Y-51925601D01*
X95413575Y-51907240D01*
X95413572Y-51907239D01*
X95413571Y-51907239D01*
X95234307Y-51852860D01*
X95234303Y-51852858D01*
X95069097Y-51764554D01*
X94924288Y-51645712D01*
X94805446Y-51500903D01*
X94717142Y-51335696D01*
X94717141Y-51335693D01*
X94717140Y-51335692D01*
X94662761Y-51156428D01*
X94662761Y-51156427D01*
X94662760Y-51156424D01*
X94649000Y-51016717D01*
X94649000Y-50123282D01*
X94662760Y-49983570D01*
X94717140Y-49804308D01*
X94805447Y-49639097D01*
X94924289Y-49494288D01*
X95069098Y-49375446D01*
X95234304Y-49287142D01*
X95234305Y-49287142D01*
X95234308Y-49287140D01*
X95413572Y-49232761D01*
X95413573Y-49232761D01*
X95413576Y-49232760D01*
X95600000Y-49214399D01*
X95786425Y-49232760D01*
G37*
G36*
X98326425Y-49232760D02*
G01*
X98326428Y-49232761D01*
X98326429Y-49232761D01*
X98505693Y-49287140D01*
X98505696Y-49287142D01*
X98505697Y-49287142D01*
X98670903Y-49375446D01*
X98815712Y-49494288D01*
X98934554Y-49639097D01*
X99022859Y-49804305D01*
X99077240Y-49983574D01*
X99091000Y-50123283D01*
X99091000Y-51016718D01*
X99077240Y-51156425D01*
X99077239Y-51156428D01*
X99077239Y-51156429D01*
X99022860Y-51335693D01*
X99022858Y-51335696D01*
X99022858Y-51335697D01*
X98934554Y-51500903D01*
X98815712Y-51645712D01*
X98670903Y-51764554D01*
X98505696Y-51852858D01*
X98505692Y-51852860D01*
X98326428Y-51907239D01*
X98326427Y-51907239D01*
X98326424Y-51907240D01*
X98140000Y-51925601D01*
X97953575Y-51907240D01*
X97953572Y-51907239D01*
X97953571Y-51907239D01*
X97774307Y-51852860D01*
X97774303Y-51852858D01*
X97609097Y-51764554D01*
X97464288Y-51645712D01*
X97345446Y-51500903D01*
X97257142Y-51335696D01*
X97257141Y-51335693D01*
X97257140Y-51335692D01*
X97202761Y-51156428D01*
X97202761Y-51156427D01*
X97202760Y-51156424D01*
X97189000Y-51016717D01*
X97189000Y-50123282D01*
X97202760Y-49983570D01*
X97257140Y-49804308D01*
X97345447Y-49639097D01*
X97464289Y-49494288D01*
X97609098Y-49375446D01*
X97774304Y-49287142D01*
X97774305Y-49287142D01*
X97774308Y-49287140D01*
X97953572Y-49232761D01*
X97953573Y-49232761D01*
X97953576Y-49232760D01*
X98140000Y-49214399D01*
X98326425Y-49232760D01*
G37*
G36*
X100866425Y-49232760D02*
G01*
X100866428Y-49232761D01*
X100866429Y-49232761D01*
X101045693Y-49287140D01*
X101045696Y-49287142D01*
X101045697Y-49287142D01*
X101210903Y-49375446D01*
X101355712Y-49494288D01*
X101474554Y-49639097D01*
X101562859Y-49804305D01*
X101617240Y-49983574D01*
X101631000Y-50123283D01*
X101631000Y-51016718D01*
X101617240Y-51156425D01*
X101617239Y-51156428D01*
X101617239Y-51156429D01*
X101562860Y-51335693D01*
X101562858Y-51335696D01*
X101562858Y-51335697D01*
X101474554Y-51500903D01*
X101355712Y-51645712D01*
X101210903Y-51764554D01*
X101045696Y-51852858D01*
X101045692Y-51852860D01*
X100866428Y-51907239D01*
X100866427Y-51907239D01*
X100866424Y-51907240D01*
X100680000Y-51925601D01*
X100493575Y-51907240D01*
X100493572Y-51907239D01*
X100493571Y-51907239D01*
X100314307Y-51852860D01*
X100314303Y-51852858D01*
X100149097Y-51764554D01*
X100004288Y-51645712D01*
X99885446Y-51500903D01*
X99797142Y-51335696D01*
X99797141Y-51335693D01*
X99797140Y-51335692D01*
X99742761Y-51156428D01*
X99742761Y-51156427D01*
X99742760Y-51156424D01*
X99729000Y-51016717D01*
X99729000Y-50123282D01*
X99742760Y-49983570D01*
X99797140Y-49804308D01*
X99885447Y-49639097D01*
X100004289Y-49494288D01*
X100149098Y-49375446D01*
X100314304Y-49287142D01*
X100314305Y-49287142D01*
X100314308Y-49287140D01*
X100493572Y-49232761D01*
X100493573Y-49232761D01*
X100493576Y-49232760D01*
X100680000Y-49214399D01*
X100866425Y-49232760D01*
G37*
G36*
X103406425Y-49232760D02*
G01*
X103406428Y-49232761D01*
X103406429Y-49232761D01*
X103585693Y-49287140D01*
X103585696Y-49287142D01*
X103585697Y-49287142D01*
X103750903Y-49375446D01*
X103895712Y-49494288D01*
X104014554Y-49639097D01*
X104102859Y-49804305D01*
X104157240Y-49983574D01*
X104171000Y-50123283D01*
X104171000Y-51016718D01*
X104157240Y-51156425D01*
X104157239Y-51156428D01*
X104157239Y-51156429D01*
X104102860Y-51335693D01*
X104102858Y-51335696D01*
X104102858Y-51335697D01*
X104014554Y-51500903D01*
X103895712Y-51645712D01*
X103750903Y-51764554D01*
X103585696Y-51852858D01*
X103585692Y-51852860D01*
X103406428Y-51907239D01*
X103406427Y-51907239D01*
X103406424Y-51907240D01*
X103220000Y-51925601D01*
X103033575Y-51907240D01*
X103033572Y-51907239D01*
X103033571Y-51907239D01*
X102854307Y-51852860D01*
X102854303Y-51852858D01*
X102689097Y-51764554D01*
X102544288Y-51645712D01*
X102425446Y-51500903D01*
X102337142Y-51335696D01*
X102337141Y-51335693D01*
X102337140Y-51335692D01*
X102282761Y-51156428D01*
X102282761Y-51156427D01*
X102282760Y-51156424D01*
X102269000Y-51016717D01*
X102269000Y-50123282D01*
X102282760Y-49983570D01*
X102337140Y-49804308D01*
X102425447Y-49639097D01*
X102544289Y-49494288D01*
X102689098Y-49375446D01*
X102854304Y-49287142D01*
X102854305Y-49287142D01*
X102854308Y-49287140D01*
X103033572Y-49232761D01*
X103033573Y-49232761D01*
X103033576Y-49232760D01*
X103220000Y-49214399D01*
X103406425Y-49232760D01*
G37*
G36*
X105946425Y-49232760D02*
G01*
X105946428Y-49232761D01*
X105946429Y-49232761D01*
X106125693Y-49287140D01*
X106125696Y-49287142D01*
X106125697Y-49287142D01*
X106290903Y-49375446D01*
X106435712Y-49494288D01*
X106554554Y-49639097D01*
X106642859Y-49804305D01*
X106697240Y-49983574D01*
X106711000Y-50123283D01*
X106711000Y-51016718D01*
X106697240Y-51156425D01*
X106697239Y-51156428D01*
X106697239Y-51156429D01*
X106642860Y-51335693D01*
X106642858Y-51335696D01*
X106642858Y-51335697D01*
X106554554Y-51500903D01*
X106435712Y-51645712D01*
X106290903Y-51764554D01*
X106125696Y-51852858D01*
X106125692Y-51852860D01*
X105946428Y-51907239D01*
X105946427Y-51907239D01*
X105946424Y-51907240D01*
X105760000Y-51925601D01*
X105573575Y-51907240D01*
X105573572Y-51907239D01*
X105573571Y-51907239D01*
X105394307Y-51852860D01*
X105394303Y-51852858D01*
X105229097Y-51764554D01*
X105084288Y-51645712D01*
X104965446Y-51500903D01*
X104877142Y-51335696D01*
X104877141Y-51335693D01*
X104877140Y-51335692D01*
X104822761Y-51156428D01*
X104822761Y-51156427D01*
X104822760Y-51156424D01*
X104809000Y-51016717D01*
X104809000Y-50123282D01*
X104822760Y-49983570D01*
X104877140Y-49804308D01*
X104965447Y-49639097D01*
X105084289Y-49494288D01*
X105229098Y-49375446D01*
X105394304Y-49287142D01*
X105394305Y-49287142D01*
X105394308Y-49287140D01*
X105573572Y-49232761D01*
X105573573Y-49232761D01*
X105573576Y-49232760D01*
X105760000Y-49214399D01*
X105946425Y-49232760D01*
G37*
G36*
X108486425Y-49232760D02*
G01*
X108486428Y-49232761D01*
X108486429Y-49232761D01*
X108665693Y-49287140D01*
X108665696Y-49287142D01*
X108665697Y-49287142D01*
X108830903Y-49375446D01*
X108975712Y-49494288D01*
X109094554Y-49639097D01*
X109182859Y-49804305D01*
X109237240Y-49983574D01*
X109251000Y-50123283D01*
X109251000Y-51016718D01*
X109237240Y-51156425D01*
X109237239Y-51156428D01*
X109237239Y-51156429D01*
X109182860Y-51335693D01*
X109182858Y-51335696D01*
X109182858Y-51335697D01*
X109094554Y-51500903D01*
X108975712Y-51645712D01*
X108830903Y-51764554D01*
X108665696Y-51852858D01*
X108665692Y-51852860D01*
X108486428Y-51907239D01*
X108486427Y-51907239D01*
X108486424Y-51907240D01*
X108300000Y-51925601D01*
X108113575Y-51907240D01*
X108113572Y-51907239D01*
X108113571Y-51907239D01*
X107934307Y-51852860D01*
X107934303Y-51852858D01*
X107769097Y-51764554D01*
X107624288Y-51645712D01*
X107505446Y-51500903D01*
X107417142Y-51335696D01*
X107417141Y-51335693D01*
X107417140Y-51335692D01*
X107362761Y-51156428D01*
X107362761Y-51156427D01*
X107362760Y-51156424D01*
X107349000Y-51016717D01*
X107349000Y-50123282D01*
X107362760Y-49983570D01*
X107417140Y-49804308D01*
X107505447Y-49639097D01*
X107624289Y-49494288D01*
X107769098Y-49375446D01*
X107934304Y-49287142D01*
X107934305Y-49287142D01*
X107934308Y-49287140D01*
X108113572Y-49232761D01*
X108113573Y-49232761D01*
X108113576Y-49232760D01*
X108300000Y-49214399D01*
X108486425Y-49232760D01*
G37*
G36*
X121951000Y-51921000D02*
G01*
X120049000Y-51921000D01*
X120049000Y-49219000D01*
X121951000Y-49219000D01*
X121951000Y-51921000D01*
G37*
M02*
