M48
; DRILL file {KiCad 5.1.5} date sob, 30 maj 2020, 15:01:50
; FORMAT={-:-/ absolute / metric / decimal}
; #@! TF.CreationDate,2020-05-30T15:01:50+02:00
; #@! TF.GenerationSoftware,Kicad,Pcbnew,5.1.5
FMAT,2
METRIC
T1C0.400
T2C0.600
T3C0.850
T4C0.990
T5C1.000
T6C1.200
T7C1.300
T8C1.520
T9C2.500
T10C2.700
%
G90
G05
T1
X53.9Y-54.6
X54.2Y-69.7
X55.75Y-79.75
X55.9Y-66.5
X55.9Y-69.8
X55.9Y-72.3
X60.3Y-75.5
X60.8Y-73.1
X61.05Y-68.2
X61.05Y-70.15
X61.1Y-66.15
X61.2Y-55.0
X61.55Y-69.25
X61.55Y-71.15
X61.6Y-67.2
X61.7Y-65.15
X62.981Y-75.296
X63.0Y-71.0
X63.15Y-62.25
X64.0Y-55.0
X64.86Y-67.351
X65.04Y-71.126
X66.7Y-66.6
X66.75Y-55.0
X66.8Y-59.3
X68.107Y-69.689
X69.198Y-69.675
X69.2Y-55.0
X69.7Y-75.1
X70.5Y-63.0
X70.9Y-75.1
X71.6Y-55.0
X72.25Y-58.25
X72.25Y-60.75
X72.4Y-75.4
X73.25Y-59.5
X73.25Y-62.0
X74.0Y-67.7
X74.0Y-68.9
X74.0Y-70.1
X74.2Y-55.0
X74.25Y-58.25
X74.3Y-75.4
X78.2Y-55.5
X78.7Y-76.3
X79.5Y-54.55
X79.9Y-68.9
X79.917Y-75.136
X80.3Y-81.5
X80.472Y-80.409
X81.25Y-56.5
X83.3Y-77.9
X83.844Y-78.769
X84.5Y-77.9
X85.0Y-82.0
X85.4Y-78.8
X85.75Y-66.25
X86.75Y-57.25
X87.0Y-73.1
X87.25Y-66.25
X88.5Y-57.25
X88.75Y-66.25
X90.2Y-72.9
X92.75Y-53.0
X94.0Y-56.25
X96.7Y-55.8
X96.75Y-68.25
X96.857Y-72.239
X97.75Y-61.0
X97.75Y-63.25
X98.957Y-74.735
X99.0Y-60.0
X99.206Y-64.514
X99.25Y-66.0
X101.0Y-60.0
X101.25Y-71.75
X101.25Y-79.75
X101.75Y-70.5
X102.0Y-75.25
X102.25Y-71.75
X102.75Y-81.75
X103.0Y-60.0
X103.0Y-70.5
X103.0Y-75.25
X103.5Y-69.25
X103.722Y-65.98
X104.25Y-61.0
X104.25Y-64.0
X104.5Y-55.75
X104.5Y-62.5
X107.0Y-76.5
X107.0Y-77.5
X107.75Y-57.0
X108.5Y-64.6
X108.7Y-61.2
X108.716Y-73.108
X110.145Y-72.882
X110.145Y-73.868
X110.3Y-70.8
X111.75Y-80.25
X111.82Y-69.674
X112.0Y-81.5
X112.25Y-79.25
X112.709Y-69.647
X113.5Y-79.25
X115.75Y-57.5
X116.2Y-65.4
X116.2Y-66.6
X117.8Y-66.6
X119.6Y-69.8
X119.6Y-74.8
X124.1Y-68.7
X124.1Y-74.3
X124.1Y-75.7
X124.2Y-70.6
T3
X54.2Y-56.75
X54.2Y-61.75
T4
X126.25Y-57.5
X126.25Y-62.0
T5
X117.46Y-77.75
X117.46Y-80.25
X120.0Y-78.25
X120.0Y-80.75
X111.25Y-57.75
X116.25Y-55.25
X116.25Y-60.25
X60.5Y-78.0
X63.04Y-78.5
X65.58Y-78.0
X68.12Y-78.5
X70.66Y-78.0
X73.2Y-78.5
X75.74Y-78.0
X78.28Y-78.5
X60.5Y-80.5
X63.04Y-81.0
X65.58Y-80.5
X68.12Y-81.0
X70.66Y-80.5
X73.2Y-81.0
X75.74Y-80.5
X78.28Y-81.0
T6
X82.9Y-50.57
X85.44Y-50.57
X87.98Y-50.57
X90.52Y-50.57
X93.06Y-50.57
X95.6Y-50.57
X98.14Y-50.57
X100.68Y-50.57
X103.22Y-50.57
X105.76Y-50.57
X108.3Y-50.57
X110.84Y-50.57
X113.38Y-50.57
X115.92Y-50.57
X118.46Y-50.57
X121.0Y-50.57
T7
X123.76Y-56.25
X123.76Y-63.26
T8
X52.0Y-66.75
X52.0Y-71.83
T9
X51.5Y-50.57
X51.501Y-81.571
X126.499Y-50.57
X126.499Y-81.571
T10
X89.0Y-79.5
T2
G00X51.15Y-55.75
M15
G01X51.85Y-55.75
M16
G05
G00X51.85Y-62.75
M15
G01X51.15Y-62.75
M16
G05
T0
M30
