G04 #@! TF.GenerationSoftware,KiCad,Pcbnew,5.1.5*
G04 #@! TF.CreationDate,2020-05-30T15:01:55+02:00*
G04 #@! TF.ProjectId,VCOMLCD,56434f4d-4c43-4442-9e6b-696361645f70,rev?*
G04 #@! TF.SameCoordinates,Original*
G04 #@! TF.FileFunction,Profile,NP*
%FSLAX46Y46*%
G04 Gerber Fmt 4.6, Leading zero omitted, Abs format (unit mm)*
G04 Created by KiCad (PCBNEW 5.1.5) date 2020-05-30 15:01:55*
%MOMM*%
%LPD*%
G04 APERTURE LIST*
%ADD10C,0.150000*%
G04 APERTURE END LIST*
D10*
X55750000Y-83750000D02*
G75*
G03X55750000Y-83750000I-250000J0D01*
G01*
X51750000Y-83750000D02*
G75*
G03X51750000Y-83750000I-250000J0D01*
G01*
X52750000Y-83750000D02*
G75*
G03X52750000Y-83750000I-250000J0D01*
G01*
X50750000Y-83750000D02*
G75*
G03X50750000Y-83750000I-250000J0D01*
G01*
X53750000Y-83750000D02*
G75*
G03X53750000Y-83750000I-250000J0D01*
G01*
X49750000Y-83750000D02*
G75*
G03X49750000Y-83750000I-250000J0D01*
G01*
X54750000Y-83750000D02*
G75*
G03X54750000Y-83750000I-250000J0D01*
G01*
X128750000Y-83750000D02*
G75*
G03X128750000Y-83750000I-250000J0D01*
G01*
X122750000Y-83750000D02*
G75*
G03X122750000Y-83750000I-250000J0D01*
G01*
X123750000Y-83750000D02*
G75*
G03X123750000Y-83750000I-250000J0D01*
G01*
X124750000Y-83750000D02*
G75*
G03X124750000Y-83750000I-250000J0D01*
G01*
X125750000Y-83750000D02*
G75*
G03X125750000Y-83750000I-250000J0D01*
G01*
X127750000Y-83750000D02*
G75*
G03X127750000Y-83750000I-250000J0D01*
G01*
X126750000Y-83750000D02*
G75*
G03X126750000Y-83750000I-250000J0D01*
G01*
X122000000Y-98000000D02*
X129000000Y-98000000D01*
X122000000Y-84000000D02*
X122000000Y-98000000D01*
X56000000Y-84000000D02*
X122000000Y-84000000D01*
X56000000Y-98000000D02*
X56000000Y-84000000D01*
X129000000Y-48000000D02*
X49000000Y-48000000D01*
X129000000Y-98000000D02*
X129000000Y-48000000D01*
X49000000Y-98000000D02*
X56000000Y-98000000D01*
X49000000Y-48000000D02*
X49000000Y-98000000D01*
M02*
