G04 #@! TF.GenerationSoftware,KiCad,Pcbnew,5.1.5*
G04 #@! TF.CreationDate,2020-05-30T15:01:55+02:00*
G04 #@! TF.ProjectId,VCOMLCD,56434f4d-4c43-4442-9e6b-696361645f70,rev?*
G04 #@! TF.SameCoordinates,Original*
G04 #@! TF.FileFunction,Paste,Top*
G04 #@! TF.FilePolarity,Positive*
%FSLAX46Y46*%
G04 Gerber Fmt 4.6, Leading zero omitted, Abs format (unit mm)*
G04 Created by KiCad (PCBNEW 5.1.5) date 2020-05-30 15:01:55*
%MOMM*%
%LPD*%
G04 APERTURE LIST*
%ADD10R,1.060000X0.650000*%
%ADD11C,0.100000*%
%ADD12R,1.450000X0.450000*%
%ADD13R,0.650000X1.060000*%
%ADD14R,2.000000X0.900000*%
%ADD15R,0.900000X2.000000*%
%ADD16R,5.000000X5.000000*%
%ADD17R,1.900000X1.500000*%
%ADD18R,1.350000X0.400000*%
%ADD19R,0.900000X0.800000*%
%ADD20R,0.800000X0.900000*%
%ADD21R,2.000000X0.600000*%
G04 APERTURE END LIST*
D10*
X106400000Y-80750000D03*
X106400000Y-81700000D03*
X106400000Y-79800000D03*
X108600000Y-79800000D03*
X108600000Y-80750000D03*
X108600000Y-81700000D03*
D11*
G36*
X115185779Y-80276144D02*
G01*
X115208834Y-80279563D01*
X115231443Y-80285227D01*
X115253387Y-80293079D01*
X115274457Y-80303044D01*
X115294448Y-80315026D01*
X115313168Y-80328910D01*
X115330438Y-80344562D01*
X115346090Y-80361832D01*
X115359974Y-80380552D01*
X115371956Y-80400543D01*
X115381921Y-80421613D01*
X115389773Y-80443557D01*
X115395437Y-80466166D01*
X115398856Y-80489221D01*
X115400000Y-80512500D01*
X115400000Y-80987500D01*
X115398856Y-81010779D01*
X115395437Y-81033834D01*
X115389773Y-81056443D01*
X115381921Y-81078387D01*
X115371956Y-81099457D01*
X115359974Y-81119448D01*
X115346090Y-81138168D01*
X115330438Y-81155438D01*
X115313168Y-81171090D01*
X115294448Y-81184974D01*
X115274457Y-81196956D01*
X115253387Y-81206921D01*
X115231443Y-81214773D01*
X115208834Y-81220437D01*
X115185779Y-81223856D01*
X115162500Y-81225000D01*
X114587500Y-81225000D01*
X114564221Y-81223856D01*
X114541166Y-81220437D01*
X114518557Y-81214773D01*
X114496613Y-81206921D01*
X114475543Y-81196956D01*
X114455552Y-81184974D01*
X114436832Y-81171090D01*
X114419562Y-81155438D01*
X114403910Y-81138168D01*
X114390026Y-81119448D01*
X114378044Y-81099457D01*
X114368079Y-81078387D01*
X114360227Y-81056443D01*
X114354563Y-81033834D01*
X114351144Y-81010779D01*
X114350000Y-80987500D01*
X114350000Y-80512500D01*
X114351144Y-80489221D01*
X114354563Y-80466166D01*
X114360227Y-80443557D01*
X114368079Y-80421613D01*
X114378044Y-80400543D01*
X114390026Y-80380552D01*
X114403910Y-80361832D01*
X114419562Y-80344562D01*
X114436832Y-80328910D01*
X114455552Y-80315026D01*
X114475543Y-80303044D01*
X114496613Y-80293079D01*
X114518557Y-80285227D01*
X114541166Y-80279563D01*
X114564221Y-80276144D01*
X114587500Y-80275000D01*
X115162500Y-80275000D01*
X115185779Y-80276144D01*
G37*
G36*
X113435779Y-80276144D02*
G01*
X113458834Y-80279563D01*
X113481443Y-80285227D01*
X113503387Y-80293079D01*
X113524457Y-80303044D01*
X113544448Y-80315026D01*
X113563168Y-80328910D01*
X113580438Y-80344562D01*
X113596090Y-80361832D01*
X113609974Y-80380552D01*
X113621956Y-80400543D01*
X113631921Y-80421613D01*
X113639773Y-80443557D01*
X113645437Y-80466166D01*
X113648856Y-80489221D01*
X113650000Y-80512500D01*
X113650000Y-80987500D01*
X113648856Y-81010779D01*
X113645437Y-81033834D01*
X113639773Y-81056443D01*
X113631921Y-81078387D01*
X113621956Y-81099457D01*
X113609974Y-81119448D01*
X113596090Y-81138168D01*
X113580438Y-81155438D01*
X113563168Y-81171090D01*
X113544448Y-81184974D01*
X113524457Y-81196956D01*
X113503387Y-81206921D01*
X113481443Y-81214773D01*
X113458834Y-81220437D01*
X113435779Y-81223856D01*
X113412500Y-81225000D01*
X112837500Y-81225000D01*
X112814221Y-81223856D01*
X112791166Y-81220437D01*
X112768557Y-81214773D01*
X112746613Y-81206921D01*
X112725543Y-81196956D01*
X112705552Y-81184974D01*
X112686832Y-81171090D01*
X112669562Y-81155438D01*
X112653910Y-81138168D01*
X112640026Y-81119448D01*
X112628044Y-81099457D01*
X112618079Y-81078387D01*
X112610227Y-81056443D01*
X112604563Y-81033834D01*
X112601144Y-81010779D01*
X112600000Y-80987500D01*
X112600000Y-80512500D01*
X112601144Y-80489221D01*
X112604563Y-80466166D01*
X112610227Y-80443557D01*
X112618079Y-80421613D01*
X112628044Y-80400543D01*
X112640026Y-80380552D01*
X112653910Y-80361832D01*
X112669562Y-80344562D01*
X112686832Y-80328910D01*
X112705552Y-80315026D01*
X112725543Y-80303044D01*
X112746613Y-80293079D01*
X112768557Y-80285227D01*
X112791166Y-80279563D01*
X112814221Y-80276144D01*
X112837500Y-80275000D01*
X113412500Y-80275000D01*
X113435779Y-80276144D01*
G37*
G36*
X103935779Y-77526144D02*
G01*
X103958834Y-77529563D01*
X103981443Y-77535227D01*
X104003387Y-77543079D01*
X104024457Y-77553044D01*
X104044448Y-77565026D01*
X104063168Y-77578910D01*
X104080438Y-77594562D01*
X104096090Y-77611832D01*
X104109974Y-77630552D01*
X104121956Y-77650543D01*
X104131921Y-77671613D01*
X104139773Y-77693557D01*
X104145437Y-77716166D01*
X104148856Y-77739221D01*
X104150000Y-77762500D01*
X104150000Y-78237500D01*
X104148856Y-78260779D01*
X104145437Y-78283834D01*
X104139773Y-78306443D01*
X104131921Y-78328387D01*
X104121956Y-78349457D01*
X104109974Y-78369448D01*
X104096090Y-78388168D01*
X104080438Y-78405438D01*
X104063168Y-78421090D01*
X104044448Y-78434974D01*
X104024457Y-78446956D01*
X104003387Y-78456921D01*
X103981443Y-78464773D01*
X103958834Y-78470437D01*
X103935779Y-78473856D01*
X103912500Y-78475000D01*
X103337500Y-78475000D01*
X103314221Y-78473856D01*
X103291166Y-78470437D01*
X103268557Y-78464773D01*
X103246613Y-78456921D01*
X103225543Y-78446956D01*
X103205552Y-78434974D01*
X103186832Y-78421090D01*
X103169562Y-78405438D01*
X103153910Y-78388168D01*
X103140026Y-78369448D01*
X103128044Y-78349457D01*
X103118079Y-78328387D01*
X103110227Y-78306443D01*
X103104563Y-78283834D01*
X103101144Y-78260779D01*
X103100000Y-78237500D01*
X103100000Y-77762500D01*
X103101144Y-77739221D01*
X103104563Y-77716166D01*
X103110227Y-77693557D01*
X103118079Y-77671613D01*
X103128044Y-77650543D01*
X103140026Y-77630552D01*
X103153910Y-77611832D01*
X103169562Y-77594562D01*
X103186832Y-77578910D01*
X103205552Y-77565026D01*
X103225543Y-77553044D01*
X103246613Y-77543079D01*
X103268557Y-77535227D01*
X103291166Y-77529563D01*
X103314221Y-77526144D01*
X103337500Y-77525000D01*
X103912500Y-77525000D01*
X103935779Y-77526144D01*
G37*
G36*
X105685779Y-77526144D02*
G01*
X105708834Y-77529563D01*
X105731443Y-77535227D01*
X105753387Y-77543079D01*
X105774457Y-77553044D01*
X105794448Y-77565026D01*
X105813168Y-77578910D01*
X105830438Y-77594562D01*
X105846090Y-77611832D01*
X105859974Y-77630552D01*
X105871956Y-77650543D01*
X105881921Y-77671613D01*
X105889773Y-77693557D01*
X105895437Y-77716166D01*
X105898856Y-77739221D01*
X105900000Y-77762500D01*
X105900000Y-78237500D01*
X105898856Y-78260779D01*
X105895437Y-78283834D01*
X105889773Y-78306443D01*
X105881921Y-78328387D01*
X105871956Y-78349457D01*
X105859974Y-78369448D01*
X105846090Y-78388168D01*
X105830438Y-78405438D01*
X105813168Y-78421090D01*
X105794448Y-78434974D01*
X105774457Y-78446956D01*
X105753387Y-78456921D01*
X105731443Y-78464773D01*
X105708834Y-78470437D01*
X105685779Y-78473856D01*
X105662500Y-78475000D01*
X105087500Y-78475000D01*
X105064221Y-78473856D01*
X105041166Y-78470437D01*
X105018557Y-78464773D01*
X104996613Y-78456921D01*
X104975543Y-78446956D01*
X104955552Y-78434974D01*
X104936832Y-78421090D01*
X104919562Y-78405438D01*
X104903910Y-78388168D01*
X104890026Y-78369448D01*
X104878044Y-78349457D01*
X104868079Y-78328387D01*
X104860227Y-78306443D01*
X104854563Y-78283834D01*
X104851144Y-78260779D01*
X104850000Y-78237500D01*
X104850000Y-77762500D01*
X104851144Y-77739221D01*
X104854563Y-77716166D01*
X104860227Y-77693557D01*
X104868079Y-77671613D01*
X104878044Y-77650543D01*
X104890026Y-77630552D01*
X104903910Y-77611832D01*
X104919562Y-77594562D01*
X104936832Y-77578910D01*
X104955552Y-77565026D01*
X104975543Y-77553044D01*
X104996613Y-77543079D01*
X105018557Y-77535227D01*
X105041166Y-77529563D01*
X105064221Y-77526144D01*
X105087500Y-77525000D01*
X105662500Y-77525000D01*
X105685779Y-77526144D01*
G37*
G36*
X110760779Y-79351144D02*
G01*
X110783834Y-79354563D01*
X110806443Y-79360227D01*
X110828387Y-79368079D01*
X110849457Y-79378044D01*
X110869448Y-79390026D01*
X110888168Y-79403910D01*
X110905438Y-79419562D01*
X110921090Y-79436832D01*
X110934974Y-79455552D01*
X110946956Y-79475543D01*
X110956921Y-79496613D01*
X110964773Y-79518557D01*
X110970437Y-79541166D01*
X110973856Y-79564221D01*
X110975000Y-79587500D01*
X110975000Y-80162500D01*
X110973856Y-80185779D01*
X110970437Y-80208834D01*
X110964773Y-80231443D01*
X110956921Y-80253387D01*
X110946956Y-80274457D01*
X110934974Y-80294448D01*
X110921090Y-80313168D01*
X110905438Y-80330438D01*
X110888168Y-80346090D01*
X110869448Y-80359974D01*
X110849457Y-80371956D01*
X110828387Y-80381921D01*
X110806443Y-80389773D01*
X110783834Y-80395437D01*
X110760779Y-80398856D01*
X110737500Y-80400000D01*
X110262500Y-80400000D01*
X110239221Y-80398856D01*
X110216166Y-80395437D01*
X110193557Y-80389773D01*
X110171613Y-80381921D01*
X110150543Y-80371956D01*
X110130552Y-80359974D01*
X110111832Y-80346090D01*
X110094562Y-80330438D01*
X110078910Y-80313168D01*
X110065026Y-80294448D01*
X110053044Y-80274457D01*
X110043079Y-80253387D01*
X110035227Y-80231443D01*
X110029563Y-80208834D01*
X110026144Y-80185779D01*
X110025000Y-80162500D01*
X110025000Y-79587500D01*
X110026144Y-79564221D01*
X110029563Y-79541166D01*
X110035227Y-79518557D01*
X110043079Y-79496613D01*
X110053044Y-79475543D01*
X110065026Y-79455552D01*
X110078910Y-79436832D01*
X110094562Y-79419562D01*
X110111832Y-79403910D01*
X110130552Y-79390026D01*
X110150543Y-79378044D01*
X110171613Y-79368079D01*
X110193557Y-79360227D01*
X110216166Y-79354563D01*
X110239221Y-79351144D01*
X110262500Y-79350000D01*
X110737500Y-79350000D01*
X110760779Y-79351144D01*
G37*
G36*
X110760779Y-81101144D02*
G01*
X110783834Y-81104563D01*
X110806443Y-81110227D01*
X110828387Y-81118079D01*
X110849457Y-81128044D01*
X110869448Y-81140026D01*
X110888168Y-81153910D01*
X110905438Y-81169562D01*
X110921090Y-81186832D01*
X110934974Y-81205552D01*
X110946956Y-81225543D01*
X110956921Y-81246613D01*
X110964773Y-81268557D01*
X110970437Y-81291166D01*
X110973856Y-81314221D01*
X110975000Y-81337500D01*
X110975000Y-81912500D01*
X110973856Y-81935779D01*
X110970437Y-81958834D01*
X110964773Y-81981443D01*
X110956921Y-82003387D01*
X110946956Y-82024457D01*
X110934974Y-82044448D01*
X110921090Y-82063168D01*
X110905438Y-82080438D01*
X110888168Y-82096090D01*
X110869448Y-82109974D01*
X110849457Y-82121956D01*
X110828387Y-82131921D01*
X110806443Y-82139773D01*
X110783834Y-82145437D01*
X110760779Y-82148856D01*
X110737500Y-82150000D01*
X110262500Y-82150000D01*
X110239221Y-82148856D01*
X110216166Y-82145437D01*
X110193557Y-82139773D01*
X110171613Y-82131921D01*
X110150543Y-82121956D01*
X110130552Y-82109974D01*
X110111832Y-82096090D01*
X110094562Y-82080438D01*
X110078910Y-82063168D01*
X110065026Y-82044448D01*
X110053044Y-82024457D01*
X110043079Y-82003387D01*
X110035227Y-81981443D01*
X110029563Y-81958834D01*
X110026144Y-81935779D01*
X110025000Y-81912500D01*
X110025000Y-81337500D01*
X110026144Y-81314221D01*
X110029563Y-81291166D01*
X110035227Y-81268557D01*
X110043079Y-81246613D01*
X110053044Y-81225543D01*
X110065026Y-81205552D01*
X110078910Y-81186832D01*
X110094562Y-81169562D01*
X110111832Y-81153910D01*
X110130552Y-81140026D01*
X110150543Y-81128044D01*
X110171613Y-81118079D01*
X110193557Y-81110227D01*
X110216166Y-81104563D01*
X110239221Y-81101144D01*
X110262500Y-81100000D01*
X110737500Y-81100000D01*
X110760779Y-81101144D01*
G37*
D12*
X114450000Y-76025000D03*
X114450000Y-76675000D03*
X114450000Y-77325000D03*
X114450000Y-77975000D03*
X108550000Y-77975000D03*
X108550000Y-77325000D03*
X108550000Y-76675000D03*
X108550000Y-76025000D03*
D11*
G36*
X104760779Y-81101144D02*
G01*
X104783834Y-81104563D01*
X104806443Y-81110227D01*
X104828387Y-81118079D01*
X104849457Y-81128044D01*
X104869448Y-81140026D01*
X104888168Y-81153910D01*
X104905438Y-81169562D01*
X104921090Y-81186832D01*
X104934974Y-81205552D01*
X104946956Y-81225543D01*
X104956921Y-81246613D01*
X104964773Y-81268557D01*
X104970437Y-81291166D01*
X104973856Y-81314221D01*
X104975000Y-81337500D01*
X104975000Y-81912500D01*
X104973856Y-81935779D01*
X104970437Y-81958834D01*
X104964773Y-81981443D01*
X104956921Y-82003387D01*
X104946956Y-82024457D01*
X104934974Y-82044448D01*
X104921090Y-82063168D01*
X104905438Y-82080438D01*
X104888168Y-82096090D01*
X104869448Y-82109974D01*
X104849457Y-82121956D01*
X104828387Y-82131921D01*
X104806443Y-82139773D01*
X104783834Y-82145437D01*
X104760779Y-82148856D01*
X104737500Y-82150000D01*
X104262500Y-82150000D01*
X104239221Y-82148856D01*
X104216166Y-82145437D01*
X104193557Y-82139773D01*
X104171613Y-82131921D01*
X104150543Y-82121956D01*
X104130552Y-82109974D01*
X104111832Y-82096090D01*
X104094562Y-82080438D01*
X104078910Y-82063168D01*
X104065026Y-82044448D01*
X104053044Y-82024457D01*
X104043079Y-82003387D01*
X104035227Y-81981443D01*
X104029563Y-81958834D01*
X104026144Y-81935779D01*
X104025000Y-81912500D01*
X104025000Y-81337500D01*
X104026144Y-81314221D01*
X104029563Y-81291166D01*
X104035227Y-81268557D01*
X104043079Y-81246613D01*
X104053044Y-81225543D01*
X104065026Y-81205552D01*
X104078910Y-81186832D01*
X104094562Y-81169562D01*
X104111832Y-81153910D01*
X104130552Y-81140026D01*
X104150543Y-81128044D01*
X104171613Y-81118079D01*
X104193557Y-81110227D01*
X104216166Y-81104563D01*
X104239221Y-81101144D01*
X104262500Y-81100000D01*
X104737500Y-81100000D01*
X104760779Y-81101144D01*
G37*
G36*
X104760779Y-79351144D02*
G01*
X104783834Y-79354563D01*
X104806443Y-79360227D01*
X104828387Y-79368079D01*
X104849457Y-79378044D01*
X104869448Y-79390026D01*
X104888168Y-79403910D01*
X104905438Y-79419562D01*
X104921090Y-79436832D01*
X104934974Y-79455552D01*
X104946956Y-79475543D01*
X104956921Y-79496613D01*
X104964773Y-79518557D01*
X104970437Y-79541166D01*
X104973856Y-79564221D01*
X104975000Y-79587500D01*
X104975000Y-80162500D01*
X104973856Y-80185779D01*
X104970437Y-80208834D01*
X104964773Y-80231443D01*
X104956921Y-80253387D01*
X104946956Y-80274457D01*
X104934974Y-80294448D01*
X104921090Y-80313168D01*
X104905438Y-80330438D01*
X104888168Y-80346090D01*
X104869448Y-80359974D01*
X104849457Y-80371956D01*
X104828387Y-80381921D01*
X104806443Y-80389773D01*
X104783834Y-80395437D01*
X104760779Y-80398856D01*
X104737500Y-80400000D01*
X104262500Y-80400000D01*
X104239221Y-80398856D01*
X104216166Y-80395437D01*
X104193557Y-80389773D01*
X104171613Y-80381921D01*
X104150543Y-80371956D01*
X104130552Y-80359974D01*
X104111832Y-80346090D01*
X104094562Y-80330438D01*
X104078910Y-80313168D01*
X104065026Y-80294448D01*
X104053044Y-80274457D01*
X104043079Y-80253387D01*
X104035227Y-80231443D01*
X104029563Y-80208834D01*
X104026144Y-80185779D01*
X104025000Y-80162500D01*
X104025000Y-79587500D01*
X104026144Y-79564221D01*
X104029563Y-79541166D01*
X104035227Y-79518557D01*
X104043079Y-79496613D01*
X104053044Y-79475543D01*
X104065026Y-79455552D01*
X104078910Y-79436832D01*
X104094562Y-79419562D01*
X104111832Y-79403910D01*
X104130552Y-79390026D01*
X104150543Y-79378044D01*
X104171613Y-79368079D01*
X104193557Y-79360227D01*
X104216166Y-79354563D01*
X104239221Y-79351144D01*
X104262500Y-79350000D01*
X104737500Y-79350000D01*
X104760779Y-79351144D01*
G37*
G36*
X120760779Y-57101144D02*
G01*
X120783834Y-57104563D01*
X120806443Y-57110227D01*
X120828387Y-57118079D01*
X120849457Y-57128044D01*
X120869448Y-57140026D01*
X120888168Y-57153910D01*
X120905438Y-57169562D01*
X120921090Y-57186832D01*
X120934974Y-57205552D01*
X120946956Y-57225543D01*
X120956921Y-57246613D01*
X120964773Y-57268557D01*
X120970437Y-57291166D01*
X120973856Y-57314221D01*
X120975000Y-57337500D01*
X120975000Y-57912500D01*
X120973856Y-57935779D01*
X120970437Y-57958834D01*
X120964773Y-57981443D01*
X120956921Y-58003387D01*
X120946956Y-58024457D01*
X120934974Y-58044448D01*
X120921090Y-58063168D01*
X120905438Y-58080438D01*
X120888168Y-58096090D01*
X120869448Y-58109974D01*
X120849457Y-58121956D01*
X120828387Y-58131921D01*
X120806443Y-58139773D01*
X120783834Y-58145437D01*
X120760779Y-58148856D01*
X120737500Y-58150000D01*
X120262500Y-58150000D01*
X120239221Y-58148856D01*
X120216166Y-58145437D01*
X120193557Y-58139773D01*
X120171613Y-58131921D01*
X120150543Y-58121956D01*
X120130552Y-58109974D01*
X120111832Y-58096090D01*
X120094562Y-58080438D01*
X120078910Y-58063168D01*
X120065026Y-58044448D01*
X120053044Y-58024457D01*
X120043079Y-58003387D01*
X120035227Y-57981443D01*
X120029563Y-57958834D01*
X120026144Y-57935779D01*
X120025000Y-57912500D01*
X120025000Y-57337500D01*
X120026144Y-57314221D01*
X120029563Y-57291166D01*
X120035227Y-57268557D01*
X120043079Y-57246613D01*
X120053044Y-57225543D01*
X120065026Y-57205552D01*
X120078910Y-57186832D01*
X120094562Y-57169562D01*
X120111832Y-57153910D01*
X120130552Y-57140026D01*
X120150543Y-57128044D01*
X120171613Y-57118079D01*
X120193557Y-57110227D01*
X120216166Y-57104563D01*
X120239221Y-57101144D01*
X120262500Y-57100000D01*
X120737500Y-57100000D01*
X120760779Y-57101144D01*
G37*
G36*
X120760779Y-55351144D02*
G01*
X120783834Y-55354563D01*
X120806443Y-55360227D01*
X120828387Y-55368079D01*
X120849457Y-55378044D01*
X120869448Y-55390026D01*
X120888168Y-55403910D01*
X120905438Y-55419562D01*
X120921090Y-55436832D01*
X120934974Y-55455552D01*
X120946956Y-55475543D01*
X120956921Y-55496613D01*
X120964773Y-55518557D01*
X120970437Y-55541166D01*
X120973856Y-55564221D01*
X120975000Y-55587500D01*
X120975000Y-56162500D01*
X120973856Y-56185779D01*
X120970437Y-56208834D01*
X120964773Y-56231443D01*
X120956921Y-56253387D01*
X120946956Y-56274457D01*
X120934974Y-56294448D01*
X120921090Y-56313168D01*
X120905438Y-56330438D01*
X120888168Y-56346090D01*
X120869448Y-56359974D01*
X120849457Y-56371956D01*
X120828387Y-56381921D01*
X120806443Y-56389773D01*
X120783834Y-56395437D01*
X120760779Y-56398856D01*
X120737500Y-56400000D01*
X120262500Y-56400000D01*
X120239221Y-56398856D01*
X120216166Y-56395437D01*
X120193557Y-56389773D01*
X120171613Y-56381921D01*
X120150543Y-56371956D01*
X120130552Y-56359974D01*
X120111832Y-56346090D01*
X120094562Y-56330438D01*
X120078910Y-56313168D01*
X120065026Y-56294448D01*
X120053044Y-56274457D01*
X120043079Y-56253387D01*
X120035227Y-56231443D01*
X120029563Y-56208834D01*
X120026144Y-56185779D01*
X120025000Y-56162500D01*
X120025000Y-55587500D01*
X120026144Y-55564221D01*
X120029563Y-55541166D01*
X120035227Y-55518557D01*
X120043079Y-55496613D01*
X120053044Y-55475543D01*
X120065026Y-55455552D01*
X120078910Y-55436832D01*
X120094562Y-55419562D01*
X120111832Y-55403910D01*
X120130552Y-55390026D01*
X120150543Y-55378044D01*
X120171613Y-55368079D01*
X120193557Y-55360227D01*
X120216166Y-55354563D01*
X120239221Y-55351144D01*
X120262500Y-55350000D01*
X120737500Y-55350000D01*
X120760779Y-55351144D01*
G37*
G36*
X119010779Y-55351144D02*
G01*
X119033834Y-55354563D01*
X119056443Y-55360227D01*
X119078387Y-55368079D01*
X119099457Y-55378044D01*
X119119448Y-55390026D01*
X119138168Y-55403910D01*
X119155438Y-55419562D01*
X119171090Y-55436832D01*
X119184974Y-55455552D01*
X119196956Y-55475543D01*
X119206921Y-55496613D01*
X119214773Y-55518557D01*
X119220437Y-55541166D01*
X119223856Y-55564221D01*
X119225000Y-55587500D01*
X119225000Y-56162500D01*
X119223856Y-56185779D01*
X119220437Y-56208834D01*
X119214773Y-56231443D01*
X119206921Y-56253387D01*
X119196956Y-56274457D01*
X119184974Y-56294448D01*
X119171090Y-56313168D01*
X119155438Y-56330438D01*
X119138168Y-56346090D01*
X119119448Y-56359974D01*
X119099457Y-56371956D01*
X119078387Y-56381921D01*
X119056443Y-56389773D01*
X119033834Y-56395437D01*
X119010779Y-56398856D01*
X118987500Y-56400000D01*
X118512500Y-56400000D01*
X118489221Y-56398856D01*
X118466166Y-56395437D01*
X118443557Y-56389773D01*
X118421613Y-56381921D01*
X118400543Y-56371956D01*
X118380552Y-56359974D01*
X118361832Y-56346090D01*
X118344562Y-56330438D01*
X118328910Y-56313168D01*
X118315026Y-56294448D01*
X118303044Y-56274457D01*
X118293079Y-56253387D01*
X118285227Y-56231443D01*
X118279563Y-56208834D01*
X118276144Y-56185779D01*
X118275000Y-56162500D01*
X118275000Y-55587500D01*
X118276144Y-55564221D01*
X118279563Y-55541166D01*
X118285227Y-55518557D01*
X118293079Y-55496613D01*
X118303044Y-55475543D01*
X118315026Y-55455552D01*
X118328910Y-55436832D01*
X118344562Y-55419562D01*
X118361832Y-55403910D01*
X118380552Y-55390026D01*
X118400543Y-55378044D01*
X118421613Y-55368079D01*
X118443557Y-55360227D01*
X118466166Y-55354563D01*
X118489221Y-55351144D01*
X118512500Y-55350000D01*
X118987500Y-55350000D01*
X119010779Y-55351144D01*
G37*
G36*
X119010779Y-57101144D02*
G01*
X119033834Y-57104563D01*
X119056443Y-57110227D01*
X119078387Y-57118079D01*
X119099457Y-57128044D01*
X119119448Y-57140026D01*
X119138168Y-57153910D01*
X119155438Y-57169562D01*
X119171090Y-57186832D01*
X119184974Y-57205552D01*
X119196956Y-57225543D01*
X119206921Y-57246613D01*
X119214773Y-57268557D01*
X119220437Y-57291166D01*
X119223856Y-57314221D01*
X119225000Y-57337500D01*
X119225000Y-57912500D01*
X119223856Y-57935779D01*
X119220437Y-57958834D01*
X119214773Y-57981443D01*
X119206921Y-58003387D01*
X119196956Y-58024457D01*
X119184974Y-58044448D01*
X119171090Y-58063168D01*
X119155438Y-58080438D01*
X119138168Y-58096090D01*
X119119448Y-58109974D01*
X119099457Y-58121956D01*
X119078387Y-58131921D01*
X119056443Y-58139773D01*
X119033834Y-58145437D01*
X119010779Y-58148856D01*
X118987500Y-58150000D01*
X118512500Y-58150000D01*
X118489221Y-58148856D01*
X118466166Y-58145437D01*
X118443557Y-58139773D01*
X118421613Y-58131921D01*
X118400543Y-58121956D01*
X118380552Y-58109974D01*
X118361832Y-58096090D01*
X118344562Y-58080438D01*
X118328910Y-58063168D01*
X118315026Y-58044448D01*
X118303044Y-58024457D01*
X118293079Y-58003387D01*
X118285227Y-57981443D01*
X118279563Y-57958834D01*
X118276144Y-57935779D01*
X118275000Y-57912500D01*
X118275000Y-57337500D01*
X118276144Y-57314221D01*
X118279563Y-57291166D01*
X118285227Y-57268557D01*
X118293079Y-57246613D01*
X118303044Y-57225543D01*
X118315026Y-57205552D01*
X118328910Y-57186832D01*
X118344562Y-57169562D01*
X118361832Y-57153910D01*
X118380552Y-57140026D01*
X118400543Y-57128044D01*
X118421613Y-57118079D01*
X118443557Y-57110227D01*
X118466166Y-57104563D01*
X118489221Y-57101144D01*
X118512500Y-57100000D01*
X118987500Y-57100000D01*
X119010779Y-57101144D01*
G37*
D13*
X100550000Y-64900000D03*
X102450000Y-64900000D03*
X102450000Y-67100000D03*
X101500000Y-67100000D03*
X100550000Y-67100000D03*
D14*
X76250000Y-55500000D03*
X76250000Y-56770000D03*
X76250000Y-58040000D03*
X76250000Y-59310000D03*
X76250000Y-60580000D03*
X76250000Y-61850000D03*
X76250000Y-63120000D03*
X76250000Y-64390000D03*
X76250000Y-65660000D03*
X76250000Y-66930000D03*
X76250000Y-68200000D03*
X76250000Y-69470000D03*
X76250000Y-70740000D03*
X76250000Y-72010000D03*
D15*
X73465000Y-73010000D03*
X72195000Y-73010000D03*
X70925000Y-73010000D03*
X69655000Y-73010000D03*
X68385000Y-73010000D03*
X67115000Y-73010000D03*
X65845000Y-73010000D03*
X64575000Y-73010000D03*
X63305000Y-73010000D03*
X62035000Y-73010000D03*
D14*
X59250000Y-72010000D03*
X59250000Y-70740000D03*
X59250000Y-69470000D03*
X59250000Y-68200000D03*
X59250000Y-66930000D03*
X59250000Y-65660000D03*
X59250000Y-64390000D03*
X59250000Y-63120000D03*
X59250000Y-61850000D03*
X59250000Y-60580000D03*
X59250000Y-59310000D03*
X59250000Y-58040000D03*
X59250000Y-56770000D03*
X59250000Y-55500000D03*
D16*
X66750000Y-63000000D03*
D17*
X51500000Y-60250000D03*
D18*
X54200000Y-58600000D03*
X54200000Y-57950000D03*
X54200000Y-60550000D03*
X54200000Y-59900000D03*
X54200000Y-59250000D03*
D17*
X51500000Y-58250000D03*
D11*
G36*
X109399504Y-67538704D02*
G01*
X109423773Y-67542304D01*
X109447571Y-67548265D01*
X109470671Y-67556530D01*
X109492849Y-67567020D01*
X109513893Y-67579633D01*
X109533598Y-67594247D01*
X109551777Y-67610723D01*
X109568253Y-67628902D01*
X109582867Y-67648607D01*
X109595480Y-67669651D01*
X109605970Y-67691829D01*
X109614235Y-67714929D01*
X109620196Y-67738727D01*
X109623796Y-67762996D01*
X109625000Y-67787500D01*
X109625000Y-68712500D01*
X109623796Y-68737004D01*
X109620196Y-68761273D01*
X109614235Y-68785071D01*
X109605970Y-68808171D01*
X109595480Y-68830349D01*
X109582867Y-68851393D01*
X109568253Y-68871098D01*
X109551777Y-68889277D01*
X109533598Y-68905753D01*
X109513893Y-68920367D01*
X109492849Y-68932980D01*
X109470671Y-68943470D01*
X109447571Y-68951735D01*
X109423773Y-68957696D01*
X109399504Y-68961296D01*
X109375000Y-68962500D01*
X108125000Y-68962500D01*
X108100496Y-68961296D01*
X108076227Y-68957696D01*
X108052429Y-68951735D01*
X108029329Y-68943470D01*
X108007151Y-68932980D01*
X107986107Y-68920367D01*
X107966402Y-68905753D01*
X107948223Y-68889277D01*
X107931747Y-68871098D01*
X107917133Y-68851393D01*
X107904520Y-68830349D01*
X107894030Y-68808171D01*
X107885765Y-68785071D01*
X107879804Y-68761273D01*
X107876204Y-68737004D01*
X107875000Y-68712500D01*
X107875000Y-67787500D01*
X107876204Y-67762996D01*
X107879804Y-67738727D01*
X107885765Y-67714929D01*
X107894030Y-67691829D01*
X107904520Y-67669651D01*
X107917133Y-67648607D01*
X107931747Y-67628902D01*
X107948223Y-67610723D01*
X107966402Y-67594247D01*
X107986107Y-67579633D01*
X108007151Y-67567020D01*
X108029329Y-67556530D01*
X108052429Y-67548265D01*
X108076227Y-67542304D01*
X108100496Y-67538704D01*
X108125000Y-67537500D01*
X109375000Y-67537500D01*
X109399504Y-67538704D01*
G37*
G36*
X109399504Y-70513704D02*
G01*
X109423773Y-70517304D01*
X109447571Y-70523265D01*
X109470671Y-70531530D01*
X109492849Y-70542020D01*
X109513893Y-70554633D01*
X109533598Y-70569247D01*
X109551777Y-70585723D01*
X109568253Y-70603902D01*
X109582867Y-70623607D01*
X109595480Y-70644651D01*
X109605970Y-70666829D01*
X109614235Y-70689929D01*
X109620196Y-70713727D01*
X109623796Y-70737996D01*
X109625000Y-70762500D01*
X109625000Y-71687500D01*
X109623796Y-71712004D01*
X109620196Y-71736273D01*
X109614235Y-71760071D01*
X109605970Y-71783171D01*
X109595480Y-71805349D01*
X109582867Y-71826393D01*
X109568253Y-71846098D01*
X109551777Y-71864277D01*
X109533598Y-71880753D01*
X109513893Y-71895367D01*
X109492849Y-71907980D01*
X109470671Y-71918470D01*
X109447571Y-71926735D01*
X109423773Y-71932696D01*
X109399504Y-71936296D01*
X109375000Y-71937500D01*
X108125000Y-71937500D01*
X108100496Y-71936296D01*
X108076227Y-71932696D01*
X108052429Y-71926735D01*
X108029329Y-71918470D01*
X108007151Y-71907980D01*
X107986107Y-71895367D01*
X107966402Y-71880753D01*
X107948223Y-71864277D01*
X107931747Y-71846098D01*
X107917133Y-71826393D01*
X107904520Y-71805349D01*
X107894030Y-71783171D01*
X107885765Y-71760071D01*
X107879804Y-71736273D01*
X107876204Y-71712004D01*
X107875000Y-71687500D01*
X107875000Y-70762500D01*
X107876204Y-70737996D01*
X107879804Y-70713727D01*
X107885765Y-70689929D01*
X107894030Y-70666829D01*
X107904520Y-70644651D01*
X107917133Y-70623607D01*
X107931747Y-70603902D01*
X107948223Y-70585723D01*
X107966402Y-70569247D01*
X107986107Y-70554633D01*
X108007151Y-70542020D01*
X108029329Y-70531530D01*
X108052429Y-70523265D01*
X108076227Y-70517304D01*
X108100496Y-70513704D01*
X108125000Y-70512500D01*
X109375000Y-70512500D01*
X109399504Y-70513704D01*
G37*
G36*
X111810779Y-72526144D02*
G01*
X111833834Y-72529563D01*
X111856443Y-72535227D01*
X111878387Y-72543079D01*
X111899457Y-72553044D01*
X111919448Y-72565026D01*
X111938168Y-72578910D01*
X111955438Y-72594562D01*
X111971090Y-72611832D01*
X111984974Y-72630552D01*
X111996956Y-72650543D01*
X112006921Y-72671613D01*
X112014773Y-72693557D01*
X112020437Y-72716166D01*
X112023856Y-72739221D01*
X112025000Y-72762500D01*
X112025000Y-73237500D01*
X112023856Y-73260779D01*
X112020437Y-73283834D01*
X112014773Y-73306443D01*
X112006921Y-73328387D01*
X111996956Y-73349457D01*
X111984974Y-73369448D01*
X111971090Y-73388168D01*
X111955438Y-73405438D01*
X111938168Y-73421090D01*
X111919448Y-73434974D01*
X111899457Y-73446956D01*
X111878387Y-73456921D01*
X111856443Y-73464773D01*
X111833834Y-73470437D01*
X111810779Y-73473856D01*
X111787500Y-73475000D01*
X111212500Y-73475000D01*
X111189221Y-73473856D01*
X111166166Y-73470437D01*
X111143557Y-73464773D01*
X111121613Y-73456921D01*
X111100543Y-73446956D01*
X111080552Y-73434974D01*
X111061832Y-73421090D01*
X111044562Y-73405438D01*
X111028910Y-73388168D01*
X111015026Y-73369448D01*
X111003044Y-73349457D01*
X110993079Y-73328387D01*
X110985227Y-73306443D01*
X110979563Y-73283834D01*
X110976144Y-73260779D01*
X110975000Y-73237500D01*
X110975000Y-72762500D01*
X110976144Y-72739221D01*
X110979563Y-72716166D01*
X110985227Y-72693557D01*
X110993079Y-72671613D01*
X111003044Y-72650543D01*
X111015026Y-72630552D01*
X111028910Y-72611832D01*
X111044562Y-72594562D01*
X111061832Y-72578910D01*
X111080552Y-72565026D01*
X111100543Y-72553044D01*
X111121613Y-72543079D01*
X111143557Y-72535227D01*
X111166166Y-72529563D01*
X111189221Y-72526144D01*
X111212500Y-72525000D01*
X111787500Y-72525000D01*
X111810779Y-72526144D01*
G37*
G36*
X113560779Y-72526144D02*
G01*
X113583834Y-72529563D01*
X113606443Y-72535227D01*
X113628387Y-72543079D01*
X113649457Y-72553044D01*
X113669448Y-72565026D01*
X113688168Y-72578910D01*
X113705438Y-72594562D01*
X113721090Y-72611832D01*
X113734974Y-72630552D01*
X113746956Y-72650543D01*
X113756921Y-72671613D01*
X113764773Y-72693557D01*
X113770437Y-72716166D01*
X113773856Y-72739221D01*
X113775000Y-72762500D01*
X113775000Y-73237500D01*
X113773856Y-73260779D01*
X113770437Y-73283834D01*
X113764773Y-73306443D01*
X113756921Y-73328387D01*
X113746956Y-73349457D01*
X113734974Y-73369448D01*
X113721090Y-73388168D01*
X113705438Y-73405438D01*
X113688168Y-73421090D01*
X113669448Y-73434974D01*
X113649457Y-73446956D01*
X113628387Y-73456921D01*
X113606443Y-73464773D01*
X113583834Y-73470437D01*
X113560779Y-73473856D01*
X113537500Y-73475000D01*
X112962500Y-73475000D01*
X112939221Y-73473856D01*
X112916166Y-73470437D01*
X112893557Y-73464773D01*
X112871613Y-73456921D01*
X112850543Y-73446956D01*
X112830552Y-73434974D01*
X112811832Y-73421090D01*
X112794562Y-73405438D01*
X112778910Y-73388168D01*
X112765026Y-73369448D01*
X112753044Y-73349457D01*
X112743079Y-73328387D01*
X112735227Y-73306443D01*
X112729563Y-73283834D01*
X112726144Y-73260779D01*
X112725000Y-73237500D01*
X112725000Y-72762500D01*
X112726144Y-72739221D01*
X112729563Y-72716166D01*
X112735227Y-72693557D01*
X112743079Y-72671613D01*
X112753044Y-72650543D01*
X112765026Y-72630552D01*
X112778910Y-72611832D01*
X112794562Y-72594562D01*
X112811832Y-72578910D01*
X112830552Y-72565026D01*
X112850543Y-72553044D01*
X112871613Y-72543079D01*
X112893557Y-72535227D01*
X112916166Y-72529563D01*
X112939221Y-72526144D01*
X112962500Y-72525000D01*
X113537500Y-72525000D01*
X113560779Y-72526144D01*
G37*
G36*
X100110779Y-78501144D02*
G01*
X100133834Y-78504563D01*
X100156443Y-78510227D01*
X100178387Y-78518079D01*
X100199457Y-78528044D01*
X100219448Y-78540026D01*
X100238168Y-78553910D01*
X100255438Y-78569562D01*
X100271090Y-78586832D01*
X100284974Y-78605552D01*
X100296956Y-78625543D01*
X100306921Y-78646613D01*
X100314773Y-78668557D01*
X100320437Y-78691166D01*
X100323856Y-78714221D01*
X100325000Y-78737500D01*
X100325000Y-79312500D01*
X100323856Y-79335779D01*
X100320437Y-79358834D01*
X100314773Y-79381443D01*
X100306921Y-79403387D01*
X100296956Y-79424457D01*
X100284974Y-79444448D01*
X100271090Y-79463168D01*
X100255438Y-79480438D01*
X100238168Y-79496090D01*
X100219448Y-79509974D01*
X100199457Y-79521956D01*
X100178387Y-79531921D01*
X100156443Y-79539773D01*
X100133834Y-79545437D01*
X100110779Y-79548856D01*
X100087500Y-79550000D01*
X99612500Y-79550000D01*
X99589221Y-79548856D01*
X99566166Y-79545437D01*
X99543557Y-79539773D01*
X99521613Y-79531921D01*
X99500543Y-79521956D01*
X99480552Y-79509974D01*
X99461832Y-79496090D01*
X99444562Y-79480438D01*
X99428910Y-79463168D01*
X99415026Y-79444448D01*
X99403044Y-79424457D01*
X99393079Y-79403387D01*
X99385227Y-79381443D01*
X99379563Y-79358834D01*
X99376144Y-79335779D01*
X99375000Y-79312500D01*
X99375000Y-78737500D01*
X99376144Y-78714221D01*
X99379563Y-78691166D01*
X99385227Y-78668557D01*
X99393079Y-78646613D01*
X99403044Y-78625543D01*
X99415026Y-78605552D01*
X99428910Y-78586832D01*
X99444562Y-78569562D01*
X99461832Y-78553910D01*
X99480552Y-78540026D01*
X99500543Y-78528044D01*
X99521613Y-78518079D01*
X99543557Y-78510227D01*
X99566166Y-78504563D01*
X99589221Y-78501144D01*
X99612500Y-78500000D01*
X100087500Y-78500000D01*
X100110779Y-78501144D01*
G37*
G36*
X100110779Y-76751144D02*
G01*
X100133834Y-76754563D01*
X100156443Y-76760227D01*
X100178387Y-76768079D01*
X100199457Y-76778044D01*
X100219448Y-76790026D01*
X100238168Y-76803910D01*
X100255438Y-76819562D01*
X100271090Y-76836832D01*
X100284974Y-76855552D01*
X100296956Y-76875543D01*
X100306921Y-76896613D01*
X100314773Y-76918557D01*
X100320437Y-76941166D01*
X100323856Y-76964221D01*
X100325000Y-76987500D01*
X100325000Y-77562500D01*
X100323856Y-77585779D01*
X100320437Y-77608834D01*
X100314773Y-77631443D01*
X100306921Y-77653387D01*
X100296956Y-77674457D01*
X100284974Y-77694448D01*
X100271090Y-77713168D01*
X100255438Y-77730438D01*
X100238168Y-77746090D01*
X100219448Y-77759974D01*
X100199457Y-77771956D01*
X100178387Y-77781921D01*
X100156443Y-77789773D01*
X100133834Y-77795437D01*
X100110779Y-77798856D01*
X100087500Y-77800000D01*
X99612500Y-77800000D01*
X99589221Y-77798856D01*
X99566166Y-77795437D01*
X99543557Y-77789773D01*
X99521613Y-77781921D01*
X99500543Y-77771956D01*
X99480552Y-77759974D01*
X99461832Y-77746090D01*
X99444562Y-77730438D01*
X99428910Y-77713168D01*
X99415026Y-77694448D01*
X99403044Y-77674457D01*
X99393079Y-77653387D01*
X99385227Y-77631443D01*
X99379563Y-77608834D01*
X99376144Y-77585779D01*
X99375000Y-77562500D01*
X99375000Y-76987500D01*
X99376144Y-76964221D01*
X99379563Y-76941166D01*
X99385227Y-76918557D01*
X99393079Y-76896613D01*
X99403044Y-76875543D01*
X99415026Y-76855552D01*
X99428910Y-76836832D01*
X99444562Y-76819562D01*
X99461832Y-76803910D01*
X99480552Y-76790026D01*
X99500543Y-76778044D01*
X99521613Y-76768079D01*
X99543557Y-76760227D01*
X99566166Y-76754563D01*
X99589221Y-76751144D01*
X99612500Y-76750000D01*
X100087500Y-76750000D01*
X100110779Y-76751144D01*
G37*
G36*
X98535779Y-80676144D02*
G01*
X98558834Y-80679563D01*
X98581443Y-80685227D01*
X98603387Y-80693079D01*
X98624457Y-80703044D01*
X98644448Y-80715026D01*
X98663168Y-80728910D01*
X98680438Y-80744562D01*
X98696090Y-80761832D01*
X98709974Y-80780552D01*
X98721956Y-80800543D01*
X98731921Y-80821613D01*
X98739773Y-80843557D01*
X98745437Y-80866166D01*
X98748856Y-80889221D01*
X98750000Y-80912500D01*
X98750000Y-81387500D01*
X98748856Y-81410779D01*
X98745437Y-81433834D01*
X98739773Y-81456443D01*
X98731921Y-81478387D01*
X98721956Y-81499457D01*
X98709974Y-81519448D01*
X98696090Y-81538168D01*
X98680438Y-81555438D01*
X98663168Y-81571090D01*
X98644448Y-81584974D01*
X98624457Y-81596956D01*
X98603387Y-81606921D01*
X98581443Y-81614773D01*
X98558834Y-81620437D01*
X98535779Y-81623856D01*
X98512500Y-81625000D01*
X97937500Y-81625000D01*
X97914221Y-81623856D01*
X97891166Y-81620437D01*
X97868557Y-81614773D01*
X97846613Y-81606921D01*
X97825543Y-81596956D01*
X97805552Y-81584974D01*
X97786832Y-81571090D01*
X97769562Y-81555438D01*
X97753910Y-81538168D01*
X97740026Y-81519448D01*
X97728044Y-81499457D01*
X97718079Y-81478387D01*
X97710227Y-81456443D01*
X97704563Y-81433834D01*
X97701144Y-81410779D01*
X97700000Y-81387500D01*
X97700000Y-80912500D01*
X97701144Y-80889221D01*
X97704563Y-80866166D01*
X97710227Y-80843557D01*
X97718079Y-80821613D01*
X97728044Y-80800543D01*
X97740026Y-80780552D01*
X97753910Y-80761832D01*
X97769562Y-80744562D01*
X97786832Y-80728910D01*
X97805552Y-80715026D01*
X97825543Y-80703044D01*
X97846613Y-80693079D01*
X97868557Y-80685227D01*
X97891166Y-80679563D01*
X97914221Y-80676144D01*
X97937500Y-80675000D01*
X98512500Y-80675000D01*
X98535779Y-80676144D01*
G37*
G36*
X100285779Y-80676144D02*
G01*
X100308834Y-80679563D01*
X100331443Y-80685227D01*
X100353387Y-80693079D01*
X100374457Y-80703044D01*
X100394448Y-80715026D01*
X100413168Y-80728910D01*
X100430438Y-80744562D01*
X100446090Y-80761832D01*
X100459974Y-80780552D01*
X100471956Y-80800543D01*
X100481921Y-80821613D01*
X100489773Y-80843557D01*
X100495437Y-80866166D01*
X100498856Y-80889221D01*
X100500000Y-80912500D01*
X100500000Y-81387500D01*
X100498856Y-81410779D01*
X100495437Y-81433834D01*
X100489773Y-81456443D01*
X100481921Y-81478387D01*
X100471956Y-81499457D01*
X100459974Y-81519448D01*
X100446090Y-81538168D01*
X100430438Y-81555438D01*
X100413168Y-81571090D01*
X100394448Y-81584974D01*
X100374457Y-81596956D01*
X100353387Y-81606921D01*
X100331443Y-81614773D01*
X100308834Y-81620437D01*
X100285779Y-81623856D01*
X100262500Y-81625000D01*
X99687500Y-81625000D01*
X99664221Y-81623856D01*
X99641166Y-81620437D01*
X99618557Y-81614773D01*
X99596613Y-81606921D01*
X99575543Y-81596956D01*
X99555552Y-81584974D01*
X99536832Y-81571090D01*
X99519562Y-81555438D01*
X99503910Y-81538168D01*
X99490026Y-81519448D01*
X99478044Y-81499457D01*
X99468079Y-81478387D01*
X99460227Y-81456443D01*
X99454563Y-81433834D01*
X99451144Y-81410779D01*
X99450000Y-81387500D01*
X99450000Y-80912500D01*
X99451144Y-80889221D01*
X99454563Y-80866166D01*
X99460227Y-80843557D01*
X99468079Y-80821613D01*
X99478044Y-80800543D01*
X99490026Y-80780552D01*
X99503910Y-80761832D01*
X99519562Y-80744562D01*
X99536832Y-80728910D01*
X99555552Y-80715026D01*
X99575543Y-80703044D01*
X99596613Y-80693079D01*
X99618557Y-80685227D01*
X99641166Y-80679563D01*
X99664221Y-80676144D01*
X99687500Y-80675000D01*
X100262500Y-80675000D01*
X100285779Y-80676144D01*
G37*
G36*
X94285779Y-80676144D02*
G01*
X94308834Y-80679563D01*
X94331443Y-80685227D01*
X94353387Y-80693079D01*
X94374457Y-80703044D01*
X94394448Y-80715026D01*
X94413168Y-80728910D01*
X94430438Y-80744562D01*
X94446090Y-80761832D01*
X94459974Y-80780552D01*
X94471956Y-80800543D01*
X94481921Y-80821613D01*
X94489773Y-80843557D01*
X94495437Y-80866166D01*
X94498856Y-80889221D01*
X94500000Y-80912500D01*
X94500000Y-81387500D01*
X94498856Y-81410779D01*
X94495437Y-81433834D01*
X94489773Y-81456443D01*
X94481921Y-81478387D01*
X94471956Y-81499457D01*
X94459974Y-81519448D01*
X94446090Y-81538168D01*
X94430438Y-81555438D01*
X94413168Y-81571090D01*
X94394448Y-81584974D01*
X94374457Y-81596956D01*
X94353387Y-81606921D01*
X94331443Y-81614773D01*
X94308834Y-81620437D01*
X94285779Y-81623856D01*
X94262500Y-81625000D01*
X93687500Y-81625000D01*
X93664221Y-81623856D01*
X93641166Y-81620437D01*
X93618557Y-81614773D01*
X93596613Y-81606921D01*
X93575543Y-81596956D01*
X93555552Y-81584974D01*
X93536832Y-81571090D01*
X93519562Y-81555438D01*
X93503910Y-81538168D01*
X93490026Y-81519448D01*
X93478044Y-81499457D01*
X93468079Y-81478387D01*
X93460227Y-81456443D01*
X93454563Y-81433834D01*
X93451144Y-81410779D01*
X93450000Y-81387500D01*
X93450000Y-80912500D01*
X93451144Y-80889221D01*
X93454563Y-80866166D01*
X93460227Y-80843557D01*
X93468079Y-80821613D01*
X93478044Y-80800543D01*
X93490026Y-80780552D01*
X93503910Y-80761832D01*
X93519562Y-80744562D01*
X93536832Y-80728910D01*
X93555552Y-80715026D01*
X93575543Y-80703044D01*
X93596613Y-80693079D01*
X93618557Y-80685227D01*
X93641166Y-80679563D01*
X93664221Y-80676144D01*
X93687500Y-80675000D01*
X94262500Y-80675000D01*
X94285779Y-80676144D01*
G37*
G36*
X96035779Y-80676144D02*
G01*
X96058834Y-80679563D01*
X96081443Y-80685227D01*
X96103387Y-80693079D01*
X96124457Y-80703044D01*
X96144448Y-80715026D01*
X96163168Y-80728910D01*
X96180438Y-80744562D01*
X96196090Y-80761832D01*
X96209974Y-80780552D01*
X96221956Y-80800543D01*
X96231921Y-80821613D01*
X96239773Y-80843557D01*
X96245437Y-80866166D01*
X96248856Y-80889221D01*
X96250000Y-80912500D01*
X96250000Y-81387500D01*
X96248856Y-81410779D01*
X96245437Y-81433834D01*
X96239773Y-81456443D01*
X96231921Y-81478387D01*
X96221956Y-81499457D01*
X96209974Y-81519448D01*
X96196090Y-81538168D01*
X96180438Y-81555438D01*
X96163168Y-81571090D01*
X96144448Y-81584974D01*
X96124457Y-81596956D01*
X96103387Y-81606921D01*
X96081443Y-81614773D01*
X96058834Y-81620437D01*
X96035779Y-81623856D01*
X96012500Y-81625000D01*
X95437500Y-81625000D01*
X95414221Y-81623856D01*
X95391166Y-81620437D01*
X95368557Y-81614773D01*
X95346613Y-81606921D01*
X95325543Y-81596956D01*
X95305552Y-81584974D01*
X95286832Y-81571090D01*
X95269562Y-81555438D01*
X95253910Y-81538168D01*
X95240026Y-81519448D01*
X95228044Y-81499457D01*
X95218079Y-81478387D01*
X95210227Y-81456443D01*
X95204563Y-81433834D01*
X95201144Y-81410779D01*
X95200000Y-81387500D01*
X95200000Y-80912500D01*
X95201144Y-80889221D01*
X95204563Y-80866166D01*
X95210227Y-80843557D01*
X95218079Y-80821613D01*
X95228044Y-80800543D01*
X95240026Y-80780552D01*
X95253910Y-80761832D01*
X95269562Y-80744562D01*
X95286832Y-80728910D01*
X95305552Y-80715026D01*
X95325543Y-80703044D01*
X95346613Y-80693079D01*
X95368557Y-80685227D01*
X95391166Y-80679563D01*
X95414221Y-80676144D01*
X95437500Y-80675000D01*
X96012500Y-80675000D01*
X96035779Y-80676144D01*
G37*
D19*
X98100000Y-78150000D03*
X96100000Y-79100000D03*
X96100000Y-77200000D03*
D11*
G36*
X94360779Y-76751144D02*
G01*
X94383834Y-76754563D01*
X94406443Y-76760227D01*
X94428387Y-76768079D01*
X94449457Y-76778044D01*
X94469448Y-76790026D01*
X94488168Y-76803910D01*
X94505438Y-76819562D01*
X94521090Y-76836832D01*
X94534974Y-76855552D01*
X94546956Y-76875543D01*
X94556921Y-76896613D01*
X94564773Y-76918557D01*
X94570437Y-76941166D01*
X94573856Y-76964221D01*
X94575000Y-76987500D01*
X94575000Y-77562500D01*
X94573856Y-77585779D01*
X94570437Y-77608834D01*
X94564773Y-77631443D01*
X94556921Y-77653387D01*
X94546956Y-77674457D01*
X94534974Y-77694448D01*
X94521090Y-77713168D01*
X94505438Y-77730438D01*
X94488168Y-77746090D01*
X94469448Y-77759974D01*
X94449457Y-77771956D01*
X94428387Y-77781921D01*
X94406443Y-77789773D01*
X94383834Y-77795437D01*
X94360779Y-77798856D01*
X94337500Y-77800000D01*
X93862500Y-77800000D01*
X93839221Y-77798856D01*
X93816166Y-77795437D01*
X93793557Y-77789773D01*
X93771613Y-77781921D01*
X93750543Y-77771956D01*
X93730552Y-77759974D01*
X93711832Y-77746090D01*
X93694562Y-77730438D01*
X93678910Y-77713168D01*
X93665026Y-77694448D01*
X93653044Y-77674457D01*
X93643079Y-77653387D01*
X93635227Y-77631443D01*
X93629563Y-77608834D01*
X93626144Y-77585779D01*
X93625000Y-77562500D01*
X93625000Y-76987500D01*
X93626144Y-76964221D01*
X93629563Y-76941166D01*
X93635227Y-76918557D01*
X93643079Y-76896613D01*
X93653044Y-76875543D01*
X93665026Y-76855552D01*
X93678910Y-76836832D01*
X93694562Y-76819562D01*
X93711832Y-76803910D01*
X93730552Y-76790026D01*
X93750543Y-76778044D01*
X93771613Y-76768079D01*
X93793557Y-76760227D01*
X93816166Y-76754563D01*
X93839221Y-76751144D01*
X93862500Y-76750000D01*
X94337500Y-76750000D01*
X94360779Y-76751144D01*
G37*
G36*
X94360779Y-78501144D02*
G01*
X94383834Y-78504563D01*
X94406443Y-78510227D01*
X94428387Y-78518079D01*
X94449457Y-78528044D01*
X94469448Y-78540026D01*
X94488168Y-78553910D01*
X94505438Y-78569562D01*
X94521090Y-78586832D01*
X94534974Y-78605552D01*
X94546956Y-78625543D01*
X94556921Y-78646613D01*
X94564773Y-78668557D01*
X94570437Y-78691166D01*
X94573856Y-78714221D01*
X94575000Y-78737500D01*
X94575000Y-79312500D01*
X94573856Y-79335779D01*
X94570437Y-79358834D01*
X94564773Y-79381443D01*
X94556921Y-79403387D01*
X94546956Y-79424457D01*
X94534974Y-79444448D01*
X94521090Y-79463168D01*
X94505438Y-79480438D01*
X94488168Y-79496090D01*
X94469448Y-79509974D01*
X94449457Y-79521956D01*
X94428387Y-79531921D01*
X94406443Y-79539773D01*
X94383834Y-79545437D01*
X94360779Y-79548856D01*
X94337500Y-79550000D01*
X93862500Y-79550000D01*
X93839221Y-79548856D01*
X93816166Y-79545437D01*
X93793557Y-79539773D01*
X93771613Y-79531921D01*
X93750543Y-79521956D01*
X93730552Y-79509974D01*
X93711832Y-79496090D01*
X93694562Y-79480438D01*
X93678910Y-79463168D01*
X93665026Y-79444448D01*
X93653044Y-79424457D01*
X93643079Y-79403387D01*
X93635227Y-79381443D01*
X93629563Y-79358834D01*
X93626144Y-79335779D01*
X93625000Y-79312500D01*
X93625000Y-78737500D01*
X93626144Y-78714221D01*
X93629563Y-78691166D01*
X93635227Y-78668557D01*
X93643079Y-78646613D01*
X93653044Y-78625543D01*
X93665026Y-78605552D01*
X93678910Y-78586832D01*
X93694562Y-78569562D01*
X93711832Y-78553910D01*
X93730552Y-78540026D01*
X93750543Y-78528044D01*
X93771613Y-78518079D01*
X93793557Y-78510227D01*
X93816166Y-78504563D01*
X93839221Y-78501144D01*
X93862500Y-78500000D01*
X94337500Y-78500000D01*
X94360779Y-78501144D01*
G37*
D13*
X112280000Y-70800000D03*
X113230000Y-70800000D03*
X111330000Y-70800000D03*
X111330000Y-68600000D03*
X112280000Y-68600000D03*
X113230000Y-68600000D03*
D11*
G36*
X104935779Y-72526144D02*
G01*
X104958834Y-72529563D01*
X104981443Y-72535227D01*
X105003387Y-72543079D01*
X105024457Y-72553044D01*
X105044448Y-72565026D01*
X105063168Y-72578910D01*
X105080438Y-72594562D01*
X105096090Y-72611832D01*
X105109974Y-72630552D01*
X105121956Y-72650543D01*
X105131921Y-72671613D01*
X105139773Y-72693557D01*
X105145437Y-72716166D01*
X105148856Y-72739221D01*
X105150000Y-72762500D01*
X105150000Y-73237500D01*
X105148856Y-73260779D01*
X105145437Y-73283834D01*
X105139773Y-73306443D01*
X105131921Y-73328387D01*
X105121956Y-73349457D01*
X105109974Y-73369448D01*
X105096090Y-73388168D01*
X105080438Y-73405438D01*
X105063168Y-73421090D01*
X105044448Y-73434974D01*
X105024457Y-73446956D01*
X105003387Y-73456921D01*
X104981443Y-73464773D01*
X104958834Y-73470437D01*
X104935779Y-73473856D01*
X104912500Y-73475000D01*
X104337500Y-73475000D01*
X104314221Y-73473856D01*
X104291166Y-73470437D01*
X104268557Y-73464773D01*
X104246613Y-73456921D01*
X104225543Y-73446956D01*
X104205552Y-73434974D01*
X104186832Y-73421090D01*
X104169562Y-73405438D01*
X104153910Y-73388168D01*
X104140026Y-73369448D01*
X104128044Y-73349457D01*
X104118079Y-73328387D01*
X104110227Y-73306443D01*
X104104563Y-73283834D01*
X104101144Y-73260779D01*
X104100000Y-73237500D01*
X104100000Y-72762500D01*
X104101144Y-72739221D01*
X104104563Y-72716166D01*
X104110227Y-72693557D01*
X104118079Y-72671613D01*
X104128044Y-72650543D01*
X104140026Y-72630552D01*
X104153910Y-72611832D01*
X104169562Y-72594562D01*
X104186832Y-72578910D01*
X104205552Y-72565026D01*
X104225543Y-72553044D01*
X104246613Y-72543079D01*
X104268557Y-72535227D01*
X104291166Y-72529563D01*
X104314221Y-72526144D01*
X104337500Y-72525000D01*
X104912500Y-72525000D01*
X104935779Y-72526144D01*
G37*
G36*
X106685779Y-72526144D02*
G01*
X106708834Y-72529563D01*
X106731443Y-72535227D01*
X106753387Y-72543079D01*
X106774457Y-72553044D01*
X106794448Y-72565026D01*
X106813168Y-72578910D01*
X106830438Y-72594562D01*
X106846090Y-72611832D01*
X106859974Y-72630552D01*
X106871956Y-72650543D01*
X106881921Y-72671613D01*
X106889773Y-72693557D01*
X106895437Y-72716166D01*
X106898856Y-72739221D01*
X106900000Y-72762500D01*
X106900000Y-73237500D01*
X106898856Y-73260779D01*
X106895437Y-73283834D01*
X106889773Y-73306443D01*
X106881921Y-73328387D01*
X106871956Y-73349457D01*
X106859974Y-73369448D01*
X106846090Y-73388168D01*
X106830438Y-73405438D01*
X106813168Y-73421090D01*
X106794448Y-73434974D01*
X106774457Y-73446956D01*
X106753387Y-73456921D01*
X106731443Y-73464773D01*
X106708834Y-73470437D01*
X106685779Y-73473856D01*
X106662500Y-73475000D01*
X106087500Y-73475000D01*
X106064221Y-73473856D01*
X106041166Y-73470437D01*
X106018557Y-73464773D01*
X105996613Y-73456921D01*
X105975543Y-73446956D01*
X105955552Y-73434974D01*
X105936832Y-73421090D01*
X105919562Y-73405438D01*
X105903910Y-73388168D01*
X105890026Y-73369448D01*
X105878044Y-73349457D01*
X105868079Y-73328387D01*
X105860227Y-73306443D01*
X105854563Y-73283834D01*
X105851144Y-73260779D01*
X105850000Y-73237500D01*
X105850000Y-72762500D01*
X105851144Y-72739221D01*
X105854563Y-72716166D01*
X105860227Y-72693557D01*
X105868079Y-72671613D01*
X105878044Y-72650543D01*
X105890026Y-72630552D01*
X105903910Y-72611832D01*
X105919562Y-72594562D01*
X105936832Y-72578910D01*
X105955552Y-72565026D01*
X105975543Y-72553044D01*
X105996613Y-72543079D01*
X106018557Y-72535227D01*
X106041166Y-72529563D01*
X106064221Y-72526144D01*
X106087500Y-72525000D01*
X106662500Y-72525000D01*
X106685779Y-72526144D01*
G37*
G36*
X113310779Y-65526144D02*
G01*
X113333834Y-65529563D01*
X113356443Y-65535227D01*
X113378387Y-65543079D01*
X113399457Y-65553044D01*
X113419448Y-65565026D01*
X113438168Y-65578910D01*
X113455438Y-65594562D01*
X113471090Y-65611832D01*
X113484974Y-65630552D01*
X113496956Y-65650543D01*
X113506921Y-65671613D01*
X113514773Y-65693557D01*
X113520437Y-65716166D01*
X113523856Y-65739221D01*
X113525000Y-65762500D01*
X113525000Y-66237500D01*
X113523856Y-66260779D01*
X113520437Y-66283834D01*
X113514773Y-66306443D01*
X113506921Y-66328387D01*
X113496956Y-66349457D01*
X113484974Y-66369448D01*
X113471090Y-66388168D01*
X113455438Y-66405438D01*
X113438168Y-66421090D01*
X113419448Y-66434974D01*
X113399457Y-66446956D01*
X113378387Y-66456921D01*
X113356443Y-66464773D01*
X113333834Y-66470437D01*
X113310779Y-66473856D01*
X113287500Y-66475000D01*
X112712500Y-66475000D01*
X112689221Y-66473856D01*
X112666166Y-66470437D01*
X112643557Y-66464773D01*
X112621613Y-66456921D01*
X112600543Y-66446956D01*
X112580552Y-66434974D01*
X112561832Y-66421090D01*
X112544562Y-66405438D01*
X112528910Y-66388168D01*
X112515026Y-66369448D01*
X112503044Y-66349457D01*
X112493079Y-66328387D01*
X112485227Y-66306443D01*
X112479563Y-66283834D01*
X112476144Y-66260779D01*
X112475000Y-66237500D01*
X112475000Y-65762500D01*
X112476144Y-65739221D01*
X112479563Y-65716166D01*
X112485227Y-65693557D01*
X112493079Y-65671613D01*
X112503044Y-65650543D01*
X112515026Y-65630552D01*
X112528910Y-65611832D01*
X112544562Y-65594562D01*
X112561832Y-65578910D01*
X112580552Y-65565026D01*
X112600543Y-65553044D01*
X112621613Y-65543079D01*
X112643557Y-65535227D01*
X112666166Y-65529563D01*
X112689221Y-65526144D01*
X112712500Y-65525000D01*
X113287500Y-65525000D01*
X113310779Y-65526144D01*
G37*
G36*
X115060779Y-65526144D02*
G01*
X115083834Y-65529563D01*
X115106443Y-65535227D01*
X115128387Y-65543079D01*
X115149457Y-65553044D01*
X115169448Y-65565026D01*
X115188168Y-65578910D01*
X115205438Y-65594562D01*
X115221090Y-65611832D01*
X115234974Y-65630552D01*
X115246956Y-65650543D01*
X115256921Y-65671613D01*
X115264773Y-65693557D01*
X115270437Y-65716166D01*
X115273856Y-65739221D01*
X115275000Y-65762500D01*
X115275000Y-66237500D01*
X115273856Y-66260779D01*
X115270437Y-66283834D01*
X115264773Y-66306443D01*
X115256921Y-66328387D01*
X115246956Y-66349457D01*
X115234974Y-66369448D01*
X115221090Y-66388168D01*
X115205438Y-66405438D01*
X115188168Y-66421090D01*
X115169448Y-66434974D01*
X115149457Y-66446956D01*
X115128387Y-66456921D01*
X115106443Y-66464773D01*
X115083834Y-66470437D01*
X115060779Y-66473856D01*
X115037500Y-66475000D01*
X114462500Y-66475000D01*
X114439221Y-66473856D01*
X114416166Y-66470437D01*
X114393557Y-66464773D01*
X114371613Y-66456921D01*
X114350543Y-66446956D01*
X114330552Y-66434974D01*
X114311832Y-66421090D01*
X114294562Y-66405438D01*
X114278910Y-66388168D01*
X114265026Y-66369448D01*
X114253044Y-66349457D01*
X114243079Y-66328387D01*
X114235227Y-66306443D01*
X114229563Y-66283834D01*
X114226144Y-66260779D01*
X114225000Y-66237500D01*
X114225000Y-65762500D01*
X114226144Y-65739221D01*
X114229563Y-65716166D01*
X114235227Y-65693557D01*
X114243079Y-65671613D01*
X114253044Y-65650543D01*
X114265026Y-65630552D01*
X114278910Y-65611832D01*
X114294562Y-65594562D01*
X114311832Y-65578910D01*
X114330552Y-65565026D01*
X114350543Y-65553044D01*
X114371613Y-65543079D01*
X114393557Y-65535227D01*
X114416166Y-65529563D01*
X114439221Y-65526144D01*
X114462500Y-65525000D01*
X115037500Y-65525000D01*
X115060779Y-65526144D01*
G37*
G36*
X108810779Y-65526144D02*
G01*
X108833834Y-65529563D01*
X108856443Y-65535227D01*
X108878387Y-65543079D01*
X108899457Y-65553044D01*
X108919448Y-65565026D01*
X108938168Y-65578910D01*
X108955438Y-65594562D01*
X108971090Y-65611832D01*
X108984974Y-65630552D01*
X108996956Y-65650543D01*
X109006921Y-65671613D01*
X109014773Y-65693557D01*
X109020437Y-65716166D01*
X109023856Y-65739221D01*
X109025000Y-65762500D01*
X109025000Y-66237500D01*
X109023856Y-66260779D01*
X109020437Y-66283834D01*
X109014773Y-66306443D01*
X109006921Y-66328387D01*
X108996956Y-66349457D01*
X108984974Y-66369448D01*
X108971090Y-66388168D01*
X108955438Y-66405438D01*
X108938168Y-66421090D01*
X108919448Y-66434974D01*
X108899457Y-66446956D01*
X108878387Y-66456921D01*
X108856443Y-66464773D01*
X108833834Y-66470437D01*
X108810779Y-66473856D01*
X108787500Y-66475000D01*
X108212500Y-66475000D01*
X108189221Y-66473856D01*
X108166166Y-66470437D01*
X108143557Y-66464773D01*
X108121613Y-66456921D01*
X108100543Y-66446956D01*
X108080552Y-66434974D01*
X108061832Y-66421090D01*
X108044562Y-66405438D01*
X108028910Y-66388168D01*
X108015026Y-66369448D01*
X108003044Y-66349457D01*
X107993079Y-66328387D01*
X107985227Y-66306443D01*
X107979563Y-66283834D01*
X107976144Y-66260779D01*
X107975000Y-66237500D01*
X107975000Y-65762500D01*
X107976144Y-65739221D01*
X107979563Y-65716166D01*
X107985227Y-65693557D01*
X107993079Y-65671613D01*
X108003044Y-65650543D01*
X108015026Y-65630552D01*
X108028910Y-65611832D01*
X108044562Y-65594562D01*
X108061832Y-65578910D01*
X108080552Y-65565026D01*
X108100543Y-65553044D01*
X108121613Y-65543079D01*
X108143557Y-65535227D01*
X108166166Y-65529563D01*
X108189221Y-65526144D01*
X108212500Y-65525000D01*
X108787500Y-65525000D01*
X108810779Y-65526144D01*
G37*
G36*
X110560779Y-65526144D02*
G01*
X110583834Y-65529563D01*
X110606443Y-65535227D01*
X110628387Y-65543079D01*
X110649457Y-65553044D01*
X110669448Y-65565026D01*
X110688168Y-65578910D01*
X110705438Y-65594562D01*
X110721090Y-65611832D01*
X110734974Y-65630552D01*
X110746956Y-65650543D01*
X110756921Y-65671613D01*
X110764773Y-65693557D01*
X110770437Y-65716166D01*
X110773856Y-65739221D01*
X110775000Y-65762500D01*
X110775000Y-66237500D01*
X110773856Y-66260779D01*
X110770437Y-66283834D01*
X110764773Y-66306443D01*
X110756921Y-66328387D01*
X110746956Y-66349457D01*
X110734974Y-66369448D01*
X110721090Y-66388168D01*
X110705438Y-66405438D01*
X110688168Y-66421090D01*
X110669448Y-66434974D01*
X110649457Y-66446956D01*
X110628387Y-66456921D01*
X110606443Y-66464773D01*
X110583834Y-66470437D01*
X110560779Y-66473856D01*
X110537500Y-66475000D01*
X109962500Y-66475000D01*
X109939221Y-66473856D01*
X109916166Y-66470437D01*
X109893557Y-66464773D01*
X109871613Y-66456921D01*
X109850543Y-66446956D01*
X109830552Y-66434974D01*
X109811832Y-66421090D01*
X109794562Y-66405438D01*
X109778910Y-66388168D01*
X109765026Y-66369448D01*
X109753044Y-66349457D01*
X109743079Y-66328387D01*
X109735227Y-66306443D01*
X109729563Y-66283834D01*
X109726144Y-66260779D01*
X109725000Y-66237500D01*
X109725000Y-65762500D01*
X109726144Y-65739221D01*
X109729563Y-65716166D01*
X109735227Y-65693557D01*
X109743079Y-65671613D01*
X109753044Y-65650543D01*
X109765026Y-65630552D01*
X109778910Y-65611832D01*
X109794562Y-65594562D01*
X109811832Y-65578910D01*
X109830552Y-65565026D01*
X109850543Y-65553044D01*
X109871613Y-65543079D01*
X109893557Y-65535227D01*
X109916166Y-65529563D01*
X109939221Y-65526144D01*
X109962500Y-65525000D01*
X110537500Y-65525000D01*
X110560779Y-65526144D01*
G37*
G36*
X106685779Y-70526144D02*
G01*
X106708834Y-70529563D01*
X106731443Y-70535227D01*
X106753387Y-70543079D01*
X106774457Y-70553044D01*
X106794448Y-70565026D01*
X106813168Y-70578910D01*
X106830438Y-70594562D01*
X106846090Y-70611832D01*
X106859974Y-70630552D01*
X106871956Y-70650543D01*
X106881921Y-70671613D01*
X106889773Y-70693557D01*
X106895437Y-70716166D01*
X106898856Y-70739221D01*
X106900000Y-70762500D01*
X106900000Y-71237500D01*
X106898856Y-71260779D01*
X106895437Y-71283834D01*
X106889773Y-71306443D01*
X106881921Y-71328387D01*
X106871956Y-71349457D01*
X106859974Y-71369448D01*
X106846090Y-71388168D01*
X106830438Y-71405438D01*
X106813168Y-71421090D01*
X106794448Y-71434974D01*
X106774457Y-71446956D01*
X106753387Y-71456921D01*
X106731443Y-71464773D01*
X106708834Y-71470437D01*
X106685779Y-71473856D01*
X106662500Y-71475000D01*
X106087500Y-71475000D01*
X106064221Y-71473856D01*
X106041166Y-71470437D01*
X106018557Y-71464773D01*
X105996613Y-71456921D01*
X105975543Y-71446956D01*
X105955552Y-71434974D01*
X105936832Y-71421090D01*
X105919562Y-71405438D01*
X105903910Y-71388168D01*
X105890026Y-71369448D01*
X105878044Y-71349457D01*
X105868079Y-71328387D01*
X105860227Y-71306443D01*
X105854563Y-71283834D01*
X105851144Y-71260779D01*
X105850000Y-71237500D01*
X105850000Y-70762500D01*
X105851144Y-70739221D01*
X105854563Y-70716166D01*
X105860227Y-70693557D01*
X105868079Y-70671613D01*
X105878044Y-70650543D01*
X105890026Y-70630552D01*
X105903910Y-70611832D01*
X105919562Y-70594562D01*
X105936832Y-70578910D01*
X105955552Y-70565026D01*
X105975543Y-70553044D01*
X105996613Y-70543079D01*
X106018557Y-70535227D01*
X106041166Y-70529563D01*
X106064221Y-70526144D01*
X106087500Y-70525000D01*
X106662500Y-70525000D01*
X106685779Y-70526144D01*
G37*
G36*
X104935779Y-70526144D02*
G01*
X104958834Y-70529563D01*
X104981443Y-70535227D01*
X105003387Y-70543079D01*
X105024457Y-70553044D01*
X105044448Y-70565026D01*
X105063168Y-70578910D01*
X105080438Y-70594562D01*
X105096090Y-70611832D01*
X105109974Y-70630552D01*
X105121956Y-70650543D01*
X105131921Y-70671613D01*
X105139773Y-70693557D01*
X105145437Y-70716166D01*
X105148856Y-70739221D01*
X105150000Y-70762500D01*
X105150000Y-71237500D01*
X105148856Y-71260779D01*
X105145437Y-71283834D01*
X105139773Y-71306443D01*
X105131921Y-71328387D01*
X105121956Y-71349457D01*
X105109974Y-71369448D01*
X105096090Y-71388168D01*
X105080438Y-71405438D01*
X105063168Y-71421090D01*
X105044448Y-71434974D01*
X105024457Y-71446956D01*
X105003387Y-71456921D01*
X104981443Y-71464773D01*
X104958834Y-71470437D01*
X104935779Y-71473856D01*
X104912500Y-71475000D01*
X104337500Y-71475000D01*
X104314221Y-71473856D01*
X104291166Y-71470437D01*
X104268557Y-71464773D01*
X104246613Y-71456921D01*
X104225543Y-71446956D01*
X104205552Y-71434974D01*
X104186832Y-71421090D01*
X104169562Y-71405438D01*
X104153910Y-71388168D01*
X104140026Y-71369448D01*
X104128044Y-71349457D01*
X104118079Y-71328387D01*
X104110227Y-71306443D01*
X104104563Y-71283834D01*
X104101144Y-71260779D01*
X104100000Y-71237500D01*
X104100000Y-70762500D01*
X104101144Y-70739221D01*
X104104563Y-70716166D01*
X104110227Y-70693557D01*
X104118079Y-70671613D01*
X104128044Y-70650543D01*
X104140026Y-70630552D01*
X104153910Y-70611832D01*
X104169562Y-70594562D01*
X104186832Y-70578910D01*
X104205552Y-70565026D01*
X104225543Y-70553044D01*
X104246613Y-70543079D01*
X104268557Y-70535227D01*
X104291166Y-70529563D01*
X104314221Y-70526144D01*
X104337500Y-70525000D01*
X104912500Y-70525000D01*
X104935779Y-70526144D01*
G37*
G36*
X57260779Y-60101144D02*
G01*
X57283834Y-60104563D01*
X57306443Y-60110227D01*
X57328387Y-60118079D01*
X57349457Y-60128044D01*
X57369448Y-60140026D01*
X57388168Y-60153910D01*
X57405438Y-60169562D01*
X57421090Y-60186832D01*
X57434974Y-60205552D01*
X57446956Y-60225543D01*
X57456921Y-60246613D01*
X57464773Y-60268557D01*
X57470437Y-60291166D01*
X57473856Y-60314221D01*
X57475000Y-60337500D01*
X57475000Y-60912500D01*
X57473856Y-60935779D01*
X57470437Y-60958834D01*
X57464773Y-60981443D01*
X57456921Y-61003387D01*
X57446956Y-61024457D01*
X57434974Y-61044448D01*
X57421090Y-61063168D01*
X57405438Y-61080438D01*
X57388168Y-61096090D01*
X57369448Y-61109974D01*
X57349457Y-61121956D01*
X57328387Y-61131921D01*
X57306443Y-61139773D01*
X57283834Y-61145437D01*
X57260779Y-61148856D01*
X57237500Y-61150000D01*
X56762500Y-61150000D01*
X56739221Y-61148856D01*
X56716166Y-61145437D01*
X56693557Y-61139773D01*
X56671613Y-61131921D01*
X56650543Y-61121956D01*
X56630552Y-61109974D01*
X56611832Y-61096090D01*
X56594562Y-61080438D01*
X56578910Y-61063168D01*
X56565026Y-61044448D01*
X56553044Y-61024457D01*
X56543079Y-61003387D01*
X56535227Y-60981443D01*
X56529563Y-60958834D01*
X56526144Y-60935779D01*
X56525000Y-60912500D01*
X56525000Y-60337500D01*
X56526144Y-60314221D01*
X56529563Y-60291166D01*
X56535227Y-60268557D01*
X56543079Y-60246613D01*
X56553044Y-60225543D01*
X56565026Y-60205552D01*
X56578910Y-60186832D01*
X56594562Y-60169562D01*
X56611832Y-60153910D01*
X56630552Y-60140026D01*
X56650543Y-60128044D01*
X56671613Y-60118079D01*
X56693557Y-60110227D01*
X56716166Y-60104563D01*
X56739221Y-60101144D01*
X56762500Y-60100000D01*
X57237500Y-60100000D01*
X57260779Y-60101144D01*
G37*
G36*
X57260779Y-61851144D02*
G01*
X57283834Y-61854563D01*
X57306443Y-61860227D01*
X57328387Y-61868079D01*
X57349457Y-61878044D01*
X57369448Y-61890026D01*
X57388168Y-61903910D01*
X57405438Y-61919562D01*
X57421090Y-61936832D01*
X57434974Y-61955552D01*
X57446956Y-61975543D01*
X57456921Y-61996613D01*
X57464773Y-62018557D01*
X57470437Y-62041166D01*
X57473856Y-62064221D01*
X57475000Y-62087500D01*
X57475000Y-62662500D01*
X57473856Y-62685779D01*
X57470437Y-62708834D01*
X57464773Y-62731443D01*
X57456921Y-62753387D01*
X57446956Y-62774457D01*
X57434974Y-62794448D01*
X57421090Y-62813168D01*
X57405438Y-62830438D01*
X57388168Y-62846090D01*
X57369448Y-62859974D01*
X57349457Y-62871956D01*
X57328387Y-62881921D01*
X57306443Y-62889773D01*
X57283834Y-62895437D01*
X57260779Y-62898856D01*
X57237500Y-62900000D01*
X56762500Y-62900000D01*
X56739221Y-62898856D01*
X56716166Y-62895437D01*
X56693557Y-62889773D01*
X56671613Y-62881921D01*
X56650543Y-62871956D01*
X56630552Y-62859974D01*
X56611832Y-62846090D01*
X56594562Y-62830438D01*
X56578910Y-62813168D01*
X56565026Y-62794448D01*
X56553044Y-62774457D01*
X56543079Y-62753387D01*
X56535227Y-62731443D01*
X56529563Y-62708834D01*
X56526144Y-62685779D01*
X56525000Y-62662500D01*
X56525000Y-62087500D01*
X56526144Y-62064221D01*
X56529563Y-62041166D01*
X56535227Y-62018557D01*
X56543079Y-61996613D01*
X56553044Y-61975543D01*
X56565026Y-61955552D01*
X56578910Y-61936832D01*
X56594562Y-61919562D01*
X56611832Y-61903910D01*
X56630552Y-61890026D01*
X56650543Y-61878044D01*
X56671613Y-61868079D01*
X56693557Y-61860227D01*
X56716166Y-61854563D01*
X56739221Y-61851144D01*
X56762500Y-61850000D01*
X57237500Y-61850000D01*
X57260779Y-61851144D01*
G37*
G36*
X116399504Y-67551204D02*
G01*
X116423773Y-67554804D01*
X116447571Y-67560765D01*
X116470671Y-67569030D01*
X116492849Y-67579520D01*
X116513893Y-67592133D01*
X116533598Y-67606747D01*
X116551777Y-67623223D01*
X116568253Y-67641402D01*
X116582867Y-67661107D01*
X116595480Y-67682151D01*
X116605970Y-67704329D01*
X116614235Y-67727429D01*
X116620196Y-67751227D01*
X116623796Y-67775496D01*
X116625000Y-67800000D01*
X116625000Y-68725000D01*
X116623796Y-68749504D01*
X116620196Y-68773773D01*
X116614235Y-68797571D01*
X116605970Y-68820671D01*
X116595480Y-68842849D01*
X116582867Y-68863893D01*
X116568253Y-68883598D01*
X116551777Y-68901777D01*
X116533598Y-68918253D01*
X116513893Y-68932867D01*
X116492849Y-68945480D01*
X116470671Y-68955970D01*
X116447571Y-68964235D01*
X116423773Y-68970196D01*
X116399504Y-68973796D01*
X116375000Y-68975000D01*
X115125000Y-68975000D01*
X115100496Y-68973796D01*
X115076227Y-68970196D01*
X115052429Y-68964235D01*
X115029329Y-68955970D01*
X115007151Y-68945480D01*
X114986107Y-68932867D01*
X114966402Y-68918253D01*
X114948223Y-68901777D01*
X114931747Y-68883598D01*
X114917133Y-68863893D01*
X114904520Y-68842849D01*
X114894030Y-68820671D01*
X114885765Y-68797571D01*
X114879804Y-68773773D01*
X114876204Y-68749504D01*
X114875000Y-68725000D01*
X114875000Y-67800000D01*
X114876204Y-67775496D01*
X114879804Y-67751227D01*
X114885765Y-67727429D01*
X114894030Y-67704329D01*
X114904520Y-67682151D01*
X114917133Y-67661107D01*
X114931747Y-67641402D01*
X114948223Y-67623223D01*
X114966402Y-67606747D01*
X114986107Y-67592133D01*
X115007151Y-67579520D01*
X115029329Y-67569030D01*
X115052429Y-67560765D01*
X115076227Y-67554804D01*
X115100496Y-67551204D01*
X115125000Y-67550000D01*
X116375000Y-67550000D01*
X116399504Y-67551204D01*
G37*
G36*
X116399504Y-70526204D02*
G01*
X116423773Y-70529804D01*
X116447571Y-70535765D01*
X116470671Y-70544030D01*
X116492849Y-70554520D01*
X116513893Y-70567133D01*
X116533598Y-70581747D01*
X116551777Y-70598223D01*
X116568253Y-70616402D01*
X116582867Y-70636107D01*
X116595480Y-70657151D01*
X116605970Y-70679329D01*
X116614235Y-70702429D01*
X116620196Y-70726227D01*
X116623796Y-70750496D01*
X116625000Y-70775000D01*
X116625000Y-71700000D01*
X116623796Y-71724504D01*
X116620196Y-71748773D01*
X116614235Y-71772571D01*
X116605970Y-71795671D01*
X116595480Y-71817849D01*
X116582867Y-71838893D01*
X116568253Y-71858598D01*
X116551777Y-71876777D01*
X116533598Y-71893253D01*
X116513893Y-71907867D01*
X116492849Y-71920480D01*
X116470671Y-71930970D01*
X116447571Y-71939235D01*
X116423773Y-71945196D01*
X116399504Y-71948796D01*
X116375000Y-71950000D01*
X115125000Y-71950000D01*
X115100496Y-71948796D01*
X115076227Y-71945196D01*
X115052429Y-71939235D01*
X115029329Y-71930970D01*
X115007151Y-71920480D01*
X114986107Y-71907867D01*
X114966402Y-71893253D01*
X114948223Y-71876777D01*
X114931747Y-71858598D01*
X114917133Y-71838893D01*
X114904520Y-71817849D01*
X114894030Y-71795671D01*
X114885765Y-71772571D01*
X114879804Y-71748773D01*
X114876204Y-71724504D01*
X114875000Y-71700000D01*
X114875000Y-70775000D01*
X114876204Y-70750496D01*
X114879804Y-70726227D01*
X114885765Y-70702429D01*
X114894030Y-70679329D01*
X114904520Y-70657151D01*
X114917133Y-70636107D01*
X114931747Y-70616402D01*
X114948223Y-70598223D01*
X114966402Y-70581747D01*
X114986107Y-70567133D01*
X115007151Y-70554520D01*
X115029329Y-70544030D01*
X115052429Y-70535765D01*
X115076227Y-70529804D01*
X115100496Y-70526204D01*
X115125000Y-70525000D01*
X116375000Y-70525000D01*
X116399504Y-70526204D01*
G37*
G36*
X125760779Y-67726144D02*
G01*
X125783834Y-67729563D01*
X125806443Y-67735227D01*
X125828387Y-67743079D01*
X125849457Y-67753044D01*
X125869448Y-67765026D01*
X125888168Y-67778910D01*
X125905438Y-67794562D01*
X125921090Y-67811832D01*
X125934974Y-67830552D01*
X125946956Y-67850543D01*
X125956921Y-67871613D01*
X125964773Y-67893557D01*
X125970437Y-67916166D01*
X125973856Y-67939221D01*
X125975000Y-67962500D01*
X125975000Y-68537500D01*
X125973856Y-68560779D01*
X125970437Y-68583834D01*
X125964773Y-68606443D01*
X125956921Y-68628387D01*
X125946956Y-68649457D01*
X125934974Y-68669448D01*
X125921090Y-68688168D01*
X125905438Y-68705438D01*
X125888168Y-68721090D01*
X125869448Y-68734974D01*
X125849457Y-68746956D01*
X125828387Y-68756921D01*
X125806443Y-68764773D01*
X125783834Y-68770437D01*
X125760779Y-68773856D01*
X125737500Y-68775000D01*
X125262500Y-68775000D01*
X125239221Y-68773856D01*
X125216166Y-68770437D01*
X125193557Y-68764773D01*
X125171613Y-68756921D01*
X125150543Y-68746956D01*
X125130552Y-68734974D01*
X125111832Y-68721090D01*
X125094562Y-68705438D01*
X125078910Y-68688168D01*
X125065026Y-68669448D01*
X125053044Y-68649457D01*
X125043079Y-68628387D01*
X125035227Y-68606443D01*
X125029563Y-68583834D01*
X125026144Y-68560779D01*
X125025000Y-68537500D01*
X125025000Y-67962500D01*
X125026144Y-67939221D01*
X125029563Y-67916166D01*
X125035227Y-67893557D01*
X125043079Y-67871613D01*
X125053044Y-67850543D01*
X125065026Y-67830552D01*
X125078910Y-67811832D01*
X125094562Y-67794562D01*
X125111832Y-67778910D01*
X125130552Y-67765026D01*
X125150543Y-67753044D01*
X125171613Y-67743079D01*
X125193557Y-67735227D01*
X125216166Y-67729563D01*
X125239221Y-67726144D01*
X125262500Y-67725000D01*
X125737500Y-67725000D01*
X125760779Y-67726144D01*
G37*
G36*
X125760779Y-65976144D02*
G01*
X125783834Y-65979563D01*
X125806443Y-65985227D01*
X125828387Y-65993079D01*
X125849457Y-66003044D01*
X125869448Y-66015026D01*
X125888168Y-66028910D01*
X125905438Y-66044562D01*
X125921090Y-66061832D01*
X125934974Y-66080552D01*
X125946956Y-66100543D01*
X125956921Y-66121613D01*
X125964773Y-66143557D01*
X125970437Y-66166166D01*
X125973856Y-66189221D01*
X125975000Y-66212500D01*
X125975000Y-66787500D01*
X125973856Y-66810779D01*
X125970437Y-66833834D01*
X125964773Y-66856443D01*
X125956921Y-66878387D01*
X125946956Y-66899457D01*
X125934974Y-66919448D01*
X125921090Y-66938168D01*
X125905438Y-66955438D01*
X125888168Y-66971090D01*
X125869448Y-66984974D01*
X125849457Y-66996956D01*
X125828387Y-67006921D01*
X125806443Y-67014773D01*
X125783834Y-67020437D01*
X125760779Y-67023856D01*
X125737500Y-67025000D01*
X125262500Y-67025000D01*
X125239221Y-67023856D01*
X125216166Y-67020437D01*
X125193557Y-67014773D01*
X125171613Y-67006921D01*
X125150543Y-66996956D01*
X125130552Y-66984974D01*
X125111832Y-66971090D01*
X125094562Y-66955438D01*
X125078910Y-66938168D01*
X125065026Y-66919448D01*
X125053044Y-66899457D01*
X125043079Y-66878387D01*
X125035227Y-66856443D01*
X125029563Y-66833834D01*
X125026144Y-66810779D01*
X125025000Y-66787500D01*
X125025000Y-66212500D01*
X125026144Y-66189221D01*
X125029563Y-66166166D01*
X125035227Y-66143557D01*
X125043079Y-66121613D01*
X125053044Y-66100543D01*
X125065026Y-66080552D01*
X125078910Y-66061832D01*
X125094562Y-66044562D01*
X125111832Y-66028910D01*
X125130552Y-66015026D01*
X125150543Y-66003044D01*
X125171613Y-65993079D01*
X125193557Y-65985227D01*
X125216166Y-65979563D01*
X125239221Y-65976144D01*
X125262500Y-65975000D01*
X125737500Y-65975000D01*
X125760779Y-65976144D01*
G37*
G36*
X125760779Y-74476144D02*
G01*
X125783834Y-74479563D01*
X125806443Y-74485227D01*
X125828387Y-74493079D01*
X125849457Y-74503044D01*
X125869448Y-74515026D01*
X125888168Y-74528910D01*
X125905438Y-74544562D01*
X125921090Y-74561832D01*
X125934974Y-74580552D01*
X125946956Y-74600543D01*
X125956921Y-74621613D01*
X125964773Y-74643557D01*
X125970437Y-74666166D01*
X125973856Y-74689221D01*
X125975000Y-74712500D01*
X125975000Y-75287500D01*
X125973856Y-75310779D01*
X125970437Y-75333834D01*
X125964773Y-75356443D01*
X125956921Y-75378387D01*
X125946956Y-75399457D01*
X125934974Y-75419448D01*
X125921090Y-75438168D01*
X125905438Y-75455438D01*
X125888168Y-75471090D01*
X125869448Y-75484974D01*
X125849457Y-75496956D01*
X125828387Y-75506921D01*
X125806443Y-75514773D01*
X125783834Y-75520437D01*
X125760779Y-75523856D01*
X125737500Y-75525000D01*
X125262500Y-75525000D01*
X125239221Y-75523856D01*
X125216166Y-75520437D01*
X125193557Y-75514773D01*
X125171613Y-75506921D01*
X125150543Y-75496956D01*
X125130552Y-75484974D01*
X125111832Y-75471090D01*
X125094562Y-75455438D01*
X125078910Y-75438168D01*
X125065026Y-75419448D01*
X125053044Y-75399457D01*
X125043079Y-75378387D01*
X125035227Y-75356443D01*
X125029563Y-75333834D01*
X125026144Y-75310779D01*
X125025000Y-75287500D01*
X125025000Y-74712500D01*
X125026144Y-74689221D01*
X125029563Y-74666166D01*
X125035227Y-74643557D01*
X125043079Y-74621613D01*
X125053044Y-74600543D01*
X125065026Y-74580552D01*
X125078910Y-74561832D01*
X125094562Y-74544562D01*
X125111832Y-74528910D01*
X125130552Y-74515026D01*
X125150543Y-74503044D01*
X125171613Y-74493079D01*
X125193557Y-74485227D01*
X125216166Y-74479563D01*
X125239221Y-74476144D01*
X125262500Y-74475000D01*
X125737500Y-74475000D01*
X125760779Y-74476144D01*
G37*
G36*
X125760779Y-76226144D02*
G01*
X125783834Y-76229563D01*
X125806443Y-76235227D01*
X125828387Y-76243079D01*
X125849457Y-76253044D01*
X125869448Y-76265026D01*
X125888168Y-76278910D01*
X125905438Y-76294562D01*
X125921090Y-76311832D01*
X125934974Y-76330552D01*
X125946956Y-76350543D01*
X125956921Y-76371613D01*
X125964773Y-76393557D01*
X125970437Y-76416166D01*
X125973856Y-76439221D01*
X125975000Y-76462500D01*
X125975000Y-77037500D01*
X125973856Y-77060779D01*
X125970437Y-77083834D01*
X125964773Y-77106443D01*
X125956921Y-77128387D01*
X125946956Y-77149457D01*
X125934974Y-77169448D01*
X125921090Y-77188168D01*
X125905438Y-77205438D01*
X125888168Y-77221090D01*
X125869448Y-77234974D01*
X125849457Y-77246956D01*
X125828387Y-77256921D01*
X125806443Y-77264773D01*
X125783834Y-77270437D01*
X125760779Y-77273856D01*
X125737500Y-77275000D01*
X125262500Y-77275000D01*
X125239221Y-77273856D01*
X125216166Y-77270437D01*
X125193557Y-77264773D01*
X125171613Y-77256921D01*
X125150543Y-77246956D01*
X125130552Y-77234974D01*
X125111832Y-77221090D01*
X125094562Y-77205438D01*
X125078910Y-77188168D01*
X125065026Y-77169448D01*
X125053044Y-77149457D01*
X125043079Y-77128387D01*
X125035227Y-77106443D01*
X125029563Y-77083834D01*
X125026144Y-77060779D01*
X125025000Y-77037500D01*
X125025000Y-76462500D01*
X125026144Y-76439221D01*
X125029563Y-76416166D01*
X125035227Y-76393557D01*
X125043079Y-76371613D01*
X125053044Y-76350543D01*
X125065026Y-76330552D01*
X125078910Y-76311832D01*
X125094562Y-76294562D01*
X125111832Y-76278910D01*
X125130552Y-76265026D01*
X125150543Y-76253044D01*
X125171613Y-76243079D01*
X125193557Y-76235227D01*
X125216166Y-76229563D01*
X125239221Y-76226144D01*
X125262500Y-76225000D01*
X125737500Y-76225000D01*
X125760779Y-76226144D01*
G37*
G36*
X125760779Y-70101144D02*
G01*
X125783834Y-70104563D01*
X125806443Y-70110227D01*
X125828387Y-70118079D01*
X125849457Y-70128044D01*
X125869448Y-70140026D01*
X125888168Y-70153910D01*
X125905438Y-70169562D01*
X125921090Y-70186832D01*
X125934974Y-70205552D01*
X125946956Y-70225543D01*
X125956921Y-70246613D01*
X125964773Y-70268557D01*
X125970437Y-70291166D01*
X125973856Y-70314221D01*
X125975000Y-70337500D01*
X125975000Y-70912500D01*
X125973856Y-70935779D01*
X125970437Y-70958834D01*
X125964773Y-70981443D01*
X125956921Y-71003387D01*
X125946956Y-71024457D01*
X125934974Y-71044448D01*
X125921090Y-71063168D01*
X125905438Y-71080438D01*
X125888168Y-71096090D01*
X125869448Y-71109974D01*
X125849457Y-71121956D01*
X125828387Y-71131921D01*
X125806443Y-71139773D01*
X125783834Y-71145437D01*
X125760779Y-71148856D01*
X125737500Y-71150000D01*
X125262500Y-71150000D01*
X125239221Y-71148856D01*
X125216166Y-71145437D01*
X125193557Y-71139773D01*
X125171613Y-71131921D01*
X125150543Y-71121956D01*
X125130552Y-71109974D01*
X125111832Y-71096090D01*
X125094562Y-71080438D01*
X125078910Y-71063168D01*
X125065026Y-71044448D01*
X125053044Y-71024457D01*
X125043079Y-71003387D01*
X125035227Y-70981443D01*
X125029563Y-70958834D01*
X125026144Y-70935779D01*
X125025000Y-70912500D01*
X125025000Y-70337500D01*
X125026144Y-70314221D01*
X125029563Y-70291166D01*
X125035227Y-70268557D01*
X125043079Y-70246613D01*
X125053044Y-70225543D01*
X125065026Y-70205552D01*
X125078910Y-70186832D01*
X125094562Y-70169562D01*
X125111832Y-70153910D01*
X125130552Y-70140026D01*
X125150543Y-70128044D01*
X125171613Y-70118079D01*
X125193557Y-70110227D01*
X125216166Y-70104563D01*
X125239221Y-70101144D01*
X125262500Y-70100000D01*
X125737500Y-70100000D01*
X125760779Y-70101144D01*
G37*
G36*
X125760779Y-71851144D02*
G01*
X125783834Y-71854563D01*
X125806443Y-71860227D01*
X125828387Y-71868079D01*
X125849457Y-71878044D01*
X125869448Y-71890026D01*
X125888168Y-71903910D01*
X125905438Y-71919562D01*
X125921090Y-71936832D01*
X125934974Y-71955552D01*
X125946956Y-71975543D01*
X125956921Y-71996613D01*
X125964773Y-72018557D01*
X125970437Y-72041166D01*
X125973856Y-72064221D01*
X125975000Y-72087500D01*
X125975000Y-72662500D01*
X125973856Y-72685779D01*
X125970437Y-72708834D01*
X125964773Y-72731443D01*
X125956921Y-72753387D01*
X125946956Y-72774457D01*
X125934974Y-72794448D01*
X125921090Y-72813168D01*
X125905438Y-72830438D01*
X125888168Y-72846090D01*
X125869448Y-72859974D01*
X125849457Y-72871956D01*
X125828387Y-72881921D01*
X125806443Y-72889773D01*
X125783834Y-72895437D01*
X125760779Y-72898856D01*
X125737500Y-72900000D01*
X125262500Y-72900000D01*
X125239221Y-72898856D01*
X125216166Y-72895437D01*
X125193557Y-72889773D01*
X125171613Y-72881921D01*
X125150543Y-72871956D01*
X125130552Y-72859974D01*
X125111832Y-72846090D01*
X125094562Y-72830438D01*
X125078910Y-72813168D01*
X125065026Y-72794448D01*
X125053044Y-72774457D01*
X125043079Y-72753387D01*
X125035227Y-72731443D01*
X125029563Y-72708834D01*
X125026144Y-72685779D01*
X125025000Y-72662500D01*
X125025000Y-72087500D01*
X125026144Y-72064221D01*
X125029563Y-72041166D01*
X125035227Y-72018557D01*
X125043079Y-71996613D01*
X125053044Y-71975543D01*
X125065026Y-71955552D01*
X125078910Y-71936832D01*
X125094562Y-71919562D01*
X125111832Y-71903910D01*
X125130552Y-71890026D01*
X125150543Y-71878044D01*
X125171613Y-71868079D01*
X125193557Y-71860227D01*
X125216166Y-71854563D01*
X125239221Y-71851144D01*
X125262500Y-71850000D01*
X125737500Y-71850000D01*
X125760779Y-71851144D01*
G37*
G36*
X59185779Y-73526144D02*
G01*
X59208834Y-73529563D01*
X59231443Y-73535227D01*
X59253387Y-73543079D01*
X59274457Y-73553044D01*
X59294448Y-73565026D01*
X59313168Y-73578910D01*
X59330438Y-73594562D01*
X59346090Y-73611832D01*
X59359974Y-73630552D01*
X59371956Y-73650543D01*
X59381921Y-73671613D01*
X59389773Y-73693557D01*
X59395437Y-73716166D01*
X59398856Y-73739221D01*
X59400000Y-73762500D01*
X59400000Y-74237500D01*
X59398856Y-74260779D01*
X59395437Y-74283834D01*
X59389773Y-74306443D01*
X59381921Y-74328387D01*
X59371956Y-74349457D01*
X59359974Y-74369448D01*
X59346090Y-74388168D01*
X59330438Y-74405438D01*
X59313168Y-74421090D01*
X59294448Y-74434974D01*
X59274457Y-74446956D01*
X59253387Y-74456921D01*
X59231443Y-74464773D01*
X59208834Y-74470437D01*
X59185779Y-74473856D01*
X59162500Y-74475000D01*
X58587500Y-74475000D01*
X58564221Y-74473856D01*
X58541166Y-74470437D01*
X58518557Y-74464773D01*
X58496613Y-74456921D01*
X58475543Y-74446956D01*
X58455552Y-74434974D01*
X58436832Y-74421090D01*
X58419562Y-74405438D01*
X58403910Y-74388168D01*
X58390026Y-74369448D01*
X58378044Y-74349457D01*
X58368079Y-74328387D01*
X58360227Y-74306443D01*
X58354563Y-74283834D01*
X58351144Y-74260779D01*
X58350000Y-74237500D01*
X58350000Y-73762500D01*
X58351144Y-73739221D01*
X58354563Y-73716166D01*
X58360227Y-73693557D01*
X58368079Y-73671613D01*
X58378044Y-73650543D01*
X58390026Y-73630552D01*
X58403910Y-73611832D01*
X58419562Y-73594562D01*
X58436832Y-73578910D01*
X58455552Y-73565026D01*
X58475543Y-73553044D01*
X58496613Y-73543079D01*
X58518557Y-73535227D01*
X58541166Y-73529563D01*
X58564221Y-73526144D01*
X58587500Y-73525000D01*
X59162500Y-73525000D01*
X59185779Y-73526144D01*
G37*
G36*
X57435779Y-73526144D02*
G01*
X57458834Y-73529563D01*
X57481443Y-73535227D01*
X57503387Y-73543079D01*
X57524457Y-73553044D01*
X57544448Y-73565026D01*
X57563168Y-73578910D01*
X57580438Y-73594562D01*
X57596090Y-73611832D01*
X57609974Y-73630552D01*
X57621956Y-73650543D01*
X57631921Y-73671613D01*
X57639773Y-73693557D01*
X57645437Y-73716166D01*
X57648856Y-73739221D01*
X57650000Y-73762500D01*
X57650000Y-74237500D01*
X57648856Y-74260779D01*
X57645437Y-74283834D01*
X57639773Y-74306443D01*
X57631921Y-74328387D01*
X57621956Y-74349457D01*
X57609974Y-74369448D01*
X57596090Y-74388168D01*
X57580438Y-74405438D01*
X57563168Y-74421090D01*
X57544448Y-74434974D01*
X57524457Y-74446956D01*
X57503387Y-74456921D01*
X57481443Y-74464773D01*
X57458834Y-74470437D01*
X57435779Y-74473856D01*
X57412500Y-74475000D01*
X56837500Y-74475000D01*
X56814221Y-74473856D01*
X56791166Y-74470437D01*
X56768557Y-74464773D01*
X56746613Y-74456921D01*
X56725543Y-74446956D01*
X56705552Y-74434974D01*
X56686832Y-74421090D01*
X56669562Y-74405438D01*
X56653910Y-74388168D01*
X56640026Y-74369448D01*
X56628044Y-74349457D01*
X56618079Y-74328387D01*
X56610227Y-74306443D01*
X56604563Y-74283834D01*
X56601144Y-74260779D01*
X56600000Y-74237500D01*
X56600000Y-73762500D01*
X56601144Y-73739221D01*
X56604563Y-73716166D01*
X56610227Y-73693557D01*
X56618079Y-73671613D01*
X56628044Y-73650543D01*
X56640026Y-73630552D01*
X56653910Y-73611832D01*
X56669562Y-73594562D01*
X56686832Y-73578910D01*
X56705552Y-73565026D01*
X56725543Y-73553044D01*
X56746613Y-73543079D01*
X56768557Y-73535227D01*
X56791166Y-73529563D01*
X56814221Y-73526144D01*
X56837500Y-73525000D01*
X57412500Y-73525000D01*
X57435779Y-73526144D01*
G37*
D20*
X88000000Y-54000000D03*
X88950000Y-56000000D03*
X87050000Y-56000000D03*
D11*
G36*
X127974505Y-65676204D02*
G01*
X127998773Y-65679804D01*
X128022572Y-65685765D01*
X128045671Y-65694030D01*
X128067850Y-65704520D01*
X128088893Y-65717132D01*
X128108599Y-65731747D01*
X128126777Y-65748223D01*
X128143253Y-65766401D01*
X128157868Y-65786107D01*
X128170480Y-65807150D01*
X128180970Y-65829329D01*
X128189235Y-65852428D01*
X128195196Y-65876227D01*
X128198796Y-65900495D01*
X128200000Y-65924999D01*
X128200000Y-66575001D01*
X128198796Y-66599505D01*
X128195196Y-66623773D01*
X128189235Y-66647572D01*
X128180970Y-66670671D01*
X128170480Y-66692850D01*
X128157868Y-66713893D01*
X128143253Y-66733599D01*
X128126777Y-66751777D01*
X128108599Y-66768253D01*
X128088893Y-66782868D01*
X128067850Y-66795480D01*
X128045671Y-66805970D01*
X128022572Y-66814235D01*
X127998773Y-66820196D01*
X127974505Y-66823796D01*
X127950001Y-66825000D01*
X127049999Y-66825000D01*
X127025495Y-66823796D01*
X127001227Y-66820196D01*
X126977428Y-66814235D01*
X126954329Y-66805970D01*
X126932150Y-66795480D01*
X126911107Y-66782868D01*
X126891401Y-66768253D01*
X126873223Y-66751777D01*
X126856747Y-66733599D01*
X126842132Y-66713893D01*
X126829520Y-66692850D01*
X126819030Y-66670671D01*
X126810765Y-66647572D01*
X126804804Y-66623773D01*
X126801204Y-66599505D01*
X126800000Y-66575001D01*
X126800000Y-65924999D01*
X126801204Y-65900495D01*
X126804804Y-65876227D01*
X126810765Y-65852428D01*
X126819030Y-65829329D01*
X126829520Y-65807150D01*
X126842132Y-65786107D01*
X126856747Y-65766401D01*
X126873223Y-65748223D01*
X126891401Y-65731747D01*
X126911107Y-65717132D01*
X126932150Y-65704520D01*
X126954329Y-65694030D01*
X126977428Y-65685765D01*
X127001227Y-65679804D01*
X127025495Y-65676204D01*
X127049999Y-65675000D01*
X127950001Y-65675000D01*
X127974505Y-65676204D01*
G37*
G36*
X127974505Y-67726204D02*
G01*
X127998773Y-67729804D01*
X128022572Y-67735765D01*
X128045671Y-67744030D01*
X128067850Y-67754520D01*
X128088893Y-67767132D01*
X128108599Y-67781747D01*
X128126777Y-67798223D01*
X128143253Y-67816401D01*
X128157868Y-67836107D01*
X128170480Y-67857150D01*
X128180970Y-67879329D01*
X128189235Y-67902428D01*
X128195196Y-67926227D01*
X128198796Y-67950495D01*
X128200000Y-67974999D01*
X128200000Y-68625001D01*
X128198796Y-68649505D01*
X128195196Y-68673773D01*
X128189235Y-68697572D01*
X128180970Y-68720671D01*
X128170480Y-68742850D01*
X128157868Y-68763893D01*
X128143253Y-68783599D01*
X128126777Y-68801777D01*
X128108599Y-68818253D01*
X128088893Y-68832868D01*
X128067850Y-68845480D01*
X128045671Y-68855970D01*
X128022572Y-68864235D01*
X127998773Y-68870196D01*
X127974505Y-68873796D01*
X127950001Y-68875000D01*
X127049999Y-68875000D01*
X127025495Y-68873796D01*
X127001227Y-68870196D01*
X126977428Y-68864235D01*
X126954329Y-68855970D01*
X126932150Y-68845480D01*
X126911107Y-68832868D01*
X126891401Y-68818253D01*
X126873223Y-68801777D01*
X126856747Y-68783599D01*
X126842132Y-68763893D01*
X126829520Y-68742850D01*
X126819030Y-68720671D01*
X126810765Y-68697572D01*
X126804804Y-68673773D01*
X126801204Y-68649505D01*
X126800000Y-68625001D01*
X126800000Y-67974999D01*
X126801204Y-67950495D01*
X126804804Y-67926227D01*
X126810765Y-67902428D01*
X126819030Y-67879329D01*
X126829520Y-67857150D01*
X126842132Y-67836107D01*
X126856747Y-67816401D01*
X126873223Y-67798223D01*
X126891401Y-67781747D01*
X126911107Y-67767132D01*
X126932150Y-67754520D01*
X126954329Y-67744030D01*
X126977428Y-67735765D01*
X127001227Y-67729804D01*
X127025495Y-67726204D01*
X127049999Y-67725000D01*
X127950001Y-67725000D01*
X127974505Y-67726204D01*
G37*
G36*
X127974505Y-74176204D02*
G01*
X127998773Y-74179804D01*
X128022572Y-74185765D01*
X128045671Y-74194030D01*
X128067850Y-74204520D01*
X128088893Y-74217132D01*
X128108599Y-74231747D01*
X128126777Y-74248223D01*
X128143253Y-74266401D01*
X128157868Y-74286107D01*
X128170480Y-74307150D01*
X128180970Y-74329329D01*
X128189235Y-74352428D01*
X128195196Y-74376227D01*
X128198796Y-74400495D01*
X128200000Y-74424999D01*
X128200000Y-75075001D01*
X128198796Y-75099505D01*
X128195196Y-75123773D01*
X128189235Y-75147572D01*
X128180970Y-75170671D01*
X128170480Y-75192850D01*
X128157868Y-75213893D01*
X128143253Y-75233599D01*
X128126777Y-75251777D01*
X128108599Y-75268253D01*
X128088893Y-75282868D01*
X128067850Y-75295480D01*
X128045671Y-75305970D01*
X128022572Y-75314235D01*
X127998773Y-75320196D01*
X127974505Y-75323796D01*
X127950001Y-75325000D01*
X127049999Y-75325000D01*
X127025495Y-75323796D01*
X127001227Y-75320196D01*
X126977428Y-75314235D01*
X126954329Y-75305970D01*
X126932150Y-75295480D01*
X126911107Y-75282868D01*
X126891401Y-75268253D01*
X126873223Y-75251777D01*
X126856747Y-75233599D01*
X126842132Y-75213893D01*
X126829520Y-75192850D01*
X126819030Y-75170671D01*
X126810765Y-75147572D01*
X126804804Y-75123773D01*
X126801204Y-75099505D01*
X126800000Y-75075001D01*
X126800000Y-74424999D01*
X126801204Y-74400495D01*
X126804804Y-74376227D01*
X126810765Y-74352428D01*
X126819030Y-74329329D01*
X126829520Y-74307150D01*
X126842132Y-74286107D01*
X126856747Y-74266401D01*
X126873223Y-74248223D01*
X126891401Y-74231747D01*
X126911107Y-74217132D01*
X126932150Y-74204520D01*
X126954329Y-74194030D01*
X126977428Y-74185765D01*
X127001227Y-74179804D01*
X127025495Y-74176204D01*
X127049999Y-74175000D01*
X127950001Y-74175000D01*
X127974505Y-74176204D01*
G37*
G36*
X127974505Y-76226204D02*
G01*
X127998773Y-76229804D01*
X128022572Y-76235765D01*
X128045671Y-76244030D01*
X128067850Y-76254520D01*
X128088893Y-76267132D01*
X128108599Y-76281747D01*
X128126777Y-76298223D01*
X128143253Y-76316401D01*
X128157868Y-76336107D01*
X128170480Y-76357150D01*
X128180970Y-76379329D01*
X128189235Y-76402428D01*
X128195196Y-76426227D01*
X128198796Y-76450495D01*
X128200000Y-76474999D01*
X128200000Y-77125001D01*
X128198796Y-77149505D01*
X128195196Y-77173773D01*
X128189235Y-77197572D01*
X128180970Y-77220671D01*
X128170480Y-77242850D01*
X128157868Y-77263893D01*
X128143253Y-77283599D01*
X128126777Y-77301777D01*
X128108599Y-77318253D01*
X128088893Y-77332868D01*
X128067850Y-77345480D01*
X128045671Y-77355970D01*
X128022572Y-77364235D01*
X127998773Y-77370196D01*
X127974505Y-77373796D01*
X127950001Y-77375000D01*
X127049999Y-77375000D01*
X127025495Y-77373796D01*
X127001227Y-77370196D01*
X126977428Y-77364235D01*
X126954329Y-77355970D01*
X126932150Y-77345480D01*
X126911107Y-77332868D01*
X126891401Y-77318253D01*
X126873223Y-77301777D01*
X126856747Y-77283599D01*
X126842132Y-77263893D01*
X126829520Y-77242850D01*
X126819030Y-77220671D01*
X126810765Y-77197572D01*
X126804804Y-77173773D01*
X126801204Y-77149505D01*
X126800000Y-77125001D01*
X126800000Y-76474999D01*
X126801204Y-76450495D01*
X126804804Y-76426227D01*
X126810765Y-76402428D01*
X126819030Y-76379329D01*
X126829520Y-76357150D01*
X126842132Y-76336107D01*
X126856747Y-76316401D01*
X126873223Y-76298223D01*
X126891401Y-76281747D01*
X126911107Y-76267132D01*
X126932150Y-76254520D01*
X126954329Y-76244030D01*
X126977428Y-76235765D01*
X127001227Y-76229804D01*
X127025495Y-76226204D01*
X127049999Y-76225000D01*
X127950001Y-76225000D01*
X127974505Y-76226204D01*
G37*
G36*
X127974505Y-69901204D02*
G01*
X127998773Y-69904804D01*
X128022572Y-69910765D01*
X128045671Y-69919030D01*
X128067850Y-69929520D01*
X128088893Y-69942132D01*
X128108599Y-69956747D01*
X128126777Y-69973223D01*
X128143253Y-69991401D01*
X128157868Y-70011107D01*
X128170480Y-70032150D01*
X128180970Y-70054329D01*
X128189235Y-70077428D01*
X128195196Y-70101227D01*
X128198796Y-70125495D01*
X128200000Y-70149999D01*
X128200000Y-70800001D01*
X128198796Y-70824505D01*
X128195196Y-70848773D01*
X128189235Y-70872572D01*
X128180970Y-70895671D01*
X128170480Y-70917850D01*
X128157868Y-70938893D01*
X128143253Y-70958599D01*
X128126777Y-70976777D01*
X128108599Y-70993253D01*
X128088893Y-71007868D01*
X128067850Y-71020480D01*
X128045671Y-71030970D01*
X128022572Y-71039235D01*
X127998773Y-71045196D01*
X127974505Y-71048796D01*
X127950001Y-71050000D01*
X127049999Y-71050000D01*
X127025495Y-71048796D01*
X127001227Y-71045196D01*
X126977428Y-71039235D01*
X126954329Y-71030970D01*
X126932150Y-71020480D01*
X126911107Y-71007868D01*
X126891401Y-70993253D01*
X126873223Y-70976777D01*
X126856747Y-70958599D01*
X126842132Y-70938893D01*
X126829520Y-70917850D01*
X126819030Y-70895671D01*
X126810765Y-70872572D01*
X126804804Y-70848773D01*
X126801204Y-70824505D01*
X126800000Y-70800001D01*
X126800000Y-70149999D01*
X126801204Y-70125495D01*
X126804804Y-70101227D01*
X126810765Y-70077428D01*
X126819030Y-70054329D01*
X126829520Y-70032150D01*
X126842132Y-70011107D01*
X126856747Y-69991401D01*
X126873223Y-69973223D01*
X126891401Y-69956747D01*
X126911107Y-69942132D01*
X126932150Y-69929520D01*
X126954329Y-69919030D01*
X126977428Y-69910765D01*
X127001227Y-69904804D01*
X127025495Y-69901204D01*
X127049999Y-69900000D01*
X127950001Y-69900000D01*
X127974505Y-69901204D01*
G37*
G36*
X127974505Y-71951204D02*
G01*
X127998773Y-71954804D01*
X128022572Y-71960765D01*
X128045671Y-71969030D01*
X128067850Y-71979520D01*
X128088893Y-71992132D01*
X128108599Y-72006747D01*
X128126777Y-72023223D01*
X128143253Y-72041401D01*
X128157868Y-72061107D01*
X128170480Y-72082150D01*
X128180970Y-72104329D01*
X128189235Y-72127428D01*
X128195196Y-72151227D01*
X128198796Y-72175495D01*
X128200000Y-72199999D01*
X128200000Y-72850001D01*
X128198796Y-72874505D01*
X128195196Y-72898773D01*
X128189235Y-72922572D01*
X128180970Y-72945671D01*
X128170480Y-72967850D01*
X128157868Y-72988893D01*
X128143253Y-73008599D01*
X128126777Y-73026777D01*
X128108599Y-73043253D01*
X128088893Y-73057868D01*
X128067850Y-73070480D01*
X128045671Y-73080970D01*
X128022572Y-73089235D01*
X127998773Y-73095196D01*
X127974505Y-73098796D01*
X127950001Y-73100000D01*
X127049999Y-73100000D01*
X127025495Y-73098796D01*
X127001227Y-73095196D01*
X126977428Y-73089235D01*
X126954329Y-73080970D01*
X126932150Y-73070480D01*
X126911107Y-73057868D01*
X126891401Y-73043253D01*
X126873223Y-73026777D01*
X126856747Y-73008599D01*
X126842132Y-72988893D01*
X126829520Y-72967850D01*
X126819030Y-72945671D01*
X126810765Y-72922572D01*
X126804804Y-72898773D01*
X126801204Y-72874505D01*
X126800000Y-72850001D01*
X126800000Y-72199999D01*
X126801204Y-72175495D01*
X126804804Y-72151227D01*
X126810765Y-72127428D01*
X126819030Y-72104329D01*
X126829520Y-72082150D01*
X126842132Y-72061107D01*
X126856747Y-72041401D01*
X126873223Y-72023223D01*
X126891401Y-72006747D01*
X126911107Y-71992132D01*
X126932150Y-71979520D01*
X126954329Y-71969030D01*
X126977428Y-71960765D01*
X127001227Y-71954804D01*
X127025495Y-71951204D01*
X127049999Y-71950000D01*
X127950001Y-71950000D01*
X127974505Y-71951204D01*
G37*
G36*
X57260779Y-65226144D02*
G01*
X57283834Y-65229563D01*
X57306443Y-65235227D01*
X57328387Y-65243079D01*
X57349457Y-65253044D01*
X57369448Y-65265026D01*
X57388168Y-65278910D01*
X57405438Y-65294562D01*
X57421090Y-65311832D01*
X57434974Y-65330552D01*
X57446956Y-65350543D01*
X57456921Y-65371613D01*
X57464773Y-65393557D01*
X57470437Y-65416166D01*
X57473856Y-65439221D01*
X57475000Y-65462500D01*
X57475000Y-66037500D01*
X57473856Y-66060779D01*
X57470437Y-66083834D01*
X57464773Y-66106443D01*
X57456921Y-66128387D01*
X57446956Y-66149457D01*
X57434974Y-66169448D01*
X57421090Y-66188168D01*
X57405438Y-66205438D01*
X57388168Y-66221090D01*
X57369448Y-66234974D01*
X57349457Y-66246956D01*
X57328387Y-66256921D01*
X57306443Y-66264773D01*
X57283834Y-66270437D01*
X57260779Y-66273856D01*
X57237500Y-66275000D01*
X56762500Y-66275000D01*
X56739221Y-66273856D01*
X56716166Y-66270437D01*
X56693557Y-66264773D01*
X56671613Y-66256921D01*
X56650543Y-66246956D01*
X56630552Y-66234974D01*
X56611832Y-66221090D01*
X56594562Y-66205438D01*
X56578910Y-66188168D01*
X56565026Y-66169448D01*
X56553044Y-66149457D01*
X56543079Y-66128387D01*
X56535227Y-66106443D01*
X56529563Y-66083834D01*
X56526144Y-66060779D01*
X56525000Y-66037500D01*
X56525000Y-65462500D01*
X56526144Y-65439221D01*
X56529563Y-65416166D01*
X56535227Y-65393557D01*
X56543079Y-65371613D01*
X56553044Y-65350543D01*
X56565026Y-65330552D01*
X56578910Y-65311832D01*
X56594562Y-65294562D01*
X56611832Y-65278910D01*
X56630552Y-65265026D01*
X56650543Y-65253044D01*
X56671613Y-65243079D01*
X56693557Y-65235227D01*
X56716166Y-65229563D01*
X56739221Y-65226144D01*
X56762500Y-65225000D01*
X57237500Y-65225000D01*
X57260779Y-65226144D01*
G37*
G36*
X57260779Y-63476144D02*
G01*
X57283834Y-63479563D01*
X57306443Y-63485227D01*
X57328387Y-63493079D01*
X57349457Y-63503044D01*
X57369448Y-63515026D01*
X57388168Y-63528910D01*
X57405438Y-63544562D01*
X57421090Y-63561832D01*
X57434974Y-63580552D01*
X57446956Y-63600543D01*
X57456921Y-63621613D01*
X57464773Y-63643557D01*
X57470437Y-63666166D01*
X57473856Y-63689221D01*
X57475000Y-63712500D01*
X57475000Y-64287500D01*
X57473856Y-64310779D01*
X57470437Y-64333834D01*
X57464773Y-64356443D01*
X57456921Y-64378387D01*
X57446956Y-64399457D01*
X57434974Y-64419448D01*
X57421090Y-64438168D01*
X57405438Y-64455438D01*
X57388168Y-64471090D01*
X57369448Y-64484974D01*
X57349457Y-64496956D01*
X57328387Y-64506921D01*
X57306443Y-64514773D01*
X57283834Y-64520437D01*
X57260779Y-64523856D01*
X57237500Y-64525000D01*
X56762500Y-64525000D01*
X56739221Y-64523856D01*
X56716166Y-64520437D01*
X56693557Y-64514773D01*
X56671613Y-64506921D01*
X56650543Y-64496956D01*
X56630552Y-64484974D01*
X56611832Y-64471090D01*
X56594562Y-64455438D01*
X56578910Y-64438168D01*
X56565026Y-64419448D01*
X56553044Y-64399457D01*
X56543079Y-64378387D01*
X56535227Y-64356443D01*
X56529563Y-64333834D01*
X56526144Y-64310779D01*
X56525000Y-64287500D01*
X56525000Y-63712500D01*
X56526144Y-63689221D01*
X56529563Y-63666166D01*
X56535227Y-63643557D01*
X56543079Y-63621613D01*
X56553044Y-63600543D01*
X56565026Y-63580552D01*
X56578910Y-63561832D01*
X56594562Y-63544562D01*
X56611832Y-63528910D01*
X56630552Y-63515026D01*
X56650543Y-63503044D01*
X56671613Y-63493079D01*
X56693557Y-63485227D01*
X56716166Y-63479563D01*
X56739221Y-63476144D01*
X56762500Y-63475000D01*
X57237500Y-63475000D01*
X57260779Y-63476144D01*
G37*
D13*
X120550000Y-70850000D03*
X121500000Y-70850000D03*
X122450000Y-70850000D03*
X122450000Y-68650000D03*
X120550000Y-68650000D03*
D11*
G36*
X118460779Y-69976144D02*
G01*
X118483834Y-69979563D01*
X118506443Y-69985227D01*
X118528387Y-69993079D01*
X118549457Y-70003044D01*
X118569448Y-70015026D01*
X118588168Y-70028910D01*
X118605438Y-70044562D01*
X118621090Y-70061832D01*
X118634974Y-70080552D01*
X118646956Y-70100543D01*
X118656921Y-70121613D01*
X118664773Y-70143557D01*
X118670437Y-70166166D01*
X118673856Y-70189221D01*
X118675000Y-70212500D01*
X118675000Y-70787500D01*
X118673856Y-70810779D01*
X118670437Y-70833834D01*
X118664773Y-70856443D01*
X118656921Y-70878387D01*
X118646956Y-70899457D01*
X118634974Y-70919448D01*
X118621090Y-70938168D01*
X118605438Y-70955438D01*
X118588168Y-70971090D01*
X118569448Y-70984974D01*
X118549457Y-70996956D01*
X118528387Y-71006921D01*
X118506443Y-71014773D01*
X118483834Y-71020437D01*
X118460779Y-71023856D01*
X118437500Y-71025000D01*
X117962500Y-71025000D01*
X117939221Y-71023856D01*
X117916166Y-71020437D01*
X117893557Y-71014773D01*
X117871613Y-71006921D01*
X117850543Y-70996956D01*
X117830552Y-70984974D01*
X117811832Y-70971090D01*
X117794562Y-70955438D01*
X117778910Y-70938168D01*
X117765026Y-70919448D01*
X117753044Y-70899457D01*
X117743079Y-70878387D01*
X117735227Y-70856443D01*
X117729563Y-70833834D01*
X117726144Y-70810779D01*
X117725000Y-70787500D01*
X117725000Y-70212500D01*
X117726144Y-70189221D01*
X117729563Y-70166166D01*
X117735227Y-70143557D01*
X117743079Y-70121613D01*
X117753044Y-70100543D01*
X117765026Y-70080552D01*
X117778910Y-70061832D01*
X117794562Y-70044562D01*
X117811832Y-70028910D01*
X117830552Y-70015026D01*
X117850543Y-70003044D01*
X117871613Y-69993079D01*
X117893557Y-69985227D01*
X117916166Y-69979563D01*
X117939221Y-69976144D01*
X117962500Y-69975000D01*
X118437500Y-69975000D01*
X118460779Y-69976144D01*
G37*
G36*
X118460779Y-68226144D02*
G01*
X118483834Y-68229563D01*
X118506443Y-68235227D01*
X118528387Y-68243079D01*
X118549457Y-68253044D01*
X118569448Y-68265026D01*
X118588168Y-68278910D01*
X118605438Y-68294562D01*
X118621090Y-68311832D01*
X118634974Y-68330552D01*
X118646956Y-68350543D01*
X118656921Y-68371613D01*
X118664773Y-68393557D01*
X118670437Y-68416166D01*
X118673856Y-68439221D01*
X118675000Y-68462500D01*
X118675000Y-69037500D01*
X118673856Y-69060779D01*
X118670437Y-69083834D01*
X118664773Y-69106443D01*
X118656921Y-69128387D01*
X118646956Y-69149457D01*
X118634974Y-69169448D01*
X118621090Y-69188168D01*
X118605438Y-69205438D01*
X118588168Y-69221090D01*
X118569448Y-69234974D01*
X118549457Y-69246956D01*
X118528387Y-69256921D01*
X118506443Y-69264773D01*
X118483834Y-69270437D01*
X118460779Y-69273856D01*
X118437500Y-69275000D01*
X117962500Y-69275000D01*
X117939221Y-69273856D01*
X117916166Y-69270437D01*
X117893557Y-69264773D01*
X117871613Y-69256921D01*
X117850543Y-69246956D01*
X117830552Y-69234974D01*
X117811832Y-69221090D01*
X117794562Y-69205438D01*
X117778910Y-69188168D01*
X117765026Y-69169448D01*
X117753044Y-69149457D01*
X117743079Y-69128387D01*
X117735227Y-69106443D01*
X117729563Y-69083834D01*
X117726144Y-69060779D01*
X117725000Y-69037500D01*
X117725000Y-68462500D01*
X117726144Y-68439221D01*
X117729563Y-68416166D01*
X117735227Y-68393557D01*
X117743079Y-68371613D01*
X117753044Y-68350543D01*
X117765026Y-68330552D01*
X117778910Y-68311832D01*
X117794562Y-68294562D01*
X117811832Y-68278910D01*
X117830552Y-68265026D01*
X117850543Y-68253044D01*
X117871613Y-68243079D01*
X117893557Y-68235227D01*
X117916166Y-68229563D01*
X117939221Y-68226144D01*
X117962500Y-68225000D01*
X118437500Y-68225000D01*
X118460779Y-68226144D01*
G37*
G36*
X57149504Y-57526204D02*
G01*
X57173773Y-57529804D01*
X57197571Y-57535765D01*
X57220671Y-57544030D01*
X57242849Y-57554520D01*
X57263893Y-57567133D01*
X57283598Y-57581747D01*
X57301777Y-57598223D01*
X57318253Y-57616402D01*
X57332867Y-57636107D01*
X57345480Y-57657151D01*
X57355970Y-57679329D01*
X57364235Y-57702429D01*
X57370196Y-57726227D01*
X57373796Y-57750496D01*
X57375000Y-57775000D01*
X57375000Y-58700000D01*
X57373796Y-58724504D01*
X57370196Y-58748773D01*
X57364235Y-58772571D01*
X57355970Y-58795671D01*
X57345480Y-58817849D01*
X57332867Y-58838893D01*
X57318253Y-58858598D01*
X57301777Y-58876777D01*
X57283598Y-58893253D01*
X57263893Y-58907867D01*
X57242849Y-58920480D01*
X57220671Y-58930970D01*
X57197571Y-58939235D01*
X57173773Y-58945196D01*
X57149504Y-58948796D01*
X57125000Y-58950000D01*
X55875000Y-58950000D01*
X55850496Y-58948796D01*
X55826227Y-58945196D01*
X55802429Y-58939235D01*
X55779329Y-58930970D01*
X55757151Y-58920480D01*
X55736107Y-58907867D01*
X55716402Y-58893253D01*
X55698223Y-58876777D01*
X55681747Y-58858598D01*
X55667133Y-58838893D01*
X55654520Y-58817849D01*
X55644030Y-58795671D01*
X55635765Y-58772571D01*
X55629804Y-58748773D01*
X55626204Y-58724504D01*
X55625000Y-58700000D01*
X55625000Y-57775000D01*
X55626204Y-57750496D01*
X55629804Y-57726227D01*
X55635765Y-57702429D01*
X55644030Y-57679329D01*
X55654520Y-57657151D01*
X55667133Y-57636107D01*
X55681747Y-57616402D01*
X55698223Y-57598223D01*
X55716402Y-57581747D01*
X55736107Y-57567133D01*
X55757151Y-57554520D01*
X55779329Y-57544030D01*
X55802429Y-57535765D01*
X55826227Y-57529804D01*
X55850496Y-57526204D01*
X55875000Y-57525000D01*
X57125000Y-57525000D01*
X57149504Y-57526204D01*
G37*
G36*
X57149504Y-54551204D02*
G01*
X57173773Y-54554804D01*
X57197571Y-54560765D01*
X57220671Y-54569030D01*
X57242849Y-54579520D01*
X57263893Y-54592133D01*
X57283598Y-54606747D01*
X57301777Y-54623223D01*
X57318253Y-54641402D01*
X57332867Y-54661107D01*
X57345480Y-54682151D01*
X57355970Y-54704329D01*
X57364235Y-54727429D01*
X57370196Y-54751227D01*
X57373796Y-54775496D01*
X57375000Y-54800000D01*
X57375000Y-55725000D01*
X57373796Y-55749504D01*
X57370196Y-55773773D01*
X57364235Y-55797571D01*
X57355970Y-55820671D01*
X57345480Y-55842849D01*
X57332867Y-55863893D01*
X57318253Y-55883598D01*
X57301777Y-55901777D01*
X57283598Y-55918253D01*
X57263893Y-55932867D01*
X57242849Y-55945480D01*
X57220671Y-55955970D01*
X57197571Y-55964235D01*
X57173773Y-55970196D01*
X57149504Y-55973796D01*
X57125000Y-55975000D01*
X55875000Y-55975000D01*
X55850496Y-55973796D01*
X55826227Y-55970196D01*
X55802429Y-55964235D01*
X55779329Y-55955970D01*
X55757151Y-55945480D01*
X55736107Y-55932867D01*
X55716402Y-55918253D01*
X55698223Y-55901777D01*
X55681747Y-55883598D01*
X55667133Y-55863893D01*
X55654520Y-55842849D01*
X55644030Y-55820671D01*
X55635765Y-55797571D01*
X55629804Y-55773773D01*
X55626204Y-55749504D01*
X55625000Y-55725000D01*
X55625000Y-54800000D01*
X55626204Y-54775496D01*
X55629804Y-54751227D01*
X55635765Y-54727429D01*
X55644030Y-54704329D01*
X55654520Y-54682151D01*
X55667133Y-54661107D01*
X55681747Y-54641402D01*
X55698223Y-54623223D01*
X55716402Y-54606747D01*
X55736107Y-54592133D01*
X55757151Y-54579520D01*
X55779329Y-54569030D01*
X55802429Y-54560765D01*
X55826227Y-54554804D01*
X55850496Y-54551204D01*
X55875000Y-54550000D01*
X57125000Y-54550000D01*
X57149504Y-54551204D01*
G37*
G36*
X122974504Y-72126204D02*
G01*
X122998773Y-72129804D01*
X123022571Y-72135765D01*
X123045671Y-72144030D01*
X123067849Y-72154520D01*
X123088893Y-72167133D01*
X123108598Y-72181747D01*
X123126777Y-72198223D01*
X123143253Y-72216402D01*
X123157867Y-72236107D01*
X123170480Y-72257151D01*
X123180970Y-72279329D01*
X123189235Y-72302429D01*
X123195196Y-72326227D01*
X123198796Y-72350496D01*
X123200000Y-72375000D01*
X123200000Y-73625000D01*
X123198796Y-73649504D01*
X123195196Y-73673773D01*
X123189235Y-73697571D01*
X123180970Y-73720671D01*
X123170480Y-73742849D01*
X123157867Y-73763893D01*
X123143253Y-73783598D01*
X123126777Y-73801777D01*
X123108598Y-73818253D01*
X123088893Y-73832867D01*
X123067849Y-73845480D01*
X123045671Y-73855970D01*
X123022571Y-73864235D01*
X122998773Y-73870196D01*
X122974504Y-73873796D01*
X122950000Y-73875000D01*
X122025000Y-73875000D01*
X122000496Y-73873796D01*
X121976227Y-73870196D01*
X121952429Y-73864235D01*
X121929329Y-73855970D01*
X121907151Y-73845480D01*
X121886107Y-73832867D01*
X121866402Y-73818253D01*
X121848223Y-73801777D01*
X121831747Y-73783598D01*
X121817133Y-73763893D01*
X121804520Y-73742849D01*
X121794030Y-73720671D01*
X121785765Y-73697571D01*
X121779804Y-73673773D01*
X121776204Y-73649504D01*
X121775000Y-73625000D01*
X121775000Y-72375000D01*
X121776204Y-72350496D01*
X121779804Y-72326227D01*
X121785765Y-72302429D01*
X121794030Y-72279329D01*
X121804520Y-72257151D01*
X121817133Y-72236107D01*
X121831747Y-72216402D01*
X121848223Y-72198223D01*
X121866402Y-72181747D01*
X121886107Y-72167133D01*
X121907151Y-72154520D01*
X121929329Y-72144030D01*
X121952429Y-72135765D01*
X121976227Y-72129804D01*
X122000496Y-72126204D01*
X122025000Y-72125000D01*
X122950000Y-72125000D01*
X122974504Y-72126204D01*
G37*
G36*
X119999504Y-72126204D02*
G01*
X120023773Y-72129804D01*
X120047571Y-72135765D01*
X120070671Y-72144030D01*
X120092849Y-72154520D01*
X120113893Y-72167133D01*
X120133598Y-72181747D01*
X120151777Y-72198223D01*
X120168253Y-72216402D01*
X120182867Y-72236107D01*
X120195480Y-72257151D01*
X120205970Y-72279329D01*
X120214235Y-72302429D01*
X120220196Y-72326227D01*
X120223796Y-72350496D01*
X120225000Y-72375000D01*
X120225000Y-73625000D01*
X120223796Y-73649504D01*
X120220196Y-73673773D01*
X120214235Y-73697571D01*
X120205970Y-73720671D01*
X120195480Y-73742849D01*
X120182867Y-73763893D01*
X120168253Y-73783598D01*
X120151777Y-73801777D01*
X120133598Y-73818253D01*
X120113893Y-73832867D01*
X120092849Y-73845480D01*
X120070671Y-73855970D01*
X120047571Y-73864235D01*
X120023773Y-73870196D01*
X119999504Y-73873796D01*
X119975000Y-73875000D01*
X119050000Y-73875000D01*
X119025496Y-73873796D01*
X119001227Y-73870196D01*
X118977429Y-73864235D01*
X118954329Y-73855970D01*
X118932151Y-73845480D01*
X118911107Y-73832867D01*
X118891402Y-73818253D01*
X118873223Y-73801777D01*
X118856747Y-73783598D01*
X118842133Y-73763893D01*
X118829520Y-73742849D01*
X118819030Y-73720671D01*
X118810765Y-73697571D01*
X118804804Y-73673773D01*
X118801204Y-73649504D01*
X118800000Y-73625000D01*
X118800000Y-72375000D01*
X118801204Y-72350496D01*
X118804804Y-72326227D01*
X118810765Y-72302429D01*
X118819030Y-72279329D01*
X118829520Y-72257151D01*
X118842133Y-72236107D01*
X118856747Y-72216402D01*
X118873223Y-72198223D01*
X118891402Y-72181747D01*
X118911107Y-72167133D01*
X118932151Y-72154520D01*
X118954329Y-72144030D01*
X118977429Y-72135765D01*
X119001227Y-72129804D01*
X119025496Y-72126204D01*
X119050000Y-72125000D01*
X119975000Y-72125000D01*
X119999504Y-72126204D01*
G37*
G36*
X106685779Y-74776144D02*
G01*
X106708834Y-74779563D01*
X106731443Y-74785227D01*
X106753387Y-74793079D01*
X106774457Y-74803044D01*
X106794448Y-74815026D01*
X106813168Y-74828910D01*
X106830438Y-74844562D01*
X106846090Y-74861832D01*
X106859974Y-74880552D01*
X106871956Y-74900543D01*
X106881921Y-74921613D01*
X106889773Y-74943557D01*
X106895437Y-74966166D01*
X106898856Y-74989221D01*
X106900000Y-75012500D01*
X106900000Y-75487500D01*
X106898856Y-75510779D01*
X106895437Y-75533834D01*
X106889773Y-75556443D01*
X106881921Y-75578387D01*
X106871956Y-75599457D01*
X106859974Y-75619448D01*
X106846090Y-75638168D01*
X106830438Y-75655438D01*
X106813168Y-75671090D01*
X106794448Y-75684974D01*
X106774457Y-75696956D01*
X106753387Y-75706921D01*
X106731443Y-75714773D01*
X106708834Y-75720437D01*
X106685779Y-75723856D01*
X106662500Y-75725000D01*
X106087500Y-75725000D01*
X106064221Y-75723856D01*
X106041166Y-75720437D01*
X106018557Y-75714773D01*
X105996613Y-75706921D01*
X105975543Y-75696956D01*
X105955552Y-75684974D01*
X105936832Y-75671090D01*
X105919562Y-75655438D01*
X105903910Y-75638168D01*
X105890026Y-75619448D01*
X105878044Y-75599457D01*
X105868079Y-75578387D01*
X105860227Y-75556443D01*
X105854563Y-75533834D01*
X105851144Y-75510779D01*
X105850000Y-75487500D01*
X105850000Y-75012500D01*
X105851144Y-74989221D01*
X105854563Y-74966166D01*
X105860227Y-74943557D01*
X105868079Y-74921613D01*
X105878044Y-74900543D01*
X105890026Y-74880552D01*
X105903910Y-74861832D01*
X105919562Y-74844562D01*
X105936832Y-74828910D01*
X105955552Y-74815026D01*
X105975543Y-74803044D01*
X105996613Y-74793079D01*
X106018557Y-74785227D01*
X106041166Y-74779563D01*
X106064221Y-74776144D01*
X106087500Y-74775000D01*
X106662500Y-74775000D01*
X106685779Y-74776144D01*
G37*
G36*
X104935779Y-74776144D02*
G01*
X104958834Y-74779563D01*
X104981443Y-74785227D01*
X105003387Y-74793079D01*
X105024457Y-74803044D01*
X105044448Y-74815026D01*
X105063168Y-74828910D01*
X105080438Y-74844562D01*
X105096090Y-74861832D01*
X105109974Y-74880552D01*
X105121956Y-74900543D01*
X105131921Y-74921613D01*
X105139773Y-74943557D01*
X105145437Y-74966166D01*
X105148856Y-74989221D01*
X105150000Y-75012500D01*
X105150000Y-75487500D01*
X105148856Y-75510779D01*
X105145437Y-75533834D01*
X105139773Y-75556443D01*
X105131921Y-75578387D01*
X105121956Y-75599457D01*
X105109974Y-75619448D01*
X105096090Y-75638168D01*
X105080438Y-75655438D01*
X105063168Y-75671090D01*
X105044448Y-75684974D01*
X105024457Y-75696956D01*
X105003387Y-75706921D01*
X104981443Y-75714773D01*
X104958834Y-75720437D01*
X104935779Y-75723856D01*
X104912500Y-75725000D01*
X104337500Y-75725000D01*
X104314221Y-75723856D01*
X104291166Y-75720437D01*
X104268557Y-75714773D01*
X104246613Y-75706921D01*
X104225543Y-75696956D01*
X104205552Y-75684974D01*
X104186832Y-75671090D01*
X104169562Y-75655438D01*
X104153910Y-75638168D01*
X104140026Y-75619448D01*
X104128044Y-75599457D01*
X104118079Y-75578387D01*
X104110227Y-75556443D01*
X104104563Y-75533834D01*
X104101144Y-75510779D01*
X104100000Y-75487500D01*
X104100000Y-75012500D01*
X104101144Y-74989221D01*
X104104563Y-74966166D01*
X104110227Y-74943557D01*
X104118079Y-74921613D01*
X104128044Y-74900543D01*
X104140026Y-74880552D01*
X104153910Y-74861832D01*
X104169562Y-74844562D01*
X104186832Y-74828910D01*
X104205552Y-74815026D01*
X104225543Y-74803044D01*
X104246613Y-74793079D01*
X104268557Y-74785227D01*
X104291166Y-74779563D01*
X104314221Y-74776144D01*
X104337500Y-74775000D01*
X104912500Y-74775000D01*
X104935779Y-74776144D01*
G37*
D21*
X83550000Y-72235000D03*
X83550000Y-70965000D03*
X83550000Y-69695000D03*
X83550000Y-68425000D03*
X83550000Y-67155000D03*
X83550000Y-65885000D03*
X83550000Y-64615000D03*
X83550000Y-63345000D03*
X83550000Y-62075000D03*
X83550000Y-60805000D03*
X83550000Y-59535000D03*
X83550000Y-58265000D03*
X92950000Y-58265000D03*
X92950000Y-59535000D03*
X92950000Y-60805000D03*
X92950000Y-62075000D03*
X92950000Y-63345000D03*
X92950000Y-64615000D03*
X92950000Y-65885000D03*
X92950000Y-67155000D03*
X92950000Y-68425000D03*
X92950000Y-69695000D03*
X92950000Y-70965000D03*
X92950000Y-72235000D03*
D11*
G36*
X57260779Y-68476144D02*
G01*
X57283834Y-68479563D01*
X57306443Y-68485227D01*
X57328387Y-68493079D01*
X57349457Y-68503044D01*
X57369448Y-68515026D01*
X57388168Y-68528910D01*
X57405438Y-68544562D01*
X57421090Y-68561832D01*
X57434974Y-68580552D01*
X57446956Y-68600543D01*
X57456921Y-68621613D01*
X57464773Y-68643557D01*
X57470437Y-68666166D01*
X57473856Y-68689221D01*
X57475000Y-68712500D01*
X57475000Y-69287500D01*
X57473856Y-69310779D01*
X57470437Y-69333834D01*
X57464773Y-69356443D01*
X57456921Y-69378387D01*
X57446956Y-69399457D01*
X57434974Y-69419448D01*
X57421090Y-69438168D01*
X57405438Y-69455438D01*
X57388168Y-69471090D01*
X57369448Y-69484974D01*
X57349457Y-69496956D01*
X57328387Y-69506921D01*
X57306443Y-69514773D01*
X57283834Y-69520437D01*
X57260779Y-69523856D01*
X57237500Y-69525000D01*
X56762500Y-69525000D01*
X56739221Y-69523856D01*
X56716166Y-69520437D01*
X56693557Y-69514773D01*
X56671613Y-69506921D01*
X56650543Y-69496956D01*
X56630552Y-69484974D01*
X56611832Y-69471090D01*
X56594562Y-69455438D01*
X56578910Y-69438168D01*
X56565026Y-69419448D01*
X56553044Y-69399457D01*
X56543079Y-69378387D01*
X56535227Y-69356443D01*
X56529563Y-69333834D01*
X56526144Y-69310779D01*
X56525000Y-69287500D01*
X56525000Y-68712500D01*
X56526144Y-68689221D01*
X56529563Y-68666166D01*
X56535227Y-68643557D01*
X56543079Y-68621613D01*
X56553044Y-68600543D01*
X56565026Y-68580552D01*
X56578910Y-68561832D01*
X56594562Y-68544562D01*
X56611832Y-68528910D01*
X56630552Y-68515026D01*
X56650543Y-68503044D01*
X56671613Y-68493079D01*
X56693557Y-68485227D01*
X56716166Y-68479563D01*
X56739221Y-68476144D01*
X56762500Y-68475000D01*
X57237500Y-68475000D01*
X57260779Y-68476144D01*
G37*
G36*
X57260779Y-66726144D02*
G01*
X57283834Y-66729563D01*
X57306443Y-66735227D01*
X57328387Y-66743079D01*
X57349457Y-66753044D01*
X57369448Y-66765026D01*
X57388168Y-66778910D01*
X57405438Y-66794562D01*
X57421090Y-66811832D01*
X57434974Y-66830552D01*
X57446956Y-66850543D01*
X57456921Y-66871613D01*
X57464773Y-66893557D01*
X57470437Y-66916166D01*
X57473856Y-66939221D01*
X57475000Y-66962500D01*
X57475000Y-67537500D01*
X57473856Y-67560779D01*
X57470437Y-67583834D01*
X57464773Y-67606443D01*
X57456921Y-67628387D01*
X57446956Y-67649457D01*
X57434974Y-67669448D01*
X57421090Y-67688168D01*
X57405438Y-67705438D01*
X57388168Y-67721090D01*
X57369448Y-67734974D01*
X57349457Y-67746956D01*
X57328387Y-67756921D01*
X57306443Y-67764773D01*
X57283834Y-67770437D01*
X57260779Y-67773856D01*
X57237500Y-67775000D01*
X56762500Y-67775000D01*
X56739221Y-67773856D01*
X56716166Y-67770437D01*
X56693557Y-67764773D01*
X56671613Y-67756921D01*
X56650543Y-67746956D01*
X56630552Y-67734974D01*
X56611832Y-67721090D01*
X56594562Y-67705438D01*
X56578910Y-67688168D01*
X56565026Y-67669448D01*
X56553044Y-67649457D01*
X56543079Y-67628387D01*
X56535227Y-67606443D01*
X56529563Y-67583834D01*
X56526144Y-67560779D01*
X56525000Y-67537500D01*
X56525000Y-66962500D01*
X56526144Y-66939221D01*
X56529563Y-66916166D01*
X56535227Y-66893557D01*
X56543079Y-66871613D01*
X56553044Y-66850543D01*
X56565026Y-66830552D01*
X56578910Y-66811832D01*
X56594562Y-66794562D01*
X56611832Y-66778910D01*
X56630552Y-66765026D01*
X56650543Y-66753044D01*
X56671613Y-66743079D01*
X56693557Y-66735227D01*
X56716166Y-66729563D01*
X56739221Y-66726144D01*
X56762500Y-66725000D01*
X57237500Y-66725000D01*
X57260779Y-66726144D01*
G37*
G36*
X102685779Y-68776144D02*
G01*
X102708834Y-68779563D01*
X102731443Y-68785227D01*
X102753387Y-68793079D01*
X102774457Y-68803044D01*
X102794448Y-68815026D01*
X102813168Y-68828910D01*
X102830438Y-68844562D01*
X102846090Y-68861832D01*
X102859974Y-68880552D01*
X102871956Y-68900543D01*
X102881921Y-68921613D01*
X102889773Y-68943557D01*
X102895437Y-68966166D01*
X102898856Y-68989221D01*
X102900000Y-69012500D01*
X102900000Y-69487500D01*
X102898856Y-69510779D01*
X102895437Y-69533834D01*
X102889773Y-69556443D01*
X102881921Y-69578387D01*
X102871956Y-69599457D01*
X102859974Y-69619448D01*
X102846090Y-69638168D01*
X102830438Y-69655438D01*
X102813168Y-69671090D01*
X102794448Y-69684974D01*
X102774457Y-69696956D01*
X102753387Y-69706921D01*
X102731443Y-69714773D01*
X102708834Y-69720437D01*
X102685779Y-69723856D01*
X102662500Y-69725000D01*
X102087500Y-69725000D01*
X102064221Y-69723856D01*
X102041166Y-69720437D01*
X102018557Y-69714773D01*
X101996613Y-69706921D01*
X101975543Y-69696956D01*
X101955552Y-69684974D01*
X101936832Y-69671090D01*
X101919562Y-69655438D01*
X101903910Y-69638168D01*
X101890026Y-69619448D01*
X101878044Y-69599457D01*
X101868079Y-69578387D01*
X101860227Y-69556443D01*
X101854563Y-69533834D01*
X101851144Y-69510779D01*
X101850000Y-69487500D01*
X101850000Y-69012500D01*
X101851144Y-68989221D01*
X101854563Y-68966166D01*
X101860227Y-68943557D01*
X101868079Y-68921613D01*
X101878044Y-68900543D01*
X101890026Y-68880552D01*
X101903910Y-68861832D01*
X101919562Y-68844562D01*
X101936832Y-68828910D01*
X101955552Y-68815026D01*
X101975543Y-68803044D01*
X101996613Y-68793079D01*
X102018557Y-68785227D01*
X102041166Y-68779563D01*
X102064221Y-68776144D01*
X102087500Y-68775000D01*
X102662500Y-68775000D01*
X102685779Y-68776144D01*
G37*
G36*
X100935779Y-68776144D02*
G01*
X100958834Y-68779563D01*
X100981443Y-68785227D01*
X101003387Y-68793079D01*
X101024457Y-68803044D01*
X101044448Y-68815026D01*
X101063168Y-68828910D01*
X101080438Y-68844562D01*
X101096090Y-68861832D01*
X101109974Y-68880552D01*
X101121956Y-68900543D01*
X101131921Y-68921613D01*
X101139773Y-68943557D01*
X101145437Y-68966166D01*
X101148856Y-68989221D01*
X101150000Y-69012500D01*
X101150000Y-69487500D01*
X101148856Y-69510779D01*
X101145437Y-69533834D01*
X101139773Y-69556443D01*
X101131921Y-69578387D01*
X101121956Y-69599457D01*
X101109974Y-69619448D01*
X101096090Y-69638168D01*
X101080438Y-69655438D01*
X101063168Y-69671090D01*
X101044448Y-69684974D01*
X101024457Y-69696956D01*
X101003387Y-69706921D01*
X100981443Y-69714773D01*
X100958834Y-69720437D01*
X100935779Y-69723856D01*
X100912500Y-69725000D01*
X100337500Y-69725000D01*
X100314221Y-69723856D01*
X100291166Y-69720437D01*
X100268557Y-69714773D01*
X100246613Y-69706921D01*
X100225543Y-69696956D01*
X100205552Y-69684974D01*
X100186832Y-69671090D01*
X100169562Y-69655438D01*
X100153910Y-69638168D01*
X100140026Y-69619448D01*
X100128044Y-69599457D01*
X100118079Y-69578387D01*
X100110227Y-69556443D01*
X100104563Y-69533834D01*
X100101144Y-69510779D01*
X100100000Y-69487500D01*
X100100000Y-69012500D01*
X100101144Y-68989221D01*
X100104563Y-68966166D01*
X100110227Y-68943557D01*
X100118079Y-68921613D01*
X100128044Y-68900543D01*
X100140026Y-68880552D01*
X100153910Y-68861832D01*
X100169562Y-68844562D01*
X100186832Y-68828910D01*
X100205552Y-68815026D01*
X100225543Y-68803044D01*
X100246613Y-68793079D01*
X100268557Y-68785227D01*
X100291166Y-68779563D01*
X100314221Y-68776144D01*
X100337500Y-68775000D01*
X100912500Y-68775000D01*
X100935779Y-68776144D01*
G37*
G36*
X103224504Y-61626204D02*
G01*
X103248773Y-61629804D01*
X103272571Y-61635765D01*
X103295671Y-61644030D01*
X103317849Y-61654520D01*
X103338893Y-61667133D01*
X103358598Y-61681747D01*
X103376777Y-61698223D01*
X103393253Y-61716402D01*
X103407867Y-61736107D01*
X103420480Y-61757151D01*
X103430970Y-61779329D01*
X103439235Y-61802429D01*
X103445196Y-61826227D01*
X103448796Y-61850496D01*
X103450000Y-61875000D01*
X103450000Y-63125000D01*
X103448796Y-63149504D01*
X103445196Y-63173773D01*
X103439235Y-63197571D01*
X103430970Y-63220671D01*
X103420480Y-63242849D01*
X103407867Y-63263893D01*
X103393253Y-63283598D01*
X103376777Y-63301777D01*
X103358598Y-63318253D01*
X103338893Y-63332867D01*
X103317849Y-63345480D01*
X103295671Y-63355970D01*
X103272571Y-63364235D01*
X103248773Y-63370196D01*
X103224504Y-63373796D01*
X103200000Y-63375000D01*
X102275000Y-63375000D01*
X102250496Y-63373796D01*
X102226227Y-63370196D01*
X102202429Y-63364235D01*
X102179329Y-63355970D01*
X102157151Y-63345480D01*
X102136107Y-63332867D01*
X102116402Y-63318253D01*
X102098223Y-63301777D01*
X102081747Y-63283598D01*
X102067133Y-63263893D01*
X102054520Y-63242849D01*
X102044030Y-63220671D01*
X102035765Y-63197571D01*
X102029804Y-63173773D01*
X102026204Y-63149504D01*
X102025000Y-63125000D01*
X102025000Y-61875000D01*
X102026204Y-61850496D01*
X102029804Y-61826227D01*
X102035765Y-61802429D01*
X102044030Y-61779329D01*
X102054520Y-61757151D01*
X102067133Y-61736107D01*
X102081747Y-61716402D01*
X102098223Y-61698223D01*
X102116402Y-61681747D01*
X102136107Y-61667133D01*
X102157151Y-61654520D01*
X102179329Y-61644030D01*
X102202429Y-61635765D01*
X102226227Y-61629804D01*
X102250496Y-61626204D01*
X102275000Y-61625000D01*
X103200000Y-61625000D01*
X103224504Y-61626204D01*
G37*
G36*
X100249504Y-61626204D02*
G01*
X100273773Y-61629804D01*
X100297571Y-61635765D01*
X100320671Y-61644030D01*
X100342849Y-61654520D01*
X100363893Y-61667133D01*
X100383598Y-61681747D01*
X100401777Y-61698223D01*
X100418253Y-61716402D01*
X100432867Y-61736107D01*
X100445480Y-61757151D01*
X100455970Y-61779329D01*
X100464235Y-61802429D01*
X100470196Y-61826227D01*
X100473796Y-61850496D01*
X100475000Y-61875000D01*
X100475000Y-63125000D01*
X100473796Y-63149504D01*
X100470196Y-63173773D01*
X100464235Y-63197571D01*
X100455970Y-63220671D01*
X100445480Y-63242849D01*
X100432867Y-63263893D01*
X100418253Y-63283598D01*
X100401777Y-63301777D01*
X100383598Y-63318253D01*
X100363893Y-63332867D01*
X100342849Y-63345480D01*
X100320671Y-63355970D01*
X100297571Y-63364235D01*
X100273773Y-63370196D01*
X100249504Y-63373796D01*
X100225000Y-63375000D01*
X99300000Y-63375000D01*
X99275496Y-63373796D01*
X99251227Y-63370196D01*
X99227429Y-63364235D01*
X99204329Y-63355970D01*
X99182151Y-63345480D01*
X99161107Y-63332867D01*
X99141402Y-63318253D01*
X99123223Y-63301777D01*
X99106747Y-63283598D01*
X99092133Y-63263893D01*
X99079520Y-63242849D01*
X99069030Y-63220671D01*
X99060765Y-63197571D01*
X99054804Y-63173773D01*
X99051204Y-63149504D01*
X99050000Y-63125000D01*
X99050000Y-61875000D01*
X99051204Y-61850496D01*
X99054804Y-61826227D01*
X99060765Y-61802429D01*
X99069030Y-61779329D01*
X99079520Y-61757151D01*
X99092133Y-61736107D01*
X99106747Y-61716402D01*
X99123223Y-61698223D01*
X99141402Y-61681747D01*
X99161107Y-61667133D01*
X99182151Y-61654520D01*
X99204329Y-61644030D01*
X99227429Y-61635765D01*
X99251227Y-61629804D01*
X99275496Y-61626204D01*
X99300000Y-61625000D01*
X100225000Y-61625000D01*
X100249504Y-61626204D01*
G37*
G36*
X80935779Y-73026144D02*
G01*
X80958834Y-73029563D01*
X80981443Y-73035227D01*
X81003387Y-73043079D01*
X81024457Y-73053044D01*
X81044448Y-73065026D01*
X81063168Y-73078910D01*
X81080438Y-73094562D01*
X81096090Y-73111832D01*
X81109974Y-73130552D01*
X81121956Y-73150543D01*
X81131921Y-73171613D01*
X81139773Y-73193557D01*
X81145437Y-73216166D01*
X81148856Y-73239221D01*
X81150000Y-73262500D01*
X81150000Y-73737500D01*
X81148856Y-73760779D01*
X81145437Y-73783834D01*
X81139773Y-73806443D01*
X81131921Y-73828387D01*
X81121956Y-73849457D01*
X81109974Y-73869448D01*
X81096090Y-73888168D01*
X81080438Y-73905438D01*
X81063168Y-73921090D01*
X81044448Y-73934974D01*
X81024457Y-73946956D01*
X81003387Y-73956921D01*
X80981443Y-73964773D01*
X80958834Y-73970437D01*
X80935779Y-73973856D01*
X80912500Y-73975000D01*
X80337500Y-73975000D01*
X80314221Y-73973856D01*
X80291166Y-73970437D01*
X80268557Y-73964773D01*
X80246613Y-73956921D01*
X80225543Y-73946956D01*
X80205552Y-73934974D01*
X80186832Y-73921090D01*
X80169562Y-73905438D01*
X80153910Y-73888168D01*
X80140026Y-73869448D01*
X80128044Y-73849457D01*
X80118079Y-73828387D01*
X80110227Y-73806443D01*
X80104563Y-73783834D01*
X80101144Y-73760779D01*
X80100000Y-73737500D01*
X80100000Y-73262500D01*
X80101144Y-73239221D01*
X80104563Y-73216166D01*
X80110227Y-73193557D01*
X80118079Y-73171613D01*
X80128044Y-73150543D01*
X80140026Y-73130552D01*
X80153910Y-73111832D01*
X80169562Y-73094562D01*
X80186832Y-73078910D01*
X80205552Y-73065026D01*
X80225543Y-73053044D01*
X80246613Y-73043079D01*
X80268557Y-73035227D01*
X80291166Y-73029563D01*
X80314221Y-73026144D01*
X80337500Y-73025000D01*
X80912500Y-73025000D01*
X80935779Y-73026144D01*
G37*
G36*
X79185779Y-73026144D02*
G01*
X79208834Y-73029563D01*
X79231443Y-73035227D01*
X79253387Y-73043079D01*
X79274457Y-73053044D01*
X79294448Y-73065026D01*
X79313168Y-73078910D01*
X79330438Y-73094562D01*
X79346090Y-73111832D01*
X79359974Y-73130552D01*
X79371956Y-73150543D01*
X79381921Y-73171613D01*
X79389773Y-73193557D01*
X79395437Y-73216166D01*
X79398856Y-73239221D01*
X79400000Y-73262500D01*
X79400000Y-73737500D01*
X79398856Y-73760779D01*
X79395437Y-73783834D01*
X79389773Y-73806443D01*
X79381921Y-73828387D01*
X79371956Y-73849457D01*
X79359974Y-73869448D01*
X79346090Y-73888168D01*
X79330438Y-73905438D01*
X79313168Y-73921090D01*
X79294448Y-73934974D01*
X79274457Y-73946956D01*
X79253387Y-73956921D01*
X79231443Y-73964773D01*
X79208834Y-73970437D01*
X79185779Y-73973856D01*
X79162500Y-73975000D01*
X78587500Y-73975000D01*
X78564221Y-73973856D01*
X78541166Y-73970437D01*
X78518557Y-73964773D01*
X78496613Y-73956921D01*
X78475543Y-73946956D01*
X78455552Y-73934974D01*
X78436832Y-73921090D01*
X78419562Y-73905438D01*
X78403910Y-73888168D01*
X78390026Y-73869448D01*
X78378044Y-73849457D01*
X78368079Y-73828387D01*
X78360227Y-73806443D01*
X78354563Y-73783834D01*
X78351144Y-73760779D01*
X78350000Y-73737500D01*
X78350000Y-73262500D01*
X78351144Y-73239221D01*
X78354563Y-73216166D01*
X78360227Y-73193557D01*
X78368079Y-73171613D01*
X78378044Y-73150543D01*
X78390026Y-73130552D01*
X78403910Y-73111832D01*
X78419562Y-73094562D01*
X78436832Y-73078910D01*
X78455552Y-73065026D01*
X78475543Y-73053044D01*
X78496613Y-73043079D01*
X78518557Y-73035227D01*
X78541166Y-73029563D01*
X78564221Y-73026144D01*
X78587500Y-73025000D01*
X79162500Y-73025000D01*
X79185779Y-73026144D01*
G37*
G36*
X79010779Y-70851144D02*
G01*
X79033834Y-70854563D01*
X79056443Y-70860227D01*
X79078387Y-70868079D01*
X79099457Y-70878044D01*
X79119448Y-70890026D01*
X79138168Y-70903910D01*
X79155438Y-70919562D01*
X79171090Y-70936832D01*
X79184974Y-70955552D01*
X79196956Y-70975543D01*
X79206921Y-70996613D01*
X79214773Y-71018557D01*
X79220437Y-71041166D01*
X79223856Y-71064221D01*
X79225000Y-71087500D01*
X79225000Y-71662500D01*
X79223856Y-71685779D01*
X79220437Y-71708834D01*
X79214773Y-71731443D01*
X79206921Y-71753387D01*
X79196956Y-71774457D01*
X79184974Y-71794448D01*
X79171090Y-71813168D01*
X79155438Y-71830438D01*
X79138168Y-71846090D01*
X79119448Y-71859974D01*
X79099457Y-71871956D01*
X79078387Y-71881921D01*
X79056443Y-71889773D01*
X79033834Y-71895437D01*
X79010779Y-71898856D01*
X78987500Y-71900000D01*
X78512500Y-71900000D01*
X78489221Y-71898856D01*
X78466166Y-71895437D01*
X78443557Y-71889773D01*
X78421613Y-71881921D01*
X78400543Y-71871956D01*
X78380552Y-71859974D01*
X78361832Y-71846090D01*
X78344562Y-71830438D01*
X78328910Y-71813168D01*
X78315026Y-71794448D01*
X78303044Y-71774457D01*
X78293079Y-71753387D01*
X78285227Y-71731443D01*
X78279563Y-71708834D01*
X78276144Y-71685779D01*
X78275000Y-71662500D01*
X78275000Y-71087500D01*
X78276144Y-71064221D01*
X78279563Y-71041166D01*
X78285227Y-71018557D01*
X78293079Y-70996613D01*
X78303044Y-70975543D01*
X78315026Y-70955552D01*
X78328910Y-70936832D01*
X78344562Y-70919562D01*
X78361832Y-70903910D01*
X78380552Y-70890026D01*
X78400543Y-70878044D01*
X78421613Y-70868079D01*
X78443557Y-70860227D01*
X78466166Y-70854563D01*
X78489221Y-70851144D01*
X78512500Y-70850000D01*
X78987500Y-70850000D01*
X79010779Y-70851144D01*
G37*
G36*
X79010779Y-69101144D02*
G01*
X79033834Y-69104563D01*
X79056443Y-69110227D01*
X79078387Y-69118079D01*
X79099457Y-69128044D01*
X79119448Y-69140026D01*
X79138168Y-69153910D01*
X79155438Y-69169562D01*
X79171090Y-69186832D01*
X79184974Y-69205552D01*
X79196956Y-69225543D01*
X79206921Y-69246613D01*
X79214773Y-69268557D01*
X79220437Y-69291166D01*
X79223856Y-69314221D01*
X79225000Y-69337500D01*
X79225000Y-69912500D01*
X79223856Y-69935779D01*
X79220437Y-69958834D01*
X79214773Y-69981443D01*
X79206921Y-70003387D01*
X79196956Y-70024457D01*
X79184974Y-70044448D01*
X79171090Y-70063168D01*
X79155438Y-70080438D01*
X79138168Y-70096090D01*
X79119448Y-70109974D01*
X79099457Y-70121956D01*
X79078387Y-70131921D01*
X79056443Y-70139773D01*
X79033834Y-70145437D01*
X79010779Y-70148856D01*
X78987500Y-70150000D01*
X78512500Y-70150000D01*
X78489221Y-70148856D01*
X78466166Y-70145437D01*
X78443557Y-70139773D01*
X78421613Y-70131921D01*
X78400543Y-70121956D01*
X78380552Y-70109974D01*
X78361832Y-70096090D01*
X78344562Y-70080438D01*
X78328910Y-70063168D01*
X78315026Y-70044448D01*
X78303044Y-70024457D01*
X78293079Y-70003387D01*
X78285227Y-69981443D01*
X78279563Y-69958834D01*
X78276144Y-69935779D01*
X78275000Y-69912500D01*
X78275000Y-69337500D01*
X78276144Y-69314221D01*
X78279563Y-69291166D01*
X78285227Y-69268557D01*
X78293079Y-69246613D01*
X78303044Y-69225543D01*
X78315026Y-69205552D01*
X78328910Y-69186832D01*
X78344562Y-69169562D01*
X78361832Y-69153910D01*
X78380552Y-69140026D01*
X78400543Y-69128044D01*
X78421613Y-69118079D01*
X78443557Y-69110227D01*
X78466166Y-69104563D01*
X78489221Y-69101144D01*
X78512500Y-69100000D01*
X78987500Y-69100000D01*
X79010779Y-69101144D01*
G37*
G36*
X57260779Y-69976144D02*
G01*
X57283834Y-69979563D01*
X57306443Y-69985227D01*
X57328387Y-69993079D01*
X57349457Y-70003044D01*
X57369448Y-70015026D01*
X57388168Y-70028910D01*
X57405438Y-70044562D01*
X57421090Y-70061832D01*
X57434974Y-70080552D01*
X57446956Y-70100543D01*
X57456921Y-70121613D01*
X57464773Y-70143557D01*
X57470437Y-70166166D01*
X57473856Y-70189221D01*
X57475000Y-70212500D01*
X57475000Y-70787500D01*
X57473856Y-70810779D01*
X57470437Y-70833834D01*
X57464773Y-70856443D01*
X57456921Y-70878387D01*
X57446956Y-70899457D01*
X57434974Y-70919448D01*
X57421090Y-70938168D01*
X57405438Y-70955438D01*
X57388168Y-70971090D01*
X57369448Y-70984974D01*
X57349457Y-70996956D01*
X57328387Y-71006921D01*
X57306443Y-71014773D01*
X57283834Y-71020437D01*
X57260779Y-71023856D01*
X57237500Y-71025000D01*
X56762500Y-71025000D01*
X56739221Y-71023856D01*
X56716166Y-71020437D01*
X56693557Y-71014773D01*
X56671613Y-71006921D01*
X56650543Y-70996956D01*
X56630552Y-70984974D01*
X56611832Y-70971090D01*
X56594562Y-70955438D01*
X56578910Y-70938168D01*
X56565026Y-70919448D01*
X56553044Y-70899457D01*
X56543079Y-70878387D01*
X56535227Y-70856443D01*
X56529563Y-70833834D01*
X56526144Y-70810779D01*
X56525000Y-70787500D01*
X56525000Y-70212500D01*
X56526144Y-70189221D01*
X56529563Y-70166166D01*
X56535227Y-70143557D01*
X56543079Y-70121613D01*
X56553044Y-70100543D01*
X56565026Y-70080552D01*
X56578910Y-70061832D01*
X56594562Y-70044562D01*
X56611832Y-70028910D01*
X56630552Y-70015026D01*
X56650543Y-70003044D01*
X56671613Y-69993079D01*
X56693557Y-69985227D01*
X56716166Y-69979563D01*
X56739221Y-69976144D01*
X56762500Y-69975000D01*
X57237500Y-69975000D01*
X57260779Y-69976144D01*
G37*
G36*
X57260779Y-71726144D02*
G01*
X57283834Y-71729563D01*
X57306443Y-71735227D01*
X57328387Y-71743079D01*
X57349457Y-71753044D01*
X57369448Y-71765026D01*
X57388168Y-71778910D01*
X57405438Y-71794562D01*
X57421090Y-71811832D01*
X57434974Y-71830552D01*
X57446956Y-71850543D01*
X57456921Y-71871613D01*
X57464773Y-71893557D01*
X57470437Y-71916166D01*
X57473856Y-71939221D01*
X57475000Y-71962500D01*
X57475000Y-72537500D01*
X57473856Y-72560779D01*
X57470437Y-72583834D01*
X57464773Y-72606443D01*
X57456921Y-72628387D01*
X57446956Y-72649457D01*
X57434974Y-72669448D01*
X57421090Y-72688168D01*
X57405438Y-72705438D01*
X57388168Y-72721090D01*
X57369448Y-72734974D01*
X57349457Y-72746956D01*
X57328387Y-72756921D01*
X57306443Y-72764773D01*
X57283834Y-72770437D01*
X57260779Y-72773856D01*
X57237500Y-72775000D01*
X56762500Y-72775000D01*
X56739221Y-72773856D01*
X56716166Y-72770437D01*
X56693557Y-72764773D01*
X56671613Y-72756921D01*
X56650543Y-72746956D01*
X56630552Y-72734974D01*
X56611832Y-72721090D01*
X56594562Y-72705438D01*
X56578910Y-72688168D01*
X56565026Y-72669448D01*
X56553044Y-72649457D01*
X56543079Y-72628387D01*
X56535227Y-72606443D01*
X56529563Y-72583834D01*
X56526144Y-72560779D01*
X56525000Y-72537500D01*
X56525000Y-71962500D01*
X56526144Y-71939221D01*
X56529563Y-71916166D01*
X56535227Y-71893557D01*
X56543079Y-71871613D01*
X56553044Y-71850543D01*
X56565026Y-71830552D01*
X56578910Y-71811832D01*
X56594562Y-71794562D01*
X56611832Y-71778910D01*
X56630552Y-71765026D01*
X56650543Y-71753044D01*
X56671613Y-71743079D01*
X56693557Y-71735227D01*
X56716166Y-71729563D01*
X56739221Y-71726144D01*
X56762500Y-71725000D01*
X57237500Y-71725000D01*
X57260779Y-71726144D01*
G37*
G36*
X85260779Y-55351144D02*
G01*
X85283834Y-55354563D01*
X85306443Y-55360227D01*
X85328387Y-55368079D01*
X85349457Y-55378044D01*
X85369448Y-55390026D01*
X85388168Y-55403910D01*
X85405438Y-55419562D01*
X85421090Y-55436832D01*
X85434974Y-55455552D01*
X85446956Y-55475543D01*
X85456921Y-55496613D01*
X85464773Y-55518557D01*
X85470437Y-55541166D01*
X85473856Y-55564221D01*
X85475000Y-55587500D01*
X85475000Y-56162500D01*
X85473856Y-56185779D01*
X85470437Y-56208834D01*
X85464773Y-56231443D01*
X85456921Y-56253387D01*
X85446956Y-56274457D01*
X85434974Y-56294448D01*
X85421090Y-56313168D01*
X85405438Y-56330438D01*
X85388168Y-56346090D01*
X85369448Y-56359974D01*
X85349457Y-56371956D01*
X85328387Y-56381921D01*
X85306443Y-56389773D01*
X85283834Y-56395437D01*
X85260779Y-56398856D01*
X85237500Y-56400000D01*
X84762500Y-56400000D01*
X84739221Y-56398856D01*
X84716166Y-56395437D01*
X84693557Y-56389773D01*
X84671613Y-56381921D01*
X84650543Y-56371956D01*
X84630552Y-56359974D01*
X84611832Y-56346090D01*
X84594562Y-56330438D01*
X84578910Y-56313168D01*
X84565026Y-56294448D01*
X84553044Y-56274457D01*
X84543079Y-56253387D01*
X84535227Y-56231443D01*
X84529563Y-56208834D01*
X84526144Y-56185779D01*
X84525000Y-56162500D01*
X84525000Y-55587500D01*
X84526144Y-55564221D01*
X84529563Y-55541166D01*
X84535227Y-55518557D01*
X84543079Y-55496613D01*
X84553044Y-55475543D01*
X84565026Y-55455552D01*
X84578910Y-55436832D01*
X84594562Y-55419562D01*
X84611832Y-55403910D01*
X84630552Y-55390026D01*
X84650543Y-55378044D01*
X84671613Y-55368079D01*
X84693557Y-55360227D01*
X84716166Y-55354563D01*
X84739221Y-55351144D01*
X84762500Y-55350000D01*
X85237500Y-55350000D01*
X85260779Y-55351144D01*
G37*
G36*
X85260779Y-53601144D02*
G01*
X85283834Y-53604563D01*
X85306443Y-53610227D01*
X85328387Y-53618079D01*
X85349457Y-53628044D01*
X85369448Y-53640026D01*
X85388168Y-53653910D01*
X85405438Y-53669562D01*
X85421090Y-53686832D01*
X85434974Y-53705552D01*
X85446956Y-53725543D01*
X85456921Y-53746613D01*
X85464773Y-53768557D01*
X85470437Y-53791166D01*
X85473856Y-53814221D01*
X85475000Y-53837500D01*
X85475000Y-54412500D01*
X85473856Y-54435779D01*
X85470437Y-54458834D01*
X85464773Y-54481443D01*
X85456921Y-54503387D01*
X85446956Y-54524457D01*
X85434974Y-54544448D01*
X85421090Y-54563168D01*
X85405438Y-54580438D01*
X85388168Y-54596090D01*
X85369448Y-54609974D01*
X85349457Y-54621956D01*
X85328387Y-54631921D01*
X85306443Y-54639773D01*
X85283834Y-54645437D01*
X85260779Y-54648856D01*
X85237500Y-54650000D01*
X84762500Y-54650000D01*
X84739221Y-54648856D01*
X84716166Y-54645437D01*
X84693557Y-54639773D01*
X84671613Y-54631921D01*
X84650543Y-54621956D01*
X84630552Y-54609974D01*
X84611832Y-54596090D01*
X84594562Y-54580438D01*
X84578910Y-54563168D01*
X84565026Y-54544448D01*
X84553044Y-54524457D01*
X84543079Y-54503387D01*
X84535227Y-54481443D01*
X84529563Y-54458834D01*
X84526144Y-54435779D01*
X84525000Y-54412500D01*
X84525000Y-53837500D01*
X84526144Y-53814221D01*
X84529563Y-53791166D01*
X84535227Y-53768557D01*
X84543079Y-53746613D01*
X84553044Y-53725543D01*
X84565026Y-53705552D01*
X84578910Y-53686832D01*
X84594562Y-53669562D01*
X84611832Y-53653910D01*
X84630552Y-53640026D01*
X84650543Y-53628044D01*
X84671613Y-53618079D01*
X84693557Y-53610227D01*
X84716166Y-53604563D01*
X84739221Y-53601144D01*
X84762500Y-53600000D01*
X85237500Y-53600000D01*
X85260779Y-53601144D01*
G37*
G36*
X91060779Y-73776144D02*
G01*
X91083834Y-73779563D01*
X91106443Y-73785227D01*
X91128387Y-73793079D01*
X91149457Y-73803044D01*
X91169448Y-73815026D01*
X91188168Y-73828910D01*
X91205438Y-73844562D01*
X91221090Y-73861832D01*
X91234974Y-73880552D01*
X91246956Y-73900543D01*
X91256921Y-73921613D01*
X91264773Y-73943557D01*
X91270437Y-73966166D01*
X91273856Y-73989221D01*
X91275000Y-74012500D01*
X91275000Y-74487500D01*
X91273856Y-74510779D01*
X91270437Y-74533834D01*
X91264773Y-74556443D01*
X91256921Y-74578387D01*
X91246956Y-74599457D01*
X91234974Y-74619448D01*
X91221090Y-74638168D01*
X91205438Y-74655438D01*
X91188168Y-74671090D01*
X91169448Y-74684974D01*
X91149457Y-74696956D01*
X91128387Y-74706921D01*
X91106443Y-74714773D01*
X91083834Y-74720437D01*
X91060779Y-74723856D01*
X91037500Y-74725000D01*
X90462500Y-74725000D01*
X90439221Y-74723856D01*
X90416166Y-74720437D01*
X90393557Y-74714773D01*
X90371613Y-74706921D01*
X90350543Y-74696956D01*
X90330552Y-74684974D01*
X90311832Y-74671090D01*
X90294562Y-74655438D01*
X90278910Y-74638168D01*
X90265026Y-74619448D01*
X90253044Y-74599457D01*
X90243079Y-74578387D01*
X90235227Y-74556443D01*
X90229563Y-74533834D01*
X90226144Y-74510779D01*
X90225000Y-74487500D01*
X90225000Y-74012500D01*
X90226144Y-73989221D01*
X90229563Y-73966166D01*
X90235227Y-73943557D01*
X90243079Y-73921613D01*
X90253044Y-73900543D01*
X90265026Y-73880552D01*
X90278910Y-73861832D01*
X90294562Y-73844562D01*
X90311832Y-73828910D01*
X90330552Y-73815026D01*
X90350543Y-73803044D01*
X90371613Y-73793079D01*
X90393557Y-73785227D01*
X90416166Y-73779563D01*
X90439221Y-73776144D01*
X90462500Y-73775000D01*
X91037500Y-73775000D01*
X91060779Y-73776144D01*
G37*
G36*
X89310779Y-73776144D02*
G01*
X89333834Y-73779563D01*
X89356443Y-73785227D01*
X89378387Y-73793079D01*
X89399457Y-73803044D01*
X89419448Y-73815026D01*
X89438168Y-73828910D01*
X89455438Y-73844562D01*
X89471090Y-73861832D01*
X89484974Y-73880552D01*
X89496956Y-73900543D01*
X89506921Y-73921613D01*
X89514773Y-73943557D01*
X89520437Y-73966166D01*
X89523856Y-73989221D01*
X89525000Y-74012500D01*
X89525000Y-74487500D01*
X89523856Y-74510779D01*
X89520437Y-74533834D01*
X89514773Y-74556443D01*
X89506921Y-74578387D01*
X89496956Y-74599457D01*
X89484974Y-74619448D01*
X89471090Y-74638168D01*
X89455438Y-74655438D01*
X89438168Y-74671090D01*
X89419448Y-74684974D01*
X89399457Y-74696956D01*
X89378387Y-74706921D01*
X89356443Y-74714773D01*
X89333834Y-74720437D01*
X89310779Y-74723856D01*
X89287500Y-74725000D01*
X88712500Y-74725000D01*
X88689221Y-74723856D01*
X88666166Y-74720437D01*
X88643557Y-74714773D01*
X88621613Y-74706921D01*
X88600543Y-74696956D01*
X88580552Y-74684974D01*
X88561832Y-74671090D01*
X88544562Y-74655438D01*
X88528910Y-74638168D01*
X88515026Y-74619448D01*
X88503044Y-74599457D01*
X88493079Y-74578387D01*
X88485227Y-74556443D01*
X88479563Y-74533834D01*
X88476144Y-74510779D01*
X88475000Y-74487500D01*
X88475000Y-74012500D01*
X88476144Y-73989221D01*
X88479563Y-73966166D01*
X88485227Y-73943557D01*
X88493079Y-73921613D01*
X88503044Y-73900543D01*
X88515026Y-73880552D01*
X88528910Y-73861832D01*
X88544562Y-73844562D01*
X88561832Y-73828910D01*
X88580552Y-73815026D01*
X88600543Y-73803044D01*
X88621613Y-73793079D01*
X88643557Y-73785227D01*
X88666166Y-73779563D01*
X88689221Y-73776144D01*
X88712500Y-73775000D01*
X89287500Y-73775000D01*
X89310779Y-73776144D01*
G37*
G36*
X81060779Y-67276144D02*
G01*
X81083834Y-67279563D01*
X81106443Y-67285227D01*
X81128387Y-67293079D01*
X81149457Y-67303044D01*
X81169448Y-67315026D01*
X81188168Y-67328910D01*
X81205438Y-67344562D01*
X81221090Y-67361832D01*
X81234974Y-67380552D01*
X81246956Y-67400543D01*
X81256921Y-67421613D01*
X81264773Y-67443557D01*
X81270437Y-67466166D01*
X81273856Y-67489221D01*
X81275000Y-67512500D01*
X81275000Y-67987500D01*
X81273856Y-68010779D01*
X81270437Y-68033834D01*
X81264773Y-68056443D01*
X81256921Y-68078387D01*
X81246956Y-68099457D01*
X81234974Y-68119448D01*
X81221090Y-68138168D01*
X81205438Y-68155438D01*
X81188168Y-68171090D01*
X81169448Y-68184974D01*
X81149457Y-68196956D01*
X81128387Y-68206921D01*
X81106443Y-68214773D01*
X81083834Y-68220437D01*
X81060779Y-68223856D01*
X81037500Y-68225000D01*
X80462500Y-68225000D01*
X80439221Y-68223856D01*
X80416166Y-68220437D01*
X80393557Y-68214773D01*
X80371613Y-68206921D01*
X80350543Y-68196956D01*
X80330552Y-68184974D01*
X80311832Y-68171090D01*
X80294562Y-68155438D01*
X80278910Y-68138168D01*
X80265026Y-68119448D01*
X80253044Y-68099457D01*
X80243079Y-68078387D01*
X80235227Y-68056443D01*
X80229563Y-68033834D01*
X80226144Y-68010779D01*
X80225000Y-67987500D01*
X80225000Y-67512500D01*
X80226144Y-67489221D01*
X80229563Y-67466166D01*
X80235227Y-67443557D01*
X80243079Y-67421613D01*
X80253044Y-67400543D01*
X80265026Y-67380552D01*
X80278910Y-67361832D01*
X80294562Y-67344562D01*
X80311832Y-67328910D01*
X80330552Y-67315026D01*
X80350543Y-67303044D01*
X80371613Y-67293079D01*
X80393557Y-67285227D01*
X80416166Y-67279563D01*
X80439221Y-67276144D01*
X80462500Y-67275000D01*
X81037500Y-67275000D01*
X81060779Y-67276144D01*
G37*
G36*
X79310779Y-67276144D02*
G01*
X79333834Y-67279563D01*
X79356443Y-67285227D01*
X79378387Y-67293079D01*
X79399457Y-67303044D01*
X79419448Y-67315026D01*
X79438168Y-67328910D01*
X79455438Y-67344562D01*
X79471090Y-67361832D01*
X79484974Y-67380552D01*
X79496956Y-67400543D01*
X79506921Y-67421613D01*
X79514773Y-67443557D01*
X79520437Y-67466166D01*
X79523856Y-67489221D01*
X79525000Y-67512500D01*
X79525000Y-67987500D01*
X79523856Y-68010779D01*
X79520437Y-68033834D01*
X79514773Y-68056443D01*
X79506921Y-68078387D01*
X79496956Y-68099457D01*
X79484974Y-68119448D01*
X79471090Y-68138168D01*
X79455438Y-68155438D01*
X79438168Y-68171090D01*
X79419448Y-68184974D01*
X79399457Y-68196956D01*
X79378387Y-68206921D01*
X79356443Y-68214773D01*
X79333834Y-68220437D01*
X79310779Y-68223856D01*
X79287500Y-68225000D01*
X78712500Y-68225000D01*
X78689221Y-68223856D01*
X78666166Y-68220437D01*
X78643557Y-68214773D01*
X78621613Y-68206921D01*
X78600543Y-68196956D01*
X78580552Y-68184974D01*
X78561832Y-68171090D01*
X78544562Y-68155438D01*
X78528910Y-68138168D01*
X78515026Y-68119448D01*
X78503044Y-68099457D01*
X78493079Y-68078387D01*
X78485227Y-68056443D01*
X78479563Y-68033834D01*
X78476144Y-68010779D01*
X78475000Y-67987500D01*
X78475000Y-67512500D01*
X78476144Y-67489221D01*
X78479563Y-67466166D01*
X78485227Y-67443557D01*
X78493079Y-67421613D01*
X78503044Y-67400543D01*
X78515026Y-67380552D01*
X78528910Y-67361832D01*
X78544562Y-67344562D01*
X78561832Y-67328910D01*
X78580552Y-67315026D01*
X78600543Y-67303044D01*
X78621613Y-67293079D01*
X78643557Y-67285227D01*
X78666166Y-67279563D01*
X78689221Y-67276144D01*
X78712500Y-67275000D01*
X79287500Y-67275000D01*
X79310779Y-67276144D01*
G37*
G36*
X83260779Y-55351144D02*
G01*
X83283834Y-55354563D01*
X83306443Y-55360227D01*
X83328387Y-55368079D01*
X83349457Y-55378044D01*
X83369448Y-55390026D01*
X83388168Y-55403910D01*
X83405438Y-55419562D01*
X83421090Y-55436832D01*
X83434974Y-55455552D01*
X83446956Y-55475543D01*
X83456921Y-55496613D01*
X83464773Y-55518557D01*
X83470437Y-55541166D01*
X83473856Y-55564221D01*
X83475000Y-55587500D01*
X83475000Y-56162500D01*
X83473856Y-56185779D01*
X83470437Y-56208834D01*
X83464773Y-56231443D01*
X83456921Y-56253387D01*
X83446956Y-56274457D01*
X83434974Y-56294448D01*
X83421090Y-56313168D01*
X83405438Y-56330438D01*
X83388168Y-56346090D01*
X83369448Y-56359974D01*
X83349457Y-56371956D01*
X83328387Y-56381921D01*
X83306443Y-56389773D01*
X83283834Y-56395437D01*
X83260779Y-56398856D01*
X83237500Y-56400000D01*
X82762500Y-56400000D01*
X82739221Y-56398856D01*
X82716166Y-56395437D01*
X82693557Y-56389773D01*
X82671613Y-56381921D01*
X82650543Y-56371956D01*
X82630552Y-56359974D01*
X82611832Y-56346090D01*
X82594562Y-56330438D01*
X82578910Y-56313168D01*
X82565026Y-56294448D01*
X82553044Y-56274457D01*
X82543079Y-56253387D01*
X82535227Y-56231443D01*
X82529563Y-56208834D01*
X82526144Y-56185779D01*
X82525000Y-56162500D01*
X82525000Y-55587500D01*
X82526144Y-55564221D01*
X82529563Y-55541166D01*
X82535227Y-55518557D01*
X82543079Y-55496613D01*
X82553044Y-55475543D01*
X82565026Y-55455552D01*
X82578910Y-55436832D01*
X82594562Y-55419562D01*
X82611832Y-55403910D01*
X82630552Y-55390026D01*
X82650543Y-55378044D01*
X82671613Y-55368079D01*
X82693557Y-55360227D01*
X82716166Y-55354563D01*
X82739221Y-55351144D01*
X82762500Y-55350000D01*
X83237500Y-55350000D01*
X83260779Y-55351144D01*
G37*
G36*
X83260779Y-53601144D02*
G01*
X83283834Y-53604563D01*
X83306443Y-53610227D01*
X83328387Y-53618079D01*
X83349457Y-53628044D01*
X83369448Y-53640026D01*
X83388168Y-53653910D01*
X83405438Y-53669562D01*
X83421090Y-53686832D01*
X83434974Y-53705552D01*
X83446956Y-53725543D01*
X83456921Y-53746613D01*
X83464773Y-53768557D01*
X83470437Y-53791166D01*
X83473856Y-53814221D01*
X83475000Y-53837500D01*
X83475000Y-54412500D01*
X83473856Y-54435779D01*
X83470437Y-54458834D01*
X83464773Y-54481443D01*
X83456921Y-54503387D01*
X83446956Y-54524457D01*
X83434974Y-54544448D01*
X83421090Y-54563168D01*
X83405438Y-54580438D01*
X83388168Y-54596090D01*
X83369448Y-54609974D01*
X83349457Y-54621956D01*
X83328387Y-54631921D01*
X83306443Y-54639773D01*
X83283834Y-54645437D01*
X83260779Y-54648856D01*
X83237500Y-54650000D01*
X82762500Y-54650000D01*
X82739221Y-54648856D01*
X82716166Y-54645437D01*
X82693557Y-54639773D01*
X82671613Y-54631921D01*
X82650543Y-54621956D01*
X82630552Y-54609974D01*
X82611832Y-54596090D01*
X82594562Y-54580438D01*
X82578910Y-54563168D01*
X82565026Y-54544448D01*
X82553044Y-54524457D01*
X82543079Y-54503387D01*
X82535227Y-54481443D01*
X82529563Y-54458834D01*
X82526144Y-54435779D01*
X82525000Y-54412500D01*
X82525000Y-53837500D01*
X82526144Y-53814221D01*
X82529563Y-53791166D01*
X82535227Y-53768557D01*
X82543079Y-53746613D01*
X82553044Y-53725543D01*
X82565026Y-53705552D01*
X82578910Y-53686832D01*
X82594562Y-53669562D01*
X82611832Y-53653910D01*
X82630552Y-53640026D01*
X82650543Y-53628044D01*
X82671613Y-53618079D01*
X82693557Y-53610227D01*
X82716166Y-53604563D01*
X82739221Y-53601144D01*
X82762500Y-53600000D01*
X83237500Y-53600000D01*
X83260779Y-53601144D01*
G37*
G36*
X98420779Y-55226144D02*
G01*
X98443834Y-55229563D01*
X98466443Y-55235227D01*
X98488387Y-55243079D01*
X98509457Y-55253044D01*
X98529448Y-55265026D01*
X98548168Y-55278910D01*
X98565438Y-55294562D01*
X98581090Y-55311832D01*
X98594974Y-55330552D01*
X98606956Y-55350543D01*
X98616921Y-55371613D01*
X98624773Y-55393557D01*
X98630437Y-55416166D01*
X98633856Y-55439221D01*
X98635000Y-55462500D01*
X98635000Y-56037500D01*
X98633856Y-56060779D01*
X98630437Y-56083834D01*
X98624773Y-56106443D01*
X98616921Y-56128387D01*
X98606956Y-56149457D01*
X98594974Y-56169448D01*
X98581090Y-56188168D01*
X98565438Y-56205438D01*
X98548168Y-56221090D01*
X98529448Y-56234974D01*
X98509457Y-56246956D01*
X98488387Y-56256921D01*
X98466443Y-56264773D01*
X98443834Y-56270437D01*
X98420779Y-56273856D01*
X98397500Y-56275000D01*
X97922500Y-56275000D01*
X97899221Y-56273856D01*
X97876166Y-56270437D01*
X97853557Y-56264773D01*
X97831613Y-56256921D01*
X97810543Y-56246956D01*
X97790552Y-56234974D01*
X97771832Y-56221090D01*
X97754562Y-56205438D01*
X97738910Y-56188168D01*
X97725026Y-56169448D01*
X97713044Y-56149457D01*
X97703079Y-56128387D01*
X97695227Y-56106443D01*
X97689563Y-56083834D01*
X97686144Y-56060779D01*
X97685000Y-56037500D01*
X97685000Y-55462500D01*
X97686144Y-55439221D01*
X97689563Y-55416166D01*
X97695227Y-55393557D01*
X97703079Y-55371613D01*
X97713044Y-55350543D01*
X97725026Y-55330552D01*
X97738910Y-55311832D01*
X97754562Y-55294562D01*
X97771832Y-55278910D01*
X97790552Y-55265026D01*
X97810543Y-55253044D01*
X97831613Y-55243079D01*
X97853557Y-55235227D01*
X97876166Y-55229563D01*
X97899221Y-55226144D01*
X97922500Y-55225000D01*
X98397500Y-55225000D01*
X98420779Y-55226144D01*
G37*
G36*
X98420779Y-53476144D02*
G01*
X98443834Y-53479563D01*
X98466443Y-53485227D01*
X98488387Y-53493079D01*
X98509457Y-53503044D01*
X98529448Y-53515026D01*
X98548168Y-53528910D01*
X98565438Y-53544562D01*
X98581090Y-53561832D01*
X98594974Y-53580552D01*
X98606956Y-53600543D01*
X98616921Y-53621613D01*
X98624773Y-53643557D01*
X98630437Y-53666166D01*
X98633856Y-53689221D01*
X98635000Y-53712500D01*
X98635000Y-54287500D01*
X98633856Y-54310779D01*
X98630437Y-54333834D01*
X98624773Y-54356443D01*
X98616921Y-54378387D01*
X98606956Y-54399457D01*
X98594974Y-54419448D01*
X98581090Y-54438168D01*
X98565438Y-54455438D01*
X98548168Y-54471090D01*
X98529448Y-54484974D01*
X98509457Y-54496956D01*
X98488387Y-54506921D01*
X98466443Y-54514773D01*
X98443834Y-54520437D01*
X98420779Y-54523856D01*
X98397500Y-54525000D01*
X97922500Y-54525000D01*
X97899221Y-54523856D01*
X97876166Y-54520437D01*
X97853557Y-54514773D01*
X97831613Y-54506921D01*
X97810543Y-54496956D01*
X97790552Y-54484974D01*
X97771832Y-54471090D01*
X97754562Y-54455438D01*
X97738910Y-54438168D01*
X97725026Y-54419448D01*
X97713044Y-54399457D01*
X97703079Y-54378387D01*
X97695227Y-54356443D01*
X97689563Y-54333834D01*
X97686144Y-54310779D01*
X97685000Y-54287500D01*
X97685000Y-53712500D01*
X97686144Y-53689221D01*
X97689563Y-53666166D01*
X97695227Y-53643557D01*
X97703079Y-53621613D01*
X97713044Y-53600543D01*
X97725026Y-53580552D01*
X97738910Y-53561832D01*
X97754562Y-53544562D01*
X97771832Y-53528910D01*
X97790552Y-53515026D01*
X97810543Y-53503044D01*
X97831613Y-53493079D01*
X97853557Y-53485227D01*
X97876166Y-53479563D01*
X97899221Y-53476144D01*
X97922500Y-53475000D01*
X98397500Y-53475000D01*
X98420779Y-53476144D01*
G37*
G36*
X119160779Y-53426144D02*
G01*
X119183834Y-53429563D01*
X119206443Y-53435227D01*
X119228387Y-53443079D01*
X119249457Y-53453044D01*
X119269448Y-53465026D01*
X119288168Y-53478910D01*
X119305438Y-53494562D01*
X119321090Y-53511832D01*
X119334974Y-53530552D01*
X119346956Y-53550543D01*
X119356921Y-53571613D01*
X119364773Y-53593557D01*
X119370437Y-53616166D01*
X119373856Y-53639221D01*
X119375000Y-53662500D01*
X119375000Y-54137500D01*
X119373856Y-54160779D01*
X119370437Y-54183834D01*
X119364773Y-54206443D01*
X119356921Y-54228387D01*
X119346956Y-54249457D01*
X119334974Y-54269448D01*
X119321090Y-54288168D01*
X119305438Y-54305438D01*
X119288168Y-54321090D01*
X119269448Y-54334974D01*
X119249457Y-54346956D01*
X119228387Y-54356921D01*
X119206443Y-54364773D01*
X119183834Y-54370437D01*
X119160779Y-54373856D01*
X119137500Y-54375000D01*
X118562500Y-54375000D01*
X118539221Y-54373856D01*
X118516166Y-54370437D01*
X118493557Y-54364773D01*
X118471613Y-54356921D01*
X118450543Y-54346956D01*
X118430552Y-54334974D01*
X118411832Y-54321090D01*
X118394562Y-54305438D01*
X118378910Y-54288168D01*
X118365026Y-54269448D01*
X118353044Y-54249457D01*
X118343079Y-54228387D01*
X118335227Y-54206443D01*
X118329563Y-54183834D01*
X118326144Y-54160779D01*
X118325000Y-54137500D01*
X118325000Y-53662500D01*
X118326144Y-53639221D01*
X118329563Y-53616166D01*
X118335227Y-53593557D01*
X118343079Y-53571613D01*
X118353044Y-53550543D01*
X118365026Y-53530552D01*
X118378910Y-53511832D01*
X118394562Y-53494562D01*
X118411832Y-53478910D01*
X118430552Y-53465026D01*
X118450543Y-53453044D01*
X118471613Y-53443079D01*
X118493557Y-53435227D01*
X118516166Y-53429563D01*
X118539221Y-53426144D01*
X118562500Y-53425000D01*
X119137500Y-53425000D01*
X119160779Y-53426144D01*
G37*
G36*
X120910779Y-53426144D02*
G01*
X120933834Y-53429563D01*
X120956443Y-53435227D01*
X120978387Y-53443079D01*
X120999457Y-53453044D01*
X121019448Y-53465026D01*
X121038168Y-53478910D01*
X121055438Y-53494562D01*
X121071090Y-53511832D01*
X121084974Y-53530552D01*
X121096956Y-53550543D01*
X121106921Y-53571613D01*
X121114773Y-53593557D01*
X121120437Y-53616166D01*
X121123856Y-53639221D01*
X121125000Y-53662500D01*
X121125000Y-54137500D01*
X121123856Y-54160779D01*
X121120437Y-54183834D01*
X121114773Y-54206443D01*
X121106921Y-54228387D01*
X121096956Y-54249457D01*
X121084974Y-54269448D01*
X121071090Y-54288168D01*
X121055438Y-54305438D01*
X121038168Y-54321090D01*
X121019448Y-54334974D01*
X120999457Y-54346956D01*
X120978387Y-54356921D01*
X120956443Y-54364773D01*
X120933834Y-54370437D01*
X120910779Y-54373856D01*
X120887500Y-54375000D01*
X120312500Y-54375000D01*
X120289221Y-54373856D01*
X120266166Y-54370437D01*
X120243557Y-54364773D01*
X120221613Y-54356921D01*
X120200543Y-54346956D01*
X120180552Y-54334974D01*
X120161832Y-54321090D01*
X120144562Y-54305438D01*
X120128910Y-54288168D01*
X120115026Y-54269448D01*
X120103044Y-54249457D01*
X120093079Y-54228387D01*
X120085227Y-54206443D01*
X120079563Y-54183834D01*
X120076144Y-54160779D01*
X120075000Y-54137500D01*
X120075000Y-53662500D01*
X120076144Y-53639221D01*
X120079563Y-53616166D01*
X120085227Y-53593557D01*
X120093079Y-53571613D01*
X120103044Y-53550543D01*
X120115026Y-53530552D01*
X120128910Y-53511832D01*
X120144562Y-53494562D01*
X120161832Y-53478910D01*
X120180552Y-53465026D01*
X120200543Y-53453044D01*
X120221613Y-53443079D01*
X120243557Y-53435227D01*
X120266166Y-53429563D01*
X120289221Y-53426144D01*
X120312500Y-53425000D01*
X120887500Y-53425000D01*
X120910779Y-53426144D01*
G37*
G36*
X95760779Y-71976144D02*
G01*
X95783834Y-71979563D01*
X95806443Y-71985227D01*
X95828387Y-71993079D01*
X95849457Y-72003044D01*
X95869448Y-72015026D01*
X95888168Y-72028910D01*
X95905438Y-72044562D01*
X95921090Y-72061832D01*
X95934974Y-72080552D01*
X95946956Y-72100543D01*
X95956921Y-72121613D01*
X95964773Y-72143557D01*
X95970437Y-72166166D01*
X95973856Y-72189221D01*
X95975000Y-72212500D01*
X95975000Y-72787500D01*
X95973856Y-72810779D01*
X95970437Y-72833834D01*
X95964773Y-72856443D01*
X95956921Y-72878387D01*
X95946956Y-72899457D01*
X95934974Y-72919448D01*
X95921090Y-72938168D01*
X95905438Y-72955438D01*
X95888168Y-72971090D01*
X95869448Y-72984974D01*
X95849457Y-72996956D01*
X95828387Y-73006921D01*
X95806443Y-73014773D01*
X95783834Y-73020437D01*
X95760779Y-73023856D01*
X95737500Y-73025000D01*
X95262500Y-73025000D01*
X95239221Y-73023856D01*
X95216166Y-73020437D01*
X95193557Y-73014773D01*
X95171613Y-73006921D01*
X95150543Y-72996956D01*
X95130552Y-72984974D01*
X95111832Y-72971090D01*
X95094562Y-72955438D01*
X95078910Y-72938168D01*
X95065026Y-72919448D01*
X95053044Y-72899457D01*
X95043079Y-72878387D01*
X95035227Y-72856443D01*
X95029563Y-72833834D01*
X95026144Y-72810779D01*
X95025000Y-72787500D01*
X95025000Y-72212500D01*
X95026144Y-72189221D01*
X95029563Y-72166166D01*
X95035227Y-72143557D01*
X95043079Y-72121613D01*
X95053044Y-72100543D01*
X95065026Y-72080552D01*
X95078910Y-72061832D01*
X95094562Y-72044562D01*
X95111832Y-72028910D01*
X95130552Y-72015026D01*
X95150543Y-72003044D01*
X95171613Y-71993079D01*
X95193557Y-71985227D01*
X95216166Y-71979563D01*
X95239221Y-71976144D01*
X95262500Y-71975000D01*
X95737500Y-71975000D01*
X95760779Y-71976144D01*
G37*
G36*
X95760779Y-70226144D02*
G01*
X95783834Y-70229563D01*
X95806443Y-70235227D01*
X95828387Y-70243079D01*
X95849457Y-70253044D01*
X95869448Y-70265026D01*
X95888168Y-70278910D01*
X95905438Y-70294562D01*
X95921090Y-70311832D01*
X95934974Y-70330552D01*
X95946956Y-70350543D01*
X95956921Y-70371613D01*
X95964773Y-70393557D01*
X95970437Y-70416166D01*
X95973856Y-70439221D01*
X95975000Y-70462500D01*
X95975000Y-71037500D01*
X95973856Y-71060779D01*
X95970437Y-71083834D01*
X95964773Y-71106443D01*
X95956921Y-71128387D01*
X95946956Y-71149457D01*
X95934974Y-71169448D01*
X95921090Y-71188168D01*
X95905438Y-71205438D01*
X95888168Y-71221090D01*
X95869448Y-71234974D01*
X95849457Y-71246956D01*
X95828387Y-71256921D01*
X95806443Y-71264773D01*
X95783834Y-71270437D01*
X95760779Y-71273856D01*
X95737500Y-71275000D01*
X95262500Y-71275000D01*
X95239221Y-71273856D01*
X95216166Y-71270437D01*
X95193557Y-71264773D01*
X95171613Y-71256921D01*
X95150543Y-71246956D01*
X95130552Y-71234974D01*
X95111832Y-71221090D01*
X95094562Y-71205438D01*
X95078910Y-71188168D01*
X95065026Y-71169448D01*
X95053044Y-71149457D01*
X95043079Y-71128387D01*
X95035227Y-71106443D01*
X95029563Y-71083834D01*
X95026144Y-71060779D01*
X95025000Y-71037500D01*
X95025000Y-70462500D01*
X95026144Y-70439221D01*
X95029563Y-70416166D01*
X95035227Y-70393557D01*
X95043079Y-70371613D01*
X95053044Y-70350543D01*
X95065026Y-70330552D01*
X95078910Y-70311832D01*
X95094562Y-70294562D01*
X95111832Y-70278910D01*
X95130552Y-70265026D01*
X95150543Y-70253044D01*
X95171613Y-70243079D01*
X95193557Y-70235227D01*
X95216166Y-70229563D01*
X95239221Y-70226144D01*
X95262500Y-70225000D01*
X95737500Y-70225000D01*
X95760779Y-70226144D01*
G37*
G36*
X81260779Y-69101144D02*
G01*
X81283834Y-69104563D01*
X81306443Y-69110227D01*
X81328387Y-69118079D01*
X81349457Y-69128044D01*
X81369448Y-69140026D01*
X81388168Y-69153910D01*
X81405438Y-69169562D01*
X81421090Y-69186832D01*
X81434974Y-69205552D01*
X81446956Y-69225543D01*
X81456921Y-69246613D01*
X81464773Y-69268557D01*
X81470437Y-69291166D01*
X81473856Y-69314221D01*
X81475000Y-69337500D01*
X81475000Y-69912500D01*
X81473856Y-69935779D01*
X81470437Y-69958834D01*
X81464773Y-69981443D01*
X81456921Y-70003387D01*
X81446956Y-70024457D01*
X81434974Y-70044448D01*
X81421090Y-70063168D01*
X81405438Y-70080438D01*
X81388168Y-70096090D01*
X81369448Y-70109974D01*
X81349457Y-70121956D01*
X81328387Y-70131921D01*
X81306443Y-70139773D01*
X81283834Y-70145437D01*
X81260779Y-70148856D01*
X81237500Y-70150000D01*
X80762500Y-70150000D01*
X80739221Y-70148856D01*
X80716166Y-70145437D01*
X80693557Y-70139773D01*
X80671613Y-70131921D01*
X80650543Y-70121956D01*
X80630552Y-70109974D01*
X80611832Y-70096090D01*
X80594562Y-70080438D01*
X80578910Y-70063168D01*
X80565026Y-70044448D01*
X80553044Y-70024457D01*
X80543079Y-70003387D01*
X80535227Y-69981443D01*
X80529563Y-69958834D01*
X80526144Y-69935779D01*
X80525000Y-69912500D01*
X80525000Y-69337500D01*
X80526144Y-69314221D01*
X80529563Y-69291166D01*
X80535227Y-69268557D01*
X80543079Y-69246613D01*
X80553044Y-69225543D01*
X80565026Y-69205552D01*
X80578910Y-69186832D01*
X80594562Y-69169562D01*
X80611832Y-69153910D01*
X80630552Y-69140026D01*
X80650543Y-69128044D01*
X80671613Y-69118079D01*
X80693557Y-69110227D01*
X80716166Y-69104563D01*
X80739221Y-69101144D01*
X80762500Y-69100000D01*
X81237500Y-69100000D01*
X81260779Y-69101144D01*
G37*
G36*
X81260779Y-70851144D02*
G01*
X81283834Y-70854563D01*
X81306443Y-70860227D01*
X81328387Y-70868079D01*
X81349457Y-70878044D01*
X81369448Y-70890026D01*
X81388168Y-70903910D01*
X81405438Y-70919562D01*
X81421090Y-70936832D01*
X81434974Y-70955552D01*
X81446956Y-70975543D01*
X81456921Y-70996613D01*
X81464773Y-71018557D01*
X81470437Y-71041166D01*
X81473856Y-71064221D01*
X81475000Y-71087500D01*
X81475000Y-71662500D01*
X81473856Y-71685779D01*
X81470437Y-71708834D01*
X81464773Y-71731443D01*
X81456921Y-71753387D01*
X81446956Y-71774457D01*
X81434974Y-71794448D01*
X81421090Y-71813168D01*
X81405438Y-71830438D01*
X81388168Y-71846090D01*
X81369448Y-71859974D01*
X81349457Y-71871956D01*
X81328387Y-71881921D01*
X81306443Y-71889773D01*
X81283834Y-71895437D01*
X81260779Y-71898856D01*
X81237500Y-71900000D01*
X80762500Y-71900000D01*
X80739221Y-71898856D01*
X80716166Y-71895437D01*
X80693557Y-71889773D01*
X80671613Y-71881921D01*
X80650543Y-71871956D01*
X80630552Y-71859974D01*
X80611832Y-71846090D01*
X80594562Y-71830438D01*
X80578910Y-71813168D01*
X80565026Y-71794448D01*
X80553044Y-71774457D01*
X80543079Y-71753387D01*
X80535227Y-71731443D01*
X80529563Y-71708834D01*
X80526144Y-71685779D01*
X80525000Y-71662500D01*
X80525000Y-71087500D01*
X80526144Y-71064221D01*
X80529563Y-71041166D01*
X80535227Y-71018557D01*
X80543079Y-70996613D01*
X80553044Y-70975543D01*
X80565026Y-70955552D01*
X80578910Y-70936832D01*
X80594562Y-70919562D01*
X80611832Y-70903910D01*
X80630552Y-70890026D01*
X80650543Y-70878044D01*
X80671613Y-70868079D01*
X80693557Y-70860227D01*
X80716166Y-70854563D01*
X80739221Y-70851144D01*
X80762500Y-70850000D01*
X81237500Y-70850000D01*
X81260779Y-70851144D01*
G37*
G36*
X119999504Y-65626204D02*
G01*
X120023773Y-65629804D01*
X120047571Y-65635765D01*
X120070671Y-65644030D01*
X120092849Y-65654520D01*
X120113893Y-65667133D01*
X120133598Y-65681747D01*
X120151777Y-65698223D01*
X120168253Y-65716402D01*
X120182867Y-65736107D01*
X120195480Y-65757151D01*
X120205970Y-65779329D01*
X120214235Y-65802429D01*
X120220196Y-65826227D01*
X120223796Y-65850496D01*
X120225000Y-65875000D01*
X120225000Y-67125000D01*
X120223796Y-67149504D01*
X120220196Y-67173773D01*
X120214235Y-67197571D01*
X120205970Y-67220671D01*
X120195480Y-67242849D01*
X120182867Y-67263893D01*
X120168253Y-67283598D01*
X120151777Y-67301777D01*
X120133598Y-67318253D01*
X120113893Y-67332867D01*
X120092849Y-67345480D01*
X120070671Y-67355970D01*
X120047571Y-67364235D01*
X120023773Y-67370196D01*
X119999504Y-67373796D01*
X119975000Y-67375000D01*
X119050000Y-67375000D01*
X119025496Y-67373796D01*
X119001227Y-67370196D01*
X118977429Y-67364235D01*
X118954329Y-67355970D01*
X118932151Y-67345480D01*
X118911107Y-67332867D01*
X118891402Y-67318253D01*
X118873223Y-67301777D01*
X118856747Y-67283598D01*
X118842133Y-67263893D01*
X118829520Y-67242849D01*
X118819030Y-67220671D01*
X118810765Y-67197571D01*
X118804804Y-67173773D01*
X118801204Y-67149504D01*
X118800000Y-67125000D01*
X118800000Y-65875000D01*
X118801204Y-65850496D01*
X118804804Y-65826227D01*
X118810765Y-65802429D01*
X118819030Y-65779329D01*
X118829520Y-65757151D01*
X118842133Y-65736107D01*
X118856747Y-65716402D01*
X118873223Y-65698223D01*
X118891402Y-65681747D01*
X118911107Y-65667133D01*
X118932151Y-65654520D01*
X118954329Y-65644030D01*
X118977429Y-65635765D01*
X119001227Y-65629804D01*
X119025496Y-65626204D01*
X119050000Y-65625000D01*
X119975000Y-65625000D01*
X119999504Y-65626204D01*
G37*
G36*
X122974504Y-65626204D02*
G01*
X122998773Y-65629804D01*
X123022571Y-65635765D01*
X123045671Y-65644030D01*
X123067849Y-65654520D01*
X123088893Y-65667133D01*
X123108598Y-65681747D01*
X123126777Y-65698223D01*
X123143253Y-65716402D01*
X123157867Y-65736107D01*
X123170480Y-65757151D01*
X123180970Y-65779329D01*
X123189235Y-65802429D01*
X123195196Y-65826227D01*
X123198796Y-65850496D01*
X123200000Y-65875000D01*
X123200000Y-67125000D01*
X123198796Y-67149504D01*
X123195196Y-67173773D01*
X123189235Y-67197571D01*
X123180970Y-67220671D01*
X123170480Y-67242849D01*
X123157867Y-67263893D01*
X123143253Y-67283598D01*
X123126777Y-67301777D01*
X123108598Y-67318253D01*
X123088893Y-67332867D01*
X123067849Y-67345480D01*
X123045671Y-67355970D01*
X123022571Y-67364235D01*
X122998773Y-67370196D01*
X122974504Y-67373796D01*
X122950000Y-67375000D01*
X122025000Y-67375000D01*
X122000496Y-67373796D01*
X121976227Y-67370196D01*
X121952429Y-67364235D01*
X121929329Y-67355970D01*
X121907151Y-67345480D01*
X121886107Y-67332867D01*
X121866402Y-67318253D01*
X121848223Y-67301777D01*
X121831747Y-67283598D01*
X121817133Y-67263893D01*
X121804520Y-67242849D01*
X121794030Y-67220671D01*
X121785765Y-67197571D01*
X121779804Y-67173773D01*
X121776204Y-67149504D01*
X121775000Y-67125000D01*
X121775000Y-65875000D01*
X121776204Y-65850496D01*
X121779804Y-65826227D01*
X121785765Y-65802429D01*
X121794030Y-65779329D01*
X121804520Y-65757151D01*
X121817133Y-65736107D01*
X121831747Y-65716402D01*
X121848223Y-65698223D01*
X121866402Y-65681747D01*
X121886107Y-65667133D01*
X121907151Y-65654520D01*
X121929329Y-65644030D01*
X121952429Y-65635765D01*
X121976227Y-65629804D01*
X122000496Y-65626204D01*
X122025000Y-65625000D01*
X122950000Y-65625000D01*
X122974504Y-65626204D01*
G37*
G36*
X51237004Y-75376204D02*
G01*
X51261273Y-75379804D01*
X51285071Y-75385765D01*
X51308171Y-75394030D01*
X51330349Y-75404520D01*
X51351393Y-75417133D01*
X51371098Y-75431747D01*
X51389277Y-75448223D01*
X51405753Y-75466402D01*
X51420367Y-75486107D01*
X51432980Y-75507151D01*
X51443470Y-75529329D01*
X51451735Y-75552429D01*
X51457696Y-75576227D01*
X51461296Y-75600496D01*
X51462500Y-75625000D01*
X51462500Y-76875000D01*
X51461296Y-76899504D01*
X51457696Y-76923773D01*
X51451735Y-76947571D01*
X51443470Y-76970671D01*
X51432980Y-76992849D01*
X51420367Y-77013893D01*
X51405753Y-77033598D01*
X51389277Y-77051777D01*
X51371098Y-77068253D01*
X51351393Y-77082867D01*
X51330349Y-77095480D01*
X51308171Y-77105970D01*
X51285071Y-77114235D01*
X51261273Y-77120196D01*
X51237004Y-77123796D01*
X51212500Y-77125000D01*
X50287500Y-77125000D01*
X50262996Y-77123796D01*
X50238727Y-77120196D01*
X50214929Y-77114235D01*
X50191829Y-77105970D01*
X50169651Y-77095480D01*
X50148607Y-77082867D01*
X50128902Y-77068253D01*
X50110723Y-77051777D01*
X50094247Y-77033598D01*
X50079633Y-77013893D01*
X50067020Y-76992849D01*
X50056530Y-76970671D01*
X50048265Y-76947571D01*
X50042304Y-76923773D01*
X50038704Y-76899504D01*
X50037500Y-76875000D01*
X50037500Y-75625000D01*
X50038704Y-75600496D01*
X50042304Y-75576227D01*
X50048265Y-75552429D01*
X50056530Y-75529329D01*
X50067020Y-75507151D01*
X50079633Y-75486107D01*
X50094247Y-75466402D01*
X50110723Y-75448223D01*
X50128902Y-75431747D01*
X50148607Y-75417133D01*
X50169651Y-75404520D01*
X50191829Y-75394030D01*
X50214929Y-75385765D01*
X50238727Y-75379804D01*
X50262996Y-75376204D01*
X50287500Y-75375000D01*
X51212500Y-75375000D01*
X51237004Y-75376204D01*
G37*
G36*
X54212004Y-75376204D02*
G01*
X54236273Y-75379804D01*
X54260071Y-75385765D01*
X54283171Y-75394030D01*
X54305349Y-75404520D01*
X54326393Y-75417133D01*
X54346098Y-75431747D01*
X54364277Y-75448223D01*
X54380753Y-75466402D01*
X54395367Y-75486107D01*
X54407980Y-75507151D01*
X54418470Y-75529329D01*
X54426735Y-75552429D01*
X54432696Y-75576227D01*
X54436296Y-75600496D01*
X54437500Y-75625000D01*
X54437500Y-76875000D01*
X54436296Y-76899504D01*
X54432696Y-76923773D01*
X54426735Y-76947571D01*
X54418470Y-76970671D01*
X54407980Y-76992849D01*
X54395367Y-77013893D01*
X54380753Y-77033598D01*
X54364277Y-77051777D01*
X54346098Y-77068253D01*
X54326393Y-77082867D01*
X54305349Y-77095480D01*
X54283171Y-77105970D01*
X54260071Y-77114235D01*
X54236273Y-77120196D01*
X54212004Y-77123796D01*
X54187500Y-77125000D01*
X53262500Y-77125000D01*
X53237996Y-77123796D01*
X53213727Y-77120196D01*
X53189929Y-77114235D01*
X53166829Y-77105970D01*
X53144651Y-77095480D01*
X53123607Y-77082867D01*
X53103902Y-77068253D01*
X53085723Y-77051777D01*
X53069247Y-77033598D01*
X53054633Y-77013893D01*
X53042020Y-76992849D01*
X53031530Y-76970671D01*
X53023265Y-76947571D01*
X53017304Y-76923773D01*
X53013704Y-76899504D01*
X53012500Y-76875000D01*
X53012500Y-75625000D01*
X53013704Y-75600496D01*
X53017304Y-75576227D01*
X53023265Y-75552429D01*
X53031530Y-75529329D01*
X53042020Y-75507151D01*
X53054633Y-75486107D01*
X53069247Y-75466402D01*
X53085723Y-75448223D01*
X53103902Y-75431747D01*
X53123607Y-75417133D01*
X53144651Y-75404520D01*
X53166829Y-75394030D01*
X53189929Y-75385765D01*
X53213727Y-75379804D01*
X53237996Y-75376204D01*
X53262500Y-75375000D01*
X54187500Y-75375000D01*
X54212004Y-75376204D01*
G37*
G36*
X100960779Y-55226144D02*
G01*
X100983834Y-55229563D01*
X101006443Y-55235227D01*
X101028387Y-55243079D01*
X101049457Y-55253044D01*
X101069448Y-55265026D01*
X101088168Y-55278910D01*
X101105438Y-55294562D01*
X101121090Y-55311832D01*
X101134974Y-55330552D01*
X101146956Y-55350543D01*
X101156921Y-55371613D01*
X101164773Y-55393557D01*
X101170437Y-55416166D01*
X101173856Y-55439221D01*
X101175000Y-55462500D01*
X101175000Y-56037500D01*
X101173856Y-56060779D01*
X101170437Y-56083834D01*
X101164773Y-56106443D01*
X101156921Y-56128387D01*
X101146956Y-56149457D01*
X101134974Y-56169448D01*
X101121090Y-56188168D01*
X101105438Y-56205438D01*
X101088168Y-56221090D01*
X101069448Y-56234974D01*
X101049457Y-56246956D01*
X101028387Y-56256921D01*
X101006443Y-56264773D01*
X100983834Y-56270437D01*
X100960779Y-56273856D01*
X100937500Y-56275000D01*
X100462500Y-56275000D01*
X100439221Y-56273856D01*
X100416166Y-56270437D01*
X100393557Y-56264773D01*
X100371613Y-56256921D01*
X100350543Y-56246956D01*
X100330552Y-56234974D01*
X100311832Y-56221090D01*
X100294562Y-56205438D01*
X100278910Y-56188168D01*
X100265026Y-56169448D01*
X100253044Y-56149457D01*
X100243079Y-56128387D01*
X100235227Y-56106443D01*
X100229563Y-56083834D01*
X100226144Y-56060779D01*
X100225000Y-56037500D01*
X100225000Y-55462500D01*
X100226144Y-55439221D01*
X100229563Y-55416166D01*
X100235227Y-55393557D01*
X100243079Y-55371613D01*
X100253044Y-55350543D01*
X100265026Y-55330552D01*
X100278910Y-55311832D01*
X100294562Y-55294562D01*
X100311832Y-55278910D01*
X100330552Y-55265026D01*
X100350543Y-55253044D01*
X100371613Y-55243079D01*
X100393557Y-55235227D01*
X100416166Y-55229563D01*
X100439221Y-55226144D01*
X100462500Y-55225000D01*
X100937500Y-55225000D01*
X100960779Y-55226144D01*
G37*
G36*
X100960779Y-53476144D02*
G01*
X100983834Y-53479563D01*
X101006443Y-53485227D01*
X101028387Y-53493079D01*
X101049457Y-53503044D01*
X101069448Y-53515026D01*
X101088168Y-53528910D01*
X101105438Y-53544562D01*
X101121090Y-53561832D01*
X101134974Y-53580552D01*
X101146956Y-53600543D01*
X101156921Y-53621613D01*
X101164773Y-53643557D01*
X101170437Y-53666166D01*
X101173856Y-53689221D01*
X101175000Y-53712500D01*
X101175000Y-54287500D01*
X101173856Y-54310779D01*
X101170437Y-54333834D01*
X101164773Y-54356443D01*
X101156921Y-54378387D01*
X101146956Y-54399457D01*
X101134974Y-54419448D01*
X101121090Y-54438168D01*
X101105438Y-54455438D01*
X101088168Y-54471090D01*
X101069448Y-54484974D01*
X101049457Y-54496956D01*
X101028387Y-54506921D01*
X101006443Y-54514773D01*
X100983834Y-54520437D01*
X100960779Y-54523856D01*
X100937500Y-54525000D01*
X100462500Y-54525000D01*
X100439221Y-54523856D01*
X100416166Y-54520437D01*
X100393557Y-54514773D01*
X100371613Y-54506921D01*
X100350543Y-54496956D01*
X100330552Y-54484974D01*
X100311832Y-54471090D01*
X100294562Y-54455438D01*
X100278910Y-54438168D01*
X100265026Y-54419448D01*
X100253044Y-54399457D01*
X100243079Y-54378387D01*
X100235227Y-54356443D01*
X100229563Y-54333834D01*
X100226144Y-54310779D01*
X100225000Y-54287500D01*
X100225000Y-53712500D01*
X100226144Y-53689221D01*
X100229563Y-53666166D01*
X100235227Y-53643557D01*
X100243079Y-53621613D01*
X100253044Y-53600543D01*
X100265026Y-53580552D01*
X100278910Y-53561832D01*
X100294562Y-53544562D01*
X100311832Y-53528910D01*
X100330552Y-53515026D01*
X100350543Y-53503044D01*
X100371613Y-53493079D01*
X100393557Y-53485227D01*
X100416166Y-53479563D01*
X100439221Y-53476144D01*
X100462500Y-53475000D01*
X100937500Y-53475000D01*
X100960779Y-53476144D01*
G37*
G36*
X95760779Y-68426144D02*
G01*
X95783834Y-68429563D01*
X95806443Y-68435227D01*
X95828387Y-68443079D01*
X95849457Y-68453044D01*
X95869448Y-68465026D01*
X95888168Y-68478910D01*
X95905438Y-68494562D01*
X95921090Y-68511832D01*
X95934974Y-68530552D01*
X95946956Y-68550543D01*
X95956921Y-68571613D01*
X95964773Y-68593557D01*
X95970437Y-68616166D01*
X95973856Y-68639221D01*
X95975000Y-68662500D01*
X95975000Y-69237500D01*
X95973856Y-69260779D01*
X95970437Y-69283834D01*
X95964773Y-69306443D01*
X95956921Y-69328387D01*
X95946956Y-69349457D01*
X95934974Y-69369448D01*
X95921090Y-69388168D01*
X95905438Y-69405438D01*
X95888168Y-69421090D01*
X95869448Y-69434974D01*
X95849457Y-69446956D01*
X95828387Y-69456921D01*
X95806443Y-69464773D01*
X95783834Y-69470437D01*
X95760779Y-69473856D01*
X95737500Y-69475000D01*
X95262500Y-69475000D01*
X95239221Y-69473856D01*
X95216166Y-69470437D01*
X95193557Y-69464773D01*
X95171613Y-69456921D01*
X95150543Y-69446956D01*
X95130552Y-69434974D01*
X95111832Y-69421090D01*
X95094562Y-69405438D01*
X95078910Y-69388168D01*
X95065026Y-69369448D01*
X95053044Y-69349457D01*
X95043079Y-69328387D01*
X95035227Y-69306443D01*
X95029563Y-69283834D01*
X95026144Y-69260779D01*
X95025000Y-69237500D01*
X95025000Y-68662500D01*
X95026144Y-68639221D01*
X95029563Y-68616166D01*
X95035227Y-68593557D01*
X95043079Y-68571613D01*
X95053044Y-68550543D01*
X95065026Y-68530552D01*
X95078910Y-68511832D01*
X95094562Y-68494562D01*
X95111832Y-68478910D01*
X95130552Y-68465026D01*
X95150543Y-68453044D01*
X95171613Y-68443079D01*
X95193557Y-68435227D01*
X95216166Y-68429563D01*
X95239221Y-68426144D01*
X95262500Y-68425000D01*
X95737500Y-68425000D01*
X95760779Y-68426144D01*
G37*
G36*
X95760779Y-66676144D02*
G01*
X95783834Y-66679563D01*
X95806443Y-66685227D01*
X95828387Y-66693079D01*
X95849457Y-66703044D01*
X95869448Y-66715026D01*
X95888168Y-66728910D01*
X95905438Y-66744562D01*
X95921090Y-66761832D01*
X95934974Y-66780552D01*
X95946956Y-66800543D01*
X95956921Y-66821613D01*
X95964773Y-66843557D01*
X95970437Y-66866166D01*
X95973856Y-66889221D01*
X95975000Y-66912500D01*
X95975000Y-67487500D01*
X95973856Y-67510779D01*
X95970437Y-67533834D01*
X95964773Y-67556443D01*
X95956921Y-67578387D01*
X95946956Y-67599457D01*
X95934974Y-67619448D01*
X95921090Y-67638168D01*
X95905438Y-67655438D01*
X95888168Y-67671090D01*
X95869448Y-67684974D01*
X95849457Y-67696956D01*
X95828387Y-67706921D01*
X95806443Y-67714773D01*
X95783834Y-67720437D01*
X95760779Y-67723856D01*
X95737500Y-67725000D01*
X95262500Y-67725000D01*
X95239221Y-67723856D01*
X95216166Y-67720437D01*
X95193557Y-67714773D01*
X95171613Y-67706921D01*
X95150543Y-67696956D01*
X95130552Y-67684974D01*
X95111832Y-67671090D01*
X95094562Y-67655438D01*
X95078910Y-67638168D01*
X95065026Y-67619448D01*
X95053044Y-67599457D01*
X95043079Y-67578387D01*
X95035227Y-67556443D01*
X95029563Y-67533834D01*
X95026144Y-67510779D01*
X95025000Y-67487500D01*
X95025000Y-66912500D01*
X95026144Y-66889221D01*
X95029563Y-66866166D01*
X95035227Y-66843557D01*
X95043079Y-66821613D01*
X95053044Y-66800543D01*
X95065026Y-66780552D01*
X95078910Y-66761832D01*
X95094562Y-66744562D01*
X95111832Y-66728910D01*
X95130552Y-66715026D01*
X95150543Y-66703044D01*
X95171613Y-66693079D01*
X95193557Y-66685227D01*
X95216166Y-66679563D01*
X95239221Y-66676144D01*
X95262500Y-66675000D01*
X95737500Y-66675000D01*
X95760779Y-66676144D01*
G37*
G36*
X85560779Y-73776144D02*
G01*
X85583834Y-73779563D01*
X85606443Y-73785227D01*
X85628387Y-73793079D01*
X85649457Y-73803044D01*
X85669448Y-73815026D01*
X85688168Y-73828910D01*
X85705438Y-73844562D01*
X85721090Y-73861832D01*
X85734974Y-73880552D01*
X85746956Y-73900543D01*
X85756921Y-73921613D01*
X85764773Y-73943557D01*
X85770437Y-73966166D01*
X85773856Y-73989221D01*
X85775000Y-74012500D01*
X85775000Y-74487500D01*
X85773856Y-74510779D01*
X85770437Y-74533834D01*
X85764773Y-74556443D01*
X85756921Y-74578387D01*
X85746956Y-74599457D01*
X85734974Y-74619448D01*
X85721090Y-74638168D01*
X85705438Y-74655438D01*
X85688168Y-74671090D01*
X85669448Y-74684974D01*
X85649457Y-74696956D01*
X85628387Y-74706921D01*
X85606443Y-74714773D01*
X85583834Y-74720437D01*
X85560779Y-74723856D01*
X85537500Y-74725000D01*
X84962500Y-74725000D01*
X84939221Y-74723856D01*
X84916166Y-74720437D01*
X84893557Y-74714773D01*
X84871613Y-74706921D01*
X84850543Y-74696956D01*
X84830552Y-74684974D01*
X84811832Y-74671090D01*
X84794562Y-74655438D01*
X84778910Y-74638168D01*
X84765026Y-74619448D01*
X84753044Y-74599457D01*
X84743079Y-74578387D01*
X84735227Y-74556443D01*
X84729563Y-74533834D01*
X84726144Y-74510779D01*
X84725000Y-74487500D01*
X84725000Y-74012500D01*
X84726144Y-73989221D01*
X84729563Y-73966166D01*
X84735227Y-73943557D01*
X84743079Y-73921613D01*
X84753044Y-73900543D01*
X84765026Y-73880552D01*
X84778910Y-73861832D01*
X84794562Y-73844562D01*
X84811832Y-73828910D01*
X84830552Y-73815026D01*
X84850543Y-73803044D01*
X84871613Y-73793079D01*
X84893557Y-73785227D01*
X84916166Y-73779563D01*
X84939221Y-73776144D01*
X84962500Y-73775000D01*
X85537500Y-73775000D01*
X85560779Y-73776144D01*
G37*
G36*
X87310779Y-73776144D02*
G01*
X87333834Y-73779563D01*
X87356443Y-73785227D01*
X87378387Y-73793079D01*
X87399457Y-73803044D01*
X87419448Y-73815026D01*
X87438168Y-73828910D01*
X87455438Y-73844562D01*
X87471090Y-73861832D01*
X87484974Y-73880552D01*
X87496956Y-73900543D01*
X87506921Y-73921613D01*
X87514773Y-73943557D01*
X87520437Y-73966166D01*
X87523856Y-73989221D01*
X87525000Y-74012500D01*
X87525000Y-74487500D01*
X87523856Y-74510779D01*
X87520437Y-74533834D01*
X87514773Y-74556443D01*
X87506921Y-74578387D01*
X87496956Y-74599457D01*
X87484974Y-74619448D01*
X87471090Y-74638168D01*
X87455438Y-74655438D01*
X87438168Y-74671090D01*
X87419448Y-74684974D01*
X87399457Y-74696956D01*
X87378387Y-74706921D01*
X87356443Y-74714773D01*
X87333834Y-74720437D01*
X87310779Y-74723856D01*
X87287500Y-74725000D01*
X86712500Y-74725000D01*
X86689221Y-74723856D01*
X86666166Y-74720437D01*
X86643557Y-74714773D01*
X86621613Y-74706921D01*
X86600543Y-74696956D01*
X86580552Y-74684974D01*
X86561832Y-74671090D01*
X86544562Y-74655438D01*
X86528910Y-74638168D01*
X86515026Y-74619448D01*
X86503044Y-74599457D01*
X86493079Y-74578387D01*
X86485227Y-74556443D01*
X86479563Y-74533834D01*
X86476144Y-74510779D01*
X86475000Y-74487500D01*
X86475000Y-74012500D01*
X86476144Y-73989221D01*
X86479563Y-73966166D01*
X86485227Y-73943557D01*
X86493079Y-73921613D01*
X86503044Y-73900543D01*
X86515026Y-73880552D01*
X86528910Y-73861832D01*
X86544562Y-73844562D01*
X86561832Y-73828910D01*
X86580552Y-73815026D01*
X86600543Y-73803044D01*
X86621613Y-73793079D01*
X86643557Y-73785227D01*
X86666166Y-73779563D01*
X86689221Y-73776144D01*
X86712500Y-73775000D01*
X87287500Y-73775000D01*
X87310779Y-73776144D01*
G37*
G36*
X108660779Y-55226144D02*
G01*
X108683834Y-55229563D01*
X108706443Y-55235227D01*
X108728387Y-55243079D01*
X108749457Y-55253044D01*
X108769448Y-55265026D01*
X108788168Y-55278910D01*
X108805438Y-55294562D01*
X108821090Y-55311832D01*
X108834974Y-55330552D01*
X108846956Y-55350543D01*
X108856921Y-55371613D01*
X108864773Y-55393557D01*
X108870437Y-55416166D01*
X108873856Y-55439221D01*
X108875000Y-55462500D01*
X108875000Y-56037500D01*
X108873856Y-56060779D01*
X108870437Y-56083834D01*
X108864773Y-56106443D01*
X108856921Y-56128387D01*
X108846956Y-56149457D01*
X108834974Y-56169448D01*
X108821090Y-56188168D01*
X108805438Y-56205438D01*
X108788168Y-56221090D01*
X108769448Y-56234974D01*
X108749457Y-56246956D01*
X108728387Y-56256921D01*
X108706443Y-56264773D01*
X108683834Y-56270437D01*
X108660779Y-56273856D01*
X108637500Y-56275000D01*
X108162500Y-56275000D01*
X108139221Y-56273856D01*
X108116166Y-56270437D01*
X108093557Y-56264773D01*
X108071613Y-56256921D01*
X108050543Y-56246956D01*
X108030552Y-56234974D01*
X108011832Y-56221090D01*
X107994562Y-56205438D01*
X107978910Y-56188168D01*
X107965026Y-56169448D01*
X107953044Y-56149457D01*
X107943079Y-56128387D01*
X107935227Y-56106443D01*
X107929563Y-56083834D01*
X107926144Y-56060779D01*
X107925000Y-56037500D01*
X107925000Y-55462500D01*
X107926144Y-55439221D01*
X107929563Y-55416166D01*
X107935227Y-55393557D01*
X107943079Y-55371613D01*
X107953044Y-55350543D01*
X107965026Y-55330552D01*
X107978910Y-55311832D01*
X107994562Y-55294562D01*
X108011832Y-55278910D01*
X108030552Y-55265026D01*
X108050543Y-55253044D01*
X108071613Y-55243079D01*
X108093557Y-55235227D01*
X108116166Y-55229563D01*
X108139221Y-55226144D01*
X108162500Y-55225000D01*
X108637500Y-55225000D01*
X108660779Y-55226144D01*
G37*
G36*
X108660779Y-53476144D02*
G01*
X108683834Y-53479563D01*
X108706443Y-53485227D01*
X108728387Y-53493079D01*
X108749457Y-53503044D01*
X108769448Y-53515026D01*
X108788168Y-53528910D01*
X108805438Y-53544562D01*
X108821090Y-53561832D01*
X108834974Y-53580552D01*
X108846956Y-53600543D01*
X108856921Y-53621613D01*
X108864773Y-53643557D01*
X108870437Y-53666166D01*
X108873856Y-53689221D01*
X108875000Y-53712500D01*
X108875000Y-54287500D01*
X108873856Y-54310779D01*
X108870437Y-54333834D01*
X108864773Y-54356443D01*
X108856921Y-54378387D01*
X108846956Y-54399457D01*
X108834974Y-54419448D01*
X108821090Y-54438168D01*
X108805438Y-54455438D01*
X108788168Y-54471090D01*
X108769448Y-54484974D01*
X108749457Y-54496956D01*
X108728387Y-54506921D01*
X108706443Y-54514773D01*
X108683834Y-54520437D01*
X108660779Y-54523856D01*
X108637500Y-54525000D01*
X108162500Y-54525000D01*
X108139221Y-54523856D01*
X108116166Y-54520437D01*
X108093557Y-54514773D01*
X108071613Y-54506921D01*
X108050543Y-54496956D01*
X108030552Y-54484974D01*
X108011832Y-54471090D01*
X107994562Y-54455438D01*
X107978910Y-54438168D01*
X107965026Y-54419448D01*
X107953044Y-54399457D01*
X107943079Y-54378387D01*
X107935227Y-54356443D01*
X107929563Y-54333834D01*
X107926144Y-54310779D01*
X107925000Y-54287500D01*
X107925000Y-53712500D01*
X107926144Y-53689221D01*
X107929563Y-53666166D01*
X107935227Y-53643557D01*
X107943079Y-53621613D01*
X107953044Y-53600543D01*
X107965026Y-53580552D01*
X107978910Y-53561832D01*
X107994562Y-53544562D01*
X108011832Y-53528910D01*
X108030552Y-53515026D01*
X108050543Y-53503044D01*
X108071613Y-53493079D01*
X108093557Y-53485227D01*
X108116166Y-53479563D01*
X108139221Y-53476144D01*
X108162500Y-53475000D01*
X108637500Y-53475000D01*
X108660779Y-53476144D01*
G37*
G36*
X106040779Y-53476144D02*
G01*
X106063834Y-53479563D01*
X106086443Y-53485227D01*
X106108387Y-53493079D01*
X106129457Y-53503044D01*
X106149448Y-53515026D01*
X106168168Y-53528910D01*
X106185438Y-53544562D01*
X106201090Y-53561832D01*
X106214974Y-53580552D01*
X106226956Y-53600543D01*
X106236921Y-53621613D01*
X106244773Y-53643557D01*
X106250437Y-53666166D01*
X106253856Y-53689221D01*
X106255000Y-53712500D01*
X106255000Y-54287500D01*
X106253856Y-54310779D01*
X106250437Y-54333834D01*
X106244773Y-54356443D01*
X106236921Y-54378387D01*
X106226956Y-54399457D01*
X106214974Y-54419448D01*
X106201090Y-54438168D01*
X106185438Y-54455438D01*
X106168168Y-54471090D01*
X106149448Y-54484974D01*
X106129457Y-54496956D01*
X106108387Y-54506921D01*
X106086443Y-54514773D01*
X106063834Y-54520437D01*
X106040779Y-54523856D01*
X106017500Y-54525000D01*
X105542500Y-54525000D01*
X105519221Y-54523856D01*
X105496166Y-54520437D01*
X105473557Y-54514773D01*
X105451613Y-54506921D01*
X105430543Y-54496956D01*
X105410552Y-54484974D01*
X105391832Y-54471090D01*
X105374562Y-54455438D01*
X105358910Y-54438168D01*
X105345026Y-54419448D01*
X105333044Y-54399457D01*
X105323079Y-54378387D01*
X105315227Y-54356443D01*
X105309563Y-54333834D01*
X105306144Y-54310779D01*
X105305000Y-54287500D01*
X105305000Y-53712500D01*
X105306144Y-53689221D01*
X105309563Y-53666166D01*
X105315227Y-53643557D01*
X105323079Y-53621613D01*
X105333044Y-53600543D01*
X105345026Y-53580552D01*
X105358910Y-53561832D01*
X105374562Y-53544562D01*
X105391832Y-53528910D01*
X105410552Y-53515026D01*
X105430543Y-53503044D01*
X105451613Y-53493079D01*
X105473557Y-53485227D01*
X105496166Y-53479563D01*
X105519221Y-53476144D01*
X105542500Y-53475000D01*
X106017500Y-53475000D01*
X106040779Y-53476144D01*
G37*
G36*
X106040779Y-55226144D02*
G01*
X106063834Y-55229563D01*
X106086443Y-55235227D01*
X106108387Y-55243079D01*
X106129457Y-55253044D01*
X106149448Y-55265026D01*
X106168168Y-55278910D01*
X106185438Y-55294562D01*
X106201090Y-55311832D01*
X106214974Y-55330552D01*
X106226956Y-55350543D01*
X106236921Y-55371613D01*
X106244773Y-55393557D01*
X106250437Y-55416166D01*
X106253856Y-55439221D01*
X106255000Y-55462500D01*
X106255000Y-56037500D01*
X106253856Y-56060779D01*
X106250437Y-56083834D01*
X106244773Y-56106443D01*
X106236921Y-56128387D01*
X106226956Y-56149457D01*
X106214974Y-56169448D01*
X106201090Y-56188168D01*
X106185438Y-56205438D01*
X106168168Y-56221090D01*
X106149448Y-56234974D01*
X106129457Y-56246956D01*
X106108387Y-56256921D01*
X106086443Y-56264773D01*
X106063834Y-56270437D01*
X106040779Y-56273856D01*
X106017500Y-56275000D01*
X105542500Y-56275000D01*
X105519221Y-56273856D01*
X105496166Y-56270437D01*
X105473557Y-56264773D01*
X105451613Y-56256921D01*
X105430543Y-56246956D01*
X105410552Y-56234974D01*
X105391832Y-56221090D01*
X105374562Y-56205438D01*
X105358910Y-56188168D01*
X105345026Y-56169448D01*
X105333044Y-56149457D01*
X105323079Y-56128387D01*
X105315227Y-56106443D01*
X105309563Y-56083834D01*
X105306144Y-56060779D01*
X105305000Y-56037500D01*
X105305000Y-55462500D01*
X105306144Y-55439221D01*
X105309563Y-55416166D01*
X105315227Y-55393557D01*
X105323079Y-55371613D01*
X105333044Y-55350543D01*
X105345026Y-55330552D01*
X105358910Y-55311832D01*
X105374562Y-55294562D01*
X105391832Y-55278910D01*
X105410552Y-55265026D01*
X105430543Y-55253044D01*
X105451613Y-55243079D01*
X105473557Y-55235227D01*
X105496166Y-55229563D01*
X105519221Y-55226144D01*
X105542500Y-55225000D01*
X106017500Y-55225000D01*
X106040779Y-55226144D01*
G37*
G36*
X103500779Y-53476144D02*
G01*
X103523834Y-53479563D01*
X103546443Y-53485227D01*
X103568387Y-53493079D01*
X103589457Y-53503044D01*
X103609448Y-53515026D01*
X103628168Y-53528910D01*
X103645438Y-53544562D01*
X103661090Y-53561832D01*
X103674974Y-53580552D01*
X103686956Y-53600543D01*
X103696921Y-53621613D01*
X103704773Y-53643557D01*
X103710437Y-53666166D01*
X103713856Y-53689221D01*
X103715000Y-53712500D01*
X103715000Y-54287500D01*
X103713856Y-54310779D01*
X103710437Y-54333834D01*
X103704773Y-54356443D01*
X103696921Y-54378387D01*
X103686956Y-54399457D01*
X103674974Y-54419448D01*
X103661090Y-54438168D01*
X103645438Y-54455438D01*
X103628168Y-54471090D01*
X103609448Y-54484974D01*
X103589457Y-54496956D01*
X103568387Y-54506921D01*
X103546443Y-54514773D01*
X103523834Y-54520437D01*
X103500779Y-54523856D01*
X103477500Y-54525000D01*
X103002500Y-54525000D01*
X102979221Y-54523856D01*
X102956166Y-54520437D01*
X102933557Y-54514773D01*
X102911613Y-54506921D01*
X102890543Y-54496956D01*
X102870552Y-54484974D01*
X102851832Y-54471090D01*
X102834562Y-54455438D01*
X102818910Y-54438168D01*
X102805026Y-54419448D01*
X102793044Y-54399457D01*
X102783079Y-54378387D01*
X102775227Y-54356443D01*
X102769563Y-54333834D01*
X102766144Y-54310779D01*
X102765000Y-54287500D01*
X102765000Y-53712500D01*
X102766144Y-53689221D01*
X102769563Y-53666166D01*
X102775227Y-53643557D01*
X102783079Y-53621613D01*
X102793044Y-53600543D01*
X102805026Y-53580552D01*
X102818910Y-53561832D01*
X102834562Y-53544562D01*
X102851832Y-53528910D01*
X102870552Y-53515026D01*
X102890543Y-53503044D01*
X102911613Y-53493079D01*
X102933557Y-53485227D01*
X102956166Y-53479563D01*
X102979221Y-53476144D01*
X103002500Y-53475000D01*
X103477500Y-53475000D01*
X103500779Y-53476144D01*
G37*
G36*
X103500779Y-55226144D02*
G01*
X103523834Y-55229563D01*
X103546443Y-55235227D01*
X103568387Y-55243079D01*
X103589457Y-55253044D01*
X103609448Y-55265026D01*
X103628168Y-55278910D01*
X103645438Y-55294562D01*
X103661090Y-55311832D01*
X103674974Y-55330552D01*
X103686956Y-55350543D01*
X103696921Y-55371613D01*
X103704773Y-55393557D01*
X103710437Y-55416166D01*
X103713856Y-55439221D01*
X103715000Y-55462500D01*
X103715000Y-56037500D01*
X103713856Y-56060779D01*
X103710437Y-56083834D01*
X103704773Y-56106443D01*
X103696921Y-56128387D01*
X103686956Y-56149457D01*
X103674974Y-56169448D01*
X103661090Y-56188168D01*
X103645438Y-56205438D01*
X103628168Y-56221090D01*
X103609448Y-56234974D01*
X103589457Y-56246956D01*
X103568387Y-56256921D01*
X103546443Y-56264773D01*
X103523834Y-56270437D01*
X103500779Y-56273856D01*
X103477500Y-56275000D01*
X103002500Y-56275000D01*
X102979221Y-56273856D01*
X102956166Y-56270437D01*
X102933557Y-56264773D01*
X102911613Y-56256921D01*
X102890543Y-56246956D01*
X102870552Y-56234974D01*
X102851832Y-56221090D01*
X102834562Y-56205438D01*
X102818910Y-56188168D01*
X102805026Y-56169448D01*
X102793044Y-56149457D01*
X102783079Y-56128387D01*
X102775227Y-56106443D01*
X102769563Y-56083834D01*
X102766144Y-56060779D01*
X102765000Y-56037500D01*
X102765000Y-55462500D01*
X102766144Y-55439221D01*
X102769563Y-55416166D01*
X102775227Y-55393557D01*
X102783079Y-55371613D01*
X102793044Y-55350543D01*
X102805026Y-55330552D01*
X102818910Y-55311832D01*
X102834562Y-55294562D01*
X102851832Y-55278910D01*
X102870552Y-55265026D01*
X102890543Y-55253044D01*
X102911613Y-55243079D01*
X102933557Y-55235227D01*
X102956166Y-55229563D01*
X102979221Y-55226144D01*
X103002500Y-55225000D01*
X103477500Y-55225000D01*
X103500779Y-55226144D01*
G37*
M02*
